<?xml version="1.0" encoding="UTF-8"?>
<!DOCTYPE svg PUBLIC "-//W3C//DTD SVG 1.1//EN" "http://www.w3.org/Graphics/SVG/1.1/DTD/svg11.dtd">
<!-- Creator: CorelDRAW 2019 (64-Bit) -->
<svg xmlns="http://www.w3.org/2000/svg" xml:space="preserve" width="119.943mm" height="296.334mm" version="1.1" style="shape-rendering:geometricPrecision; text-rendering:geometricPrecision; image-rendering:optimizeQuality; fill-rule:evenodd; clip-rule:evenodd"
viewBox="0 0 12479.96 30833.27"
 xmlns:xlink="http://www.w3.org/1999/xlink"
 xmlns:xodm="http://www.corel.com/coreldraw/odm/2003">
 <defs>
  <style type="text/css">
   <![CDATA[
    .fil77 {fill:#D9DADA}
    .fil78 {fill:#2B2A29}
    .fil10 {fill:#E3E1E2}
    .fil76 {fill:#C9C7C8}
    .fil11 {fill:#B4B1B2}
    .fil15 {fill:#A2A19E}
    .fil7 {fill:#9F9EA1}
    .fil9 {fill:#878587}
    .fil75 {fill:#848282}
    .fil14 {fill:#646363}
    .fil79 {fill:#615D5E}
    .fil74 {fill:#5B5455}
    .fil20 {fill:#565354}
    .fil8 {fill:#525051}
    .fil13 {fill:#413F3E}
    .fil80 {fill:#3A3635}
    .fil73 {fill:#353130}
    .fil19 {fill:#35302F}
    <!-- .fil3 {fill:} -->
    .fil39 {fill:#3E3E3D;fill-rule:nonzero}
    .fil38 {fill:#2B2A29;fill-rule:nonzero}
    .fil52 {fill:#FDE287;fill-rule:nonzero}
    .fil28 {fill:#DCDADA;fill-rule:nonzero}
    .fil37 {fill:#D58A8D;fill-rule:nonzero}
    .fil56 {fill:#CA8584;fill-rule:nonzero}
    .fil2 {fill:#35302F;fill-rule:nonzero}
    .fil50 {fill:url(#id0)}
    .fil46 {fill:url(#id1)}
    .fil35 {fill:url(#id2)}
    .fil33 {fill:url(#id3)}
    .fil0 {fill:url(#id4)}
    .fil40 {fill:url(#id5)}
    .fil24 {fill:url(#id6)}
    .fil49 {fill:url(#id7)}
    .fil32 {fill:url(#id8)}
    .fil43 {fill:url(#id9)}
    .fil45 {fill:url(#id10)}
    .fil23 {fill:url(#id11)}
    .fil26 {fill:url(#id12)}
    .fil48 {fill:url(#id13)}
    .fil47 {fill:url(#id14)}
    .fil44 {fill:url(#id15)}
    .fil17 {fill:url(#id16)}
    .fil70 {fill:url(#id17)}
    .fil59 {fill:url(#id18)}
    .fil18 {fill:url(#id19)}
    .fil31 {fill:url(#id20)}
    .fil64 {fill:url(#id21)}
    .fil72 {fill:url(#id22)}
    .fil42 {fill:url(#id23)}
    .fil69 {fill:url(#id24)}
    .fil4 {fill:url(#id25)}
    .fil12 {fill:url(#id26)}
    .fil55 {fill:url(#id27)}
    .fil41 {fill:url(#id28)}
    .fil5 {fill:url(#id29)}
    .fil25 {fill:url(#id30)}
    .fil30 {fill:url(#id31)}
    .fil29 {fill:url(#id32)}
    .fil34 {fill:url(#id33)}
    .fil62 {fill:url(#id34)}
    .fil58 {fill:url(#id35)}
    .fil66 {fill:url(#id36)}
    .fil27 {fill:url(#id37)}
    .fil61 {fill:url(#id38)}
    .fil54 {fill:url(#id39)}
    .fil68 {fill:url(#id40)}
    .fil57 {fill:url(#id41)}
    .fil60 {fill:url(#id42)}
    .fil63 {fill:url(#id43)}
    .fil53 {fill:url(#id44)}
    .fil67 {fill:url(#id45)}
    .fil1 {fill:url(#id46)}
    .fil21 {fill:url(#id47)}
    .fil22 {fill:url(#id48)}
    .fil36 {fill:url(#id49)}
    .fil65 {fill:url(#id50)}
    .fil71 {fill:url(#id51)}
    .fil6 {fill:url(#id52)}
    .fil51 {fill:url(#id53)}
    .fil16 {fill:url(#id54)}
   ]]>
  </style>
  <linearGradient id="id0" gradientUnits="userSpaceOnUse" x1="6151.36" y1="8679.94" x2="6151.36" y2="9323.63">
   <stop offset="0" style="stop-opacity:1; stop-color:#5A5657"/>
   <stop offset="1" style="stop-opacity:1; stop-color:#34302F"/>
  </linearGradient>
  <linearGradient id="id1" gradientUnits="userSpaceOnUse" xlink:href="#id0" x1="4661.56" y1="8679.94" x2="4661.56" y2="9323.63">
  </linearGradient>
  <linearGradient id="id2" gradientUnits="userSpaceOnUse" x1="9166.03" y1="17069.27" x2="9166.03" y2="16104.78">
   <stop offset="0" style="stop-opacity:1; stop-color:#34302F"/>
   <stop offset="0.521569" style="stop-opacity:1; stop-color:#545051"/>
   <stop offset="1" style="stop-opacity:1; stop-color:#34302F"/>
  </linearGradient>
  <linearGradient id="id3" gradientUnits="userSpaceOnUse" xlink:href="#id2" x1="3003.4" y1="17104.79" x2="3003.4" y2="16234.17">
  </linearGradient>
  <linearGradient id="id4" gradientUnits="userSpaceOnUse" x1="3863.18" y1="15422.88" x2="5870.27" y2="15422.88">
   <stop offset="0" style="stop-opacity:1; stop-color:#545051"/>
   <stop offset="1" style="stop-opacity:1; stop-color:#34302F"/>
  </linearGradient>
  <linearGradient id="id5" gradientUnits="userSpaceOnUse" x1="3185.24" y1="9071.89" x2="9066.28" y2="9071.89">
   <stop offset="0" style="stop-opacity:1; stop-color:#474343"/>
   <stop offset="0.501961" style="stop-opacity:1; stop-color:#34302F"/>
   <stop offset="1" style="stop-opacity:1; stop-color:#474343"/>
  </linearGradient>
  <linearGradient id="id6" gradientUnits="userSpaceOnUse" x1="6084.71" y1="22542.27" x2="6084.71" y2="28704.6">
   <stop offset="0" style="stop-opacity:1; stop-color:#34302F"/>
   <stop offset="1" style="stop-opacity:1; stop-color:#4C4746"/>
  </linearGradient>
  <linearGradient id="id7" gradientUnits="userSpaceOnUse" x1="6151.36" y1="8707.23" x2="6151.36" y2="9577.63">
   <stop offset="0" style="stop-opacity:1; stop-color:#4D4848"/>
   <stop offset="0.25098" style="stop-opacity:1; stop-color:#4D4848"/>
   <stop offset="1" style="stop-opacity:1; stop-color:#9D9C9E"/>
  </linearGradient>
  <linearGradient id="id8" gradientUnits="userSpaceOnUse" x1="3785.41" y1="16179.44" x2="4008.86" y2="16179.44">
   <stop offset="0" style="stop-opacity:1; stop-color:#FEFEFE"/>
   <stop offset="0.74902" style="stop-opacity:1; stop-color:#6C6A6B"/>
   <stop offset="1" style="stop-opacity:1; stop-color:#6C6A6B"/>
  </linearGradient>
  <linearGradient id="id9" gradientUnits="userSpaceOnUse" x1="6131.71" y1="8346.11" x2="6131.71" y2="9014.48">
   <stop offset="0" style="stop-opacity:1; stop-color:#5C5A5A"/>
   <stop offset="0.231373" style="stop-opacity:1; stop-color:#5C5A5A"/>
   <stop offset="0.760784" style="stop-opacity:1; stop-color:#34302F"/>
   <stop offset="1" style="stop-opacity:1; stop-color:#34302F"/>
  </linearGradient>
  <linearGradient id="id10" gradientUnits="userSpaceOnUse" xlink:href="#id7" x1="4661.7" y1="8707.23" x2="4661.7" y2="9577.63">
  </linearGradient>
  <linearGradient id="id11" gradientUnits="userSpaceOnUse" x1="6084.7" y1="22542.23" x2="6084.7" y2="28704.62">
   <stop offset="0" style="stop-opacity:1; stop-color:#34302F"/>
   <stop offset="1" style="stop-opacity:1; stop-color:#636163"/>
  </linearGradient>
  <linearGradient id="id12" gradientUnits="userSpaceOnUse" x1="6084.71" y1="22542.27" x2="6084.71" y2="28704.6">
   <stop offset="0" style="stop-opacity:1; stop-color:#34302F"/>
   <stop offset="1" style="stop-opacity:1; stop-color:#403B3A"/>
  </linearGradient>
  <linearGradient id="id13" gradientUnits="userSpaceOnUse" xlink:href="#id0" x1="7656.81" y1="8679.94" x2="7656.81" y2="9323.63">
  </linearGradient>
  <linearGradient id="id14" gradientUnits="userSpaceOnUse" xlink:href="#id7" x1="7656.67" y1="8707.23" x2="7656.67" y2="9577.63">
  </linearGradient>
  <linearGradient id="id15" gradientUnits="userSpaceOnUse" x1="6122.93" y1="7989.09" x2="6122.93" y2="10077.92">
   <stop offset="0" style="stop-opacity:1; stop-color:#6C6A6B"/>
   <stop offset="0.0901961" style="stop-opacity:1; stop-color:#6C6A6B"/>
   <stop offset="0.45098" style="stop-opacity:1; stop-color:#ADACAE"/>
   <stop offset="0.709804" style="stop-opacity:1; stop-color:#6C6A6B"/>
   <stop offset="1" style="stop-opacity:1; stop-color:#34302F"/>
  </linearGradient>
  <linearGradient id="id16" gradientUnits="userSpaceOnUse" x1="8044.87" y1="20913.87" x2="9665.18" y2="20691.49">
   <stop offset="0" style="stop-opacity:1; stop-color:#34302F"/>
   <stop offset="1" style="stop-opacity:1; stop-color:#838184"/>
  </linearGradient>
  <linearGradient id="id17" gradientUnits="userSpaceOnUse" x1="9166.03" y1="17069.27" x2="9166.03" y2="16104.86">
   <stop offset="0" style="stop-opacity:1; stop-color:#474140"/>
   <stop offset="0.521569" style="stop-opacity:1; stop-color:#636061"/>
   <stop offset="1" style="stop-opacity:1; stop-color:#474140"/>
  </linearGradient>
  <linearGradient id="id18" gradientUnits="userSpaceOnUse" xlink:href="#id2" x1="3655.47" y1="19349.08" x2="8750.46" y2="19349.08">
  </linearGradient>
  <linearGradient id="id19" gradientUnits="userSpaceOnUse" x1="8042.39" y1="20914.02" x2="9665.89" y2="20691.63">
   <stop offset="0" style="stop-opacity:1; stop-color:#C8C3C3"/>
   <stop offset="1" style="stop-opacity:1; stop-color:#DFDEDF"/>
  </linearGradient>
  <linearGradient id="id20" gradientUnits="userSpaceOnUse" x1="6061.25" y1="22558.7" x2="6061.18" y2="28681.71">
   <stop offset="0" style="stop-opacity:1; stop-color:#34302F"/>
   <stop offset="1" style="stop-opacity:1; stop-color:#484241"/>
  </linearGradient>
  <linearGradient id="id21" gradientUnits="userSpaceOnUse" xlink:href="#id17" x1="3003.4" y1="17104.79" x2="3003.4" y2="16234.17">
  </linearGradient>
  <linearGradient id="id22" gradientUnits="userSpaceOnUse" xlink:href="#id17" x1="9166.03" y1="17069.27" x2="9166.03" y2="16104.78">
  </linearGradient>
  <linearGradient id="id23" gradientUnits="userSpaceOnUse" xlink:href="#id11" x1="8277.39" y1="8265.78" x2="8660.99" y2="7014.05">
  </linearGradient>
  <linearGradient id="id24" gradientUnits="userSpaceOnUse" xlink:href="#id17" x1="9166.03" y1="17069.27" x2="9166.03" y2="16104.78">
  </linearGradient>
  <linearGradient id="id25" gradientUnits="userSpaceOnUse" x1="7528.71" y1="24380.98" x2="8993.13" y2="23348.23">
   <stop offset="0" style="stop-opacity:1; stop-color:#6C6A6B"/>
   <stop offset="0.25098" style="stop-opacity:1; stop-color:#6C6A6B"/>
   <stop offset="1" style="stop-opacity:1; stop-color:#FEFEFE"/>
  </linearGradient>
  <linearGradient id="id26" gradientUnits="userSpaceOnUse" x1="7134.12" y1="23431.53" x2="9039.35" y2="23008.17">
   <stop offset="0" style="stop-opacity:1; stop-color:#BDBAB9"/>
   <stop offset="0.25098" style="stop-opacity:1; stop-color:#BDBAB9"/>
   <stop offset="1" style="stop-opacity:1; stop-color:#FEFEFE"/>
  </linearGradient>
  <linearGradient id="id27" gradientUnits="userSpaceOnUse" x1="6033.25" y1="22610.89" x2="6033.25" y2="28608.89">
   <stop offset="0" style="stop-opacity:1; stop-color:#302928"/>
   <stop offset="1" style="stop-opacity:1; stop-color:#3B2E2C"/>
  </linearGradient>
  <linearGradient id="id28" gradientUnits="userSpaceOnUse" xlink:href="#id25" x1="9987.73" y1="8545.53" x2="10251.38" y2="7729.35">
  </linearGradient>
  <linearGradient id="id29" gradientUnits="userSpaceOnUse" x1="8389.41" y1="24734.66" x2="8436.69" y2="25824.69">
   <stop offset="0" style="stop-opacity:1; stop-color:#FEFEFE"/>
   <stop offset="0.94902" style="stop-opacity:1; stop-color:#6C6A6B"/>
   <stop offset="1" style="stop-opacity:1; stop-color:#6C6A6B"/>
  </linearGradient>
  <linearGradient id="id30" gradientUnits="userSpaceOnUse" xlink:href="#id6" x1="6084.71" y1="22542.27" x2="6084.71" y2="28704.6">
  </linearGradient>
  <linearGradient id="id31" gradientUnits="userSpaceOnUse" x1="6136.25" y1="22542.27" x2="6136.25" y2="28704.6">
   <stop offset="0" style="stop-opacity:1; stop-color:#34302F"/>
   <stop offset="1" style="stop-opacity:1; stop-color:#5A5657"/>
  </linearGradient>
  <linearGradient id="id32" gradientUnits="userSpaceOnUse" xlink:href="#id31" x1="6033.74" y1="22542.27" x2="6033.74" y2="28704.6">
  </linearGradient>
  <linearGradient id="id33" gradientUnits="userSpaceOnUse" xlink:href="#id8" x1="4326.39" y1="17135.56" x2="4326.39" y2="16353.62">
  </linearGradient>
  <linearGradient id="id34" gradientUnits="userSpaceOnUse" xlink:href="#id17" x1="3003.4" y1="17104.79" x2="3003.4" y2="16234.17">
  </linearGradient>
  <linearGradient id="id35" gradientUnits="userSpaceOnUse" x1="6084.64" y1="22542.12" x2="6084.64" y2="28704.74">
   <stop offset="0" style="stop-opacity:1; stop-color:#302928"/>
   <stop offset="1" style="stop-opacity:1; stop-color:#362C2A"/>
  </linearGradient>
  <linearGradient id="id36" gradientUnits="userSpaceOnUse" xlink:href="#id17" x1="9166.03" y1="17069.27" x2="9166.03" y2="16104.78">
  </linearGradient>
  <linearGradient id="id37" gradientUnits="userSpaceOnUse" xlink:href="#id6" x1="6084.79" y1="22542.19" x2="6084.79" y2="28704.6">
  </linearGradient>
  <linearGradient id="id38" gradientUnits="userSpaceOnUse" xlink:href="#id17" x1="3003.4" y1="17104.79" x2="3003.4" y2="16234.17">
  </linearGradient>
  <linearGradient id="id39" gradientUnits="userSpaceOnUse" x1="6084.71" y1="22542.27" x2="6084.71" y2="28704.6">
   <stop offset="0" style="stop-opacity:1; stop-color:#302928"/>
   <stop offset="1" style="stop-opacity:1; stop-color:#4A3835"/>
  </linearGradient>
  <linearGradient id="id40" gradientUnits="userSpaceOnUse" xlink:href="#id17" x1="9166.03" y1="17069.27" x2="9166.03" y2="16104.78">
  </linearGradient>
  <linearGradient id="id41" gradientUnits="userSpaceOnUse" x1="6084.71" y1="22542.33" x2="6084.71" y2="28704.46">
   <stop offset="0" style="stop-opacity:1; stop-color:#302928"/>
   <stop offset="1" style="stop-opacity:1; stop-color:#3F312F"/>
  </linearGradient>
  <linearGradient id="id42" gradientUnits="userSpaceOnUse" xlink:href="#id17" x1="3003.4" y1="17104.79" x2="3003.4" y2="16234.17">
  </linearGradient>
  <linearGradient id="id43" gradientUnits="userSpaceOnUse" xlink:href="#id17" x1="3003.4" y1="17104.79" x2="3003.4" y2="16234.17">
  </linearGradient>
  <linearGradient id="id44" gradientUnits="userSpaceOnUse" xlink:href="#id41" x1="6084.79" y1="22542.19" x2="6084.79" y2="28704.74">
  </linearGradient>
  <linearGradient id="id45" gradientUnits="userSpaceOnUse" xlink:href="#id17" x1="9166.03" y1="17069.27" x2="9166.03" y2="16104.78">
  </linearGradient>
  <linearGradient id="id46" gradientUnits="userSpaceOnUse" x1="6306.96" y1="15422.88" x2="8738.9" y2="15422.88">
   <stop offset="0" style="stop-opacity:1; stop-color:#34302F"/>
   <stop offset="1" style="stop-opacity:1; stop-color:#545051"/>
  </linearGradient>
  <linearGradient id="id47" gradientUnits="userSpaceOnUse" x1="8542.96" y1="6579.12" x2="10171.84" y2="6579.12">
   <stop offset="0" style="stop-opacity:1; stop-color:#352826"/>
   <stop offset="1" style="stop-opacity:1; stop-color:#373227"/>
  </linearGradient>
  <linearGradient id="id48" gradientUnits="userSpaceOnUse" x1="6136.47" y1="30897.78" x2="6136.47" y2="27673.69">
   <stop offset="0" style="stop-opacity:1; stop-color:#4F4B4B"/>
   <stop offset="1" style="stop-opacity:1; stop-color:#423E3D"/>
  </linearGradient>
  <linearGradient id="id49" gradientUnits="userSpaceOnUse" xlink:href="#id8" x1="7843.04" y1="17107.06" x2="7843.04" y2="16310.8">
  </linearGradient>
  <linearGradient id="id50" gradientUnits="userSpaceOnUse" xlink:href="#id17" x1="3003.4" y1="17104.79" x2="3003.4" y2="16234.17">
  </linearGradient>
  <linearGradient id="id51" gradientUnits="userSpaceOnUse" xlink:href="#id17" x1="9166.03" y1="17069.27" x2="9166.03" y2="16104.78">
  </linearGradient>
  <radialGradient id="id52" gradientUnits="userSpaceOnUse" gradientTransform="matrix(0.801383 -0 -0 -0.801371 1668 46034)" cx="8397.56" cy="25554.95" r="65.3" fx="8397.56" fy="25554.95">
   <stop offset="0" style="stop-opacity:1; stop-color:#7E7C7E"/>
   <stop offset="1" style="stop-opacity:1; stop-color:#5C5A5A"/>
  </radialGradient>
  <radialGradient id="id53" gradientUnits="userSpaceOnUse" gradientTransform="matrix(3.33791 -0 -0 -3.3379 -17127 27250)" cx="7325.96" cy="6281.95" r="99.68" fx="7325.96" fy="6281.95">
   <stop offset="0" style="stop-opacity:1; stop-color:#636163"/>
   <stop offset="1" style="stop-opacity:1; stop-color:#34302F"/>
  </radialGradient>
  <radialGradient id="id54" gradientUnits="userSpaceOnUse" gradientTransform="matrix(1.65736 -0 -0 -1.65751 -5815 66642)" cx="8845.67" cy="25077" r="64.76" fx="8845.67" fy="25077">
   <stop offset="0" style="stop-opacity:1; stop-color:#838184"/>
   <stop offset="1" style="stop-opacity:1; stop-color:#34302F"/>
  </radialGradient>
 </defs>
 <g id="Layer_x0020_1">
  <metadata id="CorelCorpID_0Corel-Layer"/>
  <path class="fil0" d="M3863.18 12741.47c0,0 321.77,4908.27 199.13,5456.97 -12.26,55.01 -30.34,118.52 -52.74,188.07l1860.63 0 0 -5927.4 -2007.02 282.36z"/>
  <path class="fil1" d="M8114.98 18198.44c-122.78,-548.7 198.99,-5456.97 198.99,-5456.97l-2007.09 -282.36 0 5927.4 1860.84 0c-22.33,-69.55 -40.48,-133.06 -52.74,-188.07z"/>
  <path class="fil2" d="M10207.01 6799.32l-35.39 34.94 0 199.64c0,51.95 -42.11,94 -94,94l-1434.42 0c-51.89,0 -94.14,-42.05 -94.14,-94l0 -248.13 448.28 0 21.81 -21.77 1152.48 0 35.39 35.31z"/>
  <path class="fil3" d="M2787.26 9611.46l-22.26 0c86.62,977.25 450.51,1867.3 663.4,2243.45 0,0 -324.25,-1206.58 -143.56,-2270.95 -195.58,32.12 -254.99,73.45 -497.58,27.5zm6306.19 -1981.17l0.01 -0.18 0.05 0 0.72 -8.86 0 -0.63 0.28 -2.91 0.28 -4.11 0.07 -1.21 0.21 -2.26c0.09,-1.21 0.2,-2.41 0.29,-3.62l0.06 -1.78 1.66 -22.77 -0.18 3.69 0.5 -7.09 0.22 -3.61 0.27 -3.9 0.58 -8.01 0.28 -4.68 0.27 -3.75 0.65 -8.88 0.35 -5.88 0.28 -3.48 0.65 -9.78 0.43 -7.16 0.21 -3.05 0.71 -10.63 0.57 -8.57 0.15 -2.41 0.71 -11.49 0.63 -10.07 0.06 -0.06c27.17,-435.3 30.16,-583.86 17.12,-366.67 3.3,-99.12 5.79,-207.48 6.61,-320.71l1043.47 0c0,0 0,-42.74 0,-79.55 0,-10.32 1.23,-23.58 -1.79,-38.89l0 -0.01c-7.65,-38.81 -42.55,-90.78 -193.79,-141.37 -210.82,-70.33 -406.43,-125.34 -473.63,-143.56 -30.53,-8.31 -147.03,-10.32 -264.99,-10.03l0.02 -0.05c-39.2,0 -78.38,0.22 -114.69,0.86l0 0.09c-41.68,0.52 -79.54,1.18 -108.91,1.76 -18.32,-104.45 -39.66,-207.83 -64.03,-310.13 39.91,-40.28 87.18,-85.93 141.01,-134.44 94,-84.29 207.71,-177.3 337.03,-265.05 262.37,-178.86 499.71,-321.15 622,-336.88 0,-2.05 0.22,-4.04 0.43,-6.24 9.58,-92.08 33.83,-174.1 65.58,-245.36 -54.95,20.67 -125.05,53.28 -214.12,103.53 154.62,-87.29 251.92,-121.48 312.94,-132.03 37.86,-74.79 83.45,-146.81 134.56,-190.84 0,0 -58.91,-113.79 -568.47,211.55 -355.23,226.99 -769.34,389.29 -987.72,466.81 -97.62,-273.1 -219.25,-537.61 -365.82,-793.2l-39.98 -34.88 -1.22 -1.06 -1.9 -1.63 -11.13 -9.57 -11.21 -9.56 -11.26 -9.56 -6.67 -5.68 -4.68 -3.9 -11.4 -9.56 -11.5 -9.65 -11.55 -9.57 -3.96 -3.33 -7.66 -6.24 -11.71 -9.57 -11.7 -9.56 -2.12 -1.72 -2.21 -1.76c-607.75,-494.76 -1455.48,-982.42 -1984.55,-1042.33 -38.84,-4.46 -73.66,-8.71 -117.95,0 -822,93.09 -2413.32,1218.21 -2678.31,1799.18 -14.02,30.73 -26.89,64.42 -38.8,100.45 -223.32,-89.31 -515.83,-221.92 -777.29,-389.09 -185.65,-114.69 -309.42,-178.92 -393.59,-206.45 96.55,151.4 86.64,114.69 116.34,330.34 171.55,110.04 615.64,317.85 1005.7,451.07 -150.98,723.36 -46.62,1982.22 -46.62,1982.22l218.28 207.86c0,0 680.26,699.99 818.51,944.57 53.73,95.14 218.57,171.46 450.16,229.09 -336.5,103.67 -660.05,312.57 -825.11,717.79 0,0 -401.14,1121.87 -502.04,1986.65l-0.02 0.04c-1.95,16.65 -3.77,33.19 -5.48,49.65l-0.11 1.13c-1.59,15.32 -3.07,30.55 -4.45,45.68l-0.48 5.21c-1.25,13.87 -2.41,27.65 -3.48,41.34l-0.5 6.48c-0.97,12.69 -1.84,25.33 -2.64,37.86l-0.75 12.04c-0.65,10.67 -1.22,21.27 -1.73,31.8l-0.68 14.45c-0.44,9.96 -0.81,19.85 -1.12,29.67l-0.51 17.29c-0.22,8.75 -0.4,17.45 -0.53,26.1l-0.22 20.41c-0.04,7.08 -0.04,14.12 -0.02,21.11 0.02,8.25 0.11,16.41 0.24,24.53l0.29 15.51c0.2,8.79 0.47,17.51 0.79,26.15l0.28 7.02 0.3 6.98c0.81,18.47 1.83,36.67 3.23,54.43l0 0.08 0 0.01 0 0c0.83,10.51 1.87,21.43 3.06,32.66l0.79 7.36c0.95,8.49 2,17.17 3.13,26.05 0.83,6.54 1.72,13.21 2.66,19.98 0.76,5.46 1.54,11 2.37,16.6 46.75,318.52 200.32,849.76 395.74,1417.3l-0.07 -0.16 1.94 5.6 8.69 25.13 15.35 44.18 12.74 36.39 9.82 27.9c6.82,19.33 13.68,38.7 20.58,58.08l6.57 18.43c247.12,692.04 543.08,1404.29 773.79,1827.02l1.77 3.26c13.73,25.12 27.26,49.24 40.5,72.22l3.53 6.08c7.15,12.36 14.23,24.41 21.24,36.11l6.59 10.94c5.95,9.85 11.85,19.44 17.69,28.79l7.22 11.49c4.13,6.51 8.22,12.9 12.28,19.17 3.91,6.03 7.81,11.93 11.66,17.72 3.13,4.67 6.22,9.28 9.3,13.79l1.76 2.6 0.11 0.09c12.09,17.62 23.92,34.22 35.32,49.15 140.29,183.82 329.44,362.33 541.41,490.92 187.36,140.5 389.19,195.3 590.73,190.76 105.5,2.56 210.92,-13.46 314.21,-52.45 343.23,-105.52 661.88,-354.05 877.59,-614.18l0.33 -0.29c4.04,-5.04 8.01,-9.78 12.05,-14.74 458.68,-564.52 1455.42,-3095.42 1517.16,-3833.91 2.19,-26.06 3.68,-52.69 4.57,-80.01l0.07 -2.53c0.37,-12.53 0.65,-25.2 0.78,-38.02l0.06 -6.23 0.05 -15.54c0,-7.01 -0.04,-14.07 -0.11,-21.15l-0.06 -6.27c-0.17,-12.86 -0.45,-25.84 -0.85,-38.94l-0.14 -4.44c-0.44,-13.56 -0.99,-27.25 -1.66,-41.04l-0.21 -4.31c-0.69,-13.72 -1.5,-27.57 -2.41,-41.52l-0.24 -3.65c-0.98,-14.68 -2.07,-29.48 -3.29,-44.38l-0.11 -1.33c-1.25,-15.16 -2.61,-30.44 -4.09,-45.81l-0.08 -0.92 -0.06 -0.59 -0.01 -0.16c-1.51,-15.57 -3.14,-31.23 -4.88,-46.99l-0.07 -0.7c-1.81,-16.45 -3.76,-33.01 -5.82,-49.66l-0.02 -0.04c-107.13,-864.89 -534.17,-1987.42 -534.17,-1987.42 -157.93,-364.51 -452.27,-570.24 -770.35,-683.37 313.61,-60.23 542.35,-148.01 607.6,-263.5 42.68,-75.5 169.14,-227.92 310.31,-388.71 1032.81,940.52 513.11,3151.99 444.2,3424.36l16.02 28c329.22,-580.24 1019.21,-2383.38 486.11,-3841.62 -36.44,-99.53 -79.05,-192.62 -126.33,-280.38 -95.14,45.66 -199.27,81.81 -308.15,110.38l80.11 -76.32 134.54 -128.14 0.07 -0.06 0 -0.15 0 -0.15 0 -0.67zm5.36 -72.84c1.26,-18.2 2.68,-39.46 4.19,-63.52l1.36 -20.71c-2.84,46.73 -5.46,84.44 -7.37,111.3l0.42 -5.95 1.39 -21.12zm-6289.26 952.98l425.78 -151.39 0 -252.34c210.4,-4.59 118.81,50.46 183.17,-123.87l-519.83 160.57c-37.14,119.29 -66.83,238.57 -89.12,367.03zm222.79 -1784.67l264.86 -4.58 9.91 -344.09 -79.21 0 -89.11 0 -44.56 0 -29.7 0 -14.86 4.59 -42.08 0 -4.95 0 -37.14 4.58 -2.48 0c-64.35,18.36 -262.39,73.42 -472.79,146.82 -212.88,68.82 -195.55,142.22 -195.55,178.91l0 9.19 737.66 4.58zm3383.88 -3202.28c289.61,123.85 465.36,160.57 745.06,316.54l27.23 -4.58 -183.17 -316.57 -0.03 -0.01 -131.2 -188.12 0 -123.85c-235.16,-188.08 -356.45,-504.68 -841.64,-376.22 -393.59,100.96 -413.37,394.58 -631.21,605.64l0 77.97 -32.18 50.46c13.22,-4.73 25.76,-9.86 37.66,-15.31 -11.88,5.45 -24.41,10.57 -37.62,15.31l-180.71 325.74 155.96 -55.04c178.23,-169.77 240.11,-142.24 440.61,-224.81l163.37 -87.15 0 0.01 467.89 0 0 -0.01zm328.37 -212.87c-5.56,-7.31 -11.27,-14.67 -17.21,-22.01 5.94,7.34 11.65,14.68 17.21,22.01zm-35.82 -43.98c-4.33,-4.87 -8.77,-9.73 -13.4,-14.57 4.63,4.84 9.07,9.7 13.4,14.57zm-43.32 -43.27c-5.36,-4.72 -10.95,-9.41 -16.75,-14.05 5.81,4.64 11.39,9.32 16.75,14.05zm-16.77 -14.06c-5.81,-4.64 -11.86,-9.24 -18.16,-13.79 6.29,4.55 12.35,9.15 18.16,13.79zm-27.84 -20.59c-5.82,-4 -11.9,-7.93 -18.17,-11.83 6.26,3.9 12.34,7.85 18.17,11.83zm-1470.11 22150.32c-18.65,-32.75 -37.29,-65.51 -55.57,-97.83 -19.13,-33.46 -37.86,-66.7 -56.57,-100l-0.01 -0.03 0.01 0.03 112.14 197.83zm-265.18 -471.46c-36.45,-65.8 -72.1,-130.58 -106.94,-194.35 34.86,63.78 70.49,128.55 106.94,194.35zm-106.95 -194.38c-19.9,-36.44 -39.56,-72.55 -58.95,-108.36 19.39,35.79 39.05,71.92 58.95,108.36zm-80.68 -148.53c-24.01,-44.44 -47.62,-88.4 -70.84,-131.84 23.22,43.44 46.82,87.4 70.84,131.84zm-848.19 -5698.97c5.89,-15.04 11.71,-29.97 17.43,-44.78 43.18,-111.59 82.66,-217.07 115.49,-313.14 0.14,0 0.21,-0.49 0.27,-0.7 0.29,-1.07 0.72,-2.06 1.13,-3.27l0.06 -0.18 0 -0.02 0 0.02 -134.39 362.06zm134.55 -362.64l0 -0.02c0.35,-0.99 0.65,-1.99 0.92,-2.77l2.91 -8.55 0 -0.02 0 0.02 -3.83 11.34zm16.48 -49.22l6.7 -20.56c0.22,-0.5 0.43,-1.28 0.63,-1.99l0.19 -0.53 0 -0.03 0 0.03 -7.52 23.08zm7.63 -23.45l0.14 -0.37c0.43,-1.28 0.71,-2.27 1.06,-3.46l6.88 0c-107.05,307.1 -183.75,599.17 -184.03,910.82 -0.15,119.02 10.99,240.82 35.87,367.36 61.33,312.84 189.28,847.57 322.34,1383.02 126.62,509.44 257.92,1019.57 340.72,1338.73 0,-0.29 -0.08,-0.78 -0.08,-0.78 52.68,202.82 85.86,329.15 85.86,329.15 0,0 91.02,45.51 258.97,99.53 153.89,49.48 372.44,105.76 644.86,140.5 -26.55,-154.81 -53.56,-296.94 -80.55,-420.34l155.53 0 552.81 70.53 552.96 -70.53 24.61 0c0,0 -42.28,147.68 -98.86,419.13 283.64,-32.54 504.22,-83.51 661.65,-129.79 187.36,-55.3 285.55,-104.28 294.49,-108.83 0.5,-0.21 0.63,-0.21 0.63,-0.21 0,0 155.34,-590.74 327.94,-1274.21 164.04,-649.24 343.61,-1382.75 420.33,-1773.42l0 -0.21c0.15,-0.79 0.27,-1.51 0.42,-2.28 24.82,-126.53 36.01,-248.33 35.87,-367.36 -0.06,-193.32 -29.7,-378.92 -77.62,-565.72 72.95,190.84 158.73,401.1 243.37,611.23 14.61,72.01 23.62,146.5 27.43,223.82 -3.8,-77.31 -12.8,-151.79 -27.41,-223.79 0.42,1.2 1.05,2.77 1.62,3.96 199.07,494.97 390.76,988.09 390.76,1219.48 0,208.79 6.95,533.89 -194.53,1182.91 -93.86,302.85 -233.23,676.24 -439.66,1140.92l0 0c-45.95,103.29 -95.07,211.05 -147.81,323.35l0 0c-160.97,343.12 -355.04,730.51 -588.93,1168.52 23.29,-43.63 46.19,-86.76 68.69,-129.43l0.03 0.02c-58.54,110.93 -119.69,225.04 -183.55,342.58 36.03,-66.31 71.18,-131.53 105.5,-195.71 -73.27,137.02 -150.41,278.99 -231.68,426.07 17.28,-31.29 34.38,-62.36 51.29,-93.18 -16.92,30.82 -34.01,61.88 -51.3,93.16 -52.45,95.07 -106.34,191.61 -162.2,290.87l-0.15 0.27c-27.22,48.22 -54.57,96.5 -82.66,145.76 0,0.27 0,0.27 0,0.27 -0.27,0.72 -0.42,1.78 -0.63,2.77 -97.62,391.89 -273.14,805.05 -841.55,805.05l-254.8 0c-532.89,0 -720.47,-363.17 -822.27,-731.53l-1142.35 -6948.65zm2035.16 7672.17l210.4 0c30,0 58.77,-1.55 86.2,-5.04l0 -0.02c-27.44,3.46 -56.22,5.04 -86.19,5.04l-210.4 0c-65.87,0 -125.14,-8.3 -178.93,-23.27l-0.01 0.04c53.8,14.96 113.07,23.24 178.93,23.24zm383.89 -43.58c4.31,-1.76 8.59,-3.56 12.84,-5.41l-12.84 5.41zm-2559.14 -6354.26l0 0zm748.84 3050.12l0 0zm1100.93 1657.7c4.44,38.15 8.8,76.14 13.1,113.95 -4.29,-37.82 -8.66,-75.79 -13.1,-113.95zm13.53 117.79c4.2,37.07 8.34,73.94 12.39,110.57l0.99 8.96c4.01,36.31 7.95,72.4 11.8,108.16l5.72 53.4 0.28 2.72c3.87,36.42 7.66,72.46 11.34,108.14 -3.69,-35.69 -7.47,-71.7 -11.34,-108.14l-31.18 -283.8zm42.86 395.12c3.54,34.15 6.97,67.9 10.33,101.27 -3.36,-33.37 -6.79,-67.11 -10.33,-101.27zm16.71 165.21c8.3,83.91 16.02,164.86 23.09,242.04 -7.06,-77.19 -14.79,-158.13 -23.09,-242.04zm32.17 343.31c10.64,121.02 19.45,230.81 26.16,325.83 -6.71,-95.04 -15.51,-204.79 -26.16,-325.83zm29.08 368.39c2.22,33.07 4.15,64.15 5.8,92.93 -1.63,-28.75 -3.58,-59.9 -5.8,-92.93zm2711.02 -6156.74c8.63,326.16 -72.24,702.7 -215.42,1156.73 -33.94,107.66 -84.63,260.36 -144.51,442.44 59.88,-182.07 110.58,-334.77 144.52,-442.42 143.18,-454.04 224.05,-830.58 215.41,-1156.75zm-496.57 2019.33c-34.5,107.74 -69.97,220.07 -105.47,335.05 35.49,-114.96 70.97,-227.31 105.47,-335.05zm-231.7 756.99c-20.5,71.07 -40.62,142.27 -60.11,213.11 19.49,-70.85 39.61,-142.04 60.11,-213.11zm-116.57 424.34c-18.07,69.79 -35.35,138.82 -51.59,206.69 16.23,-67.87 33.51,-136.91 51.59,-206.69zm-67.49 274.2c-15.54,67.04 -30.01,132.78 -43.18,196.77 13.16,-63.99 27.64,-129.73 43.18,-196.77zm-43.18 196.8c-13.17,64 -25.06,126.25 -35.44,186.36 10.39,-60.1 22.27,-122.36 35.44,-186.36zm-73.97 467.01c-6.45,69 -9.62,132.89 -9.06,190.69 -0.56,-57.81 2.61,-121.7 9.06,-190.69zm11.58 376.91c2.67,10.25 5.62,20.03 8.85,29.34l-8.85 -29.34zm-104.37 474.05l-39.64 72.75c13.33,-24.4 26.54,-48.64 39.64,-72.75zm143.06 -1880.42l0 0zm-2545.66 2426.34c-1.76,-2.97 -3.48,-5.93 -5.16,-8.97 -7.59,-13.47 -15.33,-27.22 -22.83,-40.48 -428.12,-761.32 -751.95,-1392.54 -997.17,-1918.7l0 0c-779.74,-1673.39 -763.08,-2281.59 -763.08,-2606.69 0,-306.59 335.85,-1071.51 580.41,-1692.22l1.04 -2.66 0.16 -0.37 1.2 -3.05 1.2 -3.04 1.19 -3.04 1.2 -3.03 1.19 -3.04 1.19 -3.03 1.19 -3.03 1.19 -3.03 1.19 -3.03 1.09 -2.76 0.09 -0.26 2.36 -6.03 1.18 -3.01 1.18 -3.02 1.18 -3.01 1188.85 6315.48zm-153.03 -273.6l0.01 0.03 31.44 56.62 0.01 0.03 7.92 14.21 0.01 0.03 23.92 42.88 0.01 0.03 16.07 28.74 0.01 0.03 8.07 14.4 0.01 0.03 16.22 28.93 0.01 0.03 8.15 14.49 0.01 0.03 8.17 14.53 0.01 0.03 8.2 14.56 0.01 0.03 8.22 14.59 0.01 0.03 8.25 14.63 0.01 0.03 8.27 14.65 -153.03 -273.6zm532.9 -21323.69c45.91,-22.73 82.02,-50.76 112.72,-81.56 -30.68,30.8 -66.8,58.83 -112.72,81.56zm148.57 -121.34c17.94,-21.79 34.25,-44.36 50.26,-66.95 -16,22.59 -32.32,45.16 -50.26,66.95zm3528.36 4183.98l0.21 -2.63 0.06 -1.27 0 -0.57 0.65 -7.93 0.14 -1.85 0.15 -2.69 0.08 -0.14 0.27 -3.77 -1.55 20.85zm1488.43 -2854.26c1324.34,-13.76 1891.19,1160.72 1896.16,1165.32l-2514.97 27.51 0 -13.76 19.78 -96.34c2.49,-4.6 2.49,-13.74 4.96,-18.35 14.82,-64.24 259.89,-1133.15 594.07,-1064.38zm-8687.66 -13.04c-1324.33,-13.76 -1891.18,1160.71 -1896.14,1165.32l2514.95 27.51 0 -13.76 -19.76 -96.35c-2.5,-4.6 -2.5,-13.74 -4.97,-18.35 -14.82,-64.24 -259.88,-1133.14 -594.08,-1064.37zm3835.44 19751.09c4.2,37.08 8.33,73.93 12.39,110.57l-12.39 -110.57zm-1747.47 -6026.72l0.05 -0.17 -0.05 0.17zm0.05 -0.17l0 -0.02 0 0.02zm0 -0.02l0.05 -0.17 -0.05 0.17zm0.05 -0.17l0 -0.02 0 0.02zm0 -0.02l0.05 -0.19 -0.05 0.19zm3.88 -11.55l1.08 -3.17 -1.08 3.17zm1.08 -3.17l0 -0.03 0 0.03zm0 -0.03l0.72 -2.1 -0.72 2.1zm0.72 -2.1l0 -0.03 0 0.03zm0 -0.03l0.72 -2.09 -0.72 2.09zm0.72 -2.09l0 -0.03 0 0.03zm0 -0.03l0.35 -1.03 -0.35 1.03zm0.35 -1.03l0 -0.03 0 0.03zm0 -0.03l1.07 -3.15 -1.07 3.15zm1.07 -3.15l0 -0.02 0 0.02zm0 -0.02l0.35 -1.03 -0.35 1.03zm0.35 -1.03l0 -0.03 0 0.03zm0 -0.03l0.35 -1.03 -0.35 1.03zm0.35 -1.03l0 -0.02 0 0.02zm0 -0.02l0.35 -1.03 -0.35 1.03zm0.35 -1.03l0 -0.03 0 0.03zm0 -0.03l0.35 -1.03 -0.35 1.03zm0.35 -1.03l0 -0.02 0 0.02zm0 -0.02l0.35 -1.03 -0.35 1.03zm0.35 -1.03l0 -0.02 0 0.02zm0 -0.02l0.35 -1.03 -0.35 1.03zm0.35 -1.03l0 -0.02 0 0.02zm0 -0.02l1.05 -3.13 -1.05 3.13zm1.05 -3.13l0 -0.02 0 0.02zm0 -0.02l0.35 -1.03 -0.35 1.03zm0.35 -1.03l0 -0.02 0 0.02zm0 -0.02l0.7 -2.07 -0.7 2.07zm0.7 -2.07l0 -0.03 0 0.03zm0 -0.03l0.7 -2.06 -0.7 2.06zm0.7 -2.06l0 -0.03 0 0.03zm0 -0.03l1.04 -3.1 -1.04 3.1zm1.04 -3.1l0 -0.03 0 0.03zm0 -0.03l0.34 -1.02 -0.34 1.02zm0.34 -1.02l0 -0.02 0 0.02zm0 -0.02l2.4 -7.24 -2.4 7.24zm2.4 -7.24l0 -0.02 0 0.02zm7.52 -23.13l0.1 -0.32 -0.1 0.32zm0.1 -0.32l0 -0.02 0 0.02zm-579.97 -6535.47l0 0z"/>
  <path class="fil4" d="M8435.63 25809.95c-355.24,0 -652.21,-153.06 -730.97,-358.43 -50.76,-72.39 -95.99,-201.91 -135.69,-358.65l0 -0.21 -6.1 -24.46 -0.21 -0.78 -1.28 -5.39 -9.07 -37.93c0.07,0 0.07,0 0.15,0.29l8.93 37.63 1.28 5.39 0.21 0.78 6.1 24.46 0 0.21c27.16,107.05 57,201.41 89.33,273.65 99.74,-257.83 464.19,-478.67 918.97,-530.98 66.71,-7.73 132.35,-11.2 196.23,-11.2 198.57,0 380.55,35.51 527.44,98.25l-3.48 -59.77c15.74,196.3 3.9,380.62 -121.51,564.73l-1.7 1.7c-104.22,174.62 -370.7,380.7 -738.62,380.7zm865.3 -887.35l0 0zm-3.48 -59.77l-3.61 -22.76 3.61 22.76zm-3.61 -22.76l0 0zm-858.29 281.58c-315.75,0 -571.74,152.35 -571.74,340.36 0,187.86 255.99,339.93 571.74,339.93 315.82,0 571.74,-152.07 571.74,-339.93 0,-188.01 -255.92,-340.36 -571.74,-340.36z"/>
  <path class="fil5" d="M8435.56 25801.94c-315.75,0 -571.74,-152.07 -571.74,-339.93 0,-188.01 255.99,-340.36 571.74,-340.36 315.82,0 571.74,152.35 571.74,340.36 0,187.86 -255.92,339.93 -571.74,339.93z"/>
  <path class="fil6" d="M8842.47 25554.81c0,131.08 -199.2,237.35 -444.77,237.35 -245.86,0 -445.06,-106.27 -445.06,-237.35 0,-130.8 199.2,-237.07 445.06,-237.07 245.57,0 444.77,106.27 444.77,237.07z"/>
  <path class="fil2" d="M8655.32 25556.8c0,66.28 -100.45,119.59 -224.3,119.59 -124,0 -224.37,-53.31 -224.37,-119.59 0,-66.01 100.38,-119.53 224.37,-119.53 123.85,0 224.3,53.52 224.3,119.53z"/>
  <path class="fil7" d="M3809.6 14919.62l39.61 1046.02 4.95 4.59c2.47,0 2.47,0 4.94,0l12.38 0c24.75,-4.59 44.55,-22.93 44.55,-50.46l-42.08 -1068.96c9.9,-4.59 14.85,-18.35 14.85,-32.12l0 -119.28c-47.03,78 -44.55,133.05 -79.21,220.22z"/>
  <path class="fil8" d="M8478.7 24846.06l-53.15 -205.94c-75.65,-112.17 -171.31,-321.5 -270.73,-528.41 -22.51,-46.42 -45.64,-66.72 -70.03,-66.72 -85.03,0 -180.68,250.9 -270.72,501.34 -90.03,250.43 -173.81,501.34 -235.71,500.85 -10.63,0 -21.26,-7.73 -30.63,-25.62 31.26,135.36 66.27,254.77 105.66,342.28l0 0c92.53,-240.28 414.52,-447.68 825.3,-517.78z"/>
  <path class="fil9" d="M8960.12 24833.01l-31.89 -150.36c-32.5,-3.86 -66.89,-6.28 -103.79,-6.28 -81.27,0 -174.44,10.64 -278.85,37.72l-8.75 3.38c-5.63,4.35 -11.88,6.28 -18.76,6.28 -25.63,0 -56.89,-31.42 -92.53,-83.63l53.15 205.94 93.78 -13.54c66.28,-7.73 131.92,-11.11 195.7,-11.11 66.28,0 130.05,3.86 191.95,11.6z"/>
  <path class="fil10" d="M9230.21 24790.94l22.52 111.68 43.14 16.93 -3.13 -59.46 -3.75 -22.72c-13.13,-12.57 -33.14,-28.53 -58.78,-46.42z"/>
  <path class="fil11" d="M9252.73 24902.62l-22.52 -111.68c-62.52,-42.54 -161.31,-91.37 -301.98,-108.29l31.89 150.36c105.66,13.05 204.45,36.74 292.61,69.61z"/>
  <path class="fil12" d="M7552.32 25024.11c-4.11,-7.72 -8.01,-17.01 -11.77,-28.21 -0.5,-1 -1.06,-2.27 -1.56,-3.55 1.06,-4.46 2.06,-9 3.12,-13.26 3.33,15.02 6.8,30.06 10.21,45.01zm1580.04 -514.67c-34.6,-13.96 -73.66,-27.51 -117.04,-38.5l0 0c43.39,10.99 82.45,24.53 117.04,38.5l0 0z"/>
  <path class="fil13" d="M8369.53 24545.89c-83.16,-401.35 -198.45,-738.23 -288.82,-1109.15 -74.28,242.69 -163.52,489.01 -263.86,681.72 -102.55,197.06 -192.36,507.85 -275.51,864.29 3.33,15.21 6.66,30.42 9.98,45.64 9.98,18.11 20.52,26.09 31.6,26.09 61.53,0 145.24,-250.66 235.04,-501.33 90.36,-250.66 185.71,-501.34 271.08,-501.34 24.39,0 47.66,20.29 69.84,66.65 74.84,155.04 146.91,311.52 210.66,427.43z"/>
  <path class="fil14" d="M8080.71 23436.73c90.37,370.92 205.66,707.8 288.82,1109.15 60.42,110.13 113.08,184.74 152.44,184.74 6.65,0 13.3,-2.16 18.84,-6.51l8.88 -2.9c-6.11,1.46 -12.2,2.9 -18.3,4.35l-31.04 -234.01 0 0 -208.43 -1597.45c-46.01,103.59 -95.35,211.54 -148.01,323.83l-63.2 218.79zm752.8 1012.08l-42.13 -1.45 42.13 1.45zm-42.68 -1.45c0,0 0,0 0,0l0 0c0,0 0,0 0,0l0 0z"/>
  <path class="fil15" d="M9014.22 24474.9c-53.77,-13.77 -114.19,-23.18 -180.71,-26.09 66.52,2.9 126.94,12.32 180.71,26.09l0 0z"/>
  <path class="fil16" d="M9316.11 24862.83c0,0 -7.23,-8.79 -22.26,-22.76 -52.75,-49.27 -201.26,-160.79 -464.13,-160.79 -81.81,0 -174.68,10.71 -279.25,37.51 -6.02,1.7 -12.19,3.26 -18.35,4.96l-30.63 -234.09c104.78,-31.97 202.04,-44.52 289.95,-44.73 0.07,0 0.14,0 0.28,0 0.21,0 0.35,0 0.56,0 83.09,0.21 157.81,11.27 223.03,28 43.39,10.99 82.45,24.53 117.04,38.5 110.66,45.01 173.68,97.05 175.81,98.83 0,0 0.14,0 0.14,0 0,0 164.69,105.77 7.8,254.57zm-22.26 -22.76l0 0zm-278.54 -369.14l0 0zm292.99 137.32l0 0z"/>
  <path class="fil17" d="M9295.62 24492.71c-384.66,0 -393.02,-864.6 -442.01,-1284 -20.77,-179.07 -65.15,-745.99 -121.23,-1459.52 201.48,-649.01 194.53,-974.12 194.53,-1182.89 0,-231.39 -191.69,-724.52 -390.76,-1219.49 -53.45,-605.2 -106.48,-1146.17 -152.91,-1501.27 -49.34,-377.15 36.65,-583.93 181.26,-689.28 -65.5,-88.75 -154.68,-117.25 -287.32,-122.29l1.63 0c334.04,12.55 391.54,177.59 488.44,1082.16 105.91,987.88 223.53,2234.58 352.9,3069.62 113,729.27 172.13,2795.27 185.31,3306.96 -3.33,0 -6.67,0 -9.85,0z"/>
  <path class="fil18" d="M9308.3 24608.27c0,0 -0.99,-41.55 -2.83,-115.56l0 0c1.91,74.01 2.83,115.56 2.83,115.56z"/>
  <path class="fil19" d="M9316.08 24623.32c0,0 -197.51,-166.73 -516.07,-166.73 -0.46,0 -0.46,0 -0.46,0l0 0c-0.46,0 -0.46,0 -0.46,0 -87.83,0 -185.22,13.7 -289.89,45.68l0 0 -208.89 -1598.79c206.61,-463.65 345.87,-835.94 439.62,-1139.71 56.44,712.6 100.58,1281.32 121.52,1459.47 48.7,420.25 57.34,1283.6 441.9,1283.6 3.18,0 6.37,0 10.01,0 1.82,75.37 2.73,116.48 2.73,116.48l0 0zm-922.93 -7144.32l-59.16 -427.1 -49.15 -4.57 -97.85 0c-29.12,2.28 -56.44,4.57 -83.28,6.85 -14.57,559.58 -13.2,993.53 16.84,1148.85 69.63,185 132.43,365.44 177.94,543.59 73.27,189.57 159.28,399.69 243.93,609.82l0 0c0,2.28 0.91,4.57 1.36,4.57l0 0c-53.24,-605.25 -106.49,-1146.56 -152.91,-1500.59 -20.03,-153.03 -17.75,-278.64 2.28,-381.42z"/>
  <path class="fil20" d="M8334 17051.9l59.16 427.1c28.67,-148.46 93.29,-246.67 178.85,-308.34 -56.88,-77.65 -131.53,-107.35 -238.01,-118.76z"/>
  <path class="fil21" d="M10171.63 6785.78l-1043.38 0c0.14,-7.23 0.14,-14.54 0.14,-21.76l1043.25 0c0,12.76 0,21.76 0,21.76z"/>
  <path class="fil2" d="M5407.06 29995.4c0,434.97 291.76,792.54 665.07,833.85l3.72 0.48c20.34,2.26 40.97,3.54 61.89,3.54 1.06,0 2.12,0 3.18,0l1.47 -0.03 2.08 0.03c406.99,0 737.05,-375.16 737.05,-837.87 0,-27.72 -3.67,-3479.73 -3.67,-3479.73l-1473.14 -3.48c0,0 2.34,3452.5 2.34,3483.2z"/>
  <path class="fil22" d="M6162.55 28656.18c0.57,-1.49 1.13,-2.77 1.71,-4.26 2.55,-0.21 4.96,-0.21 7.37,-0.5 -3.05,1.49 -6.1,3.27 -9.07,4.76z"/>
  <path class="fil23" d="M6103.64 28654.2c-5.03,0 -10,0 -14.89,-0.28l-8.01 0c-3.39,0 -6.73,0.28 -10.12,0.28 7.93,15.24 15.51,30.49 22.96,46.01 19.71,36.79 37.79,75 55.07,115.27 21.7,39.07 41.27,79.55 57.01,122.86 -38.64,-25.32 -73.59,-53.52 -106.13,-83.58l-44.67 -51.75 -42.6 -54.22c-22.61,-33.83 -44.02,-68.35 -63.88,-103.08 -170.28,-25.52 -297.17,-108.04 -396.64,-230.61 -56.44,-69.76 -104.14,-152.28 -145.82,-244.79 -124.78,-276.33 -197.36,-641.01 -295.83,-1014.12 55.65,210.83 103.08,418.62 156.25,609.67 65.78,-426.62 80.17,-1009.07 -70.26,-1746.35 -62.8,-307.87 -125.33,-621.23 -185.52,-927.83 7.51,13.26 15.24,27.01 22.82,40.49 27.87,80.03 56.23,155.32 85.23,223.59 76.34,375.87 149.01,764.28 228.9,1044.37 169.43,593.51 212.82,1195.45 723.61,1195.45 3.46,0 7.09,0 10.7,0l5.67 0c3.62,0 7.38,0 10.85,0 510.77,0 554.01,-601.95 723.72,-1195.45 76.42,-267.83 146.04,-634.97 218.91,-995.59 3.56,-8.51 7.17,-16.74 10.78,-25.02 34.46,-78.77 67.84,-167.31 100.81,-262.59 -58.77,298.6 -119.46,603.01 -180.56,902.59 -150.87,738.99 -136.04,1322.7 -69.76,1749.62 65.66,-235.29 122.36,-496.67 196.59,-757.27 -82.74,290.59 -143.7,582.24 -219.63,837.3 -45.16,151.78 -95.42,290.87 -158.86,409.19 -119.46,222.81 -285.27,371.61 -548.7,393.09 -2.41,0.29 -4.83,0.29 -7.38,0.5 -19.63,1.49 -39.91,2.27 -60.62,2.27zm20.77 1060.41c0,0 17.72,-43.32 54.02,-98.54 17.94,-28.28 40.84,-59.26 64.51,-92.01 24.24,-32.55 51.34,-65.58 79.97,-97.55l42.25 -47.79 42.74 -45.01 42.33 -40.56 37.43 -36.01c46.35,-44.73 86.35,-71.74 86.35,-71.74 0,0 -9.72,44.52 -37.72,106.56l-24.24 49.27 -32.4 50.27c-23.67,34.23 -49.34,70.53 -78.68,103.5 -29.63,32.54 -60.84,63.8 -91.25,92.3 -30.27,28.29 -60.96,51.25 -88.46,70.05 -54.24,38.28 -96.85,57.28 -96.85,57.28zm-196.22 866.3l26.09 -35.02 20.91 -34.53 19.92 -35.73 19 -35.52 18.65 -36.51 19.43 -36.28c13.46,-24.47 26.66,-48.78 42.68,-73.24l13.18 -20.06 12.55 -16.72 26.01 -32.75 57 -63.52 58.49 -58.77 58.77 -57.78 0.99 -1.5 24.96 -27 15.04 -15.52 9.92 -6.23 10.84 2.75 -9.92 10.72 -3.9 18.79 -11.34 42.24 0.85 -1.49 -17.3 40.27 -19.35 39.49c-14.45,24.53 -29.34,49.77 -45.07,72.81 -15.53,22.96 -32.05,44 -48.28,66.99l-25.03 33.31 -12.96 16.74 -10.28 14.53c-30.85,43.74 -63.95,91.25 -104.72,133.28 -19.56,21.49 -42.61,40.77 -66.42,58.5l-39.34 23.74 -41.33 14.05zm66.99 -262.38c0,0 -37.15,-24.73 -81.25,-69.26 -22.88,-21.77 -47.21,-48.51 -71.66,-78.56 -23.39,-30.98 -46.37,-65.72 -67.91,-101.51l-30.7 -54.02 -13.61 -26.01 -13.26 -26.02c-17.16,-34.46 -31.9,-69.26 -41.18,-100.03l-11.12 -43.52 -4.05 -34.96 2.62 -23.53 1.91 -7.24 15.16 24.26c10.14,14.24 28.15,32.74 47.79,56.27 20.56,22.49 43.17,49.28 67.21,79.97l17.57 23.82 17.51 25.25 32.4 51.24c20.63,34.53 39.69,70.25 56.14,105.06 17.93,34.02 33.18,67.28 44.38,96.56 23.83,58.21 32.05,102.23 32.05,102.23zm148.17 -278.6l-25.1 -22.27c-15.52,-14.24 -36.73,-35.23 -59.77,-62.23 -23.67,-26.24 -48.84,-58.5 -74.78,-93.79 -26.02,-35.02 -52.03,-73.8 -76.36,-113.29l-34.67 -59.56 -30.83 -58.98 -24.74 -60.75 -18.79 -52.32 -16.09 -43.24 -14.24 -33.05 -12.12 -19.99 -4.61 -7.72 8.14 2.98 23.4 10.49 31.69 24.04 35.23 36.22 35.87 46.07 34.96 49.28 38.92 55.73 37.5 58.06c24.02,39.76 46.57,80.52 65.85,119.24 18.65,39.77 34.94,77.06 46.85,110.3 12.56,33.25 20.92,61.82 26.3,82.02l7.38 32.75zm-100.38 -842.76c-24.83,-18.3 -46.79,-38.5 -68.2,-59.06l-31.27 -31.47 -29.92 -32.26c-19.13,-22.26 -39.4,-43.03 -55.78,-67.78 -16.88,-24.32 -32.97,-49.06 -48.71,-74.29 -15.52,-25.23 -30.48,-50.76 -45.01,-76.78l-40.56 -75.29c-26.66,-51.05 -52.1,-105.77 -72.17,-161.28l-1.06 -2.06 -1.34 -6.94 -2.62 -9 -5.24 -19.08 -4.11 -20.2 -0.29 -6.02 4.18 -7.73 6.52 2.49 3.34 3.76 -4.9 -0.79 -2.41 0.29 4.96 3.48 12.84 13.54 13.67 13.47 6.67 7.3 7.44 9.71 -0.85 -1.99c42.33,42.54 79.12,85.78 115,132.57l26.94 37.5 23.24 35.73c14.97,24.24 29.49,48.57 43.47,73.3 13.82,24.74 27.07,49.97 39.77,75.79 12.18,25.73 27.36,51.25 40.05,77.77l18.99 39.77 17.66 40.48c11.13,27.51 21.7,55.3 29.72,85.08zm-9.58 270.3c19.85,-42.45 43.24,-81.73 68.35,-119.52 22.11,-39.27 45.72,-76.28 70.25,-112.29 23.66,-37.29 48.2,-74.01 74.07,-109.52 24.88,-36.51 49.69,-72.81 77.2,-107.84l-2.27 3.76 11.91 -17.72 11.12 -14.54 22.55 -28.21 46.93 -54.51 50.12 -52.05 26.3 -25.02 26.66 -25.02 -3.76 18.5 -5.54 17.8 -12.18 34.52c-8.51,22.76 -17.95,45.01 -27.94,66.78l-31.18 64.23 -15.82 31.55 -8.07 15.24 -6.25 12.76 -2.05 3.76c-22.76,39.49 -47.14,77.97 -72.88,115.56 -27.01,36.72 -55.16,72.52 -84.86,106.97 -31.97,33.82 -64.79,66.57 -99.03,97.05 -35.58,28 -72.8,54.52 -113.64,77.77zm87.2 -1072.38l2.98 1.99c501.13,-11.98 603.14,-505.18 611.15,-692.47 3.69,-84.29 -23.96,-115.77 -64.66,-115.77 -49.97,0 -119.58,47.21 -175.67,103.5 -94.79,94.78 -242.16,156.81 -373.81,162.06 -131.43,-5.24 -278.75,-67.28 -373.54,-162.06 -56.06,-56 -125.75,-103.5 -175.73,-103.5 -40.77,0 -68.29,31.47 -64.73,115.77 8.22,187.29 110.02,680.49 611.23,692.47l2.77 -1.99zm-1010.56 -1239.39c-0.23,-0.79 -0.44,-1.57 -0.58,-2.28 0.15,0.71 0.35,1.49 0.58,2.28z"/>
  <path class="fil24" d="M6098.32 27595.57c-3.48,0 -7.23,0 -10.84,0l-5.67 0c-3.62,0 -7.23,0 -10.71,0 -510.78,0 -554.17,-601.95 -723.59,-1195.45 -79.9,-280.09 -152.57,-668.51 -228.91,-1044.37 3.4,8.01 6.8,16.02 10.34,23.74 221.19,504.68 277.61,1016.38 943.5,1016.38 4.68,0 9.36,0 14.11,0l7.38 0c4.68,0 9.43,0 14.11,0 655.18,0 720.54,-494.9 932.94,-991.35 -72.88,360.62 -142.5,727.77 -218.92,995.59 -169.71,593.51 -212.96,1195.45 -723.73,1195.45z"/>
  <path class="fil25" d="M7040.98 25404.52c9.35,-46.51 18.78,-93.02 28.35,-139.02 0.22,-1 0.35,-2.06 0.63,-2.77 27.94,-49.27 55.51,-98.05 82.67,-146.03 -0.07,0 -0.07,0.21 -0.07,0.21 -32.96,95.28 -66.35,183.82 -100.81,262.58 -3.61,8.3 -7.23,16.52 -10.77,25.03zm-1922.37 -48.78c-29,-68.27 -57.35,-143.56 -85.22,-223.59 1.7,3.05 3.4,6.02 5.17,9 18.72,33.32 37.57,66.57 56.57,100.03 7.94,38.06 15.74,76.28 23.47,114.56z"/>
  <path class="fil26" d="M6108.04 26395.87c-4.68,0 -9.43,0 -14.11,0l-7.38 0c-4.74,0 -9.43,0 -14.11,0 -665.88,0 -722.31,-511.7 -943.5,-1016.38 -3.54,-7.72 -6.94,-15.73 -10.34,-23.74 -7.73,-38.28 -15.53,-76.5 -23.47,-114.56 18.36,32.54 36.94,65.07 55.58,97.83 101.8,368.35 289.38,731.53 822.27,731.53l254.79 0c568.41,0 743.94,-413.15 841.56,-805.04 -9.57,46 -19,92.51 -28.35,139.02 -212.4,496.45 -277.76,991.35 -932.94,991.35z"/>
  <path class="fil27" d="M6123.56 28397.07l-2.98 -1.98 -2.77 1.98c-501.2,-11.98 -603.01,-505.17 -611.23,-692.47 -3.55,-84.29 23.96,-115.77 64.72,-115.77 49.99,0 119.67,47.5 175.74,103.5 94.79,94.79 242.1,156.81 373.54,162.06 131.64,-5.24 279.03,-67.27 373.81,-162.06 56.08,-56.28 125.69,-103.5 175.68,-103.5 40.68,0 68.34,31.47 64.65,115.77 -8.01,187.3 -110.02,680.49 -611.15,692.47z"/>
  <path class="fil28" d="M5110.09 27156.18c0,0 -0.07,-0.28 -0.07,-0.49 0,0.21 0.07,0.49 0.07,0.49zm-0.63 -2.76c-12.9,-48.57 -26.23,-97.27 -40.19,-146.04 -235.15,-823.33 -423.3,-2328.65 -717.36,-2893.09 -136.75,-262.59 -253.16,-626.69 -338.51,-941.3l0 0c85.35,314.61 201.76,678.71 338.51,941.3 294.05,564.44 482.21,2069.76 717.36,2893.09 13.96,48.78 27.29,97.47 40.19,146.04z"/>
  <path class="fil29" d="M5266.33 27765.86c-53.17,-191.06 -100.59,-398.84 -156.24,-609.68 0,0 -0.07,-0.28 -0.07,-0.49 -0.21,-0.78 -0.43,-1.56 -0.56,-2.27 -12.9,-48.57 -26.23,-97.27 -40.19,-146.04 -235.15,-823.33 -423.3,-2328.65 -717.36,-2893.09 -136.75,-262.59 -253.16,-626.69 -338.51,-941.3 245.21,526.16 569.06,1157.37 997.17,1918.68 60.19,306.61 122.72,619.96 185.52,927.84 150.43,737.27 136.04,1319.72 70.25,1746.35z"/>
  <path class="fil28" d="M7098.82 27011.84c0.35,-1.49 0.85,-2.98 1.28,-4.46 152.07,-532.75 284.63,-1350.77 438.89,-2015.03l0 0c-154.26,664.26 -286.82,1482.27 -438.89,2015.03 -0.43,1.49 -0.93,2.98 -1.28,4.46z"/>
  <path class="fil30" d="M6902.24 27769.11c-66.28,-426.91 -81.1,-1010.63 69.75,-1749.61 61.11,-299.59 121.8,-604 180.57,-902.6 0.07,-0.21 0.07,-0.21 0.21,-0.5 55.73,-99.03 109.89,-196.08 162.2,-290.87 345.25,-624.98 616.62,-1157.38 829.93,-1612.08 -84.35,305.11 -196.43,649.51 -327.37,900.83 -102.51,196.86 -192.19,507.94 -275.27,864.59 -0.15,0 -0.15,0 -0.15,0.22 -1.06,4.26 -2.06,8.79 -3.12,13.26 -154.26,664.26 -286.82,1482.27 -438.89,2015.03 -0.43,1.49 -0.93,2.98 -1.28,4.46 -74.22,260.6 -130.94,521.98 -196.58,757.27z"/>
  <path class="fil31" d="M7152.56 25116.91c0,0 0,-0.21 0.07,-0.21 0,0 0,-0.29 0.14,-0.29 -0.14,0.29 -0.14,0.29 -0.21,0.5z"/>
  <polygon class="fil32" points="3785.41,16438.05 4008.93,16438.05 4008.93,15920.62 3785.41,15920.62 "/>
  <path class="fil33" d="M3785.41 17033.96l-1355.39 0c-115.27,0 -208.77,-105.27 -208.77,-235.08l0 -141.28c0,-129.81 93.51,-235.08 208.77,-235.08l1355.39 0 0 611.43zm-239.48 -576.7l-18.93 17.3 -46.5 49.77c-18.36,21.76 -37.01,48.27 -57.14,76.77 -19.63,29 -40.62,59.77 -61.53,90.53 -40.55,62.52 -79.11,125.55 -114.35,168.3l-24.38 28.28 -20.71 20.71 -18.78 17.51 21.62 -13.76 23.39 -17.73 28.64 -26.29c19.56,-20.49 41.54,-45.23 62.24,-73.52 20.98,-28.21 41.54,-59.76 62.02,-90.52 19.93,-31.27 40.84,-62.03 58.99,-92.02 19,-29 34.38,-57.99 50.55,-80.25 14.95,-23.54 28.63,-42.04 39.27,-54.51l15.6 -20.56zm-237.7 38.78l-17.65 15.74 -46.01 44.51c-16.38,20.28 -35.45,43.82 -56,69.27 -21.63,24.32 -44.17,50.83 -66.57,77.06 -44.38,53.24 -88.4,107.05 -120.8,148.02 -32.11,41.33 -52.11,69.83 -52.11,69.83 0,0 25.67,-23.74 62.11,-61.04 36.5,-37.5 84.29,-88.26 128.95,-141.79 22.4,-27 44.66,-53.8 64.94,-79.33l26.79 -38.71 23.33 -35.3c31.97,-39.98 53.02,-68.27 53.02,-68.27zm371.27 35.52c0,0 -19.71,21.76 -47.36,56.5 -28.43,34.02 -61.18,82.8 -93.08,132.07 -16.09,24.04 -32.26,48 -46.78,71.24l-21.13 33.33 -20.84 28.71c-25.52,36.01 -41.05,61.04 -41.05,61.04 0,0 21.34,-20.27 51.25,-52.53 14.74,-16.23 32.47,-35.01 48.21,-57.99 16.3,-22.26 33.25,-46.5 49.99,-71.32 32.18,-48.99 60.83,-100.24 84.36,-137.25 22.68,-37.28 36.44,-63.79 36.44,-63.79zm-570.12 -38.5l-5.82 2.48 -16.3 8.79 -47.28 45.02c-17.16,20.98 -36.01,46 -55.72,72.23l-33.54 38.29 -35.16 39.27c-23.05,27.01 -46.23,53.74 -67.99,78.97 -22.19,24.82 -43.11,48.07 -60.83,68.06 -35.3,40.27 -57.42,68.27 -57.42,68.27 0,0 27.44,-22.76 66.85,-58.99 19.43,-18.57 41.96,-39.77 66.35,-62.8 23.25,-24.04 46.57,-51.05 70.47,-77.77l34.95 -40.27 32.89 -40.55c19.21,-28.01 34.6,-55.02 49.62,-76.5l39.77 -49.77 13.83 -10.99 5.32 -3.76zm-249.4 26.73l-18.36 12.05 -21.19 14.74 -24.17 22.76c-17.51,17.01 -35.8,38 -54.8,61.53 -19.43,22.76 -38.21,48.71 -60.55,71.53 -21.4,23.74 -42.82,47.21 -62.17,69.96 -19.71,22.55 -36.57,45.02 -51.96,63.52 -29.78,37.57 -48.13,63.8 -48.13,63.8 0,0 24.1,-21.27 58.21,-55.29 33.82,-33.96 78.83,-79.75 122.22,-127.25 22.18,-23.25 40.76,-49.56 58.62,-73.58 17.66,-23.96 33.11,-47.5 48.42,-65.51l20.41 -25.23 17.79 -17.3 15.67 -15.73zm-264.14 17.79l-14.89 11.48 -36.23 34.03 -44.1 54.51 -46.65 64.02 -49.19 62.52 -38.35 58.99 -19.07 46.57 -3.97 18.22 8.37 -16.73 25.8 -41.05c23.33,-32.75 60.69,-71.03 94.92,-114.28l45.16 -66.28 37.44 -58.28 15.52 -22.47 13.4 -16.51 11.84 -14.74z"/>
  <path class="fil34" d="M4080.95 17033.96l-72.02 0 0 -611.43 51.89 0c8.29,214.3 15.11,420.17 20.13,611.43z"/>
  <polygon class="fil2" points="3785.41,17033.96 4008.93,17033.96 4008.93,16422.46 3785.41,16422.46 "/>
  <path class="fil35" d="M9739.33 17033.96l-1355.38 0 0 -611.43 1355.38 0c115.28,0 208.85,105.27 208.85,235.08l0 141.28c0,129.81 -93.57,235.08 -208.85,235.08zm-881.68 -532.89l-4.61 3.26 -12.68 10.21 -16.38 19 -18.36 27.01c-12.48,20.56 -26.01,45.02 -39.49,70.53l-21.98 39.78 -22.4 41.26c-29.49,55.51 -56.64,112.29 -76.28,155.32 -19.43,43.03 -30.77,72.52 -30.77,72.52 0,0 17.94,-26.02 42.46,-66.28 24.53,-40.49 56.22,-95.07 85.29,-150.58 14.46,-28.22 29.13,-55.51 42.11,-82.52 12.62,-27 22.26,-52.52 32.61,-73.51l14.11 -28.5 12.48 -21.06 13.89 -16.44zm1027.15 58.77l-15.1 12.27 -37.57 35.44 -44.88 57.78c-15.67,21.77 -29.35,46.58 -44.1,70.53 -28.35,48.78 -55.44,97.84 -79.05,131.79l-30.4 41.05 -11.63 15.52 14.96 -12.55 36.93 -35.51 45.23 -57.78c15.6,-21.98 29.71,-46.5 44.17,-70.46 14.46,-24.32 27.93,-49.06 41.4,-71.32 12.97,-22.97 25.8,-43.53 37.78,-60.75l30.41 -40.27 11.84 -15.74zm-619.52 -82.52l-16.6 15.74 -40.97 44.23c-15.73,19.5 -33.45,42.75 -49.83,69.27 -17.51,26.01 -33.25,55.01 -50.06,83.79 -32.04,57.57 -62.1,116.34 -86.56,158.8l-30.55 51.54 -11.56 19.78 15.17 -17.01 37.72 -46.79c14.18,-20.49 31.76,-44.23 47.35,-71.03 16.6,-26.23 32.75,-55.22 49.06,-84 16.02,-28.79 32.05,-57.29 47,-84.29 15.11,-27.01 29,-52.03 42.96,-72.24l18.29 -28.07 15.39 -20.99 13.18 -18.72zm-576.28 23.75l-11.78 16.44 -29.21 45.8c-22.61,38.78 -48.27,92.51 -71.88,146.81 -12.34,26.73 -23.89,54.23 -36.01,78.77 -11.21,25.52 -22.62,47.99 -33.33,67.28l-26.94 46.5 -10.42 17.79 14.04 -15.02 34.17 -41.75c12.76,-18.79 28.15,-40.55 40.97,-65.29 14.18,-24.53 25.95,-51.75 38.78,-78.77 24.24,-54.3 45.16,-109.81 62.38,-150.29l21.34 -49.27 7.88 -19zm768.47 -23.75l-42.61 48.71 -33.39 55.08 -30.49 56.01 -32.46 53.23 -0.15 0 -0.43 0.78 -35.87 54.52 -38.43 53.73 -36.94 56.57 -27.51 60.47 37.86 -55.01 41.11 -50.97 42.05 -51.54 37.71 -55.51 -0.21 0.21 0.56 -0.71 -0.35 0.5 32.62 -56.07 26.87 -58.28 27.22 -57.21 32.83 -54.52zm-388.13 -7.79c0,0 -20.71,24.24 -49.69,62.8 -14.61,19 -32.19,41.47 -45.86,68.28 -15.04,25.73 -30.28,54.01 -45.52,82.02 -28.99,56.5 -53.59,115.06 -76.06,157.3 -21.34,43.03 -33.74,72.74 -33.74,72.74 0,0 19,-26.02 45.08,-66 12.9,-20.28 28.5,-43.24 42.11,-70.05 14.46,-26.23 29,-54.73 43.67,-83.23 14.6,-28.28 29.35,-56.07 42.46,-82.8l19.22 -38.28 19.71 -33.04c23.89,-40.76 38.63,-69.75 38.63,-69.75zm607.54 11.77l-17.16 13.76 -37.43 44.51c-13.4,19.78 -28.72,43.25 -43.74,68.77 -15.39,25.02 -31.77,51.75 -48.28,78.27 -33.04,54.3 -63.95,110.02 -87.06,151.57 -22.96,41.55 -36.72,70.53 -36.72,70.53 0,0 19.99,-24.74 47.63,-63.51 13.4,-19.5 30.21,-41.55 46.16,-66.57 16.16,-24.74 32.82,-51.75 49.49,-78.47l24.67 -41.05 22.26 -40.49c13.68,-26.51 25.3,-51.25 36.94,-72.02l29.49 -48.56 13.76 -16.73z"/>
  <path class="fil36" d="M8160.49 17033.96l-64.16 0c4.96,-191.26 11.84,-397.13 20.13,-611.43l44.02 0 0 611.43z"/>
  <polygon class="fil2" points="8160.49,17033.96 8383.95,17033.96 8383.95,16422.46 8160.49,16422.46 "/>
  <path class="fil37" d="M3492.35 12209.21c0,-0.22 0,-0.22 0,-0.5 0,0.28 0,0.28 0,0.5zm-0.22 -3.19c0,0 0,0 0,-0.28 0,0.28 0,0.28 0,0.28z"/>
  <path class="fil38" d="M6483.63 12334.55c0,-234.37 -189.99,-424.15 -424.44,-424.15 -234.36,0 -424.43,189.78 -424.43,424.15l0 0.99 848.79 0 0.07 -0.99z"/>
  <path class="fil39" d="M6354.18 12341.56c0,-163.83 -132.92,-296.89 -296.97,-296.89 -164.04,0 -296.97,133.07 -296.97,296.89l0.07 0.71 593.79 0 0.07 -0.71z"/>
  <path class="fil40" d="M9313.2 8005.75c-532.54,-1456.54 -2315.69,-1646.11 -3179.5,-1709.13l-0.28 -0.28 -1.84 0 -1.71 0 0 0.28c-863.89,63.02 -2647.31,252.59 -3179.85,1709.13 -533.18,1458.25 156.89,3261.38 486.11,3841.63 0,0 893.94,-1591.59 1466.25,-2336.38 572.38,-744.72 1050.69,-642.99 1050.69,-642.99l356.51 -7.44 0.56 7.44c0,0 478.31,-101.73 1050.69,642.99 572.24,744.79 1466.26,2336.38 1466.26,2336.38 329.22,-580.25 1019.21,-2383.38 486.11,-3841.63z"/>
  <path class="fil41" d="M11298.88 8710.71c320.58,0 572.38,-80.75 588.26,-86 86.34,-28.5 133.35,-121.58 105.06,-207.85 -28.43,-86.28 -121.08,-133.28 -207.49,-105 -7.1,2.2 -502.06,158.52 -924.36,-5.04 -142.63,-55.29 -316.47,-132.07 -500.42,-213.31 -455.49,-201.82 -926.2,-409.89 -1234.23,-439.17 -91.8,-20.99 -519.07,-107.05 -825.67,37.78 -82.3,38.78 -117.54,137.03 -78.77,219.05 38.92,82.31 137.03,117.54 219.35,78.55 187.08,-88.33 518.22,-37.28 619.59,-12.55l26.37 4.55c251.6,19.49 744.29,237.55 1140.16,412.66 187.58,83.01 364.95,161.56 514.74,219.55 188.43,73.01 383.1,96.77 557.42,96.77z"/>
  <polygon class="fil42" points="8685.88,8648.46 8862.12,8489.66 9079.75,7631.3 8227.27,7337.25 7833.19,7584.09 7744.93,8166.26 "/>
  <path class="fil43" d="M8081.59 8648.46c-63.23,-180.35 -126.33,-278.32 -433,-217.36 -366.51,72.31 -750.82,81.52 -1123,102.08 -251.1,13.76 -494.18,10.99 -744.72,-2.27 -265.27,-13.76 -530.48,-30.27 -794.83,-55.51 -116.19,-11.27 -233.03,-22.76 -347.87,-44.3 -323.55,-60.96 -390.12,37.01 -456.76,217.36 -65.79,177.79 -31.41,721.25 254.92,960.58 286.05,239.12 387.15,111.3 540.91,-102.02 192.04,-266.62 493.9,-344.88 752.72,-133.28 129.81,106.28 270.67,257.05 453.35,246.07 100.46,-6.23 190.42,-32.04 270.32,-95.06 109.52,-85.78 191.47,-194.53 325.1,-246.85 129.17,-50.27 258.83,-29.21 369.28,52.53 63.3,47 134.34,111.29 179.07,176.58 145.69,213.32 241.53,341.14 512.97,102.02 271.44,-239.33 303.92,-782.79 241.53,-960.58z"/>
  <path class="fil44" d="M8162.7 8748.49c-66.14,-180.28 -132.22,-278.32 -452.94,-217.57 -383.45,72.52 -785.55,81.74 -1174.82,102.3 -262.72,13.76 -516.86,10.71 -779.1,-2.27 -277.4,-14.04 -554.86,-30.28 -831.34,-55.79 -121.65,-10.99 -243.87,-22.76 -364.04,-44.24 -338.3,-60.75 -407.9,37.29 -477.8,217.57 -68.62,177.8 -32.61,721.26 266.69,960.37 299.45,239.33 405.15,111.51 565.86,-101.8 200.91,-266.63 516.8,-345.1 787.47,-133.28 135.84,106.27 283.21,257.05 474.34,246.07 105,-6.24 199.14,-32.26 282.72,-95.07 114.56,-85.99 200.12,-194.52 339.99,-246.85 135.19,-50.26 270.88,-29.49 386.43,52.53 66.01,47.07 140.45,111.3 187.23,176.59 152.42,213.31 252.74,341.14 536.58,101.8 283.86,-239.12 317.95,-782.57 252.74,-960.37z"/>
  <path class="fil45" d="M4961.57 8971.8c0,165.81 -134.41,300.16 -299.87,300.16 -165.68,0 -299.94,-134.35 -299.94,-300.16 0,-165.53 134.27,-299.8 299.94,-299.8 165.46,0 299.87,134.27 299.87,299.8z"/>
  <path class="fil46" d="M4894.8 8897.58c0,128.73 -104.35,233.09 -233.09,233.09 -128.89,0 -233.38,-104.36 -233.38,-233.09 0,-128.81 104.5,-233.38 233.38,-233.38 128.74,0 233.09,104.57 233.09,233.38z"/>
  <path class="fil47" d="M7956.55 8971.8c0,165.81 -134.13,300.16 -299.95,300.16 -165.39,0 -299.65,-134.35 -299.65,-300.16 0,-165.53 134.27,-299.8 299.65,-299.8 165.82,0 299.95,134.27 299.95,299.8z"/>
  <path class="fil48" d="M7889.98 8897.58c0,128.73 -104.5,233.09 -233.38,233.09 -128.59,0 -233.09,-104.36 -233.09,-233.09 0,-128.81 104.5,-233.38 233.09,-233.38 128.89,0 233.38,104.57 233.38,233.38z"/>
  <path class="fil49" d="M6451.3 9026.81c0,165.6 -134.34,299.87 -299.88,299.87 -165.59,0 -299.94,-134.27 -299.94,-299.87 0,-165.53 134.35,-299.8 299.94,-299.8 165.54,0 299.88,134.27 299.88,299.8z"/>
  <path class="fil50" d="M6384.58 8952.3c0,128.81 -104.42,233.1 -233.16,233.1 -128.88,0 -233.3,-104.29 -233.3,-233.1 0,-128.8 104.42,-233.3 233.3,-233.3 128.74,0 233.16,104.5 233.16,233.3z"/>
  <path class="fil2" d="M3832.91 9564.8c-38.14,0 -73.95,-23.54 -88.34,-61.32l-476.25 -1272.44c-18.15,-48.78 6.67,-102.79 55.16,-121.3 48.91,-18 103.01,6.52 121.15,55.01l476.25 1272.73c18.29,48.77 -6.45,102.79 -55.16,121.08l-32.82 6.23z"/>
  <path class="fil51" d="M6850.56 6459.88c0,351.42 -303.98,636.26 -679.07,636.26 -375.23,0 -679.22,-284.85 -679.22,-636.26 0,-351.33 303.99,-635.97 679.22,-635.97 375.09,0 679.07,284.64 679.07,635.97z"/>
  <path class="fil52" d="M12448.39 5900.69c0,0 0,-0.21 -0.07,-0.21 0.07,0 0.07,0.21 0.07,0.21zm-0.07 -0.21c0,0 0,0 -0.15,-0.29 0.15,0.29 0.15,0.29 0.15,0.29zm-73.3 -109.53c-0.07,0 -0.22,-0.28 -0.28,-0.5 0.06,0.22 0.21,0.5 0.28,0.5zm-0.35 -0.5c-21.9,-31.54 -48.28,-68.34 -78.84,-109.6 -19.28,-26.01 -40.19,-53.52 -62.52,-82.23l0 0c57.92,74.22 105.7,140.51 141.36,191.83z"/>
  <path class="fil53" d="M7069.96 25262.74c0,0 0,0 0,-0.28 28.07,-49.28 55.44,-97.55 82.67,-145.75l0 0c-27.16,47.99 -54.73,96.77 -82.67,146.03z"/>
  <path class="fil54" d="M7152.77 25116.41l0 0c55.86,-99.24 109.74,-195.8 162.2,-290.87 -52.32,94.79 -106.47,191.84 -162.2,290.87z"/>
  <path class="fil55" d="M7152.63 25116.7l0 0 0.14 -0.29 0 0c-0.14,0 -0.14,0.29 -0.14,0.29z"/>
  <path class="fil56" d="M3867.14 18780.89c43.18,-111.58 82.67,-217.08 115.48,-313.14 -32.82,96.06 -72.3,201.55 -115.48,313.14zm115.78 -313.84c0.28,-1.06 0.71,-2.05 1.13,-3.26 -0.43,1.21 -0.85,2.2 -1.13,3.26zm1.34 -4.04c0.35,-1 0.63,-1.99 0.93,-2.77 -0.29,0.78 -0.57,1.77 -0.93,2.77zm23.18 -69.75c0.21,-0.5 0.43,-1.28 0.63,-1.99 -0.21,0.71 -0.43,1.49 -0.63,1.99zm1.06 -3.27c0.43,-0.99 0.71,-2.27 1.06,-3.48 -0.35,1.21 -0.63,2.2 -1.06,3.48z"/>
  <path class="fil57" d="M5095.13 25241.19c-19,-33.46 -37.85,-66.72 -56.57,-100.03 18.72,33.32 37.44,66.57 56.57,100.03l0 0z"/>
  <path class="fil58" d="M5150.72 25339.01c-18.65,-32.75 -37.22,-65.29 -55.58,-97.83l0 0c18.29,32.33 36.94,65.07 55.58,97.83l0 0z"/>
  <path class="fil59" d="M7807.74 17351.64c-290.09,-901.89 -23.54,-1411.31 -172.47,-1481.79 -148.87,-70.53 -337.31,156.74 -697.86,454.63 -270.1,223.09 -656.47,252.87 -833.69,253.58l-6.02 0c-177.37,-0.71 -563.95,-30.49 -833.76,-253.58 -360.62,-297.89 -548.92,-525.17 -697.86,-454.63 -149.02,70.47 117.61,579.9 -172.48,1481.79 -290.09,901.52 -682.26,1513.25 -525.31,2313.05 156.89,799.81 748.83,3050.12 748.83,3050.12 0,0 905.14,101.52 1483.48,83.3 578.56,18.22 1483.63,-83.3 1483.63,-83.3 0,0 591.95,-2250.31 748.69,-3050.12 156.96,-799.81 -235.08,-1411.53 -525.17,-2313.05z"/>
  <path class="fil60" d="M2343.4 16887.93l3.97 -18.22 19.07 -46.57 38.35 -58.99 49.19 -62.52 46.65 -64.02 44.1 -54.51 36.23 -34.03 14.89 -11.48 -11.84 14.74 -13.4 16.51 -15.52 22.47 -37.44 58.28 -45.16 66.28c-34.23,43.24 -71.6,81.52 -94.92,114.28l-25.8 41.05 -8.37 16.73z"/>
  <path class="fil61" d="M2518.65 16899.7c0,0 18.35,-26.23 48.13,-63.8 15.39,-18.5 32.26,-40.97 51.96,-63.52 19.35,-22.76 40.77,-46.22 62.17,-69.96 22.34,-22.83 41.12,-48.78 60.55,-71.53 19,-23.54 37.29,-44.52 54.8,-61.53l24.17 -22.76 21.19 -14.74 18.36 -12.05 -15.67 15.73 -17.79 17.3 -20.41 25.23c-15.32,18.01 -30.77,41.55 -48.42,65.51 -17.87,24.02 -36.44,50.33 -58.62,73.58 -43.39,47.5 -88.4,93.29 -122.22,127.25 -34.11,34.02 -58.21,55.29 -58.21,55.29z"/>
  <path class="fil62" d="M2729.33 16914.44c0,0 22.12,-28 57.42,-68.27 17.72,-19.99 38.63,-43.24 60.83,-68.06 21.76,-25.23 44.94,-51.96 67.99,-78.97l35.16 -39.27 33.54 -38.29c19.71,-26.23 38.56,-51.25 55.72,-72.23l47.28 -45.02 16.3 -8.79 5.82 -2.48 -5.32 3.76 -13.83 10.99 -39.77 49.77c-15.02,21.48 -30.41,48.49 -49.62,76.5l-32.89 40.55 -34.95 40.27c-23.9,26.72 -47.22,53.73 -70.47,77.77 -24.39,23.04 -46.93,44.23 -66.35,62.8 -39.41,36.23 -66.85,58.99 -66.85,58.99z"/>
  <path class="fil63" d="M2949.1 16920.47c0,0 20,-28.5 52.11,-69.83 32.4,-40.97 76.42,-94.78 120.8,-148.02 22.4,-26.23 44.94,-52.74 66.57,-77.06 20.55,-25.45 39.62,-48.99 56,-69.27l46.01 -44.51 17.65 -15.74c0,0 -21.05,28.29 -53.02,68.27l-23.33 35.3 -26.79 38.71c-20.28,25.52 -42.54,52.33 -64.94,79.33 -44.66,53.52 -92.45,104.29 -128.95,141.79 -36.44,37.29 -62.11,61.04 -62.11,61.04z"/>
  <path class="fil64" d="M3183.61 16926.43l18.78 -17.51 20.71 -20.71 24.38 -28.28c35.24,-42.75 73.8,-105.78 114.35,-168.3 20.91,-30.77 41.9,-61.53 61.53,-90.53 20.13,-28.5 38.78,-55.01 57.14,-76.77l46.5 -49.77 18.93 -17.3 -15.6 20.56c-10.63,12.48 -24.32,30.98 -39.27,54.51 -16.17,22.27 -31.55,51.25 -50.55,80.25 -18.15,29.99 -39.06,60.75 -58.99,92.02 -20.49,30.77 -41.05,62.32 -62.02,90.52 -20.71,28.29 -42.68,53.03 -62.24,73.52l-28.64 26.29 -23.39 17.73 -21.62 13.76z"/>
  <path class="fil65" d="M3409.25 16914.44c0,0 15.52,-25.02 41.05,-61.04l20.84 -28.71 21.13 -33.33c14.53,-23.24 30.69,-47.21 46.78,-71.24 31.9,-49.27 64.66,-98.05 93.08,-132.07 27.66,-34.74 47.36,-56.5 47.36,-56.5 0,0 -13.76,26.51 -36.44,63.79 -23.54,37.01 -52.18,88.26 -84.36,137.25 -16.73,24.82 -33.68,49.06 -49.99,71.32 -15.73,22.97 -33.46,41.75 -48.21,57.99 -29.91,32.27 -51.25,52.53 -51.25,52.53z"/>
  <path class="fil66" d="M8469.45 16920.47l10.42 -17.79 26.94 -46.5c10.71,-19.29 22.12,-41.75 33.33,-67.28 12.12,-24.53 23.67,-52.03 36.01,-78.77 23.61,-54.3 49.27,-108.03 71.88,-146.81l29.21 -45.8 11.78 -16.44 -7.88 19 -21.34 49.27c-17.22,40.48 -38.13,95.99 -62.38,150.29 -12.83,27.01 -24.6,54.23 -38.78,78.77 -12.83,24.74 -28.22,46.5 -40.97,65.29l-34.17 41.75 -14.04 15.02z"/>
  <path class="fil67" d="M8614.7 16939.97c0,0 11.34,-29.49 30.77,-72.52 19.63,-43.03 46.79,-99.81 76.28,-155.32l22.4 -41.26 21.98 -39.78c13.47,-25.51 27.01,-49.97 39.49,-70.53l18.36 -27.01 16.38 -19 12.68 -10.21 4.61 -3.26 -13.89 16.44 -12.48 21.06 -14.11 28.5c-10.35,20.99 -19.99,46.51 -32.61,73.51 -12.97,27.01 -27.65,54.3 -42.11,82.52 -29.07,55.51 -60.75,110.09 -85.29,150.58 -24.52,40.26 -42.46,66.28 -42.46,66.28z"/>
  <path class="fil68" d="M8818.45 16912.67c0,0 12.4,-29.71 33.74,-72.74 22.47,-42.24 47.07,-100.8 76.06,-157.3 15.24,-28.01 30.49,-56.29 45.52,-82.02 13.67,-26.8 31.26,-49.28 45.86,-68.28 28.99,-38.56 49.69,-62.8 49.69,-62.8 0,0 -14.74,29 -38.63,69.75l-19.71 33.04 -19.22 38.28c-13.11,26.73 -27.86,54.52 -42.46,82.8 -14.67,28.5 -29.21,57 -43.67,83.23 -13.61,26.8 -29.21,49.77 -42.11,70.05 -26.09,39.98 -45.08,66 -45.08,66z"/>
  <path class="fil69" d="M8979.15 16920.47l11.56 -19.78 30.55 -51.54c24.46,-42.46 54.52,-101.23 86.56,-158.8 16.8,-28.78 32.55,-57.78 50.06,-83.79 16.38,-26.51 34.1,-49.77 49.83,-69.27l40.97 -44.23 16.6 -15.74 -13.18 18.72 -15.39 20.99 -18.29 28.07c-13.96,20.21 -27.85,45.23 -42.96,72.24 -14.95,27 -30.98,55.5 -47,84.29 -16.3,28.78 -32.46,57.77 -49.06,84 -15.6,26.8 -33.17,50.55 -47.35,71.03l-37.72 46.79 -15.17 17.01z"/>
  <path class="fil70" d="M9179.21 16916.43l27.51 -60.47 36.94 -56.57 38.43 -53.73 35.87 -54.52 0.43 -0.78 0.15 0 32.46 -53.23 30.49 -56.01 33.39 -55.08 42.61 -48.71 -32.83 54.52 -27.22 57.21 -26.87 58.28 -32.62 56.07 -37.71 55.51 -42.05 51.54 -41.11 50.97 -37.86 55.01zm158.52 -212.82l0.21 -0.21 0.35 -0.5 -0.56 0.71z"/>
  <path class="fil71" d="M9406.49 16908.7c0,0 13.76,-28.99 36.72,-70.53 23.11,-41.55 54.02,-97.27 87.06,-151.57 16.51,-26.51 32.89,-53.24 48.28,-78.27 15.02,-25.51 30.34,-48.99 43.74,-68.77l37.43 -44.51 17.16 -13.76 -13.76 16.73 -29.49 48.56c-11.63,20.77 -23.25,45.51 -36.94,72.02l-22.26 40.49 -24.67 41.05c-16.67,26.72 -33.33,53.73 -49.49,78.47 -15.95,25.02 -32.75,47.07 -46.16,66.57 -27.65,38.77 -47.63,63.51 -47.63,63.51z"/>
  <path class="fil72" d="M9622.07 16924.22l11.63 -15.52 30.4 -41.05c23.61,-33.95 50.69,-83.01 79.05,-131.79 14.74,-23.95 28.43,-48.77 44.1,-70.53l44.88 -57.78 37.57 -35.44 15.1 -12.27 -11.84 15.74 -30.41 40.27c-11.98,17.22 -24.81,37.78 -37.78,60.75 -13.47,22.26 -26.94,47 -41.4,71.32 -14.46,23.96 -28.57,48.49 -44.17,70.46l-45.23 57.78 -36.93 35.51 -14.96 12.55z"/>
  <path class="fil73" d="M3975.46 7312.99c-32.18,114.7 -27.23,146.81 -250.01,160.58 -12.38,9.18 -173.28,73.41 -200.51,82.58l-183.18 59.64 2.48 22.93 0 9.18 -42.08 13.77 54.46 146.81c-472.8,22.93 -1027.29,330.32 -1391.17,477.13 -443.09,169.76 -816.88,266.1 -1358.99,362.44 96.54,27.52 289.62,68.82 517.35,68.82 173.27,0 368.83,-22.94 559.44,-96.35 148.52,-59.64 324.27,-137.64 512.4,-220.21 227.73,-100.94 487.65,-215.63 715.39,-298.22l-12.38 41.3 519.83 -160.58c-64.35,174.33 27.23,119.28 -183.18,123.87l0 252.33 242.59 541.37 42.08 183.51 76.74 220.22c-86.63,55.05 -39.6,41.29 -143.57,87.16 -54.46,27.53 -27.23,18.35 -133.67,55.05 -111.4,36.71 -118.81,55.06 -324.28,32.12l-76.74 -183.51c-42.08,-91.76 -44.55,-146.81 -89.11,-233.99 -54.46,-165.16 -89.12,-316.56 -155.95,-449.61 -94.07,55.05 -143.58,165.17 -108.92,270.68l-2096.65 825.81 -2.48 -4.59c-14.85,-36.7 -56.94,-55.05 -94.06,-41.29 -34.66,13.77 -51.98,55.05 -37.14,91.76l262.39 665.23c12.38,27.53 39.61,41.3 66.84,41.3l27.23 -4.59c34.65,-13.77 51.98,-55.05 37.12,-91.76l-7.43 -13.77 47.04 -18.34 -113.87 -261.51c-76.74,-137.64 -42.08,-128.46 -94.06,-279.86 61.88,-22.94 173.27,-55.05 237.63,-78l222.79 -87.16c12.37,-4.59 27.23,-13.77 39.6,-18.35 14.86,-4.59 29.71,-9.18 42.09,-13.77 106.44,-36.7 240.11,-59.64 336.65,-91.75l836.68 -353.27c230.21,-64.23 254.96,-73.41 420.82,160.58 19.8,105.52 34.66,169.75 64.35,238.56l0 4.59 27.23 59.64c242.59,45.88 302,4.59 497.55,-27.53l12.38 -68.82 297.05 -114.69c-2.48,357.86 42.08,711.11 111.38,1032.26 -17.32,64.23 -34.65,133.05 -51.98,201.87 27.23,-9.18 54.46,-18.35 81.69,-27.53 -27.23,96.35 -54.46,206.45 -81.69,311.98 56.94,-18.35 111.4,-41.3 163.38,-64.23 22.28,73.4 47.03,146.8 69.31,211.03 94.07,-155.98 200.51,-330.32 304.48,-504.66l205.46 -233.98c59.41,-110.12 123.77,-215.63 220.3,-293.63l66.84 -206.45c-391.11,-13.76 -559.44,-192.69 -599.04,-555.12 -96.55,-27.52 -61.89,-178.92 -69.32,-339.5 -96.54,50.47 -136.14,64.23 -225.26,123.87 -17.32,-201.86 -17.32,-128.46 -71.78,-293.62 -47.03,-45.88 -12.38,-4.59 -84.17,-91.76 -22.28,-22.93 -59.41,-82.57 -59.41,-82.57 64.36,-252.33 -54.46,-142.22 230.21,-279.86 126.25,-64.23 170.81,-64.23 302,-119.28 235.16,-100.94 326.75,-252.33 584.19,-73.41 47.03,-151.4 -7.43,-87.17 146.04,-151.4 138.62,-59.64 128.72,-32.11 287.14,-36.7l0 -302.79c254.96,-13.77 611.42,-105.53 1002.53,-110.12 445.57,-9.18 678.25,45.89 1017.38,110.12l0 302.79c190.61,41.29 423.29,82.58 613.89,123.87 180.7,41.29 292.1,50.46 460.43,128.46l141.09 64.23 -49.51 -87.17c128.72,36.71 198.04,64.23 198.04,64.23 0,0 -601.52,-1665.38 -1024.81,-2812.33l-378.74 -160.58c44.56,50.47 106.44,105.53 183.18,261.51l683.21 1743.38c-185.65,-100.93 -272.29,-192.69 -465.37,-293.62 -183.18,-96.35 -344.08,-119.28 -500.03,-211.04 108.92,-302.79 32.18,-637.71 -175.75,-848.75 -225.27,-233.98 -453,-289.03 -878.77,-293.62l0 -399.14c-222.78,128.46 -405.96,142.22 -509.92,394.55l-514.88 1298.36c-7.43,13.77 -17.33,32.11 -24.75,41.29l-579.24 403.73c14.85,-229.39 314.37,-839.57 418.34,-1101.08 155.95,-403.73 259.91,-857.93 519.83,-963.44l9.9 -32.12 -334.17 137.64c-51.98,110.12 -103.97,211.04 -153.47,302.8 -153.47,293.62 -537.15,1146.95 -779.74,1702.08l-27.23 -78zm3049.67 -3023.38c-12.37,165.17 -14.85,339.5 -14.85,509.25 2.48,307.39 32.18,376.21 94.06,449.61l378.74 160.58c-207.93,-555.12 -381.22,-981.8 -413.39,-1050.62l-44.56 -68.82zm-1755.05 958.85c94.07,-302.79 306.96,-807.45 284.68,-1055.19l-22.29 -13.77 -79.21 137.64 42.09 0c-9.91,13.77 -17.32,22.94 -22.28,32.11 -101.49,146.81 -329.23,623.95 -537.16,1036.85l334.17 -137.64z"/>
  <path class="fil73" d="M3975.46 7313c-32.18,114.69 -27.23,146.8 -250.02,160.57 -12.37,9.18 -173.26,73.41 -200.5,82.58l-183.18 59.64 2.48 22.94 0 9.17 -42.08 13.77 54.45 146.81c-472.79,22.93 -1027.28,330.32 -1391.16,477.13 -443.09,169.75 -816.88,266.1 -1358.99,362.44 96.54,27.52 289.61,68.82 517.35,68.82 173.27,0 368.83,-22.94 559.43,-96.35 148.53,-59.64 324.28,-137.64 512.41,-220.22 227.74,-100.93 487.65,-215.62 715.39,-298.2l-12.38 41.29 519.83 -160.57c-64.35,174.33 27.23,119.28 -183.17,123.87l0 252.34 242.58 541.36 42.08 183.51 76.74 220.21c-86.64,55.06 -39.6,41.3 -143.57,87.17 -54.45,27.52 -27.23,18.35 -133.67,55.05 -111.38,36.71 -118.81,55.05 -324.27,32.11l-76.74 -183.5c-42.09,-91.76 -44.56,-146.81 -89.12,-233.99 -54.47,-165.17 -89.11,-316.55 -155.96,-449.61 -94.06,55.05 -143.57,165.17 -108.91,270.69l-2096.65 825.81 -2.47 -4.6c-14.87,-36.7 -56.95,-55.04 -94.07,-41.28 -34.66,13.74 -51.98,55.04 -37.14,91.75l262.39 665.23c12.38,27.53 39.61,41.3 66.84,41.3l27.22 -4.6c34.66,-13.77 51.98,-55.04 37.14,-91.75l-7.42 -13.77 47.02 -18.34 -113.86 -261.52c-76.74,-137.64 -42.08,-128.45 -94.06,-279.84 61.88,-22.94 173.26,-55.06 237.64,-78.01l222.78 -87.16c12.37,-4.59 27.23,-13.77 39.6,-18.36 14.85,-4.58 29.72,-9.17 42.08,-13.77 106.45,-36.69 240.11,-59.63 336.66,-91.75l836.68 -353.26c230.21,-64.23 254.96,-73.41 420.82,160.58 19.8,105.52 34.66,169.74 64.35,238.55l0 4.6 27.23 59.64c242.6,45.88 302,4.59 497.56,-27.53l12.36 -68.82 297.06 -114.69c-2.48,357.85 42.08,711.11 111.4,1032.26 -17.33,64.23 -34.66,133.05 -51.98,201.87 27.23,-9.18 54.45,-18.35 81.68,-27.53 -27.23,96.35 -54.45,206.46 -81.68,311.97 56.93,-18.34 111.38,-41.29 163.38,-64.22 22.27,73.41 47.02,146.8 69.3,211.04 94.06,-156 200.51,-330.34 304.48,-504.67l205.46 -233.99c59.41,-110.09 123.77,-215.62 220.3,-293.61l66.84 -206.46c-391.11,-13.76 -559.43,-192.68 -599.05,-555.12 -96.53,-27.53 -61.87,-178.92 -69.31,-339.5 -96.53,50.47 -136.15,64.24 -225.26,123.88 -17.32,-201.88 -17.32,-128.46 -71.78,-293.63 -47.03,-45.88 -12.37,-4.59 -84.17,-91.75 -22.28,-22.94 -59.41,-82.58 -59.41,-82.58 64.35,-252.33 -54.46,-142.22 230.21,-279.86 126.24,-64.22 170.81,-64.22 302,-119.28 235.16,-100.94 326.75,-252.33 584.18,-73.4 47.04,-151.4 -7.42,-87.18 146.05,-151.4 138.62,-59.64 128.72,-32.13 287.14,-36.71l0 -302.79c254.97,-13.77 611.42,-105.53 1002.52,-110.12 445.57,-9.18 678.27,45.88 1017.38,110.12l0 302.79c190.61,41.29 423.3,82.58 613.91,123.87 180.69,41.3 292.09,50.46 460.42,128.46l141.09 64.24 -49.51 -87.18c128.72,36.71 198.04,64.24 198.04,64.24 0,0 -601.52,-1665.39 -1024.81,-2812.36l-378.74 -160.57c44.56,50.47 106.45,105.53 183.19,261.52l683.21 1743.38c-185.67,-100.95 -272.31,-192.7 -465.38,-293.63 -183.19,-96.35 -344.08,-119.29 -500.02,-211.04 108.91,-302.79 32.17,-637.71 -175.76,-848.75 -225.27,-233.98 -453,-289.03 -878.76,-293.63l0 -399.13c-222.79,128.46 -405.98,142.22 -509.93,394.55l-514.88 1298.36c-7.43,13.77 -17.33,32.11 -24.75,41.3l-579.25 403.72c14.86,-229.39 314.38,-839.57 418.35,-1101.08 155.94,-403.73 259.91,-857.93 519.83,-963.43l9.91 -32.13 -334.17 137.64c-51.98,110.12 -103.98,211.04 -153.47,302.79 -153.48,293.63 -537.17,1146.97 -779.75,1702.09l-27.23 -77.98zm1933.28 1463.51l-106.44 362.44c143.58,50.45 202.99,114.69 329.23,119.27 173.28,9.19 195.55,-68.82 378.72,-119.27l-96.53 -321.16c-12.38,0 -32.17,-9.18 -42.08,-9.18 -415.87,-133.05 -200.51,0 -462.9,-32.11zm1413.44 32.11l-22.27 321.15c146.04,36.7 190.61,96.35 334.17,100.94 195.55,13.76 202.98,-55.06 393.59,-100.94l-22.28 -321.15 -165.85 -77.98c-133.66,-73.41 71.79,-82.58 -200.51,-73.41 -193.07,4.59 -9.88,-36.71 -210.4,77.98 -9.91,9.19 -27.23,22.94 -37.14,27.53 -7.43,4.59 -29.7,32.11 -34.66,22.94 -4.94,-13.77 -24.75,13.77 -34.66,22.93zm-3012.54 0l-22.27 321.15c148.51,36.7 190.59,96.35 334.16,100.94 195.56,13.76 202.99,-55.06 393.59,-100.94l-22.28 -321.15 -183.18 -119.28c-321.8,-133.04 -252.49,59.64 -500.03,119.28zm4440.43 387.64l-17.32 55.07 64.35 22.93 12.38 68.82c195.55,32.11 254.96,73.4 497.55,27.52l27.22 -59.65 0 -4.58c29.71,-68.82 44.55,-133.05 64.36,-238.57 165.84,-233.96 190.61,-224.79 420.82,-160.57l836.68 353.27c96.54,32.11 230.21,55.05 336.65,91.76 12.38,4.59 27.23,9.17 42.08,13.77 12.38,4.58 27.23,13.77 39.61,18.34l222.79 87.17c64.35,22.94 175.74,55.05 237.63,77.98 -51.98,151.4 -17.32,142.24 -94.06,279.86l-113.87 261.51 47.04 18.35 -7.43 13.77c-14.86,36.69 2.47,77.98 37.12,91.75l27.23 4.59c27.23,0 54.47,-13.76 66.83,-41.29l262.4 -665.24c14.85,-36.71 -2.48,-78 -37.14,-91.76 -37.14,-13.77 -79.21,4.6 -94.06,41.29l-2.48 4.6 -2096.64 -825.82c34.64,-105.52 -14.87,-215.62 -108.93,-270.68 -66.83,133.06 -101.49,284.45 -155.94,449.62 -44.56,87.16 -47.04,142.21 -89.12,233.99l-76.74 183.5c-205.47,22.94 -212.88,4.59 -324.28,-32.11 -9.91,-4.59 -17.32,-4.59 -24.75,-9.19zm-1724.94 -4906.64c-12.37,165.16 -14.85,339.5 -14.85,509.24 2.48,307.39 32.17,376.21 94.06,449.61l378.74 160.57c-207.93,-555.12 -381.22,-981.79 -413.39,-1050.61l-44.56 -68.81zm-1755.04 958.84c94.06,-302.79 306.95,-807.45 284.66,-1055.19l-22.27 -13.77 -79.22 137.63 42.09 0c-9.91,13.77 -17.33,22.94 -22.28,32.13 -101.49,146.8 -329.23,623.94 -537.15,1036.84l334.17 -137.64z"/>
  <path class="fil73" d="M5401.28 3436.29c217.84,-211.04 237.64,-504.67 631.22,-605.6 485.18,-128.46 606.47,188.1 841.63,376.2l-2.48 -2367.32c0,-435.84 -292.1,-793.7 -665.87,-834.98 -22.28,0 -42.09,-4.59 -64.36,-4.59 -2.48,0 -2.48,0 -4.95,0l-2.48 0c-405.96,0 -735.18,376.2 -735.18,839.57l2.47 2596.71z"/>
  <path class="fil74" d="M6015.18 3895.06l-254.96 1146.97 -500.03 238.56c-259.91,105.52 -363.88,559.71 -519.83,963.44 -103.97,261.51 -403.49,871.69 -418.34,1101.08l579.24 -403.73c7.42,-9.18 17.32,-27.52 24.75,-41.29l514.88 -1298.36c103.97,-252.33 287.14,-266.1 509.92,-394.55l0 399.14c425.77,4.59 653.5,59.64 878.77,293.62 207.93,211.04 284.67,545.96 175.75,848.75 155.95,91.76 316.85,114.69 500.03,211.04 193.08,100.93 279.72,192.69 465.37,293.62l-683.21 -1743.38c-76.74,-155.98 -138.61,-211.03 -183.18,-261.51 -279.72,-105.52 -606.46,-201.86 -896.08,-206.44 289.62,4.59 616.37,100.93 896.08,206.44 -61.88,-73.4 -91.58,-142.21 -94.06,-449.61 0,-169.75 2.48,-344.08 14.85,-509.25l-111.38 -119.28 2.48 -73.41 -66.84 -77.98c-287.14,-105.53 -504.98,-289.04 -834.2,-123.88zm-301.99 1215.78c163.37,-45.89 326.75,-68.82 470.32,-68.82 -143.58,0 -306.96,22.93 -470.32,68.82l0 0z"/>
  <path class="fil75" d="M4715.6 8198.45c-326.76,55.05 -680.73,316.56 -1141.16,389.97 0,0 37.14,59.64 59.41,82.57 71.78,87.17 37.14,45.89 84.17,91.76l344.08 -151.4c-49.51,146.81 -12.38,4.59 -51.98,165.17l299.52 32.11c247.54,-59.64 178.23,-252.33 500.03,-119.28l183.18 119.28 915.89 -32.11c262.39,32.11 47.03,-100.94 462.89,32.11 9.91,0 29.71,9.18 42.09,9.18 274.76,-64.23 631.22,-68.82 908.46,-9.18 9.91,-9.18 29.71,-36.7 34.66,-22.93 4.95,9.17 27.23,-18.35 34.65,-22.94 9.91,-4.59 27.23,-18.35 37.14,-27.53 200.5,-114.69 17.32,-73.4 210.41,-77.98 272.3,-9.18 66.83,0 200.5,73.4l165.85 78 237.64 -32.11c-47.03,-59.64 -47.03,-73.41 -69.32,-215.63 180.71,45.88 247.54,100.94 376.26,155.99l0 -224.81 -792.13 -385.38c-334.17,96.35 49.51,330.32 -482.69,376.2 -1438.2,110.12 -1247.59,-4.59 -2425.88,-4.59l-133.67 -279.85z"/>
  <path class="fil73" d="M8163.81 9249.06c-59.41,357.86 -180.7,559.72 -594.09,578.07l59.4 160.58 155.95 229.39 210.41 247.75 170.81 275.26 7.42 13.77 24.76 41.29c4.94,4.59 7.42,13.77 9.9,18.35 24.75,45.88 54.46,96.35 89.12,142.22 9.9,22.94 24.75,41.29 34.65,64.23 0,-4.59 2.48,-9.18 2.48,-9.18 61.89,73.41 136.15,146.81 215.36,215.63l0 -729.47c-12.37,-45.88 -27.23,-91.75 -39.6,-137.64 14.85,-68.82 27.23,-137.64 39.6,-206.45l0 -1133.19c136.15,-325.74 482.7,-752.4 321.8,-871.68 -101.49,-78 -388.63,-247.75 -698.07,412.9l59.41 642.3 -69.31 45.88z"/>
  <path class="fil73" d="M3349.19 14566.35c32.18,36.7 9.91,22.94 101.49,82.58l267.34 133.05c-34.66,-32.12 19.8,-142.22 -302,50.46l-44.55 36.7 44.55 0 351.51 0 2.48 50.47 39.6 0c34.66,-87.17 32.18,-142.22 79.21,-220.22l0 -87.17c0,-27.52 -22.28,-45.88 -49.51,-45.88l-490.12 0z"/>
  <path class="fil74" d="M5124.04 7927.77c316.85,-22.94 589.15,-55.05 1002.53,-55.05 420.82,0 678.25,64.23 1017.38,55.05l0 -302.79c-339.13,-64.23 -571.81,-119.29 -1017.38,-110.12 -391.11,4.59 -747.57,96.35 -1002.53,110.12l0 302.79z"/>
  <path class="fil74" d="M653.49 10070.29l113.87 261.51 1992.68 -784.52c-29.7,-68.82 -44.55,-133.05 -64.35,-238.56l-1495.13 555.12c-14.85,9.18 -29.71,13.77 -42.08,22.94l-504.98 183.51zm2111.5 -458.78l22.28 0 -27.23 -59.64 4.95 59.64z"/>
  <path class="fil74" d="M11440.81 9829.39l-113.87 261.51 -1992.69 -784.52c29.71,-68.82 44.56,-133.05 64.36,-238.56l1495.13 555.12c14.85,9.18 29.71,13.77 42.08,22.94l504.98 183.51zm-2111.5 -458.78l-22.29 0 27.23 -59.64 -4.94 59.64z"/>
  <path class="fil75" d="M653.49 10070.29l504.98 -183.51c12.37,-9.18 27.23,-13.77 42.08,-22.94l1495.13 -555.12c-165.85,-233.99 -190.61,-224.81 -420.82,-160.58l-836.68 353.27c-96.54,32.11 -230.21,55.05 -336.65,91.75 -12.38,4.59 -27.23,9.18 -42.09,13.77 -12.37,4.59 -27.23,13.77 -39.6,18.35l-222.79 87.16c-64.35,22.94 -175.75,55.05 -237.63,78 51.98,151.4 17.32,142.22 94.06,279.86z"/>
  <path class="fil75" d="M11440.81 9829.39l-504.98 -183.51c-12.37,-9.18 -27.23,-13.77 -42.08,-22.94l-1495.13 -555.12c165.85,-233.98 190.61,-224.81 420.82,-160.58l836.68 353.27c96.54,32.11 230.21,55.05 336.65,91.75 12.38,4.59 27.23,9.18 42.08,13.77 12.38,4.59 27.23,13.77 39.61,18.35l222.78 87.17c64.36,22.93 175.76,55.05 237.64,77.98 -51.98,151.4 -17.32,142.22 -94.06,279.86z"/>
  <path class="fil7" d="M606.46 8648.06c542.11,-96.35 915.89,-192.69 1358.99,-362.44 363.88,-146.8 918.37,-454.2 1391.17,-477.13l-54.46 -146.81 -4.95 0c-306.95,27.53 -779.74,233.98 -1235.22,435.84 -183.18,82.58 -356.45,160.58 -500.03,215.63 -202.98,78 -423.29,82.58 -599.04,64.23l-19.8 0 -2.48 0c-222.79,18.35 -366.36,9.18 -514.88,128.46l34.65 68.82c17.33,27.52 44.56,45.88 76.74,55.05l69.32 18.35z"/>
  <path class="fil73" d="M6148.85 12735.81c-341.6,-27.52 -326.76,-73.4 -438.14,-362.43l688.15 32.11c-66.83,155.99 -126.24,206.45 -250.01,330.32zm341.6 -178.92c113.86,-192.69 0,-555.12 -210.41,-642.3 -292.1,-123.87 -599.04,27.53 -678.25,252.33 -215.36,605.6 566.86,945.1 888.66,389.97z"/>
  <path class="fil75" d="M5554.76 4193.28c22.28,247.74 -190.61,752.4 -284.68,1055.19l34.66 -13.76 -34.66 13.76 -9.9 32.12 500.03 -238.56 254.96 -1146.97c-202.98,96.35 -344.08,105.53 -460.42,298.22z"/>
  <path class="fil73" d="M3289.77 7134.07l7.43 -412.9 -264.87 4.59 -737.67 -4.59 0 45.88 -37.12 36.7 37.12 36.71 0 197.28c0,55.05 42.09,96.34 94.07,96.34l901.03 0z"/>
  <path class="fil74" d="M3059.57 8895.8c-61.89,-96.35 -44.55,22.94 -51.98,-174.33 153.47,27.52 84.17,0 165.85,110.1l-113.87 64.23zm-386.16 -284.45l29.71 -18.34 96.54 -36.71 9.91 -45.88 425.76 -151.4 242.59 541.37 -648.55 160.57c-54.46,-165.16 -89.12,-316.56 -155.95,-449.61z"/>
  <path class="fil74" d="M9047.71 8686.03c61.88,-96.34 44.55,22.94 51.98,-174.33 -153.47,27.53 -84.17,0 -165.85,110.1l113.87 64.23zm386.16 -284.44l-29.71 -18.35 -96.54 -36.7 -9.91 -45.89 -425.77 -151.39 -242.58 541.36 648.55 160.58c54.46,-165.17 89.12,-316.56 155.95,-449.61z"/>
  <path class="fil7" d="M6510.25 9138.95l821.83 36.71c-103.97,36.7 -12.38,0 -32.18,-45.89l22.28 -321.15c-277.24,-59.64 -633.7,-55.05 -908.46,9.18l96.54 321.15z"/>
  <path class="fil7" d="M5015.12 9129.77c-22.28,45.89 69.32,82.58 -32.18,45.89l819.36 -36.71 106.44 -362.43 -915.89 32.11 22.28 321.15z"/>
  <path class="fil73" d="M3901.2 5761.16c-19.8,160.58 -61.89,321.15 -141.1,394.55 -66.83,64.23 -106.44,41.3 -160.9,50.46l2.48 41.3c4.95,32.11 12.38,59.64 19.8,82.58l7.43 18.34c116.35,142.22 215.36,146.81 294.57,82.58l0 -55.05c66.83,-73.41 123.77,-188.1 155.95,-325.74 61.89,-252.33 9.91,-486.32 -116.35,-513.84 -37.12,-9.18 -74.26,4.59 -108.91,22.93 51.98,32.12 51.98,36.71 47.03,201.87z"/>
  <path class="fil76" d="M3574.44 8588.42c460.43,-73.41 814.4,-334.91 1141.16,-389.97l-24.75 -82.58c-257.45,-178.92 -349.03,-27.53 -584.19,73.41 -131.2,55.05 -175.75,55.05 -302,119.28 -284.67,137.64 -165.84,27.53 -230.21,279.86z"/>
  <path class="fil74" d="M2918.47 9294.94l76.74 183.51c205.47,22.94 212.88,4.59 324.28,-32.12 106.44,-36.7 79.21,-27.52 133.67,-55.05 103.97,-45.88 56.94,-32.11 143.57,-87.16l-76.74 -220.22 -366.36 -50.46c-2.48,4.59 -39.6,78 -66.83,119.28 -12.38,18.35 -24.75,169.75 -69.31,96.34 -7.43,-9.17 -27.23,36.71 -42.09,50.47l-56.94 -4.59z"/>
  <path class="fil74" d="M9188.8 9085.17l-76.74 183.51c-205.46,22.94 -212.88,4.59 -324.27,-32.11 -106.44,-36.71 -79.21,-27.53 -133.67,-55.05 -103.97,-45.89 -56.94,-32.12 -143.58,-87.17l76.74 -220.22 366.36 -50.46c2.48,4.59 39.61,78 66.84,119.28 12.37,18.35 24.75,169.76 69.31,96.35 7.43,-9.18 27.23,36.7 42.09,50.46l56.93 -4.59z"/>
  <path class="fil74" d="M3371.46 14869.15l44.55 -36.7c321.8,-192.69 267.34,-82.58 302,-50.46l-267.34 -133.05c-91.58,-59.64 -69.31,-45.89 -101.49,-82.58l-351.51 0c-24.75,0 -47.03,18.35 -47.03,45.88l0 206.45c0,27.53 22.28,50.46 47.03,50.46l373.79 0z"/>
  <path class="fil77" d="M6148.85 12735.81c123.77,-123.87 183.18,-174.33 250.01,-330.32l-688.15 -32.11c111.38,289.04 96.54,334.91 438.14,362.43z"/>
  <path class="fil74" d="M8243.03 8776.52l-9.91 96.34c151,73.41 222.79,142.22 316.85,146.81l0 -302.79c-128.72,-55.05 -195.55,-110.12 -376.26,-155.99 22.29,142.22 22.29,155.99 69.32,215.63z"/>
  <path class="fil7" d="M4015.06 8932.5c7.43,160.58 -27.23,311.98 69.32,339.5l356.45 -27.52c-64.35,45.88 121.3,160.57 -79.21,9.17 -101.49,-77.98 -69.31,-110.1 -74.26,-123.87l22.28 -321.15 -299.52 -32.11 4.94 155.98z"/>
  <path class="fil76" d="M8359.36 8244.33l-141.09 -64.23c-168.33,-78 -279.73,-87.17 -460.43,-128.46l0 55.05 792.13 385.38 0 -110.1 -160.9 -78 -29.71 -59.64z"/>
  <path class="fil75" d="M2829.36 9060.96c44.55,87.17 47.03,142.22 89.11,233.99l56.94 4.59c14.86,-13.77 34.66,-59.64 42.09,-50.47 44.55,73.41 56.93,-77.98 69.31,-96.34 27.23,-41.29 64.35,-114.69 66.83,-119.28l366.36 50.46 -42.08 -183.51 -648.55 160.57z"/>
  <path class="fil75" d="M9277.92 8851.19c-44.55,87.16 -47.03,142.22 -89.12,233.98l-56.93 4.59c-14.86,-13.77 -34.66,-59.64 -42.09,-50.46 -44.55,73.41 -56.94,-78 -69.31,-96.35 -27.23,-41.29 -64.36,-114.69 -66.84,-119.28l-366.36 50.46 42.09 -183.51 648.55 160.58z"/>
  <path class="fil7" d="M8027.66 9129.77c-9.91,27.53 -24.75,357.86 -153.47,119.28l289.62 0 69.31 -45.88 0 -330.32 9.91 -96.34 -237.64 32.11 22.28 321.15z"/>
  <path class="fil73" d="M2391.22 5198.01c-29.71,-215.62 -19.81,-178.92 -116.35,-330.32l-99.01 -22.93c-71.79,-78 -138.62,-123.87 -143.58,-128.46 -32.18,-18.35 -76.74,-9.18 -99.01,22.93l-2.48 9.18c133.67,32.12 155.95,45.88 252.49,197.28 74.27,119.28 106.44,206.45 136.15,348.68 76.74,-78 56.94,87.16 71.79,-96.35z"/>
  <path class="fil74" d="M3718.02 8762.75c54.46,165.16 54.46,91.76 71.78,293.62 89.12,-59.64 128.72,-73.4 225.26,-123.87l-4.94 -155.98c39.6,-160.58 2.48,-18.35 51.98,-165.17l-344.08 151.4z"/>
  <path class="fil78" d="M6490.44 12556.88c-321.78,555.15 -1104,215.65 -888.63,-389.98 79.18,-224.8 386.15,-376.22 678.22,-252.31 210.41,87.13 324.26,449.6 210.41,642.29zm-210.41 -963.42l-346.53 0c-193.1,18.36 -217.85,50.47 -373.81,119.24 -173.26,201.9 -292.08,298.25 -282.22,665.25 7.44,312 128.74,435.84 282.22,601.02l81.67 55.02 292.14 59.68 346.53 4.54c292.07,-96.34 240.1,-169.71 450.51,-289.02 61.89,-279.82 198.08,-467.96 47.07,-779.89 -106.47,-215.65 -264.92,-367.08 -497.58,-435.84z"/>
  <path class="fil7" d="M3173.44 8831.57c-81.69,-110.1 -12.38,-82.58 -165.85,-110.1 7.43,197.28 -9.91,77.98 51.98,174.33l113.87 -64.23z"/>
  <path class="fil7" d="M8933.84 8621.8c81.69,-110.1 12.38,-82.57 165.85,-110.1 -7.43,197.28 9.9,78 -51.98,174.33l-113.87 -64.23z"/>
  <path class="fil75" d="M4084.38 9272c39.6,362.43 207.93,541.37 599.04,555.12 262.39,-55.05 245.07,-394.54 670.83,-422.08 349.03,-27.53 453,339.5 772.33,348.68 428.24,9.17 443.09,-293.63 752.51,-344.09 299.53,-50.46 492.6,284.45 690.64,417.49 413.39,-18.34 534.68,-220.21 594.09,-578.07l-289.62 0c128.72,238.57 143.57,-91.75 153.47,-119.28 -190.61,45.89 -198.03,114.7 -393.59,100.94 -143.57,-4.59 -188.13,-64.23 -334.17,-100.94 19.8,45.89 -71.78,82.58 32.18,45.89l-821.83 -36.71c-183.18,50.46 -205.46,128.46 -378.73,119.28 -126.25,-4.59 -185.65,-68.82 -329.23,-119.28l-819.36 36.71c101.5,36.7 9.91,0 32.18,-45.89 -190.6,45.89 -198.03,114.7 -393.59,100.94 -143.57,-4.59 -185.65,-64.23 -334.17,-100.94 4.95,13.77 -27.23,45.89 74.26,123.87 200.51,151.4 14.86,36.71 79.21,-9.17l-356.45 27.52z"/>
  <path class="fil38" d="M10120.3 5400.27c35.8,0 66.42,-27.01 70.25,-63.23 34.32,-329.37 300.09,-504.47 302.85,-506.24 32.83,-20.99 42.18,-64.73 21.13,-97.47 -21.13,-32.83 -64.73,-42.33 -97.62,-21.06 -13.33,8.51 -325.54,214.09 -366.66,610.02 -3.96,39 24.04,73.52 62.74,77.49l7.3 0.5z"/>
  <path class="fil79" d="M7484.7 22637.42c-341.74,-43.59 -709.42,-58.11 -1060.09,-58.11 -5.37,0 -10.74,0 -17,0l-452.67 0c-6.26,0 -11.63,0 -17,0 -350.68,0 -718.36,14.53 -1060.09,58.11 -35.78,-771.86 -86.78,-2026.81 -87.67,-3022.05l0 -25.43c0.89,-768.22 31.31,-1374.81 124.35,-1469.25 526.02,-526.68 465.19,-997.06 496.5,-1340.31 10.74,-123.5 17,-163.45 50.1,-163.45l1.79 0c53.68,0 176.24,94.44 492.03,125.32 0,0 142.25,5.44 226.34,7.26 84.09,-1.82 226.33,-7.26 226.33,-7.26 315.79,-30.88 438.36,-125.32 492.03,-125.32l1.79 0c33.1,0 39.36,39.95 50.1,163.45 31.31,343.25 -29.52,813.63 496.5,1340.31 92.15,94.44 123.45,695.58 124.35,1458.35l0 47.22c-0.89,993.43 -51.89,2242.93 -87.67,3011.15zm-1799.03 -5847.95c-114.52,0 -265.7,383.2 -265.7,383.2 0,0 28.62,459.48 -146.72,661.08 -174.44,203.41 -432.09,439.5 -424.03,886.27 8.05,446.77 50.09,2767.79 54.56,2967.57 2.68,158 275.54,586.61 389.15,586.61 31.31,0 50.1,-32.69 49.2,-110.78 -7.16,-365.05 -51.89,-2838.62 -61.73,-3403.44 -10.73,-564.82 469.67,-651.99 464.3,-946.2 -5.37,-294.22 46.52,-933.5 -17.89,-1004.32 -12.53,-12.71 -26.84,-19.98 -41.15,-19.98l0 0z"/>
  <path class="fil80" d="M6240.2 23068.25c-51.75,0 -101.59,-2 -149.52,-5.99 -47.91,4 -97.75,5.99 -149.51,5.99 -572.16,0 -1324.5,-340.02 -1324.5,-340.02 0,0 593.25,-141.44 1472.1,-141.44 439.91,0 945.94,-33.96 1482.64,148.23 0,0 -759.05,333.24 -1331.21,333.24l0 0z"/>
 </g>
</svg>
