<?xml version="1.0" encoding="UTF-8"?>
<!DOCTYPE svg PUBLIC "-//W3C//DTD SVG 1.1//EN" "http://www.w3.org/Graphics/SVG/1.1/DTD/svg11.dtd">
<!-- Creator: CorelDRAW 2019 (64-Bit) -->
<svg xmlns="http://www.w3.org/2000/svg" xml:space="preserve" width="82.7724mm" height="296.883mm" version="1.1" style="shape-rendering:geometricPrecision; text-rendering:geometricPrecision; image-rendering:optimizeQuality; fill-rule:evenodd; clip-rule:evenodd"
viewBox="0 0 8263 29637.26"
 xmlns:xlink="http://www.w3.org/1999/xlink"
 xmlns:xodm="http://www.corel.com/coreldraw/odm/2003">
 <defs>
  <style type="text/css">
   <![CDATA[
    .fil1 {fill:#2B2A29}
    <!-- .fil0 {fill:} -->
    .fil30 {fill:#181818}
    .fil4 {fill:#C9C9C8}
    .fil26 {fill:url(#id0)}
    .fil24 {fill:url(#id1)}
    .fil25 {fill:url(#id2)}
    .fil20 {fill:url(#id3)}
    .fil21 {fill:url(#id4)}
    .fil19 {fill:url(#id5)}
    .fil18 {fill:url(#id6)}
    .fil14 {fill:url(#id7)}
    .fil15 {fill:url(#id8)}
    .fil5 {fill:url(#id9)}
    .fil13 {fill:url(#id10)}
    .fil28 {fill:url(#id11)}
    .fil27 {fill:url(#id12)}
    .fil22 {fill:url(#id13)}
    .fil23 {fill:url(#id14)}
    .fil2 {fill:url(#id15)}
    .fil16 {fill:url(#id16)}
    .fil17 {fill:url(#id17)}
    .fil6 {fill:url(#id18)}
    .fil29 {fill:url(#id19)}
    .fil7 {fill:url(#id20)}
    .fil8 {fill:url(#id21)}
    .fil11 {fill:url(#id22)}
    .fil12 {fill:url(#id23)}
    .fil9 {fill:url(#id24)}
    .fil10 {fill:url(#id25)}
    .fil3 {fill:url(#id26);fill-opacity:0.501961}
   ]]>
  </style>
  <linearGradient id="id0" gradientUnits="userSpaceOnUse" x1="3496.34" y1="19812.56" x2="3496.34" y2="19812.56">
   <stop offset="0" style="stop-opacity:1; stop-color:#DCDCDB"/>
   <stop offset="0.8" style="stop-opacity:1; stop-color:#EAEBEA"/>
   <stop offset="1" style="stop-opacity:1; stop-color:#EAEBEA"/>
  </linearGradient>
  <linearGradient id="id1" gradientUnits="userSpaceOnUse" x1="2330.89" y1="4661.79" x2="4661.78" y2="4661.79">
   <stop offset="0" style="stop-opacity:1; stop-color:#E1E4E3"/>
   <stop offset="0.0784314" style="stop-opacity:1; stop-color:#E8E9E8"/>
   <stop offset="1" style="stop-opacity:1; stop-color:#D2D2D1"/>
  </linearGradient>
  <linearGradient id="id2" gradientUnits="userSpaceOnUse" x1="2330.89" y1="4661.79" x2="4661.78" y2="4661.79">
   <stop offset="0" style="stop-opacity:1; stop-color:#E2E5E4"/>
   <stop offset="0.0117647" style="stop-opacity:1; stop-color:#E3E6E5"/>
   <stop offset="0.0784314" style="stop-opacity:1; stop-color:#EAEBEA"/>
   <stop offset="1" style="stop-opacity:1; stop-color:#D2D2D1"/>
  </linearGradient>
  <linearGradient id="id3" gradientUnits="userSpaceOnUse" x1="2330.89" y1="4661.79" x2="4661.78" y2="4661.79">
   <stop offset="0" style="stop-opacity:1; stop-color:#DCDEDD"/>
   <stop offset="0.0784314" style="stop-opacity:1; stop-color:#E2E3E2"/>
   <stop offset="1" style="stop-opacity:1; stop-color:#D0D0CF"/>
  </linearGradient>
  <linearGradient id="id4" gradientUnits="userSpaceOnUse" x1="2330.89" y1="4661.79" x2="4661.78" y2="4661.79">
   <stop offset="0" style="stop-opacity:1; stop-color:#DDE0DF"/>
   <stop offset="0.0784314" style="stop-opacity:1; stop-color:#E4E5E4"/>
   <stop offset="1" style="stop-opacity:1; stop-color:#D0D0CF"/>
  </linearGradient>
  <linearGradient id="id5" gradientUnits="userSpaceOnUse" x1="2330.89" y1="4661.79" x2="4661.78" y2="4661.79">
   <stop offset="0" style="stop-opacity:1; stop-color:#DBDDDC"/>
   <stop offset="0.0784314" style="stop-opacity:1; stop-color:#E1E1E0"/>
   <stop offset="1" style="stop-opacity:1; stop-color:#CFCFCE"/>
  </linearGradient>
  <linearGradient id="id6" gradientUnits="userSpaceOnUse" x1="2330.89" y1="4661.79" x2="4661.78" y2="4661.79">
   <stop offset="0" style="stop-opacity:1; stop-color:#DADCDB"/>
   <stop offset="0.0784314" style="stop-opacity:1; stop-color:#DFE0DF"/>
   <stop offset="1" style="stop-opacity:1; stop-color:#CFCFCE"/>
  </linearGradient>
  <linearGradient id="id7" gradientUnits="userSpaceOnUse" x1="2330.89" y1="4661.79" x2="4661.78" y2="4661.79">
   <stop offset="0" style="stop-opacity:1; stop-color:#D5D6D5"/>
   <stop offset="0.0784314" style="stop-opacity:1; stop-color:#D9D9D8"/>
   <stop offset="1" style="stop-opacity:1; stop-color:#CDCDCC"/>
  </linearGradient>
  <linearGradient id="id8" gradientUnits="userSpaceOnUse" x1="2330.89" y1="4661.79" x2="4661.78" y2="4661.79">
   <stop offset="0" style="stop-opacity:1; stop-color:#D6D8D7"/>
   <stop offset="0.0784314" style="stop-opacity:1; stop-color:#DADBDA"/>
   <stop offset="1" style="stop-opacity:1; stop-color:#CECECD"/>
  </linearGradient>
  <linearGradient id="id9" gradientUnits="userSpaceOnUse" x1="2330.89" y1="4661.79" x2="4661.78" y2="4661.79">
   <stop offset="0" style="stop-opacity:1; stop-color:#CACAC9"/>
   <stop offset="0.0784314" style="stop-opacity:1; stop-color:#CBCBCA"/>
   <stop offset="1" style="stop-opacity:1; stop-color:#C9C9C8"/>
  </linearGradient>
  <linearGradient id="id10" gradientUnits="userSpaceOnUse" x1="2330.89" y1="4661.79" x2="4661.78" y2="4661.79">
   <stop offset="0" style="stop-opacity:1; stop-color:#D4D5D4"/>
   <stop offset="0.0784314" style="stop-opacity:1; stop-color:#D7D8D7"/>
   <stop offset="1" style="stop-opacity:1; stop-color:#CDCDCC"/>
  </linearGradient>
  <linearGradient id="id11" gradientUnits="userSpaceOnUse" x1="-21433764.72" y1="104633.12" x2="-21433764.72" y2="104633.12">
   <stop offset="0" style="stop-opacity:1; stop-color:#C0C0BF"/>
   <stop offset="0.0588235" style="stop-opacity:1; stop-color:#C3C3C2"/>
   <stop offset="0.101961" style="stop-opacity:1; stop-color:#CDCFCE"/>
   <stop offset="0.109804" style="stop-opacity:1; stop-color:#D4D6D5"/>
   <stop offset="0.121569" style="stop-opacity:1; stop-color:#E2E5E4"/>
   <stop offset="0.129412" style="stop-opacity:1; stop-color:#E3E6E5"/>
   <stop offset="0.2" style="stop-opacity:1; stop-color:#EAEBEA"/>
   <stop offset="0.858824" style="stop-opacity:1; stop-color:#D2D2D1"/>
   <stop offset="0.878431" style="stop-opacity:1; stop-color:#D0D0CF"/>
   <stop offset="0.890196" style="stop-opacity:1; stop-color:#BDBFBC"/>
   <stop offset="0.901961" style="stop-opacity:1; stop-color:#B4B7B3"/>
   <stop offset="0.988235" style="stop-opacity:1; stop-color:#ADB1AD"/>
   <stop offset="1" style="stop-opacity:1; stop-color:#ADB1AD"/>
  </linearGradient>
  <linearGradient id="id12" gradientUnits="userSpaceOnUse" xlink:href="#id11" x1="-21433764.72" y1="-67929.66" x2="-21433764.72" y2="-67929.66">
  </linearGradient>
  <linearGradient id="id13" gradientUnits="userSpaceOnUse" x1="2330.89" y1="4661.79" x2="4661.78" y2="4661.79">
   <stop offset="0" style="stop-opacity:1; stop-color:#DEE1E0"/>
   <stop offset="0.0784314" style="stop-opacity:1; stop-color:#E5E6E5"/>
   <stop offset="1" style="stop-opacity:1; stop-color:#D1D1D0"/>
  </linearGradient>
  <linearGradient id="id14" gradientUnits="userSpaceOnUse" x1="2330.89" y1="4661.79" x2="4661.78" y2="4661.79">
   <stop offset="0" style="stop-opacity:1; stop-color:#E0E2E1"/>
   <stop offset="0.0784314" style="stop-opacity:1; stop-color:#E7E8E7"/>
   <stop offset="1" style="stop-opacity:1; stop-color:#D1D1D0"/>
  </linearGradient>
  <linearGradient id="id15" gradientUnits="userSpaceOnUse" x1="-5567592.89" y1="-5559096.81" x2="-5567592.89" y2="-5552104.13">
   <stop offset="0" style="stop-opacity:1; stop-color:#E9E9E9"/>
   <stop offset="0.258824" style="stop-opacity:1; stop-color:#DEDEDE"/>
   <stop offset="0.721569" style="stop-opacity:1; stop-color:#C1C4C1"/>
   <stop offset="0.988235" style="stop-opacity:1; stop-color:#ADB1AD"/>
   <stop offset="1" style="stop-opacity:1; stop-color:#ADB1AD"/>
  </linearGradient>
  <linearGradient id="id16" gradientUnits="userSpaceOnUse" x1="2330.89" y1="4661.79" x2="4661.78" y2="4661.79">
   <stop offset="0" style="stop-opacity:1; stop-color:#D7D9D8"/>
   <stop offset="0.0784314" style="stop-opacity:1; stop-color:#DCDCDB"/>
   <stop offset="1" style="stop-opacity:1; stop-color:#CECECD"/>
  </linearGradient>
  <linearGradient id="id17" gradientUnits="userSpaceOnUse" x1="2330.89" y1="4661.79" x2="4661.78" y2="4661.79">
   <stop offset="0" style="stop-opacity:1; stop-color:#D8DAD9"/>
   <stop offset="0.0784314" style="stop-opacity:1; stop-color:#DDDEDD"/>
   <stop offset="1" style="stop-opacity:1; stop-color:#CFCFCE"/>
  </linearGradient>
  <linearGradient id="id18" gradientUnits="userSpaceOnUse" x1="2330.89" y1="4661.79" x2="4661.78" y2="4661.79">
   <stop offset="0" style="stop-opacity:1; stop-color:#CBCCCB"/>
   <stop offset="0.0784314" style="stop-opacity:1; stop-color:#CCCCCB"/>
   <stop offset="1" style="stop-opacity:1; stop-color:#CACAC9"/>
  </linearGradient>
  <linearGradient id="id19" gradientUnits="userSpaceOnUse" x1="5597189.37" y1="-5589523.08" x2="5597189.37" y2="-5589523.08">
   <stop offset="0" style="stop-opacity:1; stop-color:#ADB1AD"/>
   <stop offset="0.101961" style="stop-opacity:1; stop-color:#B4B7B3"/>
   <stop offset="0.188235" style="stop-opacity:1; stop-color:#BDBFBC"/>
   <stop offset="0.439216" style="stop-opacity:1; stop-color:#D2D2D1"/>
   <stop offset="0.8" style="stop-opacity:1; stop-color:#EAEBEA"/>
   <stop offset="0.870588" style="stop-opacity:1; stop-color:#E3E6E5"/>
   <stop offset="0.878431" style="stop-opacity:1; stop-color:#E0E3E2"/>
   <stop offset="0.890196" style="stop-opacity:1; stop-color:#D0D2D1"/>
   <stop offset="0.901961" style="stop-opacity:1; stop-color:#CDCFCE"/>
   <stop offset="0.941176" style="stop-opacity:1; stop-color:#C3C3C2"/>
   <stop offset="0.988235" style="stop-opacity:1; stop-color:#C0C0BF"/>
   <stop offset="1" style="stop-opacity:1; stop-color:#C0C0BF"/>
  </linearGradient>
  <linearGradient id="id20" gradientUnits="userSpaceOnUse" x1="2330.89" y1="4661.79" x2="4661.78" y2="4661.79">
   <stop offset="0" style="stop-opacity:1; stop-color:#CDCDCC"/>
   <stop offset="0.0784314" style="stop-opacity:1; stop-color:#CECECD"/>
   <stop offset="1" style="stop-opacity:1; stop-color:#CACAC9"/>
  </linearGradient>
  <linearGradient id="id21" gradientUnits="userSpaceOnUse" x1="2330.89" y1="4661.79" x2="4661.78" y2="4661.79">
   <stop offset="0" style="stop-opacity:1; stop-color:#CECECD"/>
   <stop offset="0.0784314" style="stop-opacity:1; stop-color:#CFCFCE"/>
   <stop offset="1" style="stop-opacity:1; stop-color:#CBCBCA"/>
  </linearGradient>
  <linearGradient id="id22" gradientUnits="userSpaceOnUse" x1="2330.89" y1="4661.79" x2="4661.78" y2="4661.79">
   <stop offset="0" style="stop-opacity:1; stop-color:#D1D2D1"/>
   <stop offset="0.0784314" style="stop-opacity:1; stop-color:#D4D4D3"/>
   <stop offset="1" style="stop-opacity:1; stop-color:#CCCCCB"/>
  </linearGradient>
  <linearGradient id="id23" gradientUnits="userSpaceOnUse" x1="2330.89" y1="4661.79" x2="4661.78" y2="4661.79">
   <stop offset="0" style="stop-opacity:1; stop-color:#D3D4D3"/>
   <stop offset="0.0784314" style="stop-opacity:1; stop-color:#D6D6D5"/>
   <stop offset="1" style="stop-opacity:1; stop-color:#CCCCCB"/>
  </linearGradient>
  <linearGradient id="id24" gradientUnits="userSpaceOnUse" x1="2330.89" y1="4661.79" x2="4661.78" y2="4661.79">
   <stop offset="0" style="stop-opacity:1; stop-color:#CFD0CF"/>
   <stop offset="0.0784314" style="stop-opacity:1; stop-color:#D1D1D0"/>
   <stop offset="1" style="stop-opacity:1; stop-color:#CBCBCA"/>
  </linearGradient>
  <linearGradient id="id25" gradientUnits="userSpaceOnUse" x1="2330.89" y1="4661.79" x2="4661.78" y2="4661.79">
   <stop offset="0" style="stop-opacity:1; stop-color:#D0D1D0"/>
   <stop offset="0.0784314" style="stop-opacity:1; stop-color:#D2D3D2"/>
   <stop offset="1" style="stop-opacity:1; stop-color:#CCCCCB"/>
  </linearGradient>
  <linearGradient id="id26" gradientUnits="userSpaceOnUse" x1="2354.2" y1="14294.18" x2="2494.05" y2="14294.18">
   <stop offset="0" style="stop-opacity:1; stop-color:white"/>
   <stop offset="0.2" style="stop-opacity:1; stop-color:#B2AFB2"/>
   <stop offset="0.278431" style="stop-opacity:1; stop-color:#B6B3B6"/>
   <stop offset="0.380392" style="stop-opacity:1; stop-color:#C3C1C3"/>
   <stop offset="0.458824" style="stop-opacity:1; stop-color:#D2D0D2"/>
   <stop offset="0.619608" style="stop-opacity:1; stop-color:#DEDDDE"/>
   <stop offset="0.858824" style="stop-opacity:1; stop-color:whitesmoke"/>
   <stop offset="1" style="stop-opacity:1; stop-color:white"/>
  </linearGradient>
 </defs>
 <g id="Layer_x0020_1">
  <metadata id="CorelCorpID_0Corel-Layer"/>
  <path class="fil0" d="M594.38 29275.97l0 -27842.47c0,-279.71 163.16,-524.45 407.91,-606.04 617.69,-198.13 1876.37,-372.94 3135.05,-372.94 1258.68,0 2482.39,174.82 3123.39,372.94 244.75,69.93 407.91,326.33 407.91,606.04l0 27830.82c0,198.13 -151.51,372.94 -326.33,372.94l-6421.6 0c-186.47,0 -326.33,-163.16 -326.33,-372.94l0 11.65z"/>
  <path class="fil1" d="M1759.82 2575.63c0,0 -46.62,-337.98 -116.55,-466.18 -58.27,-104.89 -372.94,-431.22 -372.94,-431.22l5710.68 0c0,0 -314.67,279.71 -407.91,477.84 -58.27,104.89 -93.24,419.56 -93.24,419.56 -128.2,314.67 -512.8,536.11 -944.01,536.11l-2820.37 0c-431.22,0 -815.81,-221.44 -944.01,-536.11l-11.65 0z"/>
  <path class="fil2" d="M5664.06 28075.57l-2820.38 0c-116.55,0 -209.78,-93.24 -209.78,-209.78l0 -6118.59c0,-116.55 93.24,-209.78 209.78,-209.78l2820.38 0c116.55,0 209.78,93.24 209.78,209.78l0 6118.59c0,116.55 -93.24,209.78 -209.78,209.78zm-2832.03 -6433.26c0,0 -104.89,46.62 -104.89,104.89l0 6118.59c0,58.27 46.62,104.89 104.89,104.89l2820.38 0c0,0 104.89,-46.62 104.89,-104.89l0 -6118.59c0,0 -46.62,-104.89 -104.89,-104.89l-2820.38 0z"/>
  <path class="fil3" d="M2354.2 19614.44l139.85 0 0 -10640.51 -139.85 0 0 10640.51zm-256.4 0l69.93 0 0 -10640.51 -69.93 0 0 10640.51zm874.08 0l139.85 0 0 -10640.51 -139.85 0 0 10640.51zm-268.06 0l69.93 0 0 -10640.51 -69.93 0 0 10640.51zm885.74 0l139.85 0 0 -10640.51 -139.85 0 0 10640.51zm-268.06 0l69.93 0 0 -10640.51 -69.93 0 0 10640.51zm874.09 0l139.85 0 0 -10640.51 -139.85 0 0 10640.51zm-256.41 0l69.93 0 0 -10640.51 -69.93 0 0 10640.51zm874.09 0l139.85 0 0 -10640.51 -139.85 0 0 10640.51zm-256.41 0l69.93 0 0 -10640.51 -69.93 0 0 10640.51zm874.09 0l139.85 0 0 -10640.51 -139.85 0 0 10640.51zm-256.41 0l69.93 0 0 -10640.51 -69.93 0 0 10640.51zm874.09 0l139.85 0 0 -10640.51 -139.85 0 0 10640.51zm-256.41 0l69.93 0 0 -10640.51 -69.93 0 0 10640.51zm1223.72 -18402.38c-594.38,-93.24 -1783.13,-186.47 -2890.3,-186.47l-0.01 0c-1165.44,0 -2319.23,81.58 -2901.96,174.82 -139.85,23.31 -244.75,81.58 -314.67,139.85l326.33 209.78 5768.95 0 326.33 -186.47c-58.27,-81.58 -174.82,-139.85 -326.33,-163.16l11.66 11.65z"/>
  <path class="fil1" d="M2715.48 6782.89l2867 0c96.52,-0.01 174.81,78.28 174.81,174.81l0.01 1107.17c-0.01,96.53 -78.3,174.82 -174.83,174.82l-2866.99 0c-96.52,0 -174.81,-78.29 -174.81,-174.82l0 -1107.17c0,-96.53 78.29,-174.82 174.82,-174.82z"/>
  <g id="_2426325069648">
   <path class="fil4" d="M2750.45 5058.04l2785.41 0c77.22,0 139.84,62.62 139.84,139.85l0.02 687.62c-0.02,77.23 -62.64,139.85 -139.87,139.85l-2785.4 0c-77.22,0 -139.84,-62.62 -139.84,-139.85l-0.02 -687.62c0.02,-77.23 62.64,-139.85 139.87,-139.85z"/>
   <path class="fil5" d="M2750.45 5058.04l2773.76 0c77.22,0 139.84,62.62 139.84,139.85l0.01 675.96c-0.01,77.23 -62.63,139.85 -139.86,139.85l-2773.75 0.01c-77.22,-0.01 -139.84,-62.63 -139.84,-139.86l-0.02 -675.96c0.02,-77.23 62.64,-139.85 139.87,-139.85z"/>
   <path class="fil6" d="M2762.1 5058.04l2773.76 0c77.22,0 139.84,62.62 139.84,139.85l0.01 675.96c-0.01,77.23 -62.63,139.85 -139.86,139.85l-2773.75 0.01c-77.22,-0.01 -139.84,-62.63 -139.84,-139.86l-0.01 -675.96c0.01,-77.23 62.63,-139.85 139.86,-139.85z"/>
   <path class="fil7" d="M2762.1 5058.04l2762.11 0c77.22,0 139.84,62.62 139.84,139.85l0.01 664.31c-0.01,77.23 -62.63,139.85 -139.86,139.85l-2762.1 0c-77.22,0 -139.84,-62.62 -139.84,-139.85l-0.01 -664.31c0.01,-77.23 62.63,-139.85 139.86,-139.85z"/>
   <path class="fil8" d="M2762.1 5069.69l2762.11 0c77.22,0 139.84,62.62 139.84,139.85l0.01 664.31c-0.01,77.23 -62.63,139.85 -139.86,139.85l-2762.1 0.01c-77.22,-0.01 -139.84,-62.63 -139.84,-139.86l-0.01 -664.31c0.01,-77.23 62.63,-139.85 139.86,-139.85z"/>
   <path class="fil9" d="M2762.1 5069.69l2750.45 0c77.22,0 139.84,62.62 139.84,139.85l0.02 652.66c-0.02,77.23 -62.64,139.85 -139.87,139.85l-2750.44 0c-77.22,0 -139.84,-62.62 -139.84,-139.85l-0.01 -652.66c0.01,-77.23 62.63,-139.85 139.86,-139.85z"/>
   <path class="fil10" d="M2762.1 5069.69l2750.45 0c77.22,0 139.84,62.62 139.84,139.85l0.02 652.66c-0.02,77.23 -62.64,139.85 -139.87,139.85l-2750.44 0c-77.22,0 -139.84,-62.62 -139.84,-139.85l-0.01 -652.66c0.01,-77.23 62.63,-139.85 139.86,-139.85z"/>
   <path class="fil11" d="M2773.76 5069.69l2738.79 0c77.22,0 139.84,62.62 139.84,139.85l0.02 641c-0.02,77.23 -62.64,139.85 -139.87,139.85l-2738.78 0.01c-77.22,-0.01 -139.84,-62.63 -139.84,-139.86l-0.02 -641c0.02,-77.23 62.64,-139.85 139.87,-139.85z"/>
   <path class="fil12" d="M2773.76 5081.34l2738.79 0c77.22,0.01 139.84,62.63 139.84,139.86l0.02 641c-0.02,77.23 -62.64,139.85 -139.87,139.85l-2738.78 0c-77.22,0 -139.84,-62.62 -139.84,-139.85l-0.02 -641c0.02,-77.23 62.64,-139.85 139.87,-139.85z"/>
   <path class="fil13" d="M2773.76 5081.34l2727.14 0c77.22,0.01 139.84,62.63 139.84,139.86l0.01 629.34c-0.01,77.23 -62.63,139.85 -139.86,139.85l-2727.13 0.01c-77.22,-0.01 -139.84,-62.63 -139.84,-139.86l-0.02 -629.34c0.02,-77.23 62.64,-139.85 139.87,-139.85z"/>
   <path class="fil14" d="M2773.76 5081.34l2715.48 0c77.22,0.01 139.84,62.63 139.84,139.86l0.02 617.69c-0.02,77.23 -62.64,139.85 -139.87,139.85l-2715.47 0c-77.22,0 -139.84,-62.62 -139.84,-139.85l-0.02 -617.69c0.02,-77.23 62.64,-139.85 139.87,-139.85z"/>
   <path class="fil15" d="M2773.76 5093l2715.48 0c77.22,0 139.84,62.62 139.84,139.85l0.02 617.69c-0.02,77.23 -62.64,139.85 -139.87,139.85l-2715.47 0.01c-77.22,-0.01 -139.84,-62.63 -139.84,-139.86l-0.02 -617.69c0.02,-77.23 62.64,-139.85 139.87,-139.85z"/>
   <path class="fil16" d="M2785.41 5093l2703.83 0c77.22,0 139.84,62.62 139.84,139.85l0.02 606.04c-0.02,77.23 -62.64,139.85 -139.87,139.85l-2703.82 0c-77.22,0 -139.84,-62.62 -139.84,-139.85l-0.01 -606.04c0.01,-77.23 62.63,-139.85 139.86,-139.85z"/>
   <path class="fil17" d="M2785.41 5093l2703.83 0c77.22,0 139.84,62.62 139.84,139.85l0.02 606.04c-0.02,77.23 -62.64,139.85 -139.87,139.85l-2703.82 0c-77.22,0 -139.84,-62.62 -139.84,-139.85l-0.01 -606.04c0.01,-77.23 62.63,-139.85 139.86,-139.85z"/>
   <path class="fil18" d="M2785.41 5093l2692.18 0c77.22,0 139.84,62.62 139.84,139.85l0.01 594.38c-0.01,77.23 -62.63,139.85 -139.86,139.85l-2692.17 0.01c-77.22,-0.01 -139.84,-62.63 -139.84,-139.86l-0.01 -594.38c0.01,-77.23 62.63,-139.85 139.86,-139.85z"/>
   <path class="fil19" d="M2785.41 5104.65l2692.18 0c77.22,0.01 139.84,62.63 139.84,139.86l0.01 594.38c-0.01,77.23 -62.63,139.85 -139.86,139.85l-2692.17 0c-77.22,0 -139.84,-62.62 -139.84,-139.85l-0.01 -594.38c0.01,-77.23 62.63,-139.85 139.86,-139.85z"/>
   <path class="fil20" d="M2785.41 5104.65l2680.52 0c77.22,0.01 139.84,62.63 139.84,139.86l0.02 582.72c-0.02,77.23 -62.64,139.85 -139.87,139.85l-2680.51 0.01c-77.22,-0.01 -139.84,-62.63 -139.84,-139.86l-0.01 -582.72c0.01,-77.23 62.63,-139.85 139.86,-139.85z"/>
   <path class="fil21" d="M2797.07 5104.65l2680.52 0c77.22,0.01 139.84,62.63 139.84,139.86l0.01 571.07c-0.01,77.23 -62.63,139.85 -139.86,139.85l-2680.51 0c-77.22,0 -139.84,-62.62 -139.84,-139.85l-0.02 -571.07c0.02,-77.23 62.64,-139.85 139.87,-139.85z"/>
   <path class="fil22" d="M2797.07 5116.31l2668.86 0c77.22,0 139.84,62.62 139.84,139.85l0.02 571.07c-0.02,77.23 -62.64,139.85 -139.87,139.85l-2668.85 0.01c-77.22,-0.01 -139.84,-62.63 -139.84,-139.86l-0.02 -571.07c0.02,-77.23 62.64,-139.85 139.87,-139.85z"/>
   <path class="fil23" d="M2797.07 5116.31l2668.86 0c77.22,0 139.84,62.62 139.84,139.85l0.02 559.42c-0.02,77.23 -62.64,139.85 -139.87,139.85l-2668.85 0c-77.22,0 -139.84,-62.62 -139.84,-139.85l-0.02 -559.42c0.02,-77.23 62.64,-139.85 139.87,-139.85z"/>
   <path class="fil24" d="M2797.07 5116.31l2657.21 0c77.22,0 139.84,62.62 139.84,139.85l0.01 559.42c-0.01,77.23 -62.63,139.85 -139.86,139.85l-2657.2 0c-77.22,0 -139.84,-62.62 -139.84,-139.85l-0.02 -559.42c0.02,-77.23 62.64,-139.85 139.87,-139.85z"/>
   <path class="fil25" d="M2797.07 5116.31l2657.21 0c77.22,0 139.84,62.62 139.84,139.85l0.01 547.76c-0.01,77.23 -62.63,139.85 -139.86,139.85l-2657.2 0.01c-77.22,-0.01 -139.84,-62.63 -139.84,-139.86l-0.02 -547.76c0.02,-77.23 62.64,-139.85 139.87,-139.85z"/>
  </g>
  <polygon class="fil26" points="1619.97,19975.73 2260.96,20395.28 6328.37,20395.28 6876.12,19975.73 "/>
  <polygon class="fil27" points="7691.94,1981.26 7691.94,28390.24 7668.63,28355.28 7668.63,2004.57 "/>
  <polygon class="fil28" points="582.73,1981.26 582.73,28390.24 606.04,28355.28 606.04,2004.57 "/>
  <polygon class="fil29" points="8111.5,128.2 8111.5,1048.9 8239.69,1048.9 8239.69,128.2 "/>
  <path class="fil30" d="M8111.5 349.64l-477.83 0c0,0 -81.58,-69.93 -81.58,-151.51l-0.01 0c0,-1.96 0.07,-3.93 0.16,-5.93 -0.08,-1.9 -0.15,-3.81 -0.15,-5.73l-0.01 0c0,-81.58 81.58,-186.47 116.55,-186.47l11.65 0 524.46 0 23.31 0c0,0 34.96,116.55 34.96,198.13l0 0c0,40.79 -8.73,78.66 -23.31,106.35l0.01 884.29c0,104.89 -34.97,198.12 -93.24,268.05l-454.53 524.45 0 0.01c-13.04,-4.6 -24.62,-9.92 -34.96,-15.82l0 26308.26c0,209.78 -116.55,291.36 -163.16,116.55l-139.85 -512.8 -0.01 -0.01 0 -25045.41c0,-291.36 46.62,-582.73 128.2,-804.15l174.82 -501.14 0 121.2 314.67 -272.71c93.23,-81.58 139.85,-186.47 139.85,-303.02l0 -722.58zm-7528.77 1631.62l-454.53 -524.45c-58.27,-69.93 -93.24,-163.16 -93.24,-268.05l0 -865.97c-21.44,-27.7 -34.96,-73.93 -34.96,-124.67l0 0 0.07 -6.32 -0.07 -5.34 0 0c0,-17.96 2.27,-37.07 5.79,-55.91 9.93,-66.42 29.17,-130.56 29.17,-130.56l11.66 0 536.11 0 2.21 0.08c18.61,1.28 40.62,18.48 61.08,43.77 29.37,35.37 55.93,86.49 63.04,131.75 0.73,3.66 1.36,7.29 1.87,10.86l-0.01 0c0,1.92 -0.07,3.83 -0.15,5.73 0.09,2 0.16,3.97 0.16,5.93l-0.01 0c0,81.58 -81.58,151.51 -81.58,151.51l-466.18 0 0 722.58c0,116.55 46.62,221.44 139.85,303.02l303.03 262.63 0 -111.12 186.47 501.14c81.58,221.43 128.2,512.8 128.2,804.15l0 25045.41 0 0.01 -151.51 512.8c-46.61,174.81 -163.16,93.23 -163.16,-116.55l0 -26302.15c-7.23,3.5 -14.96,6.76 -23.32,9.71l0.01 -0.01z"/>
  <ellipse class="fil0" cx="7913.37" cy="268.05" rx="314.67" ry="58.27"/>
  <path class="fil0" d="M34.96 268.05c0,0 139.85,58.27 314.67,58.27 174.82,0 314.67,-23.31 314.67,-58.27 0,-34.96 -139.85,-58.27 -314.67,-58.27 -174.82,0 -314.67,23.31 -314.67,58.27z"/>
 </g>
</svg>
