<?xml version="1.0" encoding="UTF-8"?>
<!DOCTYPE svg PUBLIC "-//W3C//DTD SVG 1.1//EN" "http://www.w3.org/Graphics/SVG/1.1/DTD/svg11.dtd">
<!-- Creator: CorelDRAW -->
<svg xmlns="http://www.w3.org/2000/svg" xml:space="preserve" width="210mm" height="297mm" version="1.1" style="shape-rendering:geometricPrecision; text-rendering:geometricPrecision; image-rendering:optimizeQuality; fill-rule:evenodd; clip-rule:evenodd"
viewBox="0 0 21000 29700"
 xmlns:xlink="http://www.w3.org/1999/xlink"
 xmlns:xodm="http://www.corel.com/coreldraw/odm/2003">
 <defs>
  <style type="text/css">
   <![CDATA[
    .fil8 {fill:#EBECEC}
    <!-- .fil0 {fill:} -->
    .fil4 {fill:black}
    .fil6 {fill:#0E0E0E}
    .fil2 {fill:#1E1E1E}
    .fil5 {fill:#272727}
    .fil7 {fill:#630A0A}
    .fil1 {fill:url(#id0)}
    .fil3 {fill:url(#id1)}
   ]]>
  </style>
  <linearGradient id="id0" gradientUnits="userSpaceOnUse" x1="2501.3" y1="10162.35" x2="2501.3" y2="10162.35">
   <stop offset="0" style="stop-opacity:1; stop-color:#5A5A57"/>
   <stop offset="0.141176" style="stop-opacity:1; stop-color:#636360"/>
   <stop offset="0.368627" style="stop-opacity:1; stop-color:#7B7B79"/>
   <stop offset="0.670588" style="stop-opacity:1; stop-color:#A4A4A2"/>
   <stop offset="0.988235" style="stop-opacity:1; stop-color:#D9D9D8"/>
   <stop offset="1" style="stop-opacity:1; stop-color:#D9D9D8"/>
  </linearGradient>
  <linearGradient id="id1" gradientUnits="userSpaceOnUse" xlink:href="#id0" x1="-1399832.3" y1="10840.09" x2="-1401035.42" y2="10840.09">
  </linearGradient>
 </defs>
 <g id="Layer_x0020_1">
  <metadata id="CorelCorpID_0Corel-Layer"/>
  <path class="fil0" d="M15749.32 1872.8c-881.51,-847.6 -2271.58,-1203.6 -2271.58,-1203.6 0,0 -949.32,-661.13 -3000.5,-661.13 -2051.19,0 -3000.51,661.13 -3000.51,661.13 0,0 -1390.07,372.95 -2271.58,1203.6 -1135.79,1067.98 -1305.31,3322.6 -1305.31,4051.54l0 410.17c-149.19,196.15 -237.32,434.12 -237.32,691.71l0 1203.6 0 1328.16c-244.63,64.88 -547.13,199.17 -796.74,468.75 -271.24,305.14 -372.95,661.13 -372.95,661.13 0,0 67.81,118.66 203.42,135.62 108.8,13.6 828.47,-267.34 1108.89,-379 27.93,73.27 59.6,146.65 94.7,218.96l0 10314.31c0,188.17 16.32,529.6 42.04,951.24 -174.54,205.45 -279.36,463.04 -279.36,743.97l0 1203.59 0 1542.63c0,9.22 0.13,18.56 0.37,27.97l0.31 10.57c0.17,5.29 0.39,10.61 0.63,15.96 21.22,482.05 316.79,1167.62 743.95,1529.9 197.35,677.97 607.58,1271.66 1458.5,1822.96 1305.31,830.65 4610.96,881.51 4610.96,881.51 0,0 3153.07,84.76 4610.95,-881.51 827.45,-555.57 1242.69,-1135.89 1447.05,-1798.4 14.67,-12.03 29.17,-24.54 43.52,-37.47 435.29,-379.67 730.15,-1093.49 730.15,-1571.49l0 -2746.22c0,-289.34 -111.17,-553.94 -295.21,-762.28 25.08,-413.21 40.93,-747.5 40.93,-932.93l0 -10280c41.92,-83.33 79.31,-168.37 111.67,-253.26 280.42,111.67 1000.09,392.6 1108.88,378.99 135.61,-16.96 203.42,-135.62 203.42,-135.62l-13.04 -12.1 29.99 12.09c0,0 -101.71,-355.99 -372.95,-661.13 -255.41,-275.84 -566.2,-410.03 -813.69,-473.15l0 -2527.35c0,-267.21 -94.82,-513.34 -254.28,-713.53l0 -405.3c0,-711.99 -169.52,-2966.61 -1305.31,-4051.54l0 16.95z"/>
  <path class="fil1" d="M3916.8 10382.72c0,0 -711.99,406.85 -1186.64,457.71 -50.86,0 -152.57,0 -203.42,-67.81 -33.9,-33.9 -33.9,-67.81 0,-84.76 271.23,-355.99 1034.08,-423.8 1034.08,-423.8l372.95 135.62 -16.97 -16.96z"/>
  <path class="fil2" d="M3543.85 10281.01l322.09 101.71c-169.52,84.76 -728.94,372.95 -1135.79,423.8 0,0 -33.9,0 -67.81,0 -50.86,0 -101.71,0 -118.66,-50.86 -33.9,-50.86 -16.95,-101.71 0,-118.66 220.38,-305.14 932.36,-372.95 1000.17,-389.9l0 0 0 33.91zm0 -16.96c0,0 -796.75,67.81 -1034.08,389.9 -16.95,33.9 -33.9,84.76 0,152.57 33.9,50.86 101.71,50.86 152.57,50.86 33.9,0 50.86,0 67.81,0 474.66,-50.86 1186.64,-457.71 1186.64,-457.71l-372.95 -135.62 0.01 0z"/>
  <path class="fil3" d="M17054.63 10382.72c0,0 6.38,3.66 18.33,10.29l350.91 -127.61c-8.64,-0.92 -13.26,-1.34 -13.26,-1.34l-372.95 135.62 16.97 -16.96zm57.57 31.79c42.64,23.09 106.79,57 185.1,95.83 251.77,119.24 650.64,291.83 943.98,330.09l0.81 0 0.83 0 0.77 0 0.08 0 0.88 0 0.9 0 0.63 0 0.29 0 0.94 0 0.96 0c43.29,-0.1 115.05,-2.08 166.25,-38.61 4.4,-3.8 8.77,-7.89 13.13,-12.25 33.9,-50.85 0,-118.66 0,-118.66 -5.48,-8.22 -11.48,-16.26 -17.79,-24.16 -55.57,-60.08 -125.41,-111.13 -202.33,-154.35 -310.2,-161.39 -780.05,-211.39 -780.05,-211.39l0 33.9 0 0.01 -315.38 99.59z"/>
  <path class="fil2" d="M17427.58 10281.01c0,0 796.75,84.76 1000.17,389.9 0,0 33.9,67.81 0,118.66 -33.9,33.9 -67.81,50.86 -118.66,50.86 -16.95,0 -50.86,0 -67.81,0 -389.9,-50.86 -966.27,-339.04 -1135.79,-423.8l322.09 -101.71 0 -0.01 0 -33.9zm0 -16.96l-372.95 135.62c0,0 711.99,406.85 1186.64,457.71 0,0 33.9,0 67.81,0 50.86,0 101.71,0 152.57,-50.86 50.86,-50.86 33.9,-118.66 0,-152.57 -237.33,-339.04 -1034.08,-389.9 -1034.08,-389.9l0.01 0z"/>
  <path class="fil4" d="M4374.5 8585.8c0,0 864.55,2932.71 966.27,4017.64 118.66,1084.93 67.81,4899.14 67.81,4899.14l-1051.03 -559.42 0 -8340.41 16.95 -16.95z"/>
  <polygon class="fil4" points="4357.55,17943.34 5391.63,18197.62 5306.87,23893.51 4374.5,20435.29 "/>
  <polygon class="fil5" points="4357.55,16926.21 4357.55,17943.34 5391.63,18197.62 5425.53,17485.63 "/>
  <path class="fil6" d="M4374.5 9179.12l-711.99 355.99 271.23 559.42c0,0 169.52,-152.57 254.28,-135.62l84.77 0.01c0,0 118.66,50.86 118.66,50.86l0 -830.65 -16.95 -0.01z"/>
  <path class="fil4" d="M16579.97 8585.8c0,0 -864.55,2932.71 -966.27,4017.64 -118.66,1084.93 -67.81,4899.14 -67.81,4899.14l1051.03 -559.42 0 -8340.41 -16.95 -16.95z"/>
  <polygon class="fil4" points="16613.88,17943.34 15562.85,18197.62 15647.61,23893.51 16596.93,20435.29 "/>
  <polygon class="fil5" points="16613.88,16926.21 16613.88,17943.34 15562.85,18197.62 15545.9,17485.63 "/>
  <path class="fil6" d="M16579.97 9179.12l711.99 355.99 -271.23 559.42c0,0 -169.52,-152.57 -254.28,-135.62l-84.76 0.01c0,0 -118.66,50.86 -118.66,50.86l0 -830.65 16.94 -0.01z"/>
  <path class="fil4" d="M10477.24 26826.2c-4068.49,0 -4950,-1864.72 -4950,-1864.72 0,0 -169.52,2000.33 796.75,2983.55 711.99,711.99 4153.25,762.84 4153.25,762.84 0,0 3203.93,186.47 4153.24,-762.84 983.22,-983.22 796.75,-2983.55 796.75,-2983.55 0,0 -898.46,1864.72 -4949.99,1864.72z"/>
  <path class="fil7" d="M11799.49 26588.87c0,0 -983.21,50.86 -1305.3,50.86 -322.09,0 -1220.55,-50.86 -1305.31,-50.86 -84.76,0 -135.62,152.57 -135.62,152.57 457.71,101.71 1440.92,84.76 1440.92,84.76 0,0 983.21,0 1440.91,-84.76 0,0 -50.86,-152.57 -135.62,-152.57l0.02 0z"/>
  <path class="fil4" d="M4611.83 7579.54l84.76 745.89c0,0 72.67,-115.38 251.73,-289.31 -92.01,98.29 -176.65,202.05 -251.73,312.36l864.55 3424.3c0,0 1983.39,-339.04 4916.1,-339.04 2932.7,0 4916.09,339.04 4916.09,339.04l864.55 -3424.3c-35.24,-51.15 -72.9,-100.62 -111.88,-149.14 86.46,79.15 128.83,126.09 128.83,126.09l84.76 -745.89c0,0 -1779.97,-1627.4 -5628.07,-1627.4 -4695.72,0 -6119.69,1627.4 -6119.69,1627.4z"/>
  <path class="fil8" d="M4611.83 7619.54c0,0 1118.84,-4983.9 2610.62,-6713.01 355.99,-406.85 661.13,-508.56 661.13,-508.56 0,0 -389.9,186.47 -779.79,711.99 -1356.16,1712.16 -2424.14,6458.73 -2424.14,6458.73l-50.86 50.86 -16.96 -0.01z"/>
  <path class="fil8" d="M16359.6 7619.54c0,0 -1118.84,-4983.9 -2610.62,-6713.01 -355.99,-406.85 -661.13,-508.56 -661.13,-508.56 0,0 389.9,186.47 779.79,711.99 1356.16,1712.16 2424.14,6458.73 2424.14,6458.73l50.86 50.86 16.96 -0.01z"/>
  <g id="_2426174517056">
   <path class="fil4" d="M10765.43 13315.42c0,203.42 -169.52,372.95 -372.95,372.95 -203.43,0 -372.95,-169.52 -372.95,-372.95 0,-203.43 169.52,-372.95 372.95,-372.95 203.43,0 372.95,169.52 372.95,372.95z"/>
   <path class="fil4" d="M10392.48 13807.03l0 0c-101.71,0 -186.47,-84.76 -186.47,-186.47l0 -254.28c0,-101.71 84.76,-186.47 186.47,-186.47l0 0c101.71,0 186.47,84.76 186.47,186.47l0 254.28c0,101.71 -84.76,186.47 -186.47,186.47z"/>
   <path class="fil4" d="M10562 13637.51c0,101.71 -84.76,186.47 -186.47,186.47 -101.71,0 -186.47,-84.76 -186.47,-186.47 0,-101.71 84.76,-186.47 186.47,-186.47 101.71,0 186.47,84.76 186.47,186.47z"/>
   <path class="fil4" d="M10392.48 15976.9l0 0c0,0 -33.9,-16.95 -33.9,-33.9l0 -2254.62c0,0 16.95,-33.9 33.9,-33.9l0 -0.01c0,0 33.9,16.95 33.9,33.9l0 2254.62c0,0 -16.95,33.9 -33.9,33.9l0 0.01z"/>
  </g>
  <path class="fil8" d="M4425.36 8941.79c237.33,813.7 779.79,2814.04 881.51,3661.64 101.71,983.22 67.81,4238.01 67.81,4797.43l-949.32 -508.56 0 -7950.51 0 0zm-50.86 -355.99l0 8340.41c0,0 1034.08,559.42 1034.08,559.42 0,0 50.86,-3814.21 -67.81,-4899.14 -118.66,-1084.93 -966.27,-4017.64 -966.27,-4017.64l0 0 0 16.95z"/>
  <path class="fil8" d="M4408.41 18011.14l932.36 220.38 -84.76 5305.99 -847.6 -3119.18 0 -2407.19 0 0zm-50.86 -67.8l0 2491.95c0,0 949.32,3475.17 949.32,3475.17l84.76 -5695.89 -1034.08 -254.28 0 0 0 -16.95z"/>
  <path class="fil8" d="M16529.12 8941.79l0 7950.51c0,0 -932.36,508.56 -932.36,508.56 0,-559.42 -33.9,-3831.16 67.81,-4797.43 84.76,-847.6 644.18,-2847.95 881.51,-3661.64l-0.01 0 -16.95 0zm50.85 -355.99c0,0 -864.55,2932.71 -966.27,4017.64 -118.66,1084.93 -67.81,4899.14 -67.81,4899.14l1051.03 -559.42 0 -8340.41 0.01 0 -16.96 -16.95z"/>
  <path class="fil8" d="M16546.07 18011.14l0 2407.19c0,0 -864.55,3119.18 -864.55,3119.18l-84.76 -5305.99 932.36 -220.38 0 0 16.95 0zm67.81 -67.8l-1034.08 254.28 84.76 5695.89 932.36 -3475.17 0 -2491.95 0.01 -0.01 16.95 16.96z"/>
 </g>
</svg>
