<?xml version="1.0" encoding="UTF-8"?>
<!DOCTYPE svg PUBLIC "-//W3C//DTD SVG 1.1//EN" "http://www.w3.org/Graphics/SVG/1.1/DTD/svg11.dtd">
<!-- Creator: CorelDRAW 2019 (64-Bit) -->
<svg xmlns="http://www.w3.org/2000/svg" xml:space="preserve" width="100.167mm" height="297mm" version="1.1" style="shape-rendering:geometricPrecision; text-rendering:geometricPrecision; image-rendering:optimizeQuality; fill-rule:evenodd; clip-rule:evenodd"
viewBox="0 0 10002.46 29657.75"
 xmlns:xlink="http://www.w3.org/1999/xlink"
 xmlns:xodm="http://www.corel.com/coreldraw/odm/2003">
 <defs>
  <style type="text/css">
   <![CDATA[
    .fil21 {fill:#434242}
    .fil0 {fill:#2B2A29}
    <!-- .fil1 {fill:} -->
    .fil3 {fill:black}
    .fil20 {fill:#C9C9C9}
    .fil18 {fill:#D6D6D6}
    .fil5 {fill:#DBDBDB}
    .fil19 {fill:#E3E3E3}
    .fil2 {fill:#F7941E}
    .fil22 {fill:#F8F8F8}
    .fil12 {fill:url(#id0)}
    .fil15 {fill:url(#id1)}
    .fil16 {fill:url(#id2)}
    .fil4 {fill:url(#id3)}
    .fil14 {fill:url(#id4)}
    .fil7 {fill:url(#id5)}
    .fil13 {fill:url(#id6)}
    .fil8 {fill:url(#id7)}
    .fil9 {fill:url(#id8)}
    .fil10 {fill:url(#id9)}
    .fil17 {fill:url(#id10)}
    .fil11 {fill:url(#id11)}
    .fil6 {fill:url(#id12)}
   ]]>
  </style>
  <linearGradient id="id0" gradientUnits="userSpaceOnUse" x1="1890198.39" y1="-2825.53" x2="1869660.99" y2="-2825.53">
   <stop offset="0" style="stop-opacity:1; stop-color:#F7F7F7"/>
   <stop offset="1" style="stop-opacity:1; stop-color:#DBDBDB"/>
  </linearGradient>
  <linearGradient id="id1" gradientUnits="userSpaceOnUse" x1="264992.02" y1="341.69" x2="264959.71" y2="259.38">
   <stop offset="0" style="stop-opacity:1; stop-color:white"/>
   <stop offset="1" style="stop-opacity:1; stop-color:#363B39"/>
  </linearGradient>
  <linearGradient id="id2" gradientUnits="userSpaceOnUse" xlink:href="#id1" x1="265329.09" y1="283.14" x2="265296.78" y2="200.82">
  </linearGradient>
  <linearGradient id="id3" gradientUnits="userSpaceOnUse" xlink:href="#id1" x1="7477.21" y1="613.43" x2="7957.09" y2="245.37">
  </linearGradient>
  <linearGradient id="id4" gradientUnits="userSpaceOnUse" xlink:href="#id1" x1="265076.95" y1="312.53" x2="265045.11" y2="229.99">
  </linearGradient>
  <linearGradient id="id5" gradientUnits="userSpaceOnUse" xlink:href="#id1" x1="21867.71" y1="311.97" x2="21898.61" y2="230.55">
  </linearGradient>
  <linearGradient id="id6" gradientUnits="userSpaceOnUse" xlink:href="#id1" x1="265196.79" y1="297.58" x2="265164.47" y2="215.27">
  </linearGradient>
  <linearGradient id="id7" gradientUnits="userSpaceOnUse" xlink:href="#id1" x1="22169.42" y1="341.77" x2="22201.73" y2="259.46">
  </linearGradient>
  <linearGradient id="id8" gradientUnits="userSpaceOnUse" xlink:href="#id1" x1="20973.87" y1="282.63" x2="21005.23" y2="201.46">
  </linearGradient>
  <linearGradient id="id9" gradientUnits="userSpaceOnUse" xlink:href="#id1" x1="20588.53" y1="268.13" x2="20619.89" y2="186.93">
  </linearGradient>
  <linearGradient id="id10" gradientUnits="userSpaceOnUse" xlink:href="#id1" x1="265437.22" y1="268.69" x2="265404.9" y2="186.37">
  </linearGradient>
  <linearGradient id="id11" gradientUnits="userSpaceOnUse" xlink:href="#id1" x1="2085301.25" y1="31.99" x2="2081567.91" y2="-5792.24">
  </linearGradient>
  <linearGradient id="id12" gradientUnits="userSpaceOnUse" xlink:href="#id1" x1="21441.16" y1="297.02" x2="21472.53" y2="215.83">
  </linearGradient>
 </defs>
 <g id="Layer_x0020_1">
  <metadata id="CorelCorpID_0Corel-Layer"/>
  <path class="fil0" d="M6650.72 0l-3226.6 0c-1252.61,0 -2267.21,572.93 -2267.21,1824.32l0 172.98c0,-439.21 126.37,-749.6 342.29,-971.67 399.95,-511.59 1110.3,-755.73 1923.69,-755.73l3226.6 0c812.17,0 1523.74,242.91 1923.69,755.73 215.92,222.06 342.29,532.45 342.29,971.67l0 -172.98c0,-1251.38 -1014.61,-1824.32 -2265.98,-1824.32l1.23 0zm-5133.11 8652.93l7039.63 0 0 -204.88 -7039.63 0 0 204.88zm7627.29 16605.35l612.19 0c135.49,-0.01 245.37,109.87 245.37,245.36l0 2358c0,135.49 -109.88,245.36 -245.37,245.36l-612.19 0.01c-135.49,-0.01 -245.37,-109.88 -245.37,-245.38l0 -2357.98c0,-135.5 109.88,-245.38 245.37,-245.38l0 0.01zm0 -3429.03l612.19 0c135.49,-0.01 245.37,109.87 245.37,245.36l0 2358c0,135.48 -109.88,245.35 -245.37,245.35l-612.19 0.01c-135.49,-0.01 -245.37,-109.88 -245.37,-245.37l0 -2357.98c0,-135.5 109.88,-245.38 245.37,-245.38l0 0.01zm-8899.54 3429.03l612.2 0c135.5,-0.01 245.38,109.87 245.38,245.36l-0.01 2358c0.01,135.49 -109.87,245.36 -245.36,245.36l-612.21 0.01c-135.48,-0.01 -245.36,-109.88 -245.36,-245.38l0 -2357.98c0,-135.5 109.88,-245.38 245.37,-245.38l-0.01 0.01zm0 -3429.03l612.2 0c135.5,-0.01 245.38,109.87 245.38,245.36l-0.01 2358c0.01,135.48 -109.87,245.35 -245.36,245.35l-612.21 0.01c-135.48,-0.01 -245.36,-109.88 -245.36,-245.37l0 -2357.98c0,-135.5 109.88,-245.38 245.37,-245.38l-0.01 0.01zm8899.54 -7461.67l612.19 0c135.49,0 245.37,109.88 245.37,245.37l0 2357.98c0,135.48 -109.88,245.36 -245.37,245.36l-612.19 0.01c-135.49,-0.01 -245.37,-109.89 -245.37,-245.38l0 -2357.97c0,-135.49 109.88,-245.37 245.37,-245.37zm0 -3429.04l612.19 0c135.49,0 245.37,109.88 245.37,245.37l0 2358c0,135.49 -109.88,245.37 -245.37,245.37l-612.19 -0.01c-135.49,0.01 -245.37,-109.87 -245.37,-245.36l0 -2358c0,-135.49 109.88,-245.37 245.37,-245.37zm-8899.54 3429.04l612.2 0c135.5,0 245.38,109.88 245.38,245.37l-0.01 2357.98c0.01,135.48 -109.87,245.36 -245.36,245.36l-612.21 0.01c-135.48,-0.01 -245.36,-109.89 -245.36,-245.38l0 -2357.97c0,-135.49 109.88,-245.37 245.37,-245.37l-0.01 0zm0 -3429.04l612.2 0c135.5,0 245.38,109.88 245.38,245.37l-0.01 2358c0.01,135.49 -109.87,245.37 -245.36,245.37l-612.21 -0.01c-135.48,0.01 -245.36,-109.87 -245.36,-245.36l0 -2358c0,-135.49 109.88,-245.37 245.37,-245.37l-0.01 0zm8520.44 -5333.1l-208.56 325.12c0,0 47.76,266.54 70.04,676.19l-1.34 1.03c20.86,391.36 19.63,912.77 -69.93,1458.72l1.45 -1.4 -0.22 1.4 357.01 -344.74 0 -0.01 0 0 0 -29.13 0 -8.72 0 -20.02 0 -17.17 0.01 -11.17 0 -25.36 0 -2.61c0.1,-433.63 0.79,-729.73 1.08,-993.62l0.01 -2.77 0 -3.42c0.39,-181.38 0.88,-347.93 1.36,-533.68 0,-159.49 -66.25,-323.89 -149.68,-468.65l-1.23 0zm-7457.98 0l208.56 325.12c0,0 -47.76,266.54 -70.04,676.19l1.34 1.03c-20.86,391.36 -19.63,912.77 69.93,1458.72l-1.45 -1.4 0.22 1.4 -357.01 -344.74 0 -0.01 0 0 0 -29.13 0 -8.72 0 -20.02 0 -17.17 -0.01 -11.17 0 -25.36 0 -2.61c-0.1,-433.63 -0.79,-729.73 -1.08,-993.62l-0.01 -2.77 0 -3.42c-0.39,-181.38 -0.88,-347.93 -1.36,-533.68 0,-159.49 66.25,-323.89 149.68,-468.65l1.23 0zm6866.64 -544.72c-372.09,-81.13 -747.95,-147.48 -1126.17,-199.22l-0.08 0.48c-1298,-177.89 -2622.99,-181.57 -3922.22,-13.49l0 -0.01 -0.07 -0.39c-412.19,53.47 -821.71,124.31 -1226.77,212.63 -77.29,-523.85 -20.86,-933.62 -77.29,-1441.54 352.08,-111.73 700.97,-205 1049.34,-280.37l-6.52 -38.61c164.67,-20.86 329.7,-39.31 495.02,-55.41 1539.38,-259.32 3092.55,-172.81 4888.38,218.58 0,637.96 0,1017.05 -73.62,1597.35zm436.76 -1048.94c0,0 339.84,209.79 233.1,515.28 -12.35,35.34 -31.47,72.89 -55.32,111.03l1008.58 295.03c-12.27,42.95 -29.45,73.62 -29.45,73.62l-1062.78 -254.26c-209.11,251.27 -544.26,459.81 -437.66,159.81 139.86,-391.36 265,-796.23 342.29,-899.28l1.23 -1.23zm-7152.51 0c0,0 -339.84,209.79 -233.1,515.28 12.35,35.34 31.47,72.9 55.32,111.04l-1008.57 295.02c12.27,42.95 29.45,73.62 29.45,73.62l1062.77 -254.26c209.11,251.27 544.26,459.81 437.66,159.81 -139.86,-391.36 -265,-796.23 -342.29,-899.28l-1.23 -1.23z"/>
  <path class="fil1" d="M900.5 8652.93l8272.61 0c321.43,0 581.52,260.09 581.52,581.52l0 19841.76c0,321.43 -260.09,581.52 -581.52,581.52l-8272.61 0.01c-321.43,0 -581.52,-260.09 -581.52,-581.52l0 -19841.76c0,-321.43 260.09,-581.52 581.52,-581.52l0 -0.01zm-598.7 -3898.9c85.88,-111.64 875.97,-348.42 875.97,-348.42 155.81,-49.07 209.79,83.42 226.97,197.52l-1132.38 331.24c-13.49,-50.29 -18.4,-118.99 29.45,-180.33l-0.01 0zm9466.33 0c-85.88,-111.64 -875.97,-348.42 -875.97,-348.42 -155.81,-49.07 -209.79,83.42 -226.97,197.52l1132.38 331.24c13.49,-50.29 18.4,-118.99 -29.45,-180.33l0.01 0zm-8611.22 -1172.87l0 -1756.84c0,-1251.39 1014.61,-1824.32 2265.98,-1824.32l3226.6 0c1251.38,0 2265.98,572.93 2265.98,1824.32l0 1756.84 -455.27 1421.21c124.58,131.11 456.5,513.99 456.5,871.77 -1.23,479.7 -2.46,1177.76 -2.46,1992.39 0,123.91 -368.06,381.55 -368.06,381.55l-7028.58 0c0,0 -357.01,-98.15 -357.01,-381.55 -1.23,-506.68 -2.46,-1388.78 -2.46,-1992.39 0,-316.45 256.36,-696.95 478.72,-827.5l-481.17 -1465.47 1.22 0z"/>
  <path class="fil2" d="M1696.72 1613.3c33.12,-4.9 57.66,-36.81 57.66,-71.16 0,-137.4 53.98,-271.13 147.22,-371.73 23.31,-25.76 28.22,-65.03 7.36,-90.79l0.01 0c-20.86,-25.76 -66.25,-24.54 -96.92,7.36 -115.33,123.91 -179.12,285.85 -180.34,453.93 0,44.17 31.89,76.06 65.03,72.39l-0.01 0z"/>
  <path class="fil2" d="M8375.67 1613.3c-33.12,-4.9 -57.66,-36.81 -57.66,-71.16 0,-137.4 -53.98,-271.13 -147.22,-371.73 -23.31,-25.76 -28.22,-65.03 -7.36,-90.79l-0.01 0c20.86,-25.76 66.25,-24.54 96.92,7.36 115.33,123.91 179.12,285.85 180.34,453.93 0,44.17 -31.89,76.06 -65.03,72.39l0.01 0z"/>
  <path class="fil3" d="M8160.96 5119.62c-1018.28,-222.05 -2068.47,-333.69 -3124.78,-333.69 -1056.31,0 -2106.48,112.87 -3124.77,333.69l-63.8 13.49 -9.82 -65.03c-42.94,-288.3 -45.4,-544.71 -47.85,-792.53 -2.46,-207.33 -4.9,-420.81 -30.67,-650.22l-6.13 -50.3 47.85 -14.72c1113.97,-353.33 2208.33,-525.09 3346.83,-525.09 956.94,0 1975.22,120.23 3111.28,368.06l47.85 11.04 0 49.07c0,636.73 0,1020.74 -74.83,1604.71l-8.59 66.25 -65.03 -14.72 2.46 0z"/>
  <polygon class="fil0" points="6461.78,271.13 3611.83,271.13 3787.27,0 6286.35,0 "/>
  <g id="_2426333455648">
   <g>
    <path class="fil4" d="M8240.71 1061.22c-63.8,0 -120.23,-20.86 -161.94,-61.34 -223.28,-215.92 -487.06,-287.08 -792.54,-369.28 -76.06,-20.86 -154.58,-41.71 -234.33,-65.03 -185.26,-55.21 -274.81,-139.86 -265,-251.5 11.04,-139.86 188.93,-239.24 277.27,-251.5 56.44,-7.36 111.64,-11.04 166.85,-11.04 555.76,0 1023.19,360.7 1198.63,516.5 147.22,130.04 120.23,257.63 101.83,305.49 -40.48,107.97 -165.62,188.93 -290.77,188.93l0 0.01 0 -1.23z"/>
    <path class="fil5" d="M7076.44 147.22c-93.24,12.27 -406.08,212.25 1.23,334.93 408.54,121.46 764.32,168.08 1062.45,455.16 127.59,123.91 484.6,-83.42 233.1,-306.71 -251.5,-223.28 -749.6,-558.22 -1296.77,-484.6l0 1.22z"/>
   </g>
   <path class="fil6" d="M7857.93 555.76c0,20.86 -49.07,38.04 -109.18,38.04 -60.11,0 -109.18,-17.18 -109.18,-38.04 0,-20.86 49.07,-38.04 109.18,-38.04 60.11,0 109.18,17.18 109.18,38.04z"/>
   <path class="fil7" d="M8011.29 593.79c0,20.86 -49.07,38.04 -109.18,38.04 -60.11,0 -109.18,-17.18 -109.18,-38.04 0,-20.86 49.07,-38.04 109.18,-38.04 60.11,0 109.18,17.18 109.18,38.04z"/>
   <path class="fil8" d="M8120.48 669.86c0,-21 -48.88,-38.03 -109.18,-38.03 -60.3,0 -109.18,17.03 -109.18,38.03 0,21 48.88,38.03 109.18,38.03 60.3,0 109.18,-17.03 109.18,-38.03z"/>
   <path class="fil9" d="M7689.85 517.73c0,-21 -48.88,-38.03 -109.18,-38.03 -60.3,0 -109.18,17.03 -109.18,38.03 0,21 48.88,38.03 109.18,38.03 60.3,0 109.18,-17.03 109.18,-38.03z"/>
   <path class="fil10" d="M7551.22 479.7c0,20.86 -49.07,38.04 -109.18,38.04 -60.11,0 -109.18,-17.18 -109.18,-38.04 0,-20.86 49.07,-38.04 109.18,-38.04 60.11,0 109.18,17.18 109.18,38.04z"/>
  </g>
  <g id="_2426368833776">
   <g>
    <path class="fil11" d="M1899.16 1061.22c63.8,0 120.23,-20.86 161.94,-61.34 223.28,-215.92 487.06,-287.08 792.54,-369.28 76.06,-20.86 154.58,-41.71 234.33,-65.03 185.26,-55.21 274.81,-139.86 265,-251.5 -11.04,-139.86 -188.93,-239.24 -277.27,-251.5 -56.44,-7.36 -111.64,-11.04 -166.85,-11.04 -555.76,0 -1023.19,360.7 -1198.63,516.5 -147.22,130.04 -120.23,257.63 -101.83,305.49 40.48,107.97 165.62,188.93 290.77,188.93l0 0.01 0 -1.23z"/>
    <path class="fil12" d="M3064.66 147.22c93.24,12.27 406.08,212.25 -1.23,334.93 -408.54,121.46 -764.32,168.08 -1062.45,455.16 -127.59,123.91 -484.6,-83.42 -233.1,-306.71 251.5,-223.28 749.6,-558.22 1296.77,-484.6l0 1.22z"/>
   </g>
   <path class="fil13" d="M2283.16 555.76c0,20.86 49.07,38.04 109.18,38.04 60.11,0 109.18,-17.18 109.18,-38.04 0,-20.86 -49.07,-38.04 -109.18,-38.04 -60.11,0 -109.18,17.18 -109.18,38.04z"/>
   <path class="fil14" d="M2129.8 593.79c0,20.86 49.07,38.04 109.18,38.04 60.11,0 109.18,-17.18 109.18,-38.04 0,-20.86 -49.07,-38.04 -109.18,-38.04 -60.11,0 -109.18,17.18 -109.18,38.04z"/>
   <path class="fil15" d="M2020.61 669.86c0,20.86 49.07,38.04 109.18,38.04 60.11,0 109.18,-17.18 109.18,-38.04 0,-20.86 -49.07,-38.04 -109.18,-38.04 -60.11,0 -109.18,17.18 -109.18,38.04z"/>
   <path class="fil16" d="M2450.01 517.73c0,20.86 49.07,38.04 109.18,38.04 60.11,0 109.18,-17.18 109.18,-38.04 0,-20.86 -49.07,-38.04 -109.18,-38.04 -60.11,0 -109.18,17.18 -109.18,38.04z"/>
   <path class="fil17" d="M2588.64 479.7c0,20.86 49.07,38.04 109.18,38.04 60.11,0 109.18,-17.18 109.18,-38.04 0,-20.86 -49.07,-38.04 -109.18,-38.04 -60.11,0 -109.18,17.18 -109.18,38.04z"/>
  </g>
  <path class="fil18" d="M8309.41 1328.68c0,0 53.98,122.69 111.64,311.62 29.45,94.47 60.11,204.88 89.56,323.89 30.67,119 55.21,246.6 80.97,375.42 22.08,128.82 45.4,257.63 60.11,379.1 15.95,121.46 26.99,235.55 33.12,333.7 14.72,196.29 7.36,330.02 7.36,330.02 0,0 -53.98,-122.69 -111.64,-311.62 -29.45,-94.47 -60.11,-204.88 -88.33,-323.89 -30.67,-119 -55.21,-246.6 -80.97,-375.42 -22.08,-128.82 -44.17,-257.63 -58.89,-379.1 -15.95,-121.46 -26.99,-235.55 -33.12,-333.7 -14.72,-196.29 -8.59,-330.02 -8.59,-330.02l-1.23 0z"/>
  <path class="fil18" d="M1754.38 1328.68c0,0 6.13,133.73 -8.59,330.02 -6.13,98.15 -17.18,212.25 -33.12,333.7 -14.72,121.46 -36.81,250.27 -58.89,379.1 -25.76,127.59 -50.3,256.41 -80.97,375.42 -28.22,119 -58.89,229.42 -89.56,323.89 -57.66,188.93 -111.64,311.62 -111.64,311.62 0,0 -6.13,-133.73 7.36,-330.02 6.13,-98.15 17.18,-212.25 33.12,-333.7 14.72,-121.46 36.81,-250.27 58.89,-379.1 25.76,-127.59 51.53,-256.41 80.97,-375.42 28.22,-119 58.89,-229.42 88.33,-323.89 57.66,-188.93 111.64,-311.62 111.64,-311.62l2.46 0z"/>
  <path class="fil19" d="M8915.48 7498.48c40.48,0 73.62,-31.89 73.62,-71.16l0 -590.11c0,-39.25 -33.12,-71.16 -73.62,-71.16l0 732.43z"/>
  <path class="fil20" d="M1158.14 7498.48c-40.48,0 -73.62,-31.89 -73.62,-71.16l0 -590.11c0,-39.25 33.12,-71.16 73.62,-71.16l0 732.43z"/>
  <g id="_2391724039712">
   <path class="fil21" d="M7719.3 3733.3c-948.35,-392.59 -2005.89,-597.47 -3110.04,-568.03 0,-42.94 0,-87.11 0,-130.04 1121.32,-29.45 2196.04,180.34 3159.12,579.08 -17.18,39.25 -33.12,79.75 -50.3,119l1.22 0z"/>
   <path class="fil21" d="M5752.67 3172.62c0,77.29 -342.29,139.86 -765.55,139.86 -423.25,0 -765.54,-62.57 -765.54,-139.86 0,-77.29 342.29,-139.86 765.54,-139.86 423.26,0 765.55,62.57 765.55,139.86z"/>
  </g>
  <polygon class="fil22" points="4152.84,1133.05 5870.41,1133.05 5870.41,887.68 4152.84,887.68 "/>
  <polygon class="fil22" points="3617.9,1602.53 6405.35,1602.53 6405.35,1357.16 3617.9,1357.16 "/>
  <polygon class="fil22" points="3181.98,2051.68 6762.02,2051.68 6762.02,1806.31 3181.98,1806.31 "/>
  <polygon class="fil22" points="2739.39,2514.04 7204.61,2514.04 7204.61,2268.67 2739.39,2268.67 "/>
 </g>
</svg>
