<svg width="30" height="30" viewBox="0 0 30 30" fill="none" xmlns="http://www.w3.org/2000/svg">
<path d="M24.8429 13.1324L23.3675 6.97278C23.1089 5.89818 22.0199 5.22318 20.9393 5.48838C19.9889 5.72058 19.5269 6.37878 19.3397 6.84198C19.1183 7.38858 18.1301 9.86538 17.8991 10.3772C17.8181 10.5548 17.6471 10.6484 17.6123 10.664C17.4161 10.751 15.4523 11.5796 15.4523 11.5796V11.5832C15.2569 11.6733 15.0913 11.8173 14.975 11.9983C14.8587 12.1793 14.7966 12.3898 14.7959 12.605C14.7959 13.2308 15.3083 13.7384 15.9401 13.7384C16.0763 13.7384 16.2059 13.7102 16.3277 13.667V13.6712L18.9347 12.5876C19.2923 12.4208 19.4669 12.2096 19.6445 11.9018C19.7189 11.7722 19.9451 11.2298 20.1293 10.7846L21.7025 17.3636L21.7007 27.5576C21.6977 28.5704 22.3973 29.396 23.4197 29.3996C24.4433 29.4032 25.1831 28.5854 25.1897 27.5708L25.1999 15.539C25.1987 14.9732 24.9737 13.6286 24.8429 13.1324Z" fill="#29A7E4"/>
<path d="M19.1394 5.18361C20.4169 5.18361 21.4524 4.15745 21.4524 2.89161C21.4524 1.62577 20.4169 0.599609 19.1394 0.599609C17.862 0.599609 16.8264 1.62577 16.8264 2.89161C16.8264 4.15745 17.862 5.18361 19.1394 5.18361Z" fill="#29A7E4"/>
<path d="M10.2786 22.2614V24.8294C10.5948 24.7775 10.8824 24.6153 11.0904 24.3716C11.298 24.1274 11.4018 23.8418 11.4018 23.513C11.4018 23.219 11.3148 22.9652 11.1408 22.7516C10.9644 22.5404 10.677 22.3772 10.2786 22.2614ZM8.69225 18.2732C8.53625 18.4832 8.45765 18.716 8.45765 18.9704C8.45765 19.2044 8.52905 19.4192 8.67005 19.6184C8.81285 19.8188 9.02825 19.9808 9.31445 20.1032V17.825C9.0647 17.9045 8.84677 18.0615 8.69225 18.2732ZM14.7942 15.2228H14.7966L11.2116 8.03062L11.211 8.03722C11.0771 7.76062 10.8678 7.52746 10.6072 7.36453C10.3466 7.2016 10.0454 7.11553 9.73805 7.11622H6.43385C5.53205 7.11562 4.80005 7.84042 4.80005 8.73442V29.4002H14.9796V16.034C14.9788 15.7532 14.9154 15.4761 14.7942 15.2228ZM12.303 25.2842C11.817 25.8284 11.1426 26.162 10.2804 26.2844V27.5162H9.31625V26.3174C8.54945 26.2256 7.92845 25.9418 7.44845 25.4684C6.97085 24.9938 6.66545 24.3248 6.53285 23.4602L8.26685 23.2748C8.32751 23.605 8.4641 23.9166 8.66585 24.185C8.85965 24.4394 9.07685 24.6236 9.31565 24.7376V21.9788C8.44805 21.7328 7.81025 21.3602 7.40645 20.864C7.00025 20.366 6.79745 19.7618 6.79745 19.0502C6.79745 18.3302 7.02605 17.7254 7.48625 17.2352C7.94465 16.7462 8.55425 16.4636 9.31625 16.3898V15.7376H10.2804V16.3898C10.9836 16.4726 11.5446 16.7108 11.961 17.1032C12.3762 17.495 12.642 18.0224 12.7578 18.6806L11.0772 18.8978C10.9746 18.3806 10.7094 18.0284 10.2804 17.8442V20.4182C11.343 20.7044 12.0672 21.074 12.453 21.5276C12.8376 21.9824 13.0308 22.565 13.0308 23.276C13.0308 24.0704 12.7884 24.7394 12.303 25.2842Z" fill="#29A7E4"/>
</svg>
