<svg width="21" height="16" viewBox="0 0 21 16" fill="none" xmlns="http://www.w3.org/2000/svg">
<mask id="mask0_469_9226" style="mask-type:luminance" maskUnits="userSpaceOnUse" x="-2" y="0" width="23" height="16">
<path d="M4.85677 14.4167C4.57926 14.4167 4.31745 14.2798 4.17571 14.0412C3.44375 12.8092 3.02344 11.3703 3.02344 9.83337C3.02344 5.27703 6.71709 1.58337 11.2734 1.58337C15.8298 1.58337 19.5234 5.27703 19.5234 9.83337C19.5234 11.3703 19.1031 12.8092 18.3712 14.0412C18.2295 14.2798 17.9676 14.4167 17.6901 14.4167H4.85677Z" stroke="white" stroke-width="2" stroke-linecap="round"/>
<path d="M10.6369 6.22244C12.632 5.87066 14.5328 7.20164 14.8846 9.19669C15.2364 11.1918 13.9054 13.0926 11.9103 13.4444C9.91528 13.7961 -1.36474 12.0619 -1.36474 12.0619C-1.36474 12.0619 8.64186 6.57423 10.6369 6.22244Z" fill="black"/>
<path d="M10.9551 8.02798C11.9482 7.85288 12.9039 8.52209 13.079 9.5151C13.2541 10.5081 12.5849 11.4638 11.5919 11.6389C10.5988 11.814 2.2461 11.4252 2.2461 11.4252C2.2461 11.4252 9.96213 8.20307 10.9551 8.02798Z" fill="white"/>
</mask>
<g mask="url(#mask0_469_9226)">
<path d="M22.2734 -3H0.273438V19H22.2734V-3Z" />
</g>
</svg>
