<svg width="32" height="32" viewBox="0 0 16 16" fill="none" xmlns="http://www.w3.org/2000/svg">
<path d="M11.3333 14.5667H4.66667C4.35523 14.5667 4.1 14.3114 4.1 14V2.66667C4.1 2.35524 4.35523 2.10001 4.66667 2.10001H11.3333C11.6448 2.10001 11.9 2.35524 11.9 2.66667V14C11.9 14.3114 11.6448 14.5667 11.3333 14.5667Z" fill="#fff" stroke="#e7ec2e" stroke-width="0.2"/>
<path d="M9.6 1.9H6.4C6.28472 1.9 6.19469 1.88918 6.13676 1.87309C6.12013 1.86847 6.10818 1.86396 6.1 1.86024V1.13976C6.10818 1.13604 6.12013 1.13153 6.13676 1.12691C6.19469 1.11082 6.28472 1.1 6.4 1.1H9.6C9.71528 1.1 9.80531 1.11082 9.86324 1.12691C9.87987 1.13153 9.89182 1.13604 9.9 1.13976V1.86024C9.89182 1.86396 9.87987 1.86847 9.86324 1.87309C9.80531 1.88918 9.71528 1.9 9.6 1.9Z" fill="#e7ec2e" stroke="#e7ec2e" stroke-width="0.2"/>
<path d="M5.1858 10.4081C5.08625 10.4073 4.9876 10.4183 4.89559 10.4404C4.80357 10.4625 4.72002 10.4952 4.64978 10.5367C4.57954 10.5782 4.52402 10.6277 4.48643 10.6822C4.44885 10.7367 4.42995 10.7951 4.43084 10.8542C4.44076 11.6745 4.49879 12.4939 4.60192 13.3131L4.61612 13.425C4.63216 13.5521 4.71629 13.6731 4.85621 13.7704C4.99614 13.8677 5.18451 13.9361 5.39379 13.9657C7.08138 14.2032 8.83372 14.2163 10.5247 14.004C10.955 13.9507 11.2733 13.7367 11.3113 13.4773L11.3271 13.3734C11.4475 12.5529 11.5197 11.7302 11.5429 10.9072C11.5447 10.8482 11.5267 10.7894 11.4899 10.7344C11.4531 10.6793 11.3983 10.6291 11.3287 10.5865C11.2591 10.544 11.1761 10.51 11.0844 10.4866C10.9927 10.4631 10.8942 10.4506 10.7947 10.4499L5.1868 10.4081L5.1858 10.4081Z" fill="#e7ec2e"/>
<path d="M5.18558 6.43476C5.08603 6.43401 4.98739 6.44481 4.89537 6.46651C4.80336 6.48822 4.71981 6.52041 4.64958 6.56121C4.57935 6.60201 4.52383 6.65061 4.48625 6.70419C4.44867 6.75776 4.42978 6.81525 4.43068 6.87331C4.4407 7.67991 4.49883 8.48571 4.60206 9.29125L4.61628 9.40123C4.63233 9.5262 4.71648 9.64523 4.85641 9.74091C4.99635 9.8366 5.18473 9.90392 5.39401 9.93303C7.08163 10.1668 8.83397 10.1799 10.5249 9.97128C10.9552 9.91897 11.2735 9.7086 11.3115 9.45349L11.3272 9.35133C11.4475 8.54453 11.5197 7.73561 11.5428 6.92633C11.5445 6.86829 11.5265 6.81053 11.4897 6.7564C11.4529 6.70227 11.3981 6.65285 11.3285 6.611C11.2589 6.56916 11.1759 6.53573 11.0842 6.51266C10.9925 6.48958 10.894 6.47732 10.7945 6.47658L5.18658 6.43477L5.18558 6.43476Z" fill="#e7ec2e"/>
<path d="M5.19888 2.65724C5.09933 2.65649 5.00069 2.66671 4.90868 2.68732C4.81668 2.70792 4.73314 2.73848 4.66293 2.77724C4.59271 2.816 4.53721 2.86218 4.49965 2.91309C4.46209 2.96401 4.44322 3.01865 4.44414 3.07384C4.45446 3.8406 4.51289 4.6066 4.61642 5.37239L4.63067 5.47694C4.64677 5.59574 4.73096 5.70892 4.87093 5.79993C5.0109 5.89094 5.19931 5.955 5.4086 5.98275C7.0963 6.2056 8.84864 6.21866 10.5395 6.021C10.9698 5.97143 11.288 5.77158 11.3258 5.52908L11.3416 5.43197C11.4616 4.66508 11.5334 3.89615 11.5562 3.12687C11.558 3.07169 11.5399 3.01678 11.5031 2.96531C11.4663 2.91384 11.4115 2.86684 11.3419 2.82704C11.2722 2.78723 11.1892 2.75543 11.0975 2.73346C11.0058 2.71149 10.9073 2.69979 10.8078 2.69906L5.19988 2.65725L5.19888 2.65724Z" fill="#fff"/>
</svg>
