<svg width="32" height="32" viewBox="0 0 16 16" fill="none" xmlns="http://www.w3.org/2000/svg">
<path d="M11.3333 14.5667H4.66667C4.35523 14.5667 4.1 14.3114 4.1 14V2.66667C4.1 2.35524 4.35523 2.10001 4.66667 2.10001H11.3333C11.6448 2.10001 11.9 2.35524 11.9 2.66667V14C11.9 14.3114 11.6448 14.5667 11.3333 14.5667Z" fill="#fff" stroke="#9e9e9e" stroke-width="0.2"/>
<path d="M9.6 1.9H6.4C6.28472 1.9 6.19469 1.88918 6.13676 1.87309C6.12013 1.86847 6.10818 1.86396 6.1 1.86024V1.13976C6.10818 1.13604 6.12013 1.13153 6.13676 1.12691C6.19469 1.11082 6.28472 1.1 6.4 1.1H9.6C9.71528 1.1 9.80531 1.11082 9.86324 1.12691C9.87987 1.13153 9.89182 1.13604 9.9 1.13976V1.86024C9.89182 1.86396 9.87987 1.86847 9.86324 1.87309C9.80531 1.88918 9.71528 1.9 9.6 1.9Z" fill="#9e9e9e" stroke="#9e9e9e" stroke-width="0.2"/>
</svg>
