<svg width="24" height="24" viewBox="0 0 24 24" fill="none" xmlns="http://www.w3.org/2000/svg">
<path d="M2 3.75C2 3.02065 2.28973 2.32118 2.80546 1.80546C3.32118 1.28973 4.02065 1 4.75 1H17.25C17.9793 1 18.6788 1.28973 19.1945 1.80546C19.7103 2.32118 20 3.02065 20 3.75V10.022C19.386 9.62852 18.7097 9.3418 18 9.174V3.75C18 3.55109 17.921 3.36032 17.7803 3.21967C17.6397 3.07902 17.4489 3 17.25 3H4.75C4.55109 3 4.36032 3.07902 4.21967 3.21967C4.07902 3.36032 4 3.55109 4 3.75V16.25C4 16.664 4.336 17 4.75 17H10.174C10.344 17.72 10.634 18.395 11.022 19H4.75C4.02065 19 3.32118 18.7103 2.80546 18.1945C2.28973 17.6788 2 16.9793 2 16.25V3.75ZM22 15.5C22 14.0413 21.4205 12.6424 20.3891 11.6109C19.3576 10.5795 17.9587 10 16.5 10C15.0413 10 13.6424 10.5795 12.6109 11.6109C11.5795 12.6424 11 14.0413 11 15.5C11 16.9587 11.5795 18.3576 12.6109 19.3891C13.6424 20.4205 15.0413 21 16.5 21C17.9587 21 19.3576 20.4205 20.3891 19.3891C21.4205 18.3576 22 16.9587 22 15.5ZM17 16L17.001 18.503C17.001 18.6356 16.9483 18.7628 16.8546 18.8566C16.7608 18.9503 16.6336 19.003 16.501 19.003C16.3684 19.003 16.2412 18.9503 16.1474 18.8566C16.0537 18.7628 16.001 18.6356 16.001 18.503V16H13.496C13.3634 16 13.2362 15.9473 13.1424 15.8536C13.0487 15.7598 12.996 15.6326 12.996 15.5C12.996 15.3674 13.0487 15.2402 13.1424 15.1464C13.2362 15.0527 13.3634 15 13.496 15H16V12.5C16 12.3674 16.0527 12.2402 16.1464 12.1464C16.2402 12.0527 16.3674 12 16.5 12C16.6326 12 16.7598 12.0527 16.8536 12.1464C16.9473 12.2402 17 12.3674 17 12.5V15H19.497C19.6296 15 19.7568 15.0527 19.8506 15.1464C19.9443 15.2402 19.997 15.3674 19.997 15.5C19.997 15.6326 19.9443 15.7598 19.8506 15.8536C19.7568 15.9473 19.6296 16 19.497 16H17Z" />
</svg>
