<svg width="14" height="14" viewBox="0 0 14 14" fill="none" xmlns="http://www.w3.org/2000/svg">
<path d="M0.333252 11.6668C0.333252 12.8002 1.19992 13.6668 2.33325 13.6668H11.6666C12.7999 13.6668 13.6666 12.8002 13.6666 11.6668V6.3335H0.333252V11.6668ZM11.6666 1.66683H10.3333V1.00016C10.3333 0.600163 10.0666 0.333496 9.66658 0.333496C9.26658 0.333496 8.99992 0.600163 8.99992 1.00016V1.66683H4.99992V1.00016C4.99992 0.600163 4.73325 0.333496 4.33325 0.333496C3.93325 0.333496 3.66658 0.600163 3.66658 1.00016V1.66683H2.33325C1.19992 1.66683 0.333252 2.5335 0.333252 3.66683V5.00016H13.6666V3.66683C13.6666 2.5335 12.7999 1.66683 11.6666 1.66683Z" />
</svg>
