<svg width="30" height="30" viewBox="0 0 30 30" fill="none" xmlns="http://www.w3.org/2000/svg">
<path d="M21.5625 2.8125C21.5625 2.31522 21.76 1.83831 22.1117 1.48667C22.4633 1.13504 22.9402 0.9375 23.4375 0.9375H27.1875C27.6848 0.9375 28.1617 1.13504 28.5133 1.48667C28.865 1.83831 29.0625 2.31522 29.0625 2.8125V8.4375C29.0625 8.93478 28.865 9.41169 28.5133 9.76332C28.1617 10.115 27.6848 10.3125 27.1875 10.3125H26.25V28.125C26.25 28.3736 26.1512 28.6121 25.9754 28.7879C25.7996 28.9637 25.5611 29.0625 25.3125 29.0625C25.0639 29.0625 24.8254 28.9637 24.6496 28.7879C24.4738 28.6121 24.375 28.3736 24.375 28.125V10.3125H23.4375C22.9402 10.3125 22.4633 10.115 22.1117 9.76332C21.76 9.41169 21.5625 8.93478 21.5625 8.4375V2.8125ZM20.1562 2.8125H9.75656C8.90334 2.81243 8.0756 3.10333 7.41001 3.63717C6.74442 4.171 6.28077 4.91586 6.09562 5.74875L5.4975 8.4375H4.6875C4.43886 8.4375 4.2004 8.53627 4.02459 8.71209C3.84877 8.8879 3.75 9.12636 3.75 9.375C3.75 9.62364 3.84877 9.8621 4.02459 10.0379C4.2004 10.2137 4.43886 10.3125 4.6875 10.3125H5.08125L4.77188 11.7047C4.17902 12.0269 3.68409 12.5031 3.33924 13.083C2.9944 13.663 2.81242 14.3253 2.8125 15V24.375C2.8125 25.1209 3.10882 25.8363 3.63626 26.3637C4.16371 26.8912 4.87908 27.1875 5.625 27.1875H6.5625C7.30842 27.1875 8.02379 26.8912 8.55124 26.3637C9.07868 25.8363 9.375 25.1209 9.375 24.375V23.4375H20.625V24.375C20.6248 25.0398 20.8601 25.6832 21.2891 26.191C21.7182 26.6988 22.3132 27.0383 22.9688 27.1491V25.1869C22.8262 25.1046 22.7079 24.9862 22.6256 24.8437C22.5433 24.7012 22.5 24.5396 22.5 24.375V23.4375H22.9688V11.6859C22.5362 11.624 22.1204 11.4757 21.7463 11.25H6.79312L7.92563 6.15562C8.01818 5.73926 8.24994 5.36689 8.58263 5.09998C8.91533 4.83307 9.32909 4.68757 9.75563 4.6875H20.1562V2.8125ZM4.6875 24.375V23.4375H7.5V24.375C7.5 24.6236 7.40123 24.8621 7.22541 25.0379C7.0496 25.2137 6.81114 25.3125 6.5625 25.3125H5.625C5.37636 25.3125 5.1379 25.2137 4.96209 25.0379C4.78627 24.8621 4.6875 24.6236 4.6875 24.375ZM12.6562 19.6875C12.4076 19.6875 12.1692 19.5887 11.9933 19.4129C11.8175 19.2371 11.7188 18.9986 11.7188 18.75C11.7188 18.5014 11.8175 18.2629 11.9933 18.0871C12.1692 17.9113 12.4076 17.8125 12.6562 17.8125H17.3438C17.5924 17.8125 17.8308 17.9113 18.0067 18.0871C18.1825 18.2629 18.2812 18.5014 18.2812 18.75C18.2812 18.9986 18.1825 19.2371 18.0067 19.4129C17.8308 19.5887 17.5924 19.6875 17.3438 19.6875H12.6562ZM10.3125 16.4062C10.3125 16.7792 10.1643 17.1369 9.90062 17.4006C9.6369 17.6643 9.27921 17.8125 8.90625 17.8125C8.53329 17.8125 8.1756 17.6643 7.91188 17.4006C7.64816 17.1369 7.5 16.7792 7.5 16.4062C7.5 16.0333 7.64816 15.6756 7.91188 15.4119C8.1756 15.1482 8.53329 15 8.90625 15C9.27921 15 9.6369 15.1482 9.90062 15.4119C10.1643 15.6756 10.3125 16.0333 10.3125 16.4062ZM21.0938 15C21.4667 15 21.8244 15.1482 22.0881 15.4119C22.3518 15.6756 22.5 16.0333 22.5 16.4062C22.5 16.7792 22.3518 17.1369 22.0881 17.4006C21.8244 17.6643 21.4667 17.8125 21.0938 17.8125C20.7208 17.8125 20.3631 17.6643 20.0994 17.4006C19.8357 17.1369 19.6875 16.7792 19.6875 16.4062C19.6875 16.0333 19.8357 15.6756 20.0994 15.4119C20.3631 15.1482 20.7208 15 21.0938 15Z" fill="#29A7E4"/>
</svg>
