<svg width="30" height="30" viewBox="0 0 30 30" fill="none" xmlns="http://www.w3.org/2000/svg">
<path d="M25.8 3.6002V1.2002H4.2V3.6002H0V29.4002H2.4V6.0002H4.2V8.4002H25.8V6.0002H27.6V29.4002H30V3.6002H25.8ZM25.2312 17.4002L21.3162 10.7252C21.1608 10.4366 20.7702 10.2002 20.4486 10.2002H9.5508C9.2292 10.2002 8.8386 10.4366 8.6838 10.7252L4.7694 17.4002C4.1262 17.4002 3.6 17.9402 3.6 18.6002V24.6002C3.6 25.2602 4.1262 25.8002 4.7694 25.8002H6V27.6002C6 28.5902 6.7278 29.4002 7.692 29.4002H8.277C9.2412 29.4002 10.2 28.5902 10.2 27.6002V25.8002H19.8V27.6002C19.8 28.5902 20.7582 29.4002 21.723 29.4002H22.308C23.2722 29.4002 24 28.5902 24 27.6002V25.8002H25.2312C25.8738 25.8002 26.4 25.2602 26.4 24.6002V18.6002C26.4 17.9402 25.8738 17.4002 25.2312 17.4002ZM6.8154 22.2002C6.0084 22.2002 5.3538 21.5288 5.3538 20.7002C5.3538 19.8716 6.0084 19.2002 6.8154 19.2002C7.623 19.2002 8.277 19.8716 8.277 20.7002C8.277 21.5288 7.623 22.2002 6.8154 22.2002ZM7.692 17.4002L10.3536 12.5366C10.4976 12.2414 10.8786 12.0002 11.1996 12.0002H18.7998C19.1214 12.0002 19.5024 12.2414 19.6458 12.5366L22.308 17.4002H7.692ZM23.1846 22.2002C22.3776 22.2002 21.723 21.5288 21.723 20.7002C21.723 19.8716 22.3776 19.2002 23.1846 19.2002C23.9922 19.2002 24.6468 19.8716 24.6468 20.7002C24.6468 21.5288 23.9916 22.2002 23.1846 22.2002Z" fill="#29A7E4"/>
</svg>
