<svg width="30" height="30" viewBox="0 0 15 15" fill="none" xmlns="http://www.w3.org/2000/svg">
<path d="M7.50004 0.833336C6.1815 0.833336 4.89257 1.22433 3.79624 1.95687C2.69991 2.68941 1.84543 3.73061 1.34085 4.94878C0.836263 6.16695 0.70424 7.5074 0.961475 8.8006C1.21871 10.0938 1.85365 11.2817 2.786 12.214C3.71835 13.1464 4.90624 13.7813 6.19944 14.0386C7.49265 14.2958 8.83309 14.1638 10.0513 13.6592C11.2694 13.1546 12.3106 12.3001 13.0432 11.2038C13.7757 10.1075 14.1667 8.81854 14.1667 7.5C14.1667 5.73189 13.4643 4.0362 12.2141 2.78596C10.9638 1.53571 9.26815 0.833336 7.50004 0.833336ZM7.52504 8.2C7.45466 8.20055 7.38485 8.18716 7.31967 8.16061C7.25448 8.13405 7.19519 8.09485 7.14522 8.04527C7.09526 7.99569 7.0556 7.93671 7.02854 7.87173C7.00147 7.80675 6.98754 7.73706 6.98754 7.66667V3.60417C6.98754 3.46162 7.04417 3.3249 7.14497 3.2241C7.24578 3.1233 7.38249 3.06667 7.52504 3.06667C7.6676 3.06667 7.80431 3.1233 7.90511 3.2241C8.00592 3.3249 8.06254 3.46162 8.06254 3.60417V7.66667C8.06255 7.73706 8.04861 7.80675 8.02155 7.87173C7.99449 7.93671 7.95483 7.99569 7.90486 8.04527C7.8549 8.09485 7.79561 8.13405 7.73042 8.16061C7.66523 8.18716 7.59543 8.20055 7.52504 8.2ZM7.50004 11.5792C6.62246 11.5896 5.76453 11.3192 5.05145 10.8076C4.33837 10.2959 3.80747 9.56977 3.53622 8.7351C3.26497 7.90042 3.26758 7.0009 3.54366 6.16781C3.81974 5.33472 4.35484 4.61167 5.07088 4.10417C5.19559 4.01527 5.35027 3.97899 5.5015 4.00316C5.65274 4.02733 5.78841 4.11 5.87921 4.23334C5.92354 4.29424 5.95537 4.36332 5.97288 4.43659C5.99039 4.50986 5.99322 4.58587 5.98121 4.66023C5.9692 4.7346 5.94259 4.80585 5.90292 4.86989C5.86325 4.93393 5.81129 4.98947 5.75004 5.03334C5.33819 5.33581 5.01067 5.73873 4.79871 6.20369C4.58676 6.66866 4.49743 7.18016 4.53925 7.68944C4.58107 8.19872 4.75264 8.6888 5.03761 9.11296C5.32257 9.53712 5.71144 9.88122 6.16712 10.1124C6.6228 10.3437 7.13012 10.4543 7.64071 10.4339C8.15129 10.4134 8.64812 10.2625 9.08384 9.99553C9.51955 9.72857 9.87962 9.35445 10.1297 8.90884C10.3798 8.46324 10.5116 7.961 10.5125 7.45C10.5111 6.97918 10.3969 6.51556 10.1794 6.09798C9.96194 5.6804 9.64753 5.32104 9.26254 5.05C9.144 4.95645 9.06736 4.81974 9.04939 4.6698C9.03143 4.51986 9.07362 4.36891 9.16671 4.25C9.25875 4.12798 9.39501 4.04695 9.54618 4.02435C9.69734 4.00176 9.85134 4.03939 9.97504 4.12917C10.6836 4.64248 11.2102 5.3682 11.4784 6.20103C11.7466 7.03386 11.7425 7.93048 11.4666 8.76081C11.1908 9.59114 10.6575 10.312 9.9443 10.8188C9.23106 11.3255 8.3749 11.5919 7.50004 11.5792Z" fill="#ccc"/>
</svg>
