<svg width="65" height="68" viewBox="0 0 65 68" fill="none" xmlns="http://www.w3.org/2000/svg">
<path d="M44.1433 66.2076H3C1.89543 66.2076 1 65.3121 1 64.2075V8.49116C1 7.38659 1.89543 6.49116 3 6.49116H6.5561V3C6.5561 1.89543 7.45153 1 8.5561 1H50.3939C51.4985 1 52.3939 1.89543 52.3939 3V60.0892C52.3939 61.1938 51.4985 62.0892 50.3939 62.0892H46.1433V64.2076C46.1433 65.3121 45.2479 66.2076 44.1433 66.2076Z" fill="white"/>
<path d="M6.5561 6.49116H3C1.89543 6.49116 1 7.38659 1 8.49116V64.2075C1 65.3121 1.89543 66.2075 3 66.2075H44.1433C45.2479 66.2075 46.1433 65.3121 46.1433 64.2075V62.0892M6.5561 6.49116H44.1433C45.2479 6.49116 46.1433 7.38659 46.1433 8.49116V62.0892M6.5561 6.49116V3C6.5561 1.89543 7.45153 1 8.5561 1H50.3939C51.4985 1 52.3939 1.89543 52.3939 3V60.0892C52.3939 61.1938 51.4985 62.0892 50.3939 62.0892H46.1433M41.9762 62.0892H4.87879" stroke="#113870" stroke-width="2"/>
<path d="M5.59937 52.1458V57.0097C5.59937 57.562 6.04708 58.0097 6.59936 58.0097H10.1555C10.7078 58.0097 11.1555 57.562 11.1555 57.0097V52.1458C11.1555 51.5935 10.7078 51.1458 10.1555 51.1458H6.59937C6.04708 51.1458 5.59937 51.5935 5.59937 52.1458Z" fill="#113870"/>
<path d="M20.4288 47.7139H16.1782C15.6259 47.7139 15.1782 48.1616 15.1782 48.7139V57.0098C15.1782 57.5621 15.6259 58.0098 16.1782 58.0098H20.4288C20.9811 58.0098 21.4288 57.5621 21.4288 57.0098V48.7139C21.4288 48.1616 20.9811 47.7139 20.4288 47.7139Z" fill="#113870"/>
<path d="M25.4524 57.0098V44.5955C25.4524 44.0432 25.9001 43.5955 26.4524 43.5955H30.703C31.2553 43.5955 31.703 44.0432 31.703 44.5955V57.0098C31.703 57.562 31.2553 58.0098 30.703 58.0098H26.4524C25.9001 58.0098 25.4524 57.562 25.4524 57.0098Z" fill="#113870"/>
<path d="M35.7256 57.0098V38.418C35.7256 37.8657 36.1733 37.418 36.7256 37.418H40.9762C41.5285 37.418 41.9762 37.8657 41.9762 38.418V57.0098C41.9762 57.5621 41.5285 58.0098 40.9762 58.0098H36.7256C36.1733 58.0098 35.7256 57.5621 35.7256 57.0098Z" fill="#113870"/>
<path d="M5.16748 42.0566H19.7522" stroke="#29A7E4" stroke-width="2.2" stroke-linecap="round"/>
<path d="M4.62256 62.585H42.0565" stroke="#29A7E4" stroke-width="2.8" stroke-linecap="round"/>
<path d="M5.16748 37.418H19.7522" stroke="#29A7E4" stroke-width="2.2" stroke-linecap="round"/>
<path d="M56.4174 14.3074L56.4174 14.3074L56.4209 14.3039C56.7358 13.9865 57.1116 13.7335 57.5267 13.56C57.9418 13.3865 58.3877 13.296 58.8388 13.2937C59.2898 13.2915 59.7367 13.3777 60.1536 13.5471C60.5704 13.7166 60.9487 13.9658 61.2668 14.2802L61.6109 13.932L61.2668 14.2802C61.5849 14.5945 61.8365 14.9677 62.0073 15.3781C62.1782 15.7885 62.2649 16.228 62.2627 16.6714C62.2605 17.1147 62.1695 17.5534 61.9946 17.9621C61.8197 18.3709 61.5645 18.7417 61.2433 19.0529L61.2432 19.0529L61.2396 19.0565L59.9759 20.3066L59.628 20.6508L59.9647 21.006L60.4936 21.5639L60.4937 21.5641C60.8311 21.9197 61.0144 22.39 61.0065 22.8751C60.9986 23.3603 60.8002 23.8245 60.4512 24.1694C60.4512 24.1694 60.4512 24.1694 60.4512 24.1694L58.502 26.0959C58.4636 26.1338 58.4102 26.1562 58.3534 26.1562C58.2966 26.1562 58.2433 26.1338 58.2049 26.0959C58.1666 26.0581 58.1463 26.0081 58.1463 25.9573C58.1463 25.9065 58.1666 25.8565 58.2048 25.8187L60.1539 23.8925C60.154 23.8924 60.154 23.8923 60.1541 23.8923C60.4284 23.6214 60.5864 23.2545 60.5928 22.8688C60.5992 22.4831 60.4534 22.111 60.188 21.8313L60.1879 21.8311L59.6895 21.3062L59.3383 20.9362L58.9754 21.2948L47.569 32.5696C47.2016 32.9326 46.7416 33.1918 46.2368 33.3193L46.2368 33.3193L40.8709 34.675L40.8708 34.675C40.835 34.6841 40.7974 34.6838 40.7619 34.6741C40.7264 34.6645 40.6946 34.6461 40.6695 34.6213C40.6445 34.5965 40.6269 34.5663 40.6179 34.5338C40.6089 34.5014 40.6086 34.4674 40.6171 34.4348L40.6171 34.4348L41.9899 29.1323C41.9899 29.1323 41.9899 29.1322 41.9899 29.1322C42.1184 28.6366 42.3794 28.1835 42.7466 27.8207L42.7466 27.8206L56.4174 14.3074Z" fill="#29A7E4" stroke="white"/>
<path d="M6.00994 25V23.858L9.03977 20.8878C9.32955 20.5952 9.57102 20.3352 9.7642 20.108C9.95739 19.8807 10.1023 19.6605 10.1989 19.4474C10.2955 19.2344 10.3438 19.0071 10.3438 18.7656C10.3438 18.4901 10.2812 18.2543 10.1562 18.0582C10.0312 17.8594 9.85938 17.706 9.64062 17.598C9.42188 17.4901 9.1733 17.4361 8.89489 17.4361C8.60795 17.4361 8.35653 17.4957 8.14062 17.6151C7.92472 17.7315 7.7571 17.8977 7.63778 18.1136C7.52131 18.3295 7.46307 18.5866 7.46307 18.8849H5.95881C5.95881 18.331 6.08523 17.8494 6.33807 17.4403C6.59091 17.0312 6.93892 16.7145 7.3821 16.4901C7.82813 16.2656 8.33949 16.1534 8.91619 16.1534C9.50142 16.1534 10.0156 16.2628 10.4588 16.4815C10.902 16.7003 11.2457 17 11.4901 17.3807C11.7372 17.7614 11.8608 18.196 11.8608 18.6847C11.8608 19.0114 11.7983 19.3324 11.6733 19.6477C11.5483 19.9631 11.3281 20.3125 11.0128 20.696C10.7003 21.0795 10.2614 21.544 9.69602 22.0895L8.19176 23.6193V23.679H11.9929V25H6.00994ZM13.1179 23.3807V22.1236L16.821 16.2727H17.8693V18.0625H17.2301L14.7372 22.0128V22.081H19.9062V23.3807H13.1179ZM17.2812 25V22.9972L17.2983 22.4347V16.2727H18.7898V25H17.2812ZM21.353 25V16.2727H22.9339V19.9673H26.978V16.2727H28.5632V25H26.978V21.2926H22.9339V25H21.353ZM30.2145 25V18.4545H31.7102V19.5455H31.7784C31.8977 19.1676 32.1023 18.8764 32.392 18.6719C32.6847 18.4645 33.0185 18.3608 33.3935 18.3608C33.4787 18.3608 33.5739 18.3651 33.679 18.3736C33.7869 18.3793 33.8764 18.3892 33.9474 18.4034V19.8224C33.8821 19.7997 33.7784 19.7798 33.6364 19.7628C33.4972 19.7429 33.3622 19.733 33.2315 19.733C32.9503 19.733 32.6974 19.794 32.473 19.9162C32.2514 20.0355 32.0767 20.2017 31.9489 20.4148C31.821 20.6278 31.7571 20.8736 31.7571 21.152V25H30.2145ZM40.1456 20.1847L38.7393 20.3381C38.6996 20.196 38.63 20.0625 38.5305 19.9375C38.4339 19.8125 38.3033 19.7116 38.1385 19.6349C37.9737 19.5582 37.772 19.5199 37.5334 19.5199C37.2124 19.5199 36.9425 19.5895 36.7237 19.7287C36.5078 19.8679 36.4013 20.0483 36.4041 20.2699C36.4013 20.4602 36.4709 20.6151 36.6129 20.7344C36.7578 20.8537 36.9964 20.9517 37.3288 21.0284L38.4453 21.267C39.0646 21.4006 39.5249 21.6122 39.826 21.902C40.13 22.1918 40.2834 22.571 40.2862 23.0398C40.2834 23.4517 40.1626 23.8153 39.924 24.1307C39.6882 24.4432 39.3601 24.6875 38.9396 24.8636C38.5192 25.0398 38.0362 25.1278 37.4908 25.1278C36.6896 25.1278 36.0447 24.9602 35.5561 24.625C35.0675 24.2869 34.7763 23.8168 34.6825 23.2145L36.1868 23.0696C36.255 23.3651 36.3999 23.5881 36.6214 23.7386C36.843 23.8892 37.1314 23.9645 37.4865 23.9645C37.853 23.9645 38.147 23.8892 38.3686 23.7386C38.593 23.5881 38.7053 23.402 38.7053 23.1804C38.7053 22.9929 38.6328 22.8381 38.4879 22.7159C38.3459 22.5937 38.1243 22.5 37.8232 22.4347L36.7067 22.2003C36.0788 22.0696 35.6143 21.8494 35.3132 21.5398C35.0121 21.2273 34.8629 20.8324 34.8658 20.3551C34.8629 19.9517 34.9723 19.6023 35.1939 19.3068C35.4183 19.0085 35.7294 18.7784 36.1271 18.6165C36.5277 18.4517 36.9893 18.3693 37.5121 18.3693C38.2791 18.3693 38.8828 18.5327 39.3232 18.8594C39.7663 19.1861 40.0405 19.6278 40.1456 20.1847Z" fill="#29A7E4"/>
</svg>
