<svg width="20" height="20" viewBox="0 0 20 20" fill="none" xmlns="http://www.w3.org/2000/svg">
<path fill-rule="evenodd" clip-rule="evenodd" d="M3.73333 1.33301H3.66666C3.36133 1.33301 3.09866 1.33301 2.86666 1.38767C2.50751 1.47349 2.17913 1.65707 1.9179 1.91806C1.65668 2.17905 1.47281 2.50727 1.38666 2.86634C1.33333 3.09834 1.33333 3.35967 1.33333 3.66634V6.99967C1.33333 7.30501 1.33333 7.56767 1.38799 7.79967C1.47381 8.15883 1.65739 8.48721 1.91838 8.74843C2.17937 9.00966 2.50759 9.19353 2.86666 9.27967C3.09866 9.33301 3.35999 9.33301 3.66666 9.33301H7C7.30533 9.33301 7.568 9.33301 7.79999 9.27834C8.15915 9.19252 8.48753 9.00895 8.74875 8.74796C9.00998 8.48696 9.19385 8.15875 9.27999 7.79967C9.33333 7.56767 9.33333 7.30634 9.33333 6.99967V3.66634C9.33333 3.36101 9.33333 3.09834 9.27866 2.86634C9.19284 2.50719 9.00927 2.17881 8.74828 1.91758C8.48729 1.65636 8.15907 1.47248 7.79999 1.38634C7.568 1.33301 7.30666 1.33301 7 1.33301H3.73333ZM3.17733 2.68501C3.23466 2.67167 3.32399 2.66634 3.73333 2.66634H6.93333C7.34399 2.66634 7.432 2.67034 7.48933 2.68501C7.6091 2.71365 7.7186 2.77491 7.80568 2.86199C7.89276 2.94907 7.95402 3.05857 7.98266 3.17834C7.996 3.23434 8 3.32234 8 3.73301V6.93301C8 7.34367 7.996 7.43167 7.98133 7.48901C7.95269 7.60878 7.89143 7.71828 7.80435 7.80536C7.71727 7.89244 7.60777 7.9537 7.488 7.98234C7.43333 7.99434 7.34533 7.99967 6.93333 7.99967H3.73333C3.32266 7.99967 3.23466 7.99567 3.17733 7.98101C3.05755 7.95237 2.94806 7.89111 2.86098 7.80403C2.7739 7.71695 2.71264 7.60745 2.684 7.48767C2.67199 7.43301 2.66666 7.34501 2.66666 6.93301V3.73301C2.66666 3.32234 2.67066 3.23434 2.68533 3.17701C2.71397 3.05723 2.77523 2.94774 2.86231 2.86066C2.94939 2.77357 3.05889 2.71232 3.17866 2.68367L3.17733 2.68501ZM13.0667 1.33301H13C12.6947 1.33301 12.432 1.33301 12.2 1.38767C11.8408 1.47349 11.5125 1.65707 11.2512 1.91806C10.99 2.17905 10.8061 2.50727 10.72 2.86634C10.6667 3.09834 10.6667 3.35967 10.6667 3.66634V6.99967C10.6667 7.30501 10.6667 7.56767 10.7213 7.79967C10.8071 8.15883 10.9907 8.48721 11.2517 8.74843C11.5127 9.00966 11.8409 9.19353 12.2 9.27967C12.432 9.33301 12.6933 9.33301 13 9.33301H16.3333C16.6387 9.33301 16.9013 9.33301 17.1333 9.27834C17.4925 9.19252 17.8209 9.00895 18.0821 8.74796C18.3433 8.48696 18.5272 8.15875 18.6133 7.79967C18.6667 7.56767 18.6667 7.30634 18.6667 6.99967V3.66634C18.6667 3.36101 18.6667 3.09834 18.612 2.86634C18.5262 2.50719 18.3426 2.17881 18.0816 1.91758C17.8206 1.65636 17.4924 1.47248 17.1333 1.38634C16.9013 1.33301 16.64 1.33301 16.3333 1.33301H13.0667ZM12.5107 2.68501C12.568 2.67167 12.6573 2.66634 13.0667 2.66634H16.2667C16.6773 2.66634 16.7653 2.67034 16.8227 2.68501C16.9424 2.71365 17.0519 2.77491 17.139 2.86199C17.2261 2.94907 17.2874 3.05857 17.316 3.17834C17.3293 3.23434 17.3333 3.32234 17.3333 3.73301V6.93301C17.3333 7.34367 17.328 7.43167 17.3147 7.48901C17.286 7.60878 17.2248 7.71828 17.1377 7.80536C17.0506 7.89244 16.9411 7.9537 16.8213 7.98234C16.7653 7.99567 16.6773 7.99967 16.2667 7.99967H13.0667C12.656 7.99967 12.568 7.99567 12.5107 7.98101C12.3909 7.95237 12.2814 7.89111 12.1943 7.80403C12.1072 7.71695 12.046 7.60745 12.0173 7.48767C12.0053 7.43301 12 7.34501 12 6.93301V3.73301C12 3.32234 12.004 3.23434 12.0187 3.17701C12.0473 3.05723 12.1086 2.94774 12.1956 2.86066C12.2827 2.77357 12.3922 2.71232 12.512 2.68367L12.5107 2.68501ZM3.66666 10.6663H7C7.30533 10.6663 7.568 10.6663 7.79999 10.721C8.15915 10.8068 8.48753 10.9904 8.74875 11.2514C9.00998 11.5124 9.19385 11.8406 9.27999 12.1997C9.33333 12.4317 9.33333 12.693 9.33333 12.9997V16.333C9.33333 16.6383 9.33333 16.901 9.27866 17.133C9.19284 17.4922 9.00927 17.8205 8.74828 18.0818C8.48729 18.343 8.15907 18.5269 7.79999 18.613C7.568 18.6663 7.30666 18.6663 7 18.6663H3.66666C3.36133 18.6663 3.09866 18.6663 2.86666 18.6117C2.50751 18.5259 2.17913 18.3423 1.9179 18.0813C1.65668 17.8203 1.47281 17.4921 1.38666 17.133C1.33333 16.901 1.33333 16.6397 1.33333 16.333V12.9997C1.33333 12.6943 1.33333 12.4317 1.38799 12.1997C1.47381 11.8405 1.65739 11.5121 1.91838 11.2509C2.17937 10.9897 2.50759 10.8058 2.86666 10.7197C3.09866 10.6663 3.35999 10.6663 3.66666 10.6663ZM3.73333 11.9997C3.32266 11.9997 3.23466 12.0037 3.17733 12.0183C3.05755 12.047 2.94806 12.1082 2.86098 12.1953C2.7739 12.2824 2.71264 12.3919 2.684 12.5117C2.67199 12.5663 2.66666 12.6543 2.66666 13.0663V16.2663C2.66666 16.677 2.67066 16.765 2.68533 16.8223C2.71397 16.9421 2.77523 17.0516 2.86231 17.1387C2.94939 17.2258 3.05889 17.287 3.17866 17.3157C3.23466 17.329 3.32266 17.333 3.73333 17.333H6.93333C7.34399 17.333 7.432 17.3277 7.48933 17.3143C7.6091 17.2857 7.7186 17.2244 7.80568 17.1374C7.89276 17.0503 7.95402 16.9408 7.98266 16.821C7.996 16.765 8 16.677 8 16.2663V13.0663C8 12.6557 7.996 12.5677 7.98133 12.5103C7.95269 12.3906 7.89143 12.2811 7.80435 12.194C7.71727 12.1069 7.60777 12.0456 7.488 12.017C7.43333 12.005 7.34533 11.9997 6.93333 11.9997H3.73333ZM13.0667 10.6663H13C12.6947 10.6663 12.432 10.6663 12.2 10.721C11.8408 10.8068 11.5125 10.9904 11.2512 11.2514C10.99 11.5124 10.8061 11.8406 10.72 12.1997C10.6667 12.4317 10.6667 12.693 10.6667 12.9997V16.333C10.6667 16.6383 10.6667 16.901 10.7213 17.133C10.8071 17.4922 10.9907 17.8205 11.2517 18.0818C11.5127 18.343 11.8409 18.5269 12.2 18.613C12.432 18.6677 12.6947 18.6677 13 18.6677H16.3333C16.6387 18.6677 16.9013 18.6677 17.1333 18.613C17.4922 18.527 17.8203 18.3433 18.0813 18.0823C18.3423 17.8213 18.526 17.4932 18.612 17.1343C18.6667 16.9023 18.6667 16.6397 18.6667 16.3343V12.9997C18.6667 12.6943 18.6667 12.4317 18.612 12.1997C18.5262 11.8405 18.3426 11.5121 18.0816 11.2509C17.8206 10.9897 17.4924 10.8058 17.1333 10.7197C16.9013 10.6663 16.64 10.6663 16.3333 10.6663H13.0667ZM12.5107 12.0183C12.568 12.005 12.6573 11.9997 13.0667 11.9997H16.2667C16.6773 11.9997 16.7653 12.0037 16.8227 12.0183C16.9424 12.047 17.0519 12.1082 17.139 12.1953C17.2261 12.2824 17.2874 12.3919 17.316 12.5117C17.3293 12.5677 17.3333 12.6557 17.3333 13.0663V16.2663C17.3333 16.677 17.328 16.765 17.3147 16.8223C17.286 16.9421 17.2248 17.0516 17.1377 17.1387C17.0506 17.2258 16.9411 17.287 16.8213 17.3157C16.7653 17.329 16.6773 17.333 16.2667 17.333H13.0667C12.656 17.333 12.568 17.3277 12.5107 17.3143C12.3909 17.2857 12.2814 17.2244 12.1943 17.1374C12.1072 17.0503 12.046 16.9408 12.0173 16.821C12.0053 16.7663 12 16.6783 12 16.2663V13.0663C12 12.6557 12.004 12.5677 12.0187 12.5103C12.0473 12.3906 12.1086 12.2811 12.1956 12.194C12.2827 12.1069 12.3922 12.0456 12.512 12.017L12.5107 12.0183Z" />
<path fill-rule="evenodd" clip-rule="evenodd" d="M3.73333 1.33301H3.66666C3.36133 1.33301 3.09866 1.33301 2.86666 1.38767C2.50751 1.47349 2.17913 1.65707 1.9179 1.91806C1.65668 2.17905 1.47281 2.50727 1.38666 2.86634C1.33333 3.09834 1.33333 3.35967 1.33333 3.66634V6.99967C1.33333 7.30501 1.33333 7.56767 1.38799 7.79967C1.47381 8.15883 1.65739 8.48721 1.91838 8.74843C2.17937 9.00966 2.50759 9.19353 2.86666 9.27967C3.09866 9.33301 3.35999 9.33301 3.66666 9.33301H7C7.30533 9.33301 7.568 9.33301 7.79999 9.27834C8.15915 9.19252 8.48753 9.00895 8.74875 8.74796C9.00998 8.48696 9.19385 8.15875 9.27999 7.79967C9.33333 7.56767 9.33333 7.30634 9.33333 6.99967V3.66634C9.33333 3.36101 9.33333 3.09834 9.27866 2.86634C9.19284 2.50719 9.00927 2.17881 8.74828 1.91758C8.48729 1.65636 8.15907 1.47248 7.79999 1.38634C7.568 1.33301 7.30666 1.33301 7 1.33301H3.73333ZM3.17733 2.68501C3.23466 2.67167 3.32399 2.66634 3.73333 2.66634H6.93333C7.34399 2.66634 7.432 2.67034 7.48933 2.68501C7.6091 2.71365 7.7186 2.77491 7.80568 2.86199C7.89276 2.94907 7.95402 3.05857 7.98266 3.17834C7.996 3.23434 8 3.32234 8 3.73301V6.93301C8 7.34367 7.996 7.43167 7.98133 7.48901C7.95269 7.60878 7.89143 7.71828 7.80435 7.80536C7.71727 7.89244 7.60777 7.9537 7.488 7.98234C7.43333 7.99434 7.34533 7.99967 6.93333 7.99967H3.73333C3.32266 7.99967 3.23466 7.99567 3.17733 7.98101C3.05755 7.95237 2.94806 7.89111 2.86098 7.80403C2.7739 7.71695 2.71264 7.60745 2.684 7.48767C2.67199 7.43301 2.66666 7.34501 2.66666 6.93301V3.73301C2.66666 3.32234 2.67066 3.23434 2.68533 3.17701C2.71397 3.05723 2.77523 2.94774 2.86231 2.86066C2.94939 2.77357 3.05889 2.71232 3.17866 2.68367L3.17733 2.68501ZM13.0667 1.33301H13C12.6947 1.33301 12.432 1.33301 12.2 1.38767C11.8408 1.47349 11.5125 1.65707 11.2512 1.91806C10.99 2.17905 10.8061 2.50727 10.72 2.86634C10.6667 3.09834 10.6667 3.35967 10.6667 3.66634V6.99967C10.6667 7.30501 10.6667 7.56767 10.7213 7.79967C10.8071 8.15883 10.9907 8.48721 11.2517 8.74843C11.5127 9.00966 11.8409 9.19353 12.2 9.27967C12.432 9.33301 12.6933 9.33301 13 9.33301H16.3333C16.6387 9.33301 16.9013 9.33301 17.1333 9.27834C17.4925 9.19252 17.8209 9.00895 18.0821 8.74796C18.3433 8.48696 18.5272 8.15875 18.6133 7.79967C18.6667 7.56767 18.6667 7.30634 18.6667 6.99967V3.66634C18.6667 3.36101 18.6667 3.09834 18.612 2.86634C18.5262 2.50719 18.3426 2.17881 18.0816 1.91758C17.8206 1.65636 17.4924 1.47248 17.1333 1.38634C16.9013 1.33301 16.64 1.33301 16.3333 1.33301H13.0667ZM12.5107 2.68501C12.568 2.67167 12.6573 2.66634 13.0667 2.66634H16.2667C16.6773 2.66634 16.7653 2.67034 16.8227 2.68501C16.9424 2.71365 17.0519 2.77491 17.139 2.86199C17.2261 2.94907 17.2874 3.05857 17.316 3.17834C17.3293 3.23434 17.3333 3.32234 17.3333 3.73301V6.93301C17.3333 7.34367 17.328 7.43167 17.3147 7.48901C17.286 7.60878 17.2248 7.71828 17.1377 7.80536C17.0506 7.89244 16.9411 7.9537 16.8213 7.98234C16.7653 7.99567 16.6773 7.99967 16.2667 7.99967H13.0667C12.656 7.99967 12.568 7.99567 12.5107 7.98101C12.3909 7.95237 12.2814 7.89111 12.1943 7.80403C12.1072 7.71695 12.046 7.60745 12.0173 7.48767C12.0053 7.43301 12 7.34501 12 6.93301V3.73301C12 3.32234 12.004 3.23434 12.0187 3.17701C12.0473 3.05723 12.1086 2.94774 12.1956 2.86066C12.2827 2.77357 12.3922 2.71232 12.512 2.68367L12.5107 2.68501ZM3.66666 10.6663H7C7.30533 10.6663 7.568 10.6663 7.79999 10.721C8.15915 10.8068 8.48753 10.9904 8.74875 11.2514C9.00998 11.5124 9.19385 11.8406 9.27999 12.1997C9.33333 12.4317 9.33333 12.693 9.33333 12.9997V16.333C9.33333 16.6383 9.33333 16.901 9.27866 17.133C9.19284 17.4922 9.00927 17.8205 8.74828 18.0818C8.48729 18.343 8.15907 18.5269 7.79999 18.613C7.568 18.6663 7.30666 18.6663 7 18.6663H3.66666C3.36133 18.6663 3.09866 18.6663 2.86666 18.6117C2.50751 18.5259 2.17913 18.3423 1.9179 18.0813C1.65668 17.8203 1.47281 17.4921 1.38666 17.133C1.33333 16.901 1.33333 16.6397 1.33333 16.333V12.9997C1.33333 12.6943 1.33333 12.4317 1.38799 12.1997C1.47381 11.8405 1.65739 11.5121 1.91838 11.2509C2.17937 10.9897 2.50759 10.8058 2.86666 10.7197C3.09866 10.6663 3.35999 10.6663 3.66666 10.6663ZM3.73333 11.9997C3.32266 11.9997 3.23466 12.0037 3.17733 12.0183C3.05755 12.047 2.94806 12.1082 2.86098 12.1953C2.7739 12.2824 2.71264 12.3919 2.684 12.5117C2.67199 12.5663 2.66666 12.6543 2.66666 13.0663V16.2663C2.66666 16.677 2.67066 16.765 2.68533 16.8223C2.71397 16.9421 2.77523 17.0516 2.86231 17.1387C2.94939 17.2258 3.05889 17.287 3.17866 17.3157C3.23466 17.329 3.32266 17.333 3.73333 17.333H6.93333C7.34399 17.333 7.432 17.3277 7.48933 17.3143C7.6091 17.2857 7.7186 17.2244 7.80568 17.1374C7.89276 17.0503 7.95402 16.9408 7.98266 16.821C7.996 16.765 8 16.677 8 16.2663V13.0663C8 12.6557 7.996 12.5677 7.98133 12.5103C7.95269 12.3906 7.89143 12.2811 7.80435 12.194C7.71727 12.1069 7.60777 12.0456 7.488 12.017C7.43333 12.005 7.34533 11.9997 6.93333 11.9997H3.73333ZM13.0667 10.6663H13C12.6947 10.6663 12.432 10.6663 12.2 10.721C11.8408 10.8068 11.5125 10.9904 11.2512 11.2514C10.99 11.5124 10.8061 11.8406 10.72 12.1997C10.6667 12.4317 10.6667 12.693 10.6667 12.9997V16.333C10.6667 16.6383 10.6667 16.901 10.7213 17.133C10.8071 17.4922 10.9907 17.8205 11.2517 18.0818C11.5127 18.343 11.8409 18.5269 12.2 18.613C12.432 18.6677 12.6947 18.6677 13 18.6677H16.3333C16.6387 18.6677 16.9013 18.6677 17.1333 18.613C17.4922 18.527 17.8203 18.3433 18.0813 18.0823C18.3423 17.8213 18.526 17.4932 18.612 17.1343C18.6667 16.9023 18.6667 16.6397 18.6667 16.3343V12.9997C18.6667 12.6943 18.6667 12.4317 18.612 12.1997C18.5262 11.8405 18.3426 11.5121 18.0816 11.2509C17.8206 10.9897 17.4924 10.8058 17.1333 10.7197C16.9013 10.6663 16.64 10.6663 16.3333 10.6663H13.0667ZM12.5107 12.0183C12.568 12.005 12.6573 11.9997 13.0667 11.9997H16.2667C16.6773 11.9997 16.7653 12.0037 16.8227 12.0183C16.9424 12.047 17.0519 12.1082 17.139 12.1953C17.2261 12.2824 17.2874 12.3919 17.316 12.5117C17.3293 12.5677 17.3333 12.6557 17.3333 13.0663V16.2663C17.3333 16.677 17.328 16.765 17.3147 16.8223C17.286 16.9421 17.2248 17.0516 17.1377 17.1387C17.0506 17.2258 16.9411 17.287 16.8213 17.3157C16.7653 17.329 16.6773 17.333 16.2667 17.333H13.0667C12.656 17.333 12.568 17.3277 12.5107 17.3143C12.3909 17.2857 12.2814 17.2244 12.1943 17.1374C12.1072 17.0503 12.046 16.9408 12.0173 16.821C12.0053 16.7663 12 16.6783 12 16.2663V13.0663C12 12.6557 12.004 12.5677 12.0187 12.5103C12.0473 12.3906 12.1086 12.2811 12.1956 12.194C12.2827 12.1069 12.3922 12.0456 12.512 12.017L12.5107 12.0183Z"  fill-opacity="0.2"/>
</svg>
