<svg width="59" height="66" viewBox="0 0 59 66" fill="none" xmlns="http://www.w3.org/2000/svg">
<path d="M6.60541 6.38947H3C1.89543 6.38947 1 7.28491 1 8.38948V63C1 64.1046 1.89543 65 3 65H44.5439C45.6485 65 46.5439 64.1046 46.5439 63V60.9579M6.60541 6.38947H44.5439C45.6485 6.38947 46.5439 7.2849 46.5439 8.38947V60.9579M6.60541 6.38947V3C6.60541 1.89543 7.50084 1 8.60541 1H50.85C51.9546 1 52.85 1.89543 52.85 3V58.9579C52.85 60.0625 51.9546 60.9579 50.85 60.9579H46.5439M42.3399 60.9579H11.5101" stroke="#113870" stroke-width="2"/>
<rect x="10.4062" y="59.3181" width="31.9809" height="3.76246" fill="white"/>
<rect x="3.5" y="58.5" width="55" height="5" rx="2.5" fill="#29A7E4" stroke="white"/>
<rect x="7.04675" y="60.2588" width="3.76246" height="1.20936" rx="0.604681" fill="white"/>
<rect x="14.5717" y="60.2588" width="3.76246" height="1.20936" rx="0.604681" fill="white"/>
<rect x="22.0967" y="60.2588" width="3.76246" height="1.20936" rx="0.604681" fill="white"/>
<rect x="29.6213" y="60.2588" width="3.76246" height="1.20936" rx="0.604681" fill="white"/>
<rect x="37.1465" y="60.2588" width="3.76246" height="1.20936" rx="0.604681" fill="white"/>
<rect x="44.5371" y="60.2588" width="3.76246" height="1.20936" rx="0.604681" fill="white"/>
<rect x="51.7933" y="60.2588" width="3.76246" height="1.20936" rx="0.604681" fill="white"/>
<path d="M20.1627 47.0001C18.3279 46.9953 16.2613 47.1417 13.8561 47.509C13.5722 47.5484 10.8371 49.0958 10.0997 50.1638C9.3623 51.2318 9.11006 53.2648 9.11006 53.2648C8.91098 54.0974 9.03191 55.4735 9.08745 55.6073C9.16239 55.897 9.58579 56.1401 10.313 56.3159C10.3978 54.9782 11.5155 53.9358 12.8671 53.9341C14.2822 53.9341 15.4293 55.0719 15.4293 56.4753C15.4284 56.5874 15.42 56.6993 15.4041 56.8102C15.4419 56.8107 15.4849 56.8117 15.5207 56.8121L30.8467 56.9385C30.8177 56.7858 30.8028 56.6307 30.8023 56.4753C30.8023 55.0719 31.9495 53.9341 33.3645 53.9341C34.7795 53.9341 35.9266 55.0719 35.9266 56.4753C35.9266 56.6448 35.9096 56.8139 35.8756 56.98L39.8589 57.0128C39.9433 55.5636 40.2983 54.0415 39.409 52.7741C39.0595 52.2761 37.3637 51.3741 33.0657 50.6992C30.8451 49.5932 28.6778 48.3391 26.3176 47.6205C24.4978 47.2625 22.5218 47.0063 20.1627 47.0001ZM19.0611 47.7615C19.4453 47.7642 19.7977 47.7799 20.0869 47.8129L20.5536 50.8847C17.8999 50.5611 15.1957 50.2708 13.7662 49.1376C13.7886 48.7882 14.2761 48.2824 14.8235 48.089C15.1335 47.9795 17.3963 47.7494 19.0611 47.7615ZM21.279 47.7836C22.8811 47.8003 25.2524 47.9545 26.8839 48.6692C27.6654 49.0281 29.1369 49.8682 30.121 50.61L29.7142 51.2793C27.0428 51.1598 23.4825 51.0123 22.0213 50.8485L21.279 47.7836ZM12.8671 54.9506C12.4594 54.9506 12.0684 55.1112 11.7801 55.3972C11.4918 55.6831 11.3298 56.0709 11.3298 56.4753C11.3298 56.8797 11.4918 57.2675 11.7801 57.5534C12.0684 57.8394 12.4594 58 12.8671 58C13.2748 58 13.6658 57.8394 13.9541 57.5534C14.2424 57.2675 14.4044 56.8797 14.4044 56.4753C14.4044 56.0709 14.2424 55.6831 13.9541 55.3972C13.6658 55.1112 13.2748 54.9506 12.8671 54.9506ZM33.3644 54.9506C32.9567 54.9506 32.5657 55.1112 32.2774 55.3972C31.9891 55.6831 31.8271 56.0709 31.8271 56.4753C31.8271 56.8797 31.9891 57.2675 32.2774 57.5534C32.5657 57.8394 32.9567 58 33.3644 58C33.7721 58 34.1631 57.8394 34.4514 57.5534C34.7397 57.2675 34.9017 56.8797 34.9017 56.4753C34.9017 56.0709 34.7397 55.6831 34.4514 55.3972C34.1631 55.1112 33.7721 54.9506 33.3644 54.9506Z" fill="#113870"/>
<path d="M15.1095 22.5422V13.815H16.9546V17.663H17.0697L20.2103 13.815H22.422L19.1833 17.7226L22.4603 22.5422H20.2529L17.8623 18.9542L16.9546 20.0621V22.5422H15.1095ZM23.3829 13.815H25.6585L28.0619 19.6786H28.1642L30.5676 13.815H32.8431V22.5422H31.0534V16.8618H30.9809L28.7224 22.4996H27.5037L25.2451 16.8405H25.1727V22.5422H23.3829V13.815Z" fill="#29A7E4"/>
<path d="M15.5123 35.7844H31.8347" stroke="#29A7E4" stroke-width="2.2" stroke-linecap="round"/>
<path d="M15.5123 31.2341H31.8347" stroke="#29A7E4" stroke-width="2.2" stroke-linecap="round"/>
</svg>
