<svg width="30" height="30" viewBox="0 0 30 30" fill="none" xmlns="http://www.w3.org/2000/svg">
<path d="M17.4838 14.5311C17.53 14.5311 17.5751 14.5175 17.6136 14.492C17.6521 14.4664 17.6821 14.4301 17.7 14.3875C17.7179 14.345 17.7229 14.2981 17.7142 14.2527C17.7055 14.2074 17.6837 14.1656 17.6514 14.1326L13.0576 9.46152C13.025 9.42837 12.9832 9.40569 12.9376 9.39636C12.892 9.38703 12.8447 9.39148 12.8017 9.40914C12.7586 9.4268 12.7218 9.45686 12.6959 9.49551C12.67 9.53416 12.6562 9.57965 12.6563 9.62617V13.8279C12.6563 14.0144 12.7303 14.1933 12.8622 14.3251C12.9941 14.457 13.1729 14.5311 13.3594 14.5311H17.4838Z" />
<path d="M11.543 15.6443C11.3023 15.4069 11.1111 15.1241 10.9803 14.8124C10.8496 14.5006 10.7819 14.166 10.7812 13.8279V8.4373H6.5625C5.56884 8.44024 4.61672 8.83627 3.91409 9.5389C3.21147 10.2415 2.81544 11.1936 2.8125 12.1873V25.3123C2.8125 26.3069 3.20759 27.2607 3.91085 27.964C4.61411 28.6672 5.56794 29.0623 6.5625 29.0623H15C15.9946 29.0623 16.9484 28.6672 17.6516 27.964C18.3549 27.2607 18.75 26.3069 18.75 25.3123V16.4061H13.3594C13.0213 16.4056 12.6866 16.338 12.3748 16.2072C12.063 16.0765 11.7803 15.8852 11.543 15.6443ZM21.7969 7.03105H25.9213C25.9675 7.03109 26.0126 7.01749 26.0511 6.99196C26.0896 6.96643 26.1196 6.93011 26.1375 6.88754C26.1554 6.84498 26.1604 6.79808 26.1517 6.75273C26.143 6.70738 26.1212 6.66559 26.0889 6.63262L21.4951 1.96152C21.4625 1.92837 21.4207 1.90569 21.3751 1.89636C21.3295 1.88703 21.2822 1.89148 21.2392 1.90914C21.1961 1.92679 21.1593 1.95686 21.1334 1.99551C21.1075 2.03416 21.0937 2.07965 21.0938 2.12617V6.32793C21.0938 6.51441 21.1678 6.69325 21.2997 6.82511C21.4316 6.95697 21.6104 7.03105 21.7969 7.03105Z" />
<path d="M21.7969 8.90625C21.1147 8.90104 20.462 8.62774 19.9796 8.14538C19.4973 7.66301 19.224 7.01028 19.2188 6.32812V0.9375H12.8906C11.9586 0.938586 11.065 1.30933 10.4059 1.9684C9.74683 2.62747 9.37609 3.52106 9.375 4.45312V6.5625H11.843C12.158 6.56376 12.4696 6.62725 12.76 6.74932C13.0504 6.87139 13.3139 7.04964 13.5352 7.27383L19.9313 13.7777C20.3775 14.2305 20.6266 14.8413 20.6244 15.477V23.4375H23.7328C25.6377 23.4375 27.1869 21.8602 27.1869 19.9219V8.90625H21.7969Z" />
</svg>
