<svg width="24" height="24" viewBox="0 0 24 24" fill="none" xmlns="http://www.w3.org/2000/svg">
<path d="M12 11C14.2091 11 16 9.20914 16 7C16 4.79086 14.2091 3 12 3C9.79086 3 8 4.79086 8 7C8 9.20914 9.79086 11 12 11Z" />
<path d="M12.5 7.5C12.5 9.70914 10.7091 11.5 8.5 11.5C6.29086 11.5 4.5 9.70914 4.5 7.5C4.5 5.29086 6.29086 3.5 8.5 3.5C10.7091 3.5 12.5 5.29086 12.5 7.5Z"  stroke="white"/>
<path d="M20 16.5C20 18.985 20 21 12 21C4 21 4 18.985 4 16.5C4 14.015 7.582 12 12 12C16.418 12 20 14.015 20 16.5Z" />
<path d="M16.5 17C16.5 18.4292 16.4734 19.4328 15.6645 20.1647C15.2504 20.5394 14.5907 20.8773 13.5153 21.1192C12.4402 21.361 10.9808 21.5 9 21.5C7.01921 21.5 5.55979 21.361 4.48472 21.1192C3.40926 20.8773 2.74964 20.5394 2.33548 20.1647C1.52665 19.4328 1.5 18.4292 1.5 17C1.5 15.8541 2.24471 14.7408 3.60825 13.8886C4.96473 13.0408 6.86974 12.5 9 12.5C11.1303 12.5 13.0353 13.0408 14.3917 13.8886C15.7553 14.7408 16.5 15.8541 16.5 17Z"  stroke="white"/>
</svg>
