<svg width="108" height="68" viewBox="0 0 108 68" fill="none" xmlns="http://www.w3.org/2000/svg">
<rect width="108" height="68" rx="4" fill="transparent"/>
<path d="M71.1433 66.2076H30C28.8954 66.2076 28 65.3121 28 64.2075V8.49116C28 7.38659 28.8954 6.49116 30 6.49116H33.5561V3C33.5561 1.89543 34.4515 1 35.5561 1H77.3939C78.4985 1 79.3939 1.89543 79.3939 3V60.0892C79.3939 61.1938 78.4985 62.0892 77.3939 62.0892H73.1433V64.2076C73.1433 65.3121 72.2479 66.2076 71.1433 66.2076Z" fill="white"/>
<path d="M33.5561 6.49116H30C28.8954 6.49116 28 7.38659 28 8.49116V64.2075C28 65.3121 28.8954 66.2075 30 66.2075H71.1433C72.2479 66.2075 73.1433 65.3121 73.1433 64.2075V62.0892M33.5561 6.49116H71.1433C72.2479 6.49116 73.1433 7.38659 73.1433 8.49116V62.0892M33.5561 6.49116V3C33.5561 1.89543 34.4515 1 35.5561 1H77.3939C78.4985 1 79.3939 1.89543 79.3939 3V60.0892C79.3939 61.1938 78.4985 62.0892 77.3939 62.0892H73.1433M68.9762 62.0892H31.8788" stroke="#113870" stroke-width="2"/>
<path d="M38 20H68" stroke="#29A7E4" stroke-width="2.2" stroke-linecap="round"/>
<path d="M38 32H68" stroke="#29A7E4" stroke-width="2.2" stroke-linecap="round"/>
<path d="M38 15H68" stroke="#29A7E4" stroke-width="2.2" stroke-linecap="round"/>
<path d="M38 27H68" stroke="#29A7E4" stroke-width="2.2" stroke-linecap="round"/>
<path d="M43.6695 25.0506L43.6695 25.0506C43.9608 24.9574 44.2705 24.9062 44.5863 24.9062H44.9688C46.3528 24.9062 47.6803 25.4561 48.659 26.4348C49.6377 27.4135 50.1875 28.7409 50.1875 30.125V31.4615C50.1875 32.1093 49.9571 32.7359 49.5374 33.2294C49.1178 33.7229 48.5363 34.051 47.897 34.1551C42.9778 34.9588 37.9599 34.9588 33.0407 34.1552L43.6695 25.0506ZM43.6695 25.0506L43.6636 25.0525M43.6695 25.0506L43.6636 25.0525M43.6636 25.0525L42.6897 25.3707C42.6896 25.3708 42.6895 25.3708 42.6894 25.3708C41.2464 25.8418 39.6911 25.8418 38.2481 25.3708C38.248 25.3708 38.2479 25.3708 38.2478 25.3707L37.2739 25.0525L37.2727 25.0521M43.6636 25.0525L37.2727 25.0521M37.2727 25.0521C36.9755 24.9554 36.6649 24.9062 36.3524 24.9062C36.3522 24.9062 36.3521 24.9062 36.3519 24.9062H35.9688C34.5847 24.9062 33.2572 25.4561 32.2785 26.4348M37.2727 25.0521L32.2785 26.4348M32.2785 26.4348C31.2998 27.4135 30.75 28.7409 30.75 30.125M32.2785 26.4348L30.75 30.125M30.75 30.125V31.4615M30.75 30.125V31.4615M30.75 31.4615C30.75 32.7997 31.7193 33.9399 33.04 34.155L30.75 31.4615ZM40.4688 14.2188C39.0847 14.2188 37.7572 14.7686 36.7785 15.7473C35.7998 16.726 35.25 18.0534 35.25 19.4375C35.25 20.8216 35.7998 22.149 36.7785 23.1277C37.7572 24.1064 39.0847 24.6562 40.4688 24.6562C41.8528 24.6562 43.1803 24.1064 44.159 23.1277C45.1377 22.149 45.6875 20.8216 45.6875 19.4375C45.6875 18.0534 45.1377 16.726 44.159 15.7473C43.1803 14.7686 41.8528 14.2188 40.4688 14.2188Z" fill="#29A7E4" stroke="white" stroke-width="2"/>
<path d="M44.7893 42.567C44.5531 42.55 44.2887 42.5407 44.0043 42.5383L44.7893 42.567ZM44.7893 42.567L45.2075 45.7116C43.8396 45.5213 42.5066 45.3279 41.3104 45.0345C40.0557 44.7268 39.009 44.3217 38.2582 43.7401C38.3014 43.6572 38.367 43.5574 38.4619 43.4483C38.6501 43.2321 38.8965 43.046 39.1378 42.9487C39.1377 42.9487 39.1379 42.9486 39.1385 42.9485C39.1446 42.9466 39.1883 42.9332 39.2916 42.9124C39.3935 42.8918 39.528 42.8688 39.6913 42.8444C40.0173 42.7958 40.443 42.7441 40.9219 42.6971C41.8813 42.6031 43.0344 42.5303 44.0043 42.5383L44.7893 42.567ZM32.8846 45.0556L32.8846 45.0556C32.3984 45.8603 32.0897 46.988 31.9028 47.8712C31.8075 48.321 31.7407 48.7234 31.6976 49.0136C31.676 49.1588 31.6603 49.2764 31.65 49.3582C31.6448 49.3991 31.6409 49.4312 31.6384 49.4533L31.6371 49.464C31.5106 50.0855 31.4893 50.8728 31.504 51.509C31.5116 51.8359 31.529 52.1337 31.5491 52.3643C31.5591 52.4792 31.5701 52.5808 31.5815 52.6627C31.5888 52.7156 31.6006 52.7967 31.6219 52.8693C31.7114 53.2309 31.9717 53.5002 32.2686 53.696C32.5747 53.8979 32.9729 54.0581 33.434 54.1855L34.032 54.3506L34.0664 53.7312C34.1559 52.1166 35.32 50.9578 36.6156 50.9556C37.971 50.9557 39.1728 52.2219 39.1736 53.9191C39.1726 54.0519 39.1639 54.1843 39.1475 54.3157L39.0785 54.8689L39.636 54.8775C39.6484 54.8777 39.668 54.8781 39.6895 54.8785C39.7202 54.8792 39.7546 54.8799 39.7767 54.8801L39.7781 54.8801L58.0704 55.0525L58.666 55.0582L58.5683 54.4706C58.5382 54.2892 58.5227 54.1049 58.5221 53.9201C58.5225 52.2224 59.7246 50.9556 61.0802 50.9556C62.4361 50.9556 63.6382 52.2227 63.6382 53.9209C63.6382 54.1227 63.6205 54.3239 63.5852 54.521L63.481 55.1035L64.0727 55.109L68.8269 55.1538L69.3065 55.1583L69.331 54.6793C69.3473 54.3584 69.3741 54.0185 69.4016 53.67C69.4537 53.0091 69.5083 52.317 69.4989 51.6636C69.484 50.6345 69.3167 49.5826 68.7207 48.6121C68.5643 48.3576 68.2957 48.1061 67.9397 47.8622C67.5767 47.6133 67.093 47.3521 66.4712 47.089C65.2413 46.5687 63.4409 46.0287 60.8967 45.5676C60.3622 45.2625 59.8258 44.9467 59.2859 44.6288C57.2144 43.4091 55.0921 42.1595 52.8337 41.3739L52.8068 41.3645L52.7791 41.3583C50.5788 40.8638 48.1835 40.5087 45.3247 40.5002C43.1031 40.4935 40.6077 40.696 37.7118 41.2012C37.6242 41.216 37.5433 41.2501 37.4985 41.2698C37.44 41.2954 37.3751 41.3278 37.3072 41.3639C37.1707 41.4366 37.0018 41.5353 36.8125 41.6528C36.433 41.8884 35.9545 42.2104 35.4599 42.5762C34.9658 42.9416 34.4493 43.3555 33.9968 43.7751C33.5501 44.1893 33.1407 44.6318 32.8846 45.0556ZM47.2757 42.5825C49.1204 42.6438 51.4746 42.9006 53.1172 43.7211C53.9423 44.1547 55.4514 45.1302 56.577 46.046L56.4313 46.3198C56.2362 46.3099 56.0379 46.2999 55.8371 46.2897C52.9962 46.1458 49.6619 45.9769 47.9563 45.7931L47.2757 42.5825ZM36.6156 51.3417C35.9747 51.3417 35.3749 51.6307 34.9432 52.1198C34.5134 52.6069 34.2807 53.2556 34.2807 53.9209C34.2807 54.5861 34.5134 55.2348 34.9432 55.7219C35.3749 56.211 35.9747 56.5 36.6156 56.5C37.2564 56.5 37.8562 56.211 38.2879 55.7219C38.7177 55.2348 38.9504 54.5861 38.9504 53.9209C38.9504 53.2556 38.7177 52.6069 38.2879 52.1198C37.8562 51.6307 37.2564 51.3417 36.6156 51.3417ZM61.0801 51.3417C60.4393 51.3417 59.8394 51.6307 59.4078 52.1198C58.9779 52.6069 58.7453 53.2556 58.7453 53.9209C58.7453 54.5861 58.9779 55.2348 59.4078 55.7219C59.8394 56.211 60.4393 56.5 61.0801 56.5C61.7209 56.5 62.3208 56.211 62.7524 55.7219C63.1823 55.2348 63.4149 54.5861 63.4149 53.9209C63.4149 53.2556 63.1823 52.6069 62.7524 52.1198C62.3208 51.6307 61.7209 51.3417 61.0801 51.3417Z" fill="#113870" stroke="white"/>
<rect x="3" y="62" width="6" height="1" rx="0.5" fill="white"/>
<rect x="11" y="62" width="6" height="1" rx="0.5" fill="white"/>
<rect x="19" y="62" width="6" height="1" rx="0.5" fill="white"/>
<rect x="31" y="61" width="39" height="3" rx="1.5" fill="white"/>
<path d="M31.6226 58.3396H69.0565" stroke="#113870" stroke-width="2.8" stroke-linecap="round"/>
</svg>
