<svg width="25" height="29" viewBox="0 0 25 29" fill="none" xmlns="http://www.w3.org/2000/svg">
<path fill-rule="evenodd" clip-rule="evenodd" d="M5.31109 2.98261C5.31109 2.63875 8.86466 0.228516 12.3931 0.228516C15.9214 0.228516 19.475 2.63875 19.475 2.98261C19.475 4.21016 19.3444 4.93724 19.2342 5.33304C19.1611 5.59271 18.9179 5.73671 18.648 5.73671H6.13811C5.8682 5.73671 5.62506 5.59271 5.55187 5.33304C5.44171 4.93724 5.31109 4.21016 5.31109 2.98261ZM11.2127 2.58917C11.004 2.58917 10.8039 2.67208 10.6563 2.81964C10.5087 2.96721 10.4258 3.16736 10.4258 3.37606C10.4258 3.58475 10.5087 3.7849 10.6563 3.93247C10.8039 4.08004 11.004 4.16294 11.2127 4.16294H13.5734C13.7821 4.16294 13.9822 4.08004 14.1298 3.93247C14.2774 3.7849 14.3603 3.58475 14.3603 3.37606C14.3603 3.16736 14.2774 2.96721 14.1298 2.81964C13.9822 2.67208 13.7821 2.58917 13.5734 2.58917H11.2127ZM6.12788 10.6296C3.50755 9.81907 4.16853 8.3712 5.16787 7.31048H19.837C20.6365 8.33186 21.0653 9.7097 18.6488 10.5344C18.7476 11.411 18.661 12.2985 18.3947 13.1395C18.1284 13.9805 17.6883 14.7562 17.103 15.4162C16.5176 16.0761 15.8001 16.6057 14.9969 16.9706C14.1938 17.3354 13.3229 17.5274 12.4408 17.5341C11.5586 17.5407 10.685 17.3619 9.87638 17.0092C9.06781 16.6565 8.34239 16.1378 7.74716 15.4867C7.15194 14.8356 6.7002 14.0667 6.42125 13.2298C6.14229 12.3929 6.04234 11.5068 6.12788 10.6288M12.179 11.2441C14.258 11.2441 15.8695 11.134 17.1049 10.942C17.1455 11.5835 17.0547 12.2266 16.838 12.8318C16.6213 13.437 16.2833 13.9916 15.8446 14.4616C15.406 14.9316 14.8761 15.307 14.2872 15.5649C13.6984 15.8228 13.0631 15.9577 12.4202 15.9615C11.7774 15.9652 11.1406 15.8375 10.5488 15.5864C9.95704 15.3353 9.42278 14.966 8.97878 14.5011C8.53478 14.0363 8.19039 13.4856 7.96672 12.8829C7.74306 12.2802 7.64482 11.6382 7.67804 10.9963C8.82925 11.1552 10.3047 11.2441 12.179 11.2441ZM19.0163 22.7334C18.3045 21.623 17.3248 20.7094 16.1674 20.0769C15.01 19.4443 13.712 19.1131 12.3931 19.1138C11.0735 19.1129 9.775 19.4442 8.61713 20.077C7.45926 20.7099 6.47928 21.6239 5.76748 22.735C5.50331 22.3281 5.09759 22.0337 4.62886 21.9088L3.1086 21.502C2.6047 21.3669 2.06779 21.4375 1.61594 21.6982C1.16409 21.959 0.834318 22.3885 0.699153 22.8924L0.0885305 25.1728C0.0216547 25.4223 0.00459145 25.6826 0.0383153 25.9388C0.0720392 26.1949 0.15589 26.4419 0.285078 26.6657C0.414267 26.8894 0.586263 27.0855 0.791245 27.2428C0.996227 27.4 1.23018 27.5154 1.47974 27.5822L2.99922 27.9898C3.2548 28.0587 3.52168 28.0751 3.78376 28.038C4.04585 28.001 4.29772 27.9112 4.5242 27.7742C4.52483 27.9829 4.60833 28.1828 4.75635 28.3299C4.90436 28.4771 5.10475 28.5594 5.31345 28.5587C5.52214 28.5581 5.72204 28.4746 5.86917 28.3266C6.0163 28.1786 6.0986 27.9782 6.09797 27.7695V26.9826C6.09797 26.6828 6.11922 26.3877 6.15935 26.0989L10.2543 27.1966C10.4444 27.6035 10.7466 27.9477 11.1254 28.1889C11.5042 28.43 11.944 28.5581 12.3931 28.5581C12.8421 28.5581 13.2819 28.43 13.6607 28.1889C14.0395 27.9477 14.3417 27.6035 14.5318 27.1966L18.6268 26.0989C18.6669 26.3877 18.6881 26.6828 18.6881 26.9826V27.7695C18.6871 27.9782 18.769 28.1788 18.9158 28.3271C19.0627 28.4754 19.2624 28.5593 19.4711 28.5603C19.6798 28.5614 19.8803 28.4795 20.0287 28.3326C20.177 28.1858 20.2609 27.9861 20.2619 27.7774C20.7026 28.0418 21.2471 28.1338 21.783 27.9898L23.3032 27.583C23.5528 27.5162 23.7867 27.4008 23.9917 27.2436C24.1967 27.0863 24.3687 26.8902 24.4979 26.6664C24.6271 26.4427 24.7109 26.1957 24.7446 25.9396C24.7784 25.6834 24.7613 25.4231 24.6944 25.1736L24.083 22.8932C23.9479 22.3893 23.6181 21.9597 23.1662 21.699C22.7144 21.4382 22.1775 21.3677 21.6736 21.5027L20.1533 21.9096C19.6857 22.0341 19.2806 22.3281 19.0163 22.7334ZM6.57247 24.5795C6.99764 23.5516 7.68732 22.6546 8.57144 21.9796C9.45555 21.3046 10.5026 20.8756 11.6062 20.7363V23.9696C11.2535 24.0947 10.9356 24.3017 10.6784 24.5734C10.4213 24.8452 10.2322 25.1742 10.1268 25.5332L6.57247 24.5795ZM18.2136 24.5795C17.7884 23.5516 17.0987 22.6547 16.2146 21.9797C15.3305 21.3047 14.2835 20.8757 13.1799 20.7363V23.9696C13.8913 24.2214 14.4468 24.8037 14.6593 25.5332L18.2136 24.5795ZM12.3931 26.9826C12.6018 26.9826 12.8019 26.8997 12.9495 26.7521C13.097 26.6046 13.1799 26.4044 13.1799 26.1957C13.1799 25.987 13.097 25.7869 12.9495 25.6393C12.8019 25.4917 12.6018 25.4088 12.3931 25.4088C12.1844 25.4088 11.9842 25.4917 11.8366 25.6393C11.6891 25.7869 11.6062 25.987 11.6062 26.1957C11.6062 26.4044 11.6891 26.6046 11.8366 26.7521C11.9842 26.8997 12.1844 26.9826 12.3931 26.9826Z" />
</svg>
