<svg width="30" height="24" viewBox="0 0 30 24" fill="none" xmlns="http://www.w3.org/2000/svg">
<path d="M2.5 0.75H27.5C28.8125 0.75 30 1.9375 30 3.25V20.75C30 22.0625 28.8125 23.25 27.5 23.25H2.5C1.1875 23.25 0 22.0625 0 20.75V3.25C0 1.9375 1.1875 0.75 2.5 0.75ZM17.5 4.5V5.75H27.5V4.5H17.5ZM17.5 7V8.25H27.5V7H17.5ZM17.5 9.5V10.75H26.25V9.5H17.5ZM10 14.3875C7.5 14.3875 2.5 15.75 2.5 18.25V19.5H17.5V18.25C17.5 15.75 12.5 14.3875 10 14.3875ZM10 4.5C9.00544 4.5 8.05161 4.89509 7.34835 5.59835C6.64509 6.30161 6.25 7.25544 6.25 8.25C6.25 9.24456 6.64509 10.1984 7.34835 10.9017C8.05161 11.6049 9.00544 12 10 12C10.9946 12 11.9484 11.6049 12.6517 10.9017C13.3549 10.1984 13.75 9.24456 13.75 8.25C13.75 7.25544 13.3549 6.30161 12.6517 5.59835C11.9484 4.89509 10.9946 4.5 10 4.5Z" />
</svg>
