<svg width="28" height="31" viewBox="0 0 28 31" fill="none" xmlns="http://www.w3.org/2000/svg">
<path d="M6.77772 10.958H15.5198C15.9836 10.958 16.4283 11.1458 16.7562 11.4802C17.0841 11.8146 17.2683 12.2681 17.2683 12.7409V27.0042C17.2683 27.4771 17.0841 27.9305 16.7562 28.2649C16.4283 28.5993 15.9836 28.7871 15.5198 28.7871H6.77772C6.31401 28.7871 5.86929 28.5993 5.5414 28.2649C5.21351 27.9305 5.0293 27.4771 5.0293 27.0042V12.7409C5.0293 12.2681 5.21351 11.8146 5.5414 11.4802C5.86929 11.1458 6.31401 10.958 6.77772 10.958ZM6.77772 12.7409V16.3067H15.5198V12.7409H6.77772ZM6.77772 18.0896V19.8726H8.52615V18.0896H6.77772ZM10.2746 18.0896V19.8726H12.023V18.0896H10.2746ZM13.7714 18.0896V19.8726H15.5198V18.0896H13.7714ZM6.77772 21.6555V23.4384H8.52615V21.6555H6.77772ZM10.2746 21.6555V23.4384H12.023V21.6555H10.2746ZM13.7714 21.6555V23.4384H15.5198V21.6555H13.7714ZM6.77772 25.2213V27.0042H8.52615V25.2213H6.77772ZM10.2746 25.2213V27.0042H12.023V25.2213H10.2746ZM13.7714 25.2213V27.0042H15.5198V25.2213H13.7714Z" fill="white"/>
<path fill-rule="evenodd" clip-rule="evenodd" d="M19.4438 2.30859C17.8987 2.30859 16.4911 2.82903 15.6581 3.25424C15.5829 3.29261 15.5127 3.33028 15.4474 3.36656C15.3181 3.43842 15.208 3.50539 15.1204 3.56434L16.0679 4.98682L16.514 5.16786C18.2572 6.06467 20.5949 6.06467 22.3384 5.16786L22.8447 4.89996L23.7406 3.56434C23.555 3.44088 23.3621 3.32939 23.1628 3.23052C22.334 2.80985 20.9599 2.30859 19.4442 2.30859M17.2405 3.91874C16.905 3.85472 16.5736 3.76991 16.2482 3.6648C17.0285 3.31145 18.1912 2.93647 19.4442 2.93647C20.312 2.93647 21.1326 3.11646 21.8113 3.34458C21.016 3.45865 20.1673 3.65224 19.3587 3.89048C18.7224 4.07815 17.9787 4.05792 17.2405 3.91874ZM22.7 5.68515L22.6159 5.72841C20.6982 6.71487 18.1546 6.71487 16.2369 5.72841L16.1572 5.68725C13.2759 8.91068 11.0764 14.865 19.4438 14.865C27.8112 14.865 25.5584 8.8001 22.7 5.68515ZM19.0884 8.58732C18.907 8.58732 18.733 8.66082 18.6047 8.79165C18.4763 8.92249 18.4043 9.09993 18.4043 9.28496C18.4043 9.46998 18.4763 9.64743 18.6047 9.77826C18.733 9.90909 18.907 9.98259 19.0884 9.98259V8.58732ZM19.7726 7.88968V7.54087H19.0884V7.88968C18.7255 7.88968 18.3775 8.03669 18.1209 8.29835C17.8643 8.56002 17.7201 8.91491 17.7201 9.28496C17.7201 9.65501 17.8643 10.0099 18.1209 10.2716C18.3775 10.5332 18.7255 10.6802 19.0884 10.6802V12.0755C18.7908 12.0755 18.5373 11.8819 18.4429 11.6105C18.4289 11.5661 18.4063 11.525 18.3765 11.4897C18.3466 11.4544 18.3101 11.4255 18.2691 11.4048C18.2282 11.3841 18.1835 11.372 18.1379 11.3692C18.0922 11.3664 18.0465 11.3729 18.0033 11.3885C17.9602 11.404 17.9206 11.4282 17.8868 11.4596C17.853 11.4911 17.8257 11.5291 17.8066 11.5714C17.7875 11.6138 17.7768 11.6596 17.7754 11.7063C17.7739 11.7529 17.7817 11.7993 17.7981 11.8428C17.8925 12.1149 18.0672 12.3505 18.2983 12.5171C18.5294 12.6837 18.8054 12.7731 19.0884 12.7731V13.122H19.7726V12.7731C20.1354 12.7731 20.4835 12.6261 20.7401 12.3645C20.9967 12.1028 21.1408 11.7479 21.1408 11.3779C21.1408 11.0078 20.9967 10.6529 20.7401 10.3913C20.4835 10.1296 20.1354 9.98259 19.7726 9.98259V8.58732C20.0702 8.58732 20.3236 8.78092 20.418 9.0523C20.4321 9.09669 20.4546 9.13778 20.4845 9.17312C20.5143 9.20846 20.5508 9.23733 20.5918 9.25804C20.6328 9.27874 20.6775 9.29085 20.7231 9.29366C20.7688 9.29646 20.8145 9.2899 20.8576 9.27436C20.9008 9.25883 20.9404 9.23463 20.9742 9.2032C21.008 9.17177 21.0353 9.13375 21.0544 9.09138C21.0735 9.04902 21.0841 9.00317 21.0856 8.95656C21.087 8.90994 21.0793 8.8635 21.0629 8.81998C20.9685 8.54791 20.7937 8.31236 20.5627 8.14576C20.3316 7.97915 20.0556 7.88969 19.7726 7.88968ZM19.7726 10.6802V12.0755C19.954 12.0755 20.128 12.002 20.2563 11.8712C20.3846 11.7403 20.4567 11.5629 20.4567 11.3779C20.4567 11.1928 20.3846 11.0154 20.2563 10.8846C20.128 10.7537 19.954 10.6802 19.7726 10.6802Z" fill="white"/>
</svg>
