<svg width="29" height="29" viewBox="0 0 29 29" fill="none" xmlns="http://www.w3.org/2000/svg">
<path d="M13.4973 12.9693C16.3048 12.9693 18.5806 10.6934 18.5806 7.88601C18.5806 5.0786 16.3048 2.80273 13.4973 2.80273C10.6899 2.80273 8.41406 5.0786 8.41406 7.88601C8.41406 10.6934 10.6899 12.9693 13.4973 12.9693Z" />
<path d="M16.7559 22.2637H22.2641V23.3653H16.7559V22.2637Z" />
<path d="M12.0329 23.8373V26.198C12.0329 26.4067 12.1158 26.6068 12.2634 26.7544C12.411 26.902 12.6111 26.9849 12.8198 26.9849H26.1969C26.4056 26.9849 26.6057 26.902 26.7533 26.7544C26.9009 26.6068 26.9838 26.4067 26.9838 26.198V18.3291C26.9838 18.1204 26.9009 17.9203 26.7533 17.7727C26.6057 17.6252 26.4056 17.5423 26.1969 17.5423H20.6887V16.3855C20.6887 16.1768 20.6058 15.9767 20.4582 15.8291C20.3106 15.6816 20.1105 15.5987 19.9018 15.5987C19.6931 15.5987 19.493 15.6816 19.3454 15.8291C19.1978 15.9767 19.1149 16.1768 19.1149 16.3855V17.5423H17.5411V14.7252C16.204 14.5068 14.8514 14.3963 13.4965 14.3947C10.5086 14.382 7.5541 15.0239 4.84081 16.2754C4.39424 16.4861 4.0175 16.8205 3.75528 17.239C3.49307 17.6574 3.35639 18.1423 3.36146 18.636V23.8373H12.0329ZM25.41 25.4111H13.6067V19.116H19.1149V19.4465C19.1149 19.6552 19.1978 19.8554 19.3454 20.0029C19.493 20.1505 19.6931 20.2334 19.9018 20.2334C20.1105 20.2334 20.3106 20.1505 20.4582 20.0029C20.6058 19.8554 20.6887 19.6552 20.6887 19.4465V19.116H25.41V25.4111Z" />
</svg>
