<svg width="108" height="68" viewBox="0 0 108 68" fill="none" xmlns="http://www.w3.org/2000/svg">
<path d="M32.6054 7.38947H29C27.8954 7.38947 27 8.28491 27 9.38948V64C27 65.1046 27.8954 66 29 66H70.5439C71.6485 66 72.5439 65.1046 72.5439 64V61.9579M32.6054 7.38947H70.5439C71.6485 7.38947 72.5439 8.2849 72.5439 9.38947V61.9579M32.6054 7.38947V4C32.6054 2.89543 33.5008 2 34.6054 2H76.85C77.9546 2 78.85 2.89543 78.85 4V59.9579C78.85 61.0625 77.9546 61.9579 76.85 61.9579H72.5439M68.3399 61.9579H37.5101" stroke="#113870" stroke-width="2"/>
<path d="M45.7211 35V37H48.8413V39H45.7211L43.641 41V44H41.5608V41H39.4807V49H41.5608V46H43.641V49H46.7612L48.8413 51H57.1618V47H59.242V50H62.3622V40H59.242V43H57.1618V39H50.9214V37H54.0416V35H45.7211Z" fill="#113870"/>
<rect x="36.7832" y="60.3181" width="33.2623" height="3.76246" fill="white"/>
<rect x="33.2888" y="61.2588" width="3.91321" height="1.20936" fill="white"/>
<rect x="41.1155" y="61.2588" width="3.91321" height="1.20936" fill="white"/>
<rect x="48.942" y="61.2588" width="3.91321" height="1.20936" fill="white"/>
<rect x="56.7679" y="61.2588" width="3.91321" height="1.20936" fill="white"/>
<rect x="64.5947" y="61.2588" width="3.91321" height="1.20936" fill="white"/>
<path d="M32 62H65" stroke="#29A7E4" stroke-width="2.2" stroke-linecap="round"/>
<path d="M32 58H65" stroke="#29A7E4" stroke-width="2.2" stroke-linecap="round"/>
<path d="M54.3333 12.25H47.6667C43.9861 12.25 41 15.0215 41 18.4375C41 21.8535 43.9861 24.625 47.6667 24.625H54.3333C58.0139 24.625 61 21.8535 61 18.4375C61 15.0215 58.0139 12.25 54.3333 12.25ZM54.3333 22.5625C51.875 22.5625 49.8889 20.7159 49.8889 18.4375C49.8889 16.1559 51.8785 14.3125 54.3333 14.3125C56.7917 14.3125 58.7778 16.1591 58.7778 18.4375C58.7778 20.7191 56.7882 22.5625 54.3333 22.5625Z" fill="#29A7E4"/>
</svg>
