<svg width="10" height="8" viewBox="0 0 10 8" fill="none" xmlns="http://www.w3.org/2000/svg">
<path d="M5.00008 2.75C4.66856 2.75 4.35062 2.8817 4.1162 3.11612C3.88178 3.35054 3.75008 3.66848 3.75008 4C3.75008 4.33152 3.88178 4.64946 4.1162 4.88388C4.35062 5.1183 4.66856 5.25 5.00008 5.25C5.3316 5.25 5.64955 5.1183 5.88397 4.88388C6.11839 4.64946 6.25008 4.33152 6.25008 4C6.25008 3.66848 6.11839 3.35054 5.88397 3.11612C5.64955 2.8817 5.3316 2.75 5.00008 2.75ZM5.00008 6.08333C4.44755 6.08333 3.91764 5.86384 3.52694 5.47314C3.13624 5.08244 2.91675 4.55253 2.91675 4C2.91675 3.44747 3.13624 2.91756 3.52694 2.52686C3.91764 2.13616 4.44755 1.91667 5.00008 1.91667C5.55262 1.91667 6.08252 2.13616 6.47322 2.52686C6.86392 2.91756 7.08342 3.44747 7.08342 4C7.08342 4.55253 6.86392 5.08244 6.47322 5.47314C6.08252 5.86384 5.55262 6.08333 5.00008 6.08333ZM5.00008 0.875C2.91675 0.875 1.13758 2.17083 0.416748 4C1.13758 5.82917 2.91675 7.125 5.00008 7.125C7.08342 7.125 8.86258 5.82917 9.58342 4C8.86258 2.17083 7.08342 0.875 5.00008 0.875Z" />
</svg>
