<svg width="108" height="68" viewBox="0 0 108 68" fill="none" xmlns="http://www.w3.org/2000/svg">
<rect width="108" height="68" rx="4" fill="transparent"/>
<path d="M71.1433 66.2076H30C28.8954 66.2076 28 65.3121 28 64.2075V8.49116C28 7.38659 28.8954 6.49116 30 6.49116H33.5561V3C33.5561 1.89543 34.4515 1 35.5561 1H77.3939C78.4985 1 79.3939 1.89543 79.3939 3V60.0892C79.3939 61.1938 78.4985 62.0892 77.3939 62.0892H73.1433V64.2076C73.1433 65.3121 72.2479 66.2076 71.1433 66.2076Z" fill="white"/>
<path d="M33.5561 6.49116H30C28.8954 6.49116 28 7.38659 28 8.49116V64.2075C28 65.3121 28.8954 66.2075 30 66.2075H71.1433C72.2479 66.2075 73.1433 65.3121 73.1433 64.2075V62.0892M33.5561 6.49116H71.1433C72.2479 6.49116 73.1433 7.38659 73.1433 8.49116V62.0892M33.5561 6.49116V3C33.5561 1.89543 34.4515 1 35.5561 1H77.3939C78.4985 1 79.3939 1.89543 79.3939 3V60.0892C79.3939 61.1938 78.4985 62.0892 77.3939 62.0892H73.1433M68.9762 62.0892H31.8788" stroke="#113870" stroke-width="2"/>
<g clip-path="url(#clip0_2117_34384)">
<path d="M44 28C43.1431 28 42.3214 28.3404 41.7155 28.9463C41.1096 29.5522 40.7692 30.3739 40.7692 31.2308C40.7692 33.0152 43.5795 37.4462 43.5795 39.8462H44.4205C44.4205 37.4543 47.2308 32.8698 47.2308 31.2308C47.2308 30.3739 46.8904 29.5522 46.2845 28.9463C45.6786 28.3404 44.8569 28 44 28ZM44 29.6154C44.4284 29.6154 44.8393 29.7856 45.1423 30.0885C45.4452 30.3915 45.6154 30.8023 45.6154 31.2308C45.6154 31.6592 45.4452 32.0701 45.1423 32.373C44.8393 32.676 44.4284 32.8462 44 32.8462C43.5716 32.8462 43.1607 32.676 42.8578 32.373C42.5548 32.0701 42.3846 31.6592 42.3846 31.2308C42.3846 30.8023 42.5548 30.3915 42.8578 30.0885C43.1607 29.7856 43.5716 29.6154 44 29.6154ZM40.6852 37.3052C40.6737 37.3105 40.6624 37.3162 40.6513 37.3224C39.6578 37.4968 38.8157 37.7359 38.1782 38.0628C37.8588 38.2259 37.5837 38.4192 37.3705 38.6513C37.1567 38.8839 37 39.186 37 39.5263C37 40.0368 37.3382 40.4358 37.7404 40.7212C38.1426 41.0065 38.6504 41.2246 39.2718 41.4109C40.5129 41.7835 42.1719 42 44 42C45.8281 42 47.4871 41.7835 48.7282 41.4109C49.3491 41.2246 49.8574 41.0071 50.2596 40.7212C50.6618 40.4358 51 40.0368 51 39.5263C51 39.1849 50.8438 38.8672 50.6295 38.6346C50.4152 38.402 50.1428 38.2259 49.8218 38.0622C49.1811 37.7354 48.3308 37.4963 47.3315 37.3218C47.2612 37.3082 47.1889 37.3088 47.1189 37.3234C47.0488 37.338 46.9824 37.3665 46.9234 37.4071C46.8645 37.4477 46.8142 37.4997 46.7756 37.56C46.737 37.6202 46.7108 37.6876 46.6985 37.7581C46.6863 37.8286 46.6882 37.9009 46.7041 37.9706C46.7201 38.0404 46.7498 38.1063 46.7916 38.1644C46.8333 38.2226 46.8862 38.2718 46.9472 38.3093C47.0082 38.3468 47.076 38.3717 47.1468 38.3826C48.0745 38.5442 48.8456 38.773 49.334 39.0218C49.5785 39.1456 49.7502 39.2786 49.8391 39.375C49.9279 39.4714 49.9231 39.5096 49.9231 39.5263C49.9231 39.5516 49.8886 39.6679 49.6372 39.8462C49.3857 40.0244 48.9571 40.2198 48.4084 40.3846C47.3115 40.7136 45.7403 40.9231 44 40.9231C42.2597 40.9231 40.6885 40.7136 39.5911 40.3846C39.0429 40.2198 38.6143 40.0244 38.3634 39.8462C38.1114 39.6679 38.0769 39.5516 38.0769 39.5263C38.0769 39.5102 38.0732 39.4708 38.1609 39.375C38.2492 39.2792 38.4232 39.1456 38.666 39.0218C39.1506 38.7735 39.9142 38.5447 40.8365 38.3821C40.9083 38.3734 40.9776 38.3504 41.0404 38.3146C41.1032 38.2788 41.1582 38.2309 41.2022 38.1736C41.2463 38.1163 41.2784 38.0507 41.2969 37.9809C41.3153 37.911 41.3196 37.8381 41.3096 37.7665C41.2995 37.695 41.2753 37.6261 41.2383 37.564C41.2013 37.5019 41.1523 37.4478 41.0942 37.4048C41.0361 37.3619 40.97 37.3309 40.8998 37.3138C40.8295 37.2967 40.7566 37.2938 40.6852 37.3052Z" fill="#29A7E4"/>
</g>
<path d="M29.6497 51.8825L29.6504 51.8768C29.6533 51.8558 29.6575 51.8256 29.6631 51.7871C29.6744 51.71 29.6915 51.5995 29.715 51.4631C29.7618 51.1907 29.8345 50.813 29.9381 50.3907C30.1411 49.5627 30.4776 48.4995 31.0093 47.7399L31.0093 47.7399C31.2888 47.3407 31.7326 46.9271 32.2137 46.5419C32.7022 46.1509 33.2596 45.7653 33.7928 45.4249C34.3266 45.084 34.8427 44.7842 35.2516 44.5651C35.4557 44.4557 35.6369 44.3643 35.7827 44.2973C35.8553 44.2639 35.9237 44.2345 35.9844 44.2115C36.0332 44.193 36.1115 44.165 36.1928 44.1532C39.3183 43.6824 42.0099 43.4939 44.4047 43.5001C47.4859 43.5081 50.0676 43.8384 52.4406 44.2989L52.4651 44.3036L52.4891 44.3108C54.9222 45.0416 57.2079 46.2034 59.4465 47.3413C60.0352 47.6405 60.6207 47.9381 61.2048 48.2258C63.9584 48.6559 65.9025 49.1594 67.2271 49.6432C67.8953 49.8873 68.4141 50.1293 68.8028 50.3593C69.1822 50.5838 69.4728 50.8172 69.6448 51.059C70.298 51.9772 70.4825 52.9767 70.4988 53.9511C70.509 54.5656 70.4491 55.2222 70.3925 55.8426C70.363 56.1663 70.3344 56.4802 70.3171 56.7731L70.2891 57.2474L69.8139 57.2436L64.6742 57.2018L64.065 57.1968L64.1887 56.6003C64.2255 56.4225 64.244 56.2412 64.244 56.0595C64.244 54.5598 62.9982 53.3252 61.438 53.3252C59.8784 53.3252 58.6326 54.5592 58.632 56.0584C58.6326 56.2248 58.6487 56.3909 58.6803 56.5545L58.7957 57.154L58.1852 57.149L38.4098 56.9881L38.4086 56.9881C38.3845 56.9879 38.3494 56.9873 38.3172 56.9867C38.2938 56.9863 38.2719 56.9859 38.2568 56.9857L37.687 56.9781L37.7686 56.4142C37.7856 56.296 37.7947 56.1768 37.7958 56.0574C37.7947 54.5589 36.5496 53.3255 34.9904 53.3252L29.6497 51.8825ZM29.6497 51.8825C29.511 52.4737 29.4885 53.2162 29.5044 53.811C29.5126 54.1183 29.5316 54.3987 29.5536 54.6164C29.5645 54.7248 29.5766 54.8215 29.5893 54.9004C29.597 54.9482 29.6105 55.0298 29.6357 55.1053C29.7407 55.469 30.035 55.7206 30.3405 55.8945C30.664 56.0787 31.0859 56.2256 31.5782 56.343L32.1551 56.4805L32.1932 55.8887C32.2851 54.4583 33.5005 53.327 34.9903 53.3252L29.6497 51.8825ZM42.9785 45.4691C43.3023 45.4714 43.6033 45.4809 43.8712 45.4985L44.3135 48.3693C42.8174 48.1898 41.3532 48.0077 40.0401 47.7296C38.6989 47.4457 37.5713 47.072 36.7547 46.5385C36.7966 46.479 36.8536 46.4098 36.9303 46.3337C37.1325 46.133 37.4037 45.954 37.6786 45.8582C37.6785 45.8583 37.6786 45.8582 37.679 45.8581C37.6817 45.8573 37.6959 45.8531 37.7269 45.8462C37.7607 45.8386 37.8055 45.8298 37.8617 45.82C37.9742 45.8004 38.1215 45.7787 38.2991 45.7558C38.6536 45.7102 39.1157 45.6617 39.6347 45.6178C40.6742 45.5298 41.9248 45.4616 42.9785 45.4691ZM47.2032 48.4364L46.4845 45.5095C48.4887 45.565 51.0707 45.8039 52.8736 46.5817C53.7598 46.9836 55.3686 47.8805 56.583 48.7285L56.4565 48.9339C56.2291 48.9239 55.9976 48.9138 55.7629 48.9036C52.6745 48.7685 49.0406 48.6096 47.2032 48.4364ZM34.9898 53.6189C34.3346 53.6189 33.7041 53.8734 33.2375 54.3299C32.7706 54.7867 32.5062 55.4086 32.5062 56.0595C32.5062 56.7103 32.7706 57.3322 33.2375 57.789C33.7041 58.2455 34.3346 58.5 34.9898 58.5C35.645 58.5 36.2755 58.2455 36.7421 57.789C37.209 57.3322 37.4734 56.7103 37.4734 56.0595C37.4734 55.4086 37.209 54.7867 36.7421 54.3299C36.2755 53.8734 35.645 53.6189 34.9898 53.6189ZM61.4379 53.6189C60.7827 53.6189 60.1522 53.8734 59.6857 54.3299C59.2187 54.7867 58.9543 55.4086 58.9543 56.0595C58.9543 56.7103 59.2187 57.3322 59.6857 57.789C60.1522 58.2455 60.7827 58.5 61.4379 58.5C62.0931 58.5 62.7236 58.2455 63.1902 57.789C63.6572 57.3322 63.9215 56.7103 63.9215 56.0595C63.9215 55.4086 63.6572 54.7867 63.1902 54.3299C62.7236 53.8734 62.0931 53.6189 61.4379 53.6189Z" fill="#113870" stroke="white"/>
<rect x="3" y="62" width="6" height="1" rx="0.5" fill="white"/>
<rect x="11" y="62" width="6" height="1" rx="0.5" fill="white"/>
<rect x="19" y="62" width="6" height="1" rx="0.5" fill="white"/>
<rect x="31" y="61" width="39" height="3" rx="1.5" fill="white"/>
<rect x="31" y="10" width="39" height="14" rx="2" fill="#29A7E4"/>
<path d="M33.9865 19V13.9091H37.2976V14.6822H34.9087V16.0643H37.1261V16.8374H34.9087V18.2269H37.3175V19H33.9865ZM39.0985 16.7628V19H38.1987V15.1818H39.0588V15.8306H39.1035C39.1913 15.6168 39.3314 15.447 39.5236 15.321C39.7175 15.1951 39.957 15.1321 40.242 15.1321C40.5055 15.1321 40.735 15.1884 40.9306 15.3011C41.1278 15.4138 41.2802 15.5771 41.388 15.7908C41.4973 16.0046 41.5512 16.264 41.5495 16.5689V19H40.6497V16.7081C40.6497 16.4529 40.5834 16.2532 40.4508 16.109C40.3199 15.9648 40.1384 15.8928 39.9064 15.8928C39.749 15.8928 39.609 15.9276 39.4863 15.9972C39.3654 16.0651 39.2701 16.1637 39.2005 16.293C39.1325 16.4222 39.0985 16.5788 39.0985 16.7628ZM44.3709 15.1818V15.8778H42.176V15.1818H44.3709ZM42.7179 14.267H43.6177V17.8516C43.6177 17.9725 43.6359 18.0653 43.6724 18.13C43.7105 18.1929 43.7602 18.236 43.8216 18.2592C43.8829 18.2824 43.9508 18.294 44.0254 18.294C44.0817 18.294 44.1331 18.2899 44.1795 18.2816C44.2276 18.2733 44.264 18.2659 44.2889 18.2592L44.4405 18.9627C44.3925 18.9793 44.3237 18.9975 44.2342 19.0174C44.1464 19.0373 44.0386 19.0489 43.911 19.0522C43.6857 19.0588 43.4827 19.0249 43.302 18.9503C43.1214 18.8741 42.978 18.7564 42.872 18.5973C42.7676 18.4382 42.7162 18.2393 42.7179 18.0007V14.267ZM45.1235 19V15.1818H45.996V15.8182H46.0358C46.1054 15.5978 46.2247 15.4279 46.3937 15.3086C46.5644 15.1876 46.7591 15.1271 46.9779 15.1271C47.0276 15.1271 47.0831 15.1296 47.1444 15.1346C47.2074 15.1379 47.2596 15.1437 47.301 15.152V15.9798C47.2629 15.9665 47.2024 15.9549 47.1196 15.945C47.0384 15.9334 46.9597 15.9276 46.8834 15.9276C46.7194 15.9276 46.5719 15.9632 46.441 16.0344C46.3117 16.104 46.2098 16.201 46.1352 16.3253C46.0606 16.4496 46.0233 16.5929 46.0233 16.7553V19H45.1235ZM48.5744 20.4318C48.4518 20.4318 48.3382 20.4219 48.2338 20.402C48.1311 20.3838 48.0491 20.3622 47.9877 20.3374L48.1966 19.6364C48.3275 19.6745 48.4443 19.6927 48.5471 19.6911C48.6498 19.6894 48.7401 19.6571 48.818 19.5941C48.8975 19.5328 48.9647 19.43 49.0194 19.2859L49.0964 19.0795L47.7118 15.1818H48.6664L49.5463 18.0653H49.5861L50.4686 15.1818H51.4256L49.8968 19.4624C49.8256 19.6645 49.7311 19.8377 49.6135 19.9819C49.4958 20.1277 49.3516 20.2388 49.1809 20.315C49.0119 20.3929 48.8097 20.4318 48.5744 20.4318ZM53.7299 13.6705L52.0893 19.7656H51.3013L52.9419 13.6705H53.7299ZM54.3439 19V13.9091H57.655V14.6822H55.2662V16.0643H57.4835V16.8374H55.2662V18.2269H57.6749V19H54.3439ZM59.2919 15.1818L60.0625 16.5913L60.8455 15.1818H61.7976L60.6467 17.0909L61.8175 19H60.8704L60.0625 17.6254L59.2621 19H58.3075L59.4709 17.0909L58.3374 15.1818H59.2919ZM62.4936 19V15.1818H63.3935V19H62.4936ZM62.946 14.6399C62.8035 14.6399 62.6809 14.5927 62.5781 14.4982C62.4754 14.4021 62.424 14.2869 62.424 14.1527C62.424 14.0168 62.4754 13.9016 62.5781 13.8072C62.6809 13.7111 62.8035 13.663 62.946 13.663C63.0902 13.663 63.2128 13.7111 63.3139 13.8072C63.4167 13.9016 63.468 14.0168 63.468 14.1527C63.468 14.2869 63.4167 14.4021 63.3139 14.4982C63.2128 14.5927 63.0902 14.6399 62.946 14.6399ZM66.2254 15.1818V15.8778H64.0305V15.1818H66.2254ZM64.5724 14.267H65.4722V17.8516C65.4722 17.9725 65.4904 18.0653 65.5269 18.13C65.565 18.1929 65.6147 18.236 65.676 18.2592C65.7374 18.2824 65.8053 18.294 65.8799 18.294C65.9362 18.294 65.9876 18.2899 66.034 18.2816C66.0821 18.2733 66.1185 18.2659 66.1434 18.2592L66.295 18.9627C66.247 18.9793 66.1782 18.9975 66.0887 19.0174C66.0009 19.0373 65.8931 19.0489 65.7655 19.0522C65.5402 19.0588 65.3372 19.0249 65.1565 18.9503C64.9759 18.8741 64.8325 18.7564 64.7265 18.5973C64.6221 18.4382 64.5707 18.2393 64.5724 18.0007V14.267Z" fill="white"/>
<defs>
<clipPath id="clip0_2117_34384">
<rect width="14" height="14" fill="white" transform="translate(37 28)"/>
</clipPath>
</defs>
</svg>
