<svg width="108" height="68" viewBox="0 0 108 68" fill="none" xmlns="http://www.w3.org/2000/svg">
<g clip-path="url(#clip0_2117_34287)">
<path d="M32.6054 7.38947H29C27.8954 7.38947 27 8.28491 27 9.38948V64C27 65.1046 27.8954 66 29 66H70.5439C71.6485 66 72.5439 65.1046 72.5439 64V61.9579M32.6054 7.38947H70.5439C71.6485 7.38947 72.5439 8.2849 72.5439 9.38947V61.9579M32.6054 7.38947V4C32.6054 2.89543 33.5008 2 34.6054 2H76.85C77.9546 2 78.85 2.89543 78.85 4V59.9579C78.85 61.0625 77.9546 61.9579 76.85 61.9579H72.5439M68.3399 61.9579H37.5101" stroke="#113870" stroke-width="2"/>
<path d="M439 66H247C141 66 55 152 55 258C55 364 141 450 247 450H439C545 450 631 364 631 258C631 152 545 66 439 66ZM439 386C368.2 386 311 328.7 311 258C311 187.2 368.3 130 439 130C509.8 130 567 187.3 567 258C567 328.8 509.7 386 439 386Z" fill="black"/>
<rect x="36.7832" y="60.3181" width="33.2623" height="3.76246" fill="white"/>
<rect x="33.2888" y="61.2588" width="3.91321" height="1.20936" fill="white"/>
<rect x="41.1155" y="61.2588" width="3.91321" height="1.20936" fill="white"/>
<rect x="48.942" y="61.2588" width="3.91321" height="1.20936" fill="white"/>
<rect x="56.7679" y="61.2588" width="3.91321" height="1.20936" fill="white"/>
<rect x="64.5947" y="61.2588" width="3.91321" height="1.20936" fill="white"/>
<g clip-path="url(#clip1_2117_34287)">
<path d="M49.5 31C48.0923 31 46.7423 31.5592 45.7469 32.5546C44.7515 33.55 44.1923 34.9 44.1923 36.3077C44.1923 39.2393 48.8091 46.5188 48.8091 50.4615H50.1909C50.1909 46.5321 54.8077 39.0005 54.8077 36.3077C54.8077 34.9 54.2485 33.55 53.2531 32.5546C52.2577 31.5592 50.9077 31 49.5 31ZM49.5 33.6538C50.2038 33.6538 50.8789 33.9334 51.3766 34.4311C51.8742 34.9288 52.1538 35.6038 52.1538 36.3077C52.1538 37.0115 51.8742 37.6866 51.3766 38.1842C50.8789 38.6819 50.2038 38.9615 49.5 38.9615C48.7962 38.9615 48.1211 38.6819 47.6234 38.1842C47.1258 37.6866 46.8462 37.0115 46.8462 36.3077C46.8462 35.6038 47.1258 34.9288 47.6234 34.4311C48.1211 33.9334 48.7962 33.6538 49.5 33.6538ZM44.0543 46.287C44.0354 46.2958 44.0168 46.3053 43.9986 46.3153C42.3665 46.602 40.9829 46.9947 39.9355 47.5317C39.411 47.7997 38.9589 48.1173 38.6086 48.4986C38.2574 48.8807 38 49.377 38 49.9361C38 50.7747 38.5555 51.4302 39.2163 51.899C39.8772 52.3679 40.7113 52.7262 41.7322 53.0322C43.7712 53.6444 46.4967 54 49.5 54C52.5033 54 55.2288 53.6444 57.2678 53.0322C58.2878 52.7262 59.1228 52.3688 59.7837 51.899C60.4445 51.4302 61 50.7747 61 49.9361C61 49.3752 60.7435 48.8533 60.3914 48.4712C60.0393 48.089 59.5917 47.7997 59.0645 47.5308C58.0118 46.9938 56.615 46.6011 54.9731 46.3145C54.8577 46.2921 54.7389 46.293 54.6238 46.317C54.5087 46.3411 54.3996 46.3878 54.3028 46.4546C54.206 46.5213 54.1234 46.6067 54.06 46.7057C53.9965 46.8047 53.9535 46.9153 53.9333 47.0312C53.9131 47.147 53.9163 47.2657 53.9425 47.3803C53.9687 47.495 54.0176 47.6032 54.0861 47.6987C54.1547 47.7943 54.2416 47.8752 54.3418 47.9367C54.442 47.9982 54.5535 48.0392 54.6697 48.0572C56.1939 48.3225 57.4607 48.6985 58.263 49.1072C58.6646 49.3107 58.9468 49.5292 59.0928 49.6875C59.2387 49.8458 59.2308 49.9087 59.2308 49.9361C59.2308 49.9777 59.1742 50.1687 58.761 50.4615C58.3479 50.7543 57.6438 51.0755 56.7423 51.3462C54.9404 51.8867 52.3591 52.2308 49.5 52.2308C46.6409 52.2308 44.0596 51.8867 42.2568 51.3462C41.3562 51.0755 40.6521 50.7543 40.2398 50.4615C39.8258 50.1687 39.7692 49.9777 39.7692 49.9361C39.7692 49.9095 39.763 49.845 39.9072 49.6875C40.0523 49.53 40.338 49.3107 40.737 49.1072C41.5332 48.6994 42.7875 48.3234 44.3029 48.0563C44.4208 48.042 44.5346 48.0043 44.6378 47.9455C44.7409 47.8867 44.8313 47.8079 44.9037 47.7137C44.976 47.6196 45.0289 47.5119 45.0591 47.3971C45.0894 47.2823 45.0965 47.1626 45.08 47.045C45.0635 46.9274 45.0237 46.8143 44.9629 46.7123C44.9022 46.6102 44.8217 46.5213 44.7262 46.4508C44.6307 46.3802 44.5221 46.3294 44.4067 46.3013C44.2914 46.2731 44.1716 46.2683 44.0543 46.287Z" fill="#113870"/>
</g>
<path d="M52.3333 12.25H45.6667C41.9861 12.25 39 15.0215 39 18.4375C39 21.8535 41.9861 24.625 45.6667 24.625H52.3333C56.0139 24.625 59 21.8535 59 18.4375C59 15.0215 56.0139 12.25 52.3333 12.25ZM52.3333 22.5625C49.875 22.5625 47.8889 20.7159 47.8889 18.4375C47.8889 16.1559 49.8785 14.3125 52.3333 14.3125C54.7917 14.3125 56.7778 16.1591 56.7778 18.4375C56.7778 20.7191 54.7882 22.5625 52.3333 22.5625Z" fill="#29A7E4"/>
<path d="M32 62H65" stroke="#29A7E4" stroke-width="2.2" stroke-linecap="round"/>
<path d="M32 58H65" stroke="#29A7E4" stroke-width="2.2" stroke-linecap="round"/>
</g>
<defs>
<clipPath id="clip0_2117_34287">
<rect width="108" height="68" rx="4" fill="white"/>
</clipPath>
<clipPath id="clip1_2117_34287">
<rect width="23" height="23" fill="white" transform="translate(38 31)"/>
</clipPath>
</defs>
</svg>
