<svg width="20" height="20" viewBox="0 0 20 20" fill="none" xmlns="http://www.w3.org/2000/svg">
<path d="M10.0002 0C6.73 0 4.05 2.672 4.05 5.9332C4.05 7.1968 4.4536 8.3712 5.1366 9.3364L9.274 16.489C9.8534 17.246 10.2386 17.1022 10.7204 16.449L15.284 8.683C15.376 8.5162 15.4484 8.3386 15.5114 8.1572C15.801 7.4515 15.9499 6.69601 15.9498 5.9332C15.95 2.672 13.2708 0 10.0002 0ZM10.0002 2.78C11.7614 2.78 13.1618 4.1772 13.1618 5.9332C13.1618 7.6892 11.7614 9.0858 10.0002 9.0858C8.2392 9.0858 6.8382 7.6894 6.8382 5.9332C6.8382 4.1772 8.2392 2.7802 10.0002 2.7802V2.78Z" />
<path d="M13.7826 9.78125L13.773 9.80645C13.776 9.79885 13.7784 9.79105 13.7814 9.78345L13.7826 9.78125ZM6.8012 13.811C3.976 14.2102 2 15.1653 2 16.5711C2 18.4647 5.3016 19.9997 10 19.9997C14.6984 19.9997 18 18.4647 18 16.5711C18 15.1653 16.0242 14.2102 13.1992 13.811L12.8078 14.4774C14.937 14.7729 16.4 15.3936 16.4 16.114C16.4 17.124 13.5346 17.9426 10 17.9426C6.4654 17.9426 3.6 17.124 3.6 16.114C3.5998 15.396 5.0532 14.7759 7.189 14.4793C7.06 14.2565 6.9304 14.034 6.8012 13.811Z" />
</svg>
