<svg width="34" height="36" viewBox="0 0 17 18" fill="none" xmlns="http://www.w3.org/2000/svg">
<path d="M11.4972 8.116L10.3507 9.10462C10.3383 9.11568 10.3238 9.12417 10.3081 9.12958C10.2924 9.13499 10.2758 9.13722 10.2592 9.13614C10.2427 9.13507 10.2265 9.1307 10.2116 9.1233C10.1968 9.11589 10.1835 9.10561 10.1727 9.09303C10.1618 9.08046 10.1536 9.06585 10.1485 9.05006C10.1433 9.03427 10.1414 9.01762 10.1427 9.00107C10.1441 8.98452 10.1488 8.96841 10.1564 8.95368C10.1641 8.93895 10.1746 8.92589 10.1874 8.91527L11.3339 7.92665C11.3591 7.90567 11.3916 7.89542 11.4242 7.89812C11.4569 7.90082 11.4872 7.91625 11.5086 7.94108C11.53 7.96591 11.5408 7.99815 11.5387 8.03087C11.5366 8.06359 11.5217 8.09416 11.4972 8.116Z" fill="#3E4546"/>
<path d="M12.4692 9.24306L11.3226 10.2317C11.3102 10.2427 11.2957 10.2512 11.28 10.2566C11.2643 10.262 11.2477 10.2643 11.2312 10.2632C11.2146 10.2621 11.1984 10.2578 11.1835 10.2503C11.1687 10.2429 11.1554 10.2327 11.1446 10.2201C11.1337 10.2075 11.1255 10.1929 11.1204 10.1771C11.1152 10.1613 11.1133 10.1447 11.1147 10.1281C11.116 10.1116 11.1207 10.0955 11.1283 10.0807C11.136 10.066 11.1465 10.0529 11.1593 10.0423L12.3058 9.0537C12.331 9.03272 12.3635 9.02248 12.3962 9.02518C12.4288 9.02787 12.4591 9.0433 12.4806 9.06813C12.502 9.09296 12.5128 9.1252 12.5106 9.15792C12.5085 9.19064 12.4936 9.22121 12.4692 9.24306Z" fill="#3E4546"/>
<path d="M16.6885 6.51332L13.0358 9.66356C13.0204 9.67681 13.0026 9.6869 12.9834 9.69327C12.9641 9.69963 12.9438 9.70214 12.9236 9.70064C12.9033 9.69915 12.8836 9.69369 12.8655 9.68456C12.8474 9.67544 12.8313 9.66284 12.818 9.64748L10.9851 7.52223C10.9718 7.50687 10.9617 7.48904 10.9553 7.46977C10.9489 7.45049 10.9464 7.43014 10.9479 7.40989C10.9494 7.38964 10.9549 7.36988 10.964 7.35175C10.9732 7.33362 10.9858 7.31748 11.0012 7.30424L14.6537 4.15423C14.6847 4.12752 14.7251 4.11421 14.766 4.11723C14.8068 4.12025 14.8448 4.13934 14.8716 4.17033L16.7045 6.29558C16.7178 6.31093 16.7279 6.32874 16.7343 6.34799C16.7406 6.36724 16.7431 6.38756 16.7416 6.40778C16.7401 6.428 16.7347 6.44773 16.7255 6.46584C16.7164 6.48395 16.7038 6.50008 16.6885 6.51332Z" fill="#e22828"/>
<path d="M13.8579 6.73255L12.9222 5.64756L12.7328 5.81087L13.6685 6.89586L11.82 8.49016L11.9833 8.67952L13.8319 7.08522L14.7674 8.16994L14.9567 8.00663L14.0212 6.92191L15.8698 5.32762L15.7065 5.13826L13.8579 6.73255Z" fill="#EDF5F7"/>
<path d="M7.5621 13.145L8.70844 12.1561C8.73363 12.1351 8.76606 12.1249 8.79874 12.1276C8.83142 12.1303 8.86173 12.1457 8.88314 12.1705C8.90455 12.1954 8.91536 12.2276 8.91323 12.2603C8.9111 12.293 8.8962 12.3236 8.87175 12.3455L7.72541 13.3343C7.70021 13.3553 7.66778 13.3656 7.6351 13.3629C7.60243 13.3602 7.57212 13.3447 7.5507 13.3199C7.52929 13.2951 7.51848 13.2628 7.52061 13.2301C7.52275 13.1974 7.53764 13.1668 7.5621 13.145Z" fill="#3E4546"/>
<path d="M6.58993 12.0179L7.73627 11.029C7.76147 11.0081 7.7939 10.9978 7.82657 11.0005C7.85925 11.0032 7.88956 11.0186 7.91097 11.0435C7.93239 11.0683 7.94319 11.1006 7.94106 11.1333C7.93893 11.166 7.92403 11.1966 7.89958 11.2184L6.75324 12.2073C6.74085 12.2184 6.72639 12.2268 6.71069 12.2323C6.695 12.2377 6.67838 12.2399 6.66181 12.2388C6.64524 12.2377 6.62905 12.2334 6.61419 12.226C6.59933 12.2186 6.58609 12.2083 6.57524 12.1957C6.5644 12.1831 6.55617 12.1685 6.55103 12.1527C6.54589 12.1369 6.54395 12.1203 6.54532 12.1037C6.54668 12.0872 6.55133 12.0711 6.55899 12.0563C6.56665 12.0416 6.57717 12.0286 6.58993 12.0179Z" fill="#3E4546"/>
<path d="M7.75397 8.57204C8.33379 8.07245 8.95833 7.84674 9.1489 8.0677C9.33947 8.28866 9.02426 8.8725 8.44469 9.37211C7.86512 9.87173 7.24065 10.0964 7.04999 9.87672C6.85933 9.65701 7.17315 9.07156 7.75397 8.57204Z" fill="#90A6B4"/>
<path d="M7.04496 9.87009C7.04151 9.86582 7.03808 9.8613 7.03492 9.85656C7.03153 9.85154 7.02866 9.84631 7.02578 9.84109L7.02358 9.83691L7.01729 9.82366L7.016 9.8208C7.01364 9.81536 7.01178 9.80996 7.00969 9.80429L7.00853 9.79969L7.00471 9.78687L7.00358 9.78177L6.99986 9.76419L6.99761 9.74722L6.99801 9.74174L6.99707 9.72737L6.99744 9.72238L6.99713 9.7028L6.99733 9.70006C6.99775 9.69432 6.99819 9.68834 6.99862 9.6826L6.99908 9.67636L7.00028 9.66015L7.00085 9.65242L7.00395 9.63083L7.00426 9.62659L7.00765 9.60778L7.00815 9.60105L7.01266 9.58082L7.01288 9.57783C7.01473 9.56969 7.0171 9.56134 7.01946 9.55324L7.01994 9.54675L7.02651 9.52567L7.02688 9.52068L7.0364 9.49355L7.03861 9.48744L7.04843 9.46309L7.04867 9.45985L7.06204 9.42824L7.06475 9.42217L7.07936 9.39065L7.082 9.38557C7.08794 9.37297 7.0944 9.36016 7.10138 9.34713L7.10375 9.34229C7.11071 9.32952 7.11771 9.31624 7.12521 9.303L7.1295 9.2958L7.13986 9.27775L7.1453 9.26863L7.15646 9.24989L7.16129 9.24222L7.17777 9.2161L7.18034 9.21178L7.19505 9.18929L7.199 9.18332C7.20879 9.16849 7.21891 9.15369 7.22936 9.13891L7.23328 9.13344C7.24391 9.11842 7.25455 9.10341 7.26569 9.08843L7.26959 9.08321C7.28099 9.068 7.29266 9.05256 7.30484 9.03716L7.30816 9.03289C7.32062 9.01701 7.33334 9.0009 7.34651 8.98557L7.34844 8.9832C7.36249 8.96619 7.37602 8.94938 7.39106 8.93244C7.40532 8.91594 7.42008 8.89947 7.43485 8.88276L7.43812 8.87924C7.45235 8.86324 7.46705 8.84752 7.48171 8.8323L7.48661 8.82715C7.50102 8.81191 7.51571 8.79644 7.53095 8.78027L7.53531 8.77557C7.56026 8.75008 7.58619 8.72492 7.61264 8.69953L7.61536 8.69673C7.63613 8.67694 7.6574 8.6572 7.6789 8.63772L7.684 8.63309C7.70254 8.6164 7.72106 8.59996 7.74009 8.58331L7.75056 8.57405L7.80083 8.53162L7.80351 8.52931C7.82274 8.51343 7.8422 8.49782 7.86132 8.48343L7.86398 8.48137C7.88237 8.46668 7.90072 8.45249 7.91932 8.43831L7.92437 8.43442C7.94208 8.42102 7.95978 8.40778 7.97746 8.39471L7.98355 8.39039C8.00131 8.37741 8.01905 8.36468 8.0365 8.35243L8.04257 8.34836C8.06083 8.33541 8.0793 8.32299 8.09776 8.31081L8.10145 8.30832C8.12185 8.29478 8.14212 8.28173 8.16227 8.26918L8.16543 8.26716C8.18593 8.25438 8.20615 8.24208 8.22635 8.23003L8.23135 8.22689C8.25362 8.21399 8.27562 8.20132 8.29731 8.18938C8.29967 8.18805 8.30202 8.18672 8.30436 8.18564C8.31378 8.18031 8.32293 8.17522 8.33232 8.1704L8.34015 8.16621C8.35137 8.16027 8.36233 8.15456 8.37351 8.14911L8.37926 8.14603C8.39228 8.13947 8.40529 8.13315 8.41777 8.12706C8.41856 8.12655 8.41944 8.12619 8.42036 8.12599C8.43337 8.1196 8.44636 8.11353 8.45932 8.1078C8.46123 8.10671 8.46323 8.10577 8.46529 8.10499C8.48267 8.09724 8.49977 8.08973 8.51702 8.08373L8.51961 8.08267C8.53721 8.07519 8.55451 8.06844 8.57133 8.06141L8.58164 8.05766L8.59505 8.05263L8.60586 8.04891C8.61024 8.04723 8.61461 8.0458 8.61873 8.04435L8.62979 8.04065C8.63391 8.0392 8.63803 8.03775 8.64238 8.03656C8.64673 8.03538 8.64958 8.03409 8.65317 8.0331C8.65675 8.03211 8.66139 8.03045 8.66549 8.02924C8.66959 8.02804 8.67267 8.02702 8.67626 8.02603L8.68831 8.0224L8.69931 8.01945L8.71083 8.01629C8.71442 8.0153 8.71798 8.01456 8.72156 8.01357L8.73306 8.01066C8.73656 8.01092 8.74019 8.00918 8.74353 8.00817C8.74686 8.00717 8.75118 8.00648 8.75499 8.00576L8.76519 8.00351L8.77639 8.00132C8.77988 8.00158 8.78325 8.00007 8.78656 7.99932C8.78988 7.99856 8.79393 7.9981 8.79749 7.99736L8.80738 7.99584C8.81088 7.9961 8.81475 7.99463 8.81829 7.99414L8.82794 7.99259C8.83143 7.99285 8.83492 7.99311 8.83856 7.99137C8.8422 7.98963 8.84489 7.99058 8.84792 7.99031C8.85095 7.99003 8.85499 7.98957 8.85827 7.98932L8.86761 7.9885L8.8777 7.98774C8.88069 7.98796 8.88368 7.98818 8.88677 7.98716C8.88985 7.98613 8.8935 7.98765 8.89674 7.98789C8.89999 7.98813 8.90248 7.98832 8.90547 7.98854L8.91495 7.98924L8.92368 7.98988C8.92692 7.99012 8.92992 7.99034 8.93291 7.99057C8.9359 7.99079 8.93865 7.99099 8.94139 7.99119L8.95885 7.99248C8.96184 7.9927 8.96483 7.99292 8.96758 7.99313C8.97032 7.99333 8.97306 7.99353 8.97581 7.99373C8.97855 7.99394 8.98154 7.99416 8.98429 7.99436L8.99227 7.99495C8.99501 7.99515 8.99776 7.99535 9.0005 7.99556L9.00823 7.99613C9.01097 7.99633 9.01347 7.99651 9.01612 7.99796C9.01877 7.99941 9.02111 7.99833 9.0236 7.99852C9.0261 7.9987 9.02875 8.00015 9.03121 8.00083L9.03833 8.00287C9.04082 8.00305 9.04322 8.00448 9.04591 8.00543C9.0486 8.00638 9.05031 8.00701 9.0525 8.00792L9.05981 8.01072L9.06613 8.01344C9.06863 8.01363 9.07074 8.01554 9.07317 8.01672C9.07523 8.0176 9.07725 8.01859 9.07922 8.01968C9.08154 8.02078 9.08379 8.02204 9.08596 8.02344L9.09176 8.02637L9.09822 8.03061L9.10348 8.03401C9.10589 8.03544 9.10777 8.03708 9.10992 8.0385C9.11153 8.03979 9.1132 8.041 9.11492 8.04213L9.12131 8.04736L9.12556 8.05094L9.13212 8.05719L9.13564 8.06046C9.13891 8.06371 9.14191 8.06719 9.14491 8.07067L7.86996 6.59074C7.86695 6.58726 7.86393 6.58403 7.86066 6.58077L7.85714 6.5775C7.85508 6.5753 7.85289 6.57321 7.85058 6.57125L7.84633 6.56768L7.83995 6.56244C7.83835 6.56115 7.83668 6.55994 7.83495 6.55881C7.83282 6.55715 7.83066 6.55574 7.82851 6.55433C7.82682 6.5531 7.82506 6.55197 7.82325 6.55093L7.81679 6.54669L7.811 6.5435L7.80426 6.53975L7.79819 6.53704L7.79118 6.53351C7.78893 6.53335 7.78678 6.53193 7.78484 6.53104C7.7829 6.53014 7.77998 6.52892 7.77754 6.52799C7.7751 6.52706 7.77315 6.52641 7.77094 6.52575C7.76873 6.52508 7.76581 6.52387 7.76335 6.52318L7.75623 6.52115C7.75374 6.52097 7.75099 6.52076 7.74863 6.51883C7.74626 6.5169 7.74364 6.51847 7.74115 6.51828C7.73865 6.5181 7.73566 6.51788 7.73301 6.51643C7.73036 6.51498 7.72802 6.51606 7.72553 6.51587L7.71705 6.51525L7.70931 6.51468C7.70657 6.51447 7.70358 6.51425 7.70083 6.51405C7.69809 6.51385 7.69535 6.51365 7.6926 6.51344L7.68836 6.51313C7.68564 6.51268 7.68289 6.51247 7.68013 6.51252L7.6709 6.51184C7.66816 6.51164 7.66542 6.51144 7.66243 6.51121C7.65943 6.51099 7.65644 6.51077 7.6532 6.51053C7.64995 6.51029 7.64746 6.51011 7.64447 6.50989C7.64147 6.50967 7.63823 6.50943 7.63499 6.50919L7.62601 6.50852C7.62277 6.50829 7.61977 6.50806 7.61619 6.50905C7.61261 6.51004 7.61021 6.50861 7.60721 6.50839L7.59712 6.50915L7.58779 6.50996C7.58454 6.50972 7.58096 6.51071 7.57743 6.51095C7.5739 6.5112 7.5711 6.51174 7.56806 6.51227C7.56501 6.5128 7.56098 6.513 7.55743 6.51349C7.55389 6.51398 7.55086 6.51426 7.54781 6.51479C7.54476 6.51531 7.54045 6.516 7.5369 6.51649C7.53335 6.51698 7.53031 6.51751 7.52699 6.51826C7.52367 6.51902 7.51963 6.51947 7.51606 6.52021C7.5125 6.52095 7.5092 6.52146 7.5059 6.52197C7.5026 6.52248 7.49852 6.52343 7.49469 6.5244C7.49085 6.52537 7.48782 6.52565 7.48451 6.52641C7.48119 6.52717 7.47686 6.5281 7.47303 6.52907C7.46919 6.53004 7.46614 6.53057 7.46256 6.53156L7.45106 6.53447C7.44757 6.53421 7.44391 6.5362 7.44033 6.53719C7.43674 6.53818 7.43266 6.53913 7.42856 6.54033L7.41781 6.5433C7.41398 6.54427 7.40987 6.54547 7.40577 6.54668C7.40167 6.54788 7.39859 6.5489 7.395 6.54989L7.38268 6.55375L7.37189 6.55721L7.35929 6.56155C7.3557 6.56254 7.35185 6.56376 7.34825 6.565C7.34465 6.56623 7.33974 6.56813 7.33537 6.56956C7.331 6.57099 7.32817 6.57204 7.32455 6.57353C7.32093 6.57501 7.31554 6.57662 7.31115 6.57831C7.30677 6.57999 7.30472 6.58059 7.30161 6.58186C7.28433 6.58836 7.26701 6.59536 7.24989 6.60312L7.24728 6.60443C7.23021 6.61145 7.21338 6.61873 7.19556 6.62569L7.19322 6.62677L7.18908 6.62847C7.17635 6.63455 7.16313 6.64035 7.15037 6.64668L7.14777 6.64799C7.13503 6.65407 7.12178 6.66036 7.109 6.66694C7.109 6.66694 7.10667 6.66803 7.10537 6.66868L7.10353 6.6698C7.09232 6.67549 7.08112 6.68118 7.07015 6.68714L7.06233 6.69108L7.03438 6.70632L7.02915 6.70919L7.02765 6.70908C7.00569 6.72125 6.98369 6.73392 6.96142 6.74682L6.95931 6.74817L6.95644 6.74972C6.93624 6.76177 6.91602 6.77406 6.89552 6.78684L6.89341 6.78819L6.89217 6.7881C6.87218 6.80067 6.85191 6.81372 6.83161 6.82701L6.83037 6.82692L6.82798 6.82875C6.80952 6.84093 6.79105 6.85336 6.77281 6.86605C6.7719 6.86674 6.77093 6.86734 6.76992 6.86785L6.76672 6.87037C6.74902 6.8826 6.73127 6.89533 6.71378 6.90809L6.71034 6.91059L6.70768 6.91265C6.68999 6.92572 6.6723 6.93896 6.65459 6.95236L6.65141 6.95464L6.64954 6.95625C6.63096 6.97018 6.61259 6.98462 6.5942 6.99931L6.59234 7.00068C6.57315 7.01606 6.55367 7.03193 6.53444 7.04781L6.53232 7.04941L6.48204 7.09184L6.47427 7.09854L6.47133 7.10108C6.45256 7.1175 6.43377 7.13416 6.41551 7.15062L6.41254 7.15341L6.4104 7.15526C6.38888 7.17498 6.36763 7.19448 6.34686 7.21426L6.3455 7.21567L6.34388 7.2173C6.31744 7.24243 6.29175 7.26778 6.26679 7.29336L6.26489 7.29523L6.2622 7.29778L6.21786 7.34466L6.21321 7.34984C6.19851 7.36555 6.18381 7.38127 6.16962 7.39677L6.16634 7.40054C6.15133 7.41699 6.1368 7.43372 6.12254 7.45022L6.07994 7.50074L6.078 7.50335C6.06477 7.51943 6.05206 7.53529 6.03964 7.55068L6.03605 7.55518L6.00107 7.60099L5.99715 7.60647C5.98602 7.62145 5.97513 7.63644 5.96476 7.65122L5.96084 7.6567L5.93046 7.70135L5.9285 7.70421L5.92651 7.70733L5.91154 7.73005L5.90925 7.73389L5.89251 7.76024L5.8882 7.76769L5.87652 7.78664L5.87134 7.79554L5.86097 7.81383L5.85782 7.81911L5.85767 7.82111C5.85017 7.83435 5.84319 7.84737 5.83621 7.8604L5.83385 7.86524C5.82689 7.87794 5.82043 7.89075 5.81446 7.90368L5.81299 7.90658L5.81282 7.90883L5.79821 7.94035L5.79552 7.94617L5.78215 7.97778L5.78197 7.98028L5.77214 8.00463L5.76992 8.01098L5.76039 8.03811L5.7603 8.03936L5.76002 8.0431L5.75347 8.06393L5.75172 8.07058L5.74489 8.09515L5.74471 8.09764L5.74021 8.11787L5.73971 8.12461L5.73633 8.14317L5.73608 8.14666L5.73299 8.168L5.73215 8.17947L5.73095 8.19568L5.73051 8.20167L5.7292 8.21938L5.729 8.22212C5.72852 8.2286 5.72804 8.23509 5.72932 8.24145L5.72919 8.2432L5.72894 8.24669L5.72988 8.26105L5.72948 8.26654L5.73174 8.28351L5.73164 8.28476L5.73536 8.30234L5.73651 8.30718L5.74031 8.32025L5.74009 8.32325L5.73999 8.32449C5.74208 8.33017 5.74392 8.33582 5.7463 8.34101L5.74759 8.34386C5.74705 8.34792 5.74675 8.352 5.74669 8.35608L5.74775 8.35867L5.74764 8.36017C5.75038 8.36558 5.75342 8.37083 5.75676 8.37589L5.75667 8.37713C5.75983 8.38188 5.76326 8.3864 5.7667 8.39066L5.76805 8.39277L5.772 8.39707L7.04695 9.87701L7.04496 9.87009Z" fill="#90A6B4"/>
<path d="M9.04321 10.0671C9.77275 9.43834 10.5415 9.13426 10.7595 9.38734C10.9776 9.64043 10.5642 10.3554 9.83487 10.9842C9.10558 11.6129 8.33659 11.9167 8.11856 11.6636C7.90052 11.4106 8.31394 10.6955 9.04321 10.0671Z" fill="#EDF5F7"/>
<path d="M8.11261 11.6562C8.10862 11.6512 8.1049 11.646 8.10148 11.6406C8.10148 11.6406 8.10148 11.6406 8.10034 11.639C8.0965 11.6332 8.09319 11.6272 8.08989 11.6209L8.08748 11.6162L8.0806 11.6007L8.07934 11.5973C8.07679 11.5911 8.07478 11.5844 8.07276 11.5778L8.07138 11.5726L8.0675 11.5573L8.06641 11.5517C8.06491 11.5448 8.06393 11.5377 8.06295 11.5306L8.0612 11.5102L8.06168 11.5037L8.06119 11.4866L8.06163 11.4806L8.06334 11.4574L8.0657 11.4255L8.06863 11.4062L8.06911 11.3997L8.07395 11.375L8.07433 11.3697L8.0795 11.3473L8.08159 11.3394L8.08817 11.3148L8.08845 11.3111C8.09118 11.3013 8.09443 11.2912 8.09766 11.2814L8.10024 11.2736L8.10932 11.2492L8.11152 11.2431L8.12447 11.2104L8.12753 11.2029L8.14085 11.172L8.14264 11.1681L8.16053 11.1296L8.16433 11.1223L8.18371 11.0839L8.18692 11.0779C8.1951 11.0622 8.20353 11.0465 8.21255 11.0296L8.21601 11.0236C8.22495 11.0077 8.23442 10.9916 8.24463 10.9756L8.25005 10.9667L8.26374 10.9444L8.27057 10.9333L8.28538 10.9094L8.29159 10.9L8.31303 10.8678L8.31643 10.8625L8.33528 10.8348L8.34056 10.8277C8.35312 10.8094 8.36626 10.791 8.37999 10.7726L8.38474 10.766C8.3984 10.7474 8.41254 10.7292 8.4267 10.7106L8.4317 10.704L8.47653 10.6471C8.47813 10.6454 8.47961 10.6436 8.48094 10.6417C8.49694 10.622 8.51345 10.6022 8.53021 10.5824L8.5327 10.5793C8.55055 10.5583 8.56863 10.5376 8.58748 10.5166C8.60581 10.4959 8.62439 10.4752 8.64347 10.4546L8.64756 10.4501C8.66555 10.4306 8.68406 10.4109 8.70207 10.3912L8.70805 10.3849C8.72619 10.3656 8.74491 10.3465 8.76421 10.3273L8.76989 10.3217C8.80161 10.2906 8.83421 10.2589 8.86769 10.2266L8.87146 10.2231C8.8977 10.1983 8.9246 10.1737 8.95216 10.1491L8.95861 10.1433C8.98171 10.1225 9.00507 10.1016 9.02891 10.0811L9.04232 10.0693C9.06346 10.0513 9.08435 10.0332 9.10545 10.0157L9.10892 10.013C9.13299 9.99269 9.15727 9.97292 9.18151 9.95365L9.1847 9.95112C9.2079 9.93252 9.23105 9.91442 9.25419 9.89657L9.26031 9.89176C9.28264 9.8746 9.30494 9.85794 9.32723 9.84128L9.33493 9.83558C9.35718 9.81942 9.37919 9.80324 9.40141 9.78758L9.40884 9.78211C9.43185 9.766 9.45485 9.7499 9.4778 9.73454L9.48257 9.73113C9.50889 9.71427 9.53295 9.69748 9.55797 9.68128L9.56218 9.67858C9.58847 9.66221 9.61297 9.64622 9.63794 9.63076L9.64424 9.62696C9.67056 9.6101 9.69909 9.5939 9.72632 9.57836L9.73496 9.57348L9.76952 9.55371L9.77919 9.54841C9.79305 9.54065 9.80688 9.5334 9.82044 9.52638L9.82773 9.52265C9.84367 9.51405 9.85958 9.50569 9.87546 9.49784L9.87833 9.4963C9.89449 9.48796 9.91062 9.48012 9.9265 9.47227C9.92908 9.47121 9.93169 9.46989 9.93429 9.46858C9.9556 9.45845 9.97664 9.44872 9.99739 9.43939L10.0005 9.43786C10.0223 9.4281 10.0438 9.41891 10.065 9.41028L10.0777 9.40519C10.0831 9.40284 10.0885 9.40073 10.0942 9.39839L10.1074 9.39334C10.1128 9.39124 10.118 9.38911 10.1234 9.38725L10.1368 9.38222L10.1522 9.3766C10.1566 9.37491 10.1612 9.3735 10.1656 9.37182C10.17 9.37014 10.1757 9.3683 10.1808 9.36667C10.1859 9.36504 10.1896 9.36355 10.1939 9.36212L10.2088 9.3572C10.2132 9.35577 10.2176 9.35459 10.2222 9.35317L10.2363 9.3487L10.2494 9.3449L10.2637 9.34069C10.2678 9.33949 10.2722 9.33856 10.2765 9.33737C10.2809 9.33619 10.2857 9.3348 10.2903 9.33363C10.2949 9.33247 10.2988 9.3315 10.3028 9.33054L10.3166 9.32705L10.3289 9.32419C10.3331 9.3245 10.3378 9.32234 10.3424 9.32118C10.347 9.32001 10.3503 9.3195 10.3544 9.3188C10.3584 9.3181 10.363 9.31693 10.3676 9.31627L10.3793 9.31412C10.3836 9.31319 10.3879 9.3125 10.3922 9.31182C10.3966 9.31113 10.3999 9.31063 10.4039 9.30992C10.408 9.30922 10.4123 9.30878 10.4163 9.30833C10.4204 9.30788 10.4239 9.30714 10.4277 9.30667L10.4399 9.30531C10.4436 9.30558 10.4471 9.30584 10.451 9.30412C10.4549 9.3024 10.4591 9.30346 10.4628 9.30324C10.4666 9.30302 10.4701 9.30377 10.4737 9.30229L10.4853 9.30164C10.4888 9.3019 10.4923 9.30215 10.4958 9.30241C10.4992 9.30267 10.5032 9.30296 10.5071 9.30199L10.5173 9.30275L10.5283 9.30356C10.5315 9.3038 10.535 9.30406 10.5382 9.3043C10.5415 9.30454 10.5452 9.30481 10.5487 9.30507C10.5522 9.30533 10.5552 9.30555 10.5585 9.30579C10.5617 9.30603 10.5654 9.3063 10.5687 9.30654C10.5719 9.30678 10.5752 9.30702 10.5782 9.30724L10.5881 9.30798L10.5974 9.30866C10.6006 9.3089 10.6038 9.30914 10.6071 9.30938C10.6103 9.30962 10.6128 9.3098 10.6158 9.31003L10.6252 9.31222L10.6333 9.31433C10.6365 9.31457 10.6394 9.31628 10.6424 9.317C10.6453 9.31772 10.6479 9.31741 10.6502 9.31959L10.659 9.3225L10.6666 9.32531L10.6749 9.32893C10.6773 9.32912 10.6797 9.33105 10.6819 9.33221C10.6841 9.33337 10.6875 9.33488 10.6901 9.33608L10.6966 9.33957L10.7043 9.34415L10.7108 9.34789L10.7182 9.35295L10.7239 9.35713C10.7265 9.35893 10.7289 9.36087 10.7313 9.36294L10.7362 9.36707C10.7389 9.3693 10.7415 9.37167 10.744 9.37416L10.748 9.37772C10.7517 9.3815 10.7552 9.38527 10.7587 9.38929L8.76027 7.07025C8.75679 7.06649 8.75332 7.06247 8.74959 7.05868L8.74559 7.05513L8.73784 7.04803L8.73288 7.04391L8.72553 7.0381C8.72354 7.03795 8.72172 7.03531 8.7198 7.03416L8.71217 7.02884L8.70593 7.02511C8.70353 7.02368 8.70089 7.02198 8.69824 7.02053C8.69559 7.01908 8.6939 7.01821 8.69171 7.01729C8.68904 7.01578 8.6863 7.0144 8.68349 7.01317C8.68124 7.01301 8.67888 7.01108 8.67646 7.0099C8.67404 7.00872 8.67087 7.00748 8.66818 7.00653C8.66549 7.00558 8.66305 7.00464 8.66061 7.00371C8.65817 7.00278 8.65476 7.00152 8.65182 7.00055C8.64888 6.99959 8.64667 6.99892 8.64398 6.99797C8.6413 6.99702 8.63809 6.99628 8.63489 6.99554C8.63213 6.99469 8.62934 6.99399 8.62652 6.99342C8.62352 6.9932 8.62037 6.99171 8.6174 6.99124C8.61442 6.99077 8.61141 6.9908 8.60851 6.98933C8.60561 6.98786 8.60228 6.98887 8.59879 6.98861L8.58981 6.98795C8.58656 6.98771 8.58307 6.98745 8.57983 6.98721C8.57659 6.98697 8.5736 6.98675 8.5706 6.98653C8.56761 6.98631 8.56362 6.98602 8.56013 6.98576C8.55663 6.9855 8.55364 6.98528 8.5504 6.98504C8.54716 6.9848 8.54342 6.98452 8.53992 6.98427C8.53643 6.98401 8.53319 6.98377 8.52995 6.98353L8.51897 6.98272L8.50875 6.98196C8.50501 6.98169 8.50127 6.98141 8.49743 6.98238C8.4936 6.98335 8.49045 6.98186 8.48696 6.98161L8.47537 6.98226C8.47188 6.982 8.46805 6.98297 8.46452 6.98321C8.46099 6.98345 8.4567 6.98389 8.45267 6.98409C8.44864 6.98429 8.44534 6.9848 8.44155 6.98527L8.42941 6.98664C8.42567 6.98636 8.42182 6.98758 8.418 6.9883C8.41419 6.98902 8.40964 6.98944 8.40558 6.99014C8.40151 6.99084 8.39772 6.99132 8.39392 6.99179C8.39012 6.99226 8.38527 6.99341 8.38096 6.99409L8.36902 6.99622C8.36478 6.9959 8.36037 6.99784 8.35604 6.99877C8.35171 6.9997 8.34789 7.00043 8.34381 7.00138L8.33056 7.00416L8.31807 7.007L8.30452 7.01051C8.30043 7.01147 8.2961 7.0124 8.292 7.0136C8.2879 7.0148 8.2828 7.01593 8.27818 7.01734L8.26513 7.02089C8.26053 7.02206 8.25591 7.02347 8.25105 7.02487L8.23798 7.02867C8.23336 7.03008 8.22847 7.03173 8.2236 7.03312L8.2105 7.03742C8.20563 7.03882 8.20049 7.04045 8.19561 7.04209C8.19072 7.04374 8.18687 7.04496 8.18248 7.04664C8.17809 7.04832 8.17244 7.05016 8.16731 7.05179C8.16217 7.05341 8.1583 7.05488 8.15391 7.05657L8.13845 7.06219L8.12504 7.06722C8.11964 7.06908 8.11421 7.07119 8.10904 7.07331L8.09561 7.07859L8.07908 7.08514L8.06745 7.0898C8.04625 7.09843 8.02476 7.10763 8.00297 7.11739C8.00297 7.11739 8.00097 7.11724 7.9996 7.11889C7.97885 7.12815 7.9578 7.13813 7.93675 7.14811C7.93585 7.14864 7.93489 7.14907 7.9339 7.1494L7.92894 7.15204C7.91308 7.15965 7.89695 7.16749 7.88079 7.17582L7.87767 7.17735C7.86185 7.18554 7.84594 7.19389 7.82993 7.20241L7.8255 7.20459L7.8229 7.2059L7.78165 7.22793L7.77223 7.23326C7.76047 7.23966 7.74894 7.24633 7.73717 7.25298L7.73089 7.25653L7.72878 7.25788C7.70255 7.2735 7.67427 7.28972 7.6467 7.30649L7.64408 7.30805L7.6404 7.31029C7.61539 7.32516 7.59014 7.3411 7.56465 7.35811L7.56202 7.35967L7.56043 7.3608C7.53541 7.37701 7.51011 7.3937 7.48503 7.41065C7.48452 7.41117 7.48389 7.41155 7.48319 7.41177L7.48027 7.41406C7.45731 7.42942 7.43431 7.44553 7.41128 7.46188C7.41009 7.46255 7.40894 7.4633 7.40786 7.46414L7.40387 7.4671C7.38165 7.48277 7.3594 7.49893 7.33712 7.51534L7.33314 7.5183L7.32969 7.52081C7.3074 7.53747 7.2851 7.55413 7.26277 7.57128L7.25904 7.57427L7.25665 7.5761C7.23351 7.59395 7.21036 7.61205 7.18717 7.63065L7.18504 7.63225C7.1608 7.65152 7.1365 7.67155 7.11245 7.69159L7.11004 7.69366C7.08893 7.71116 7.06804 7.72918 7.0469 7.74718L7.03699 7.75573L7.03349 7.75898C7.00966 7.77954 6.98605 7.80036 6.96294 7.82123L6.95944 7.82448L6.9565 7.82702C6.92944 7.8516 6.90254 7.87628 6.8758 7.90106L6.87392 7.90267L6.87203 7.90454C6.83865 7.93551 6.80604 7.96721 6.77423 7.99963L6.77205 8.00198L6.76853 8.00548C6.74958 8.02439 6.73086 8.04357 6.71239 8.06277L6.7064 8.0691C6.68765 8.08878 6.66914 8.10848 6.6519 8.12802L6.64754 8.13271C6.62871 8.15339 6.61015 8.17383 6.59281 8.19462L6.59272 8.19587C6.57437 8.21683 6.55629 8.23757 6.53794 8.25853L6.53545 8.26161C6.51869 8.28143 6.50218 8.30128 6.48618 8.32091L6.48175 8.3266C6.46656 8.34554 6.45137 8.36448 6.43694 8.38323L6.43169 8.38986L6.38998 8.44521L6.38523 8.45188C6.37159 8.47018 6.35743 8.4887 6.34581 8.5069L6.34329 8.51047L6.34076 8.51405L6.32138 8.54221L6.31827 8.54699C6.31096 8.55774 6.30364 8.56848 6.29683 8.57926L6.29089 8.58835L6.27583 8.61232L6.26901 8.6231L6.25533 8.64541L6.25107 8.65212L6.25091 8.65436C6.24117 8.6707 6.23171 8.6868 6.22228 8.7024L6.21885 8.70817C6.20992 8.72381 6.20149 8.73949 6.19321 8.75643L6.19121 8.75979L6.19101 8.76254L6.17137 8.80096L6.16782 8.80822L6.14993 8.84677L6.14971 8.84976L6.13639 8.88063L6.13333 8.88818L6.12037 8.92107L6.12026 8.92257L6.11992 8.92706L6.11085 8.95146L6.10827 8.9593L6.0988 8.98894L6.09858 8.99194L6.09175 9.01651L6.08991 9.0244L6.0845 9.04682L6.0842 9.05081L6.08411 9.05206L6.07953 9.07679L6.07907 9.08303L6.07636 9.10264L6.07583 9.10987C6.07529 9.11711 6.07478 9.12409 6.07426 9.13107L6.07402 9.13432L6.07231 9.15751L6.07216 9.15951L6.07185 9.16375L6.07236 9.18059L6.07188 9.18707L6.07363 9.20751C6.07461 9.21461 6.07559 9.2217 6.07709 9.22858L6.07818 9.23418L6.08207 9.24951L6.08181 9.25301L6.08168 9.25475C6.08369 9.26142 6.08573 9.26784 6.08828 9.27404L6.08954 9.2774L6.09641 9.29295L6.09772 9.29556L6.09758 9.29755C6.10088 9.30382 6.10419 9.30983 6.10801 9.31588L6.1079 9.31737C6.11152 9.32266 6.11539 9.32796 6.1193 9.33276L6.12088 9.33513L6.12527 9.34022L8.12367 11.6593L8.11261 11.6562Z" fill="#e22828"/>
<path d="M10.388 9.59264C10.4158 9.56867 10.452 9.55673 10.4886 9.55943C10.5253 9.56214 10.5593 9.57927 10.5833 9.60706L11.3067 10.4469C11.3193 10.4606 11.3291 10.4766 11.3354 10.4941C11.3417 10.5116 11.3444 10.5302 11.3433 10.5488C11.3423 10.5674 11.3375 10.5855 11.3293 10.6022C11.3211 10.6189 11.3096 10.6338 11.2955 10.6459C11.2814 10.6581 11.265 10.6672 11.2473 10.6729C11.2296 10.6786 11.2109 10.6807 11.1924 10.679C11.1739 10.6773 11.1559 10.6719 11.1395 10.6631C11.1231 10.6543 11.1086 10.6423 11.097 10.6278L10.3735 9.78892C10.3615 9.77512 10.3523 9.75907 10.3466 9.74171C10.3408 9.72434 10.3385 9.70601 10.3399 9.68776C10.3412 9.66951 10.3462 9.6517 10.3544 9.63538C10.3627 9.61905 10.3741 9.60452 10.388 9.59264Z" fill="#e22828"/>
<path d="M8.37944 11.3251C8.40725 11.3011 8.44345 11.2892 8.48007 11.2919C8.51668 11.2946 8.55073 11.3117 8.57472 11.3395L9.29811 12.1793C9.32061 12.2073 9.33135 12.243 9.32808 12.2787C9.32482 12.3145 9.30779 12.3476 9.2806 12.371C9.2534 12.3945 9.21816 12.4065 9.18231 12.4045C9.14645 12.4024 9.11278 12.3866 9.0884 12.3602L8.36494 11.5214C8.35292 11.5076 8.34376 11.4915 8.33799 11.4741C8.33221 11.4568 8.32993 11.4384 8.33128 11.4202C8.33262 11.4019 8.33757 11.3841 8.34584 11.3678C8.35411 11.3515 8.36552 11.337 8.37944 11.3251Z" fill="#e22828"/>
<path d="M9.24198 10.2623C9.25573 10.2504 9.2717 10.2413 9.28897 10.2355C9.30624 10.2298 9.32448 10.2275 9.34263 10.2289C9.36078 10.2302 9.37848 10.2351 9.39473 10.2433C9.41097 10.2516 9.42543 10.2629 9.43727 10.2767L10.1601 11.1145C10.1826 11.1425 10.1933 11.1781 10.19 11.2139C10.1868 11.2497 10.1697 11.2828 10.1425 11.3062C10.1153 11.3297 10.0801 11.3416 10.0443 11.3396C10.0084 11.3376 9.97473 11.3217 9.95035 11.2954L9.22756 10.4576C9.21563 10.4438 9.20654 10.4279 9.20081 10.4106C9.19508 10.3933 9.19281 10.3751 9.19415 10.3569C9.19549 10.3388 9.20041 10.3211 9.20862 10.3048C9.21683 10.2886 9.22817 10.2741 9.24198 10.2623Z" fill="#e22828"/>
<path d="M10.9329 12.2579C11.6624 11.6294 12.4312 11.3251 12.6492 11.5782C12.8672 11.8313 12.4538 12.5463 11.7245 13.175C10.9952 13.8038 10.2262 14.1078 10.0082 13.8545C9.79019 13.6012 10.2036 12.8864 10.9329 12.2579Z" fill="#EDF5F7"/>
<path d="M10.0021 13.8471C9.99818 13.842 9.99429 13.8369 9.99092 13.8317L9.98978 13.8301C9.98596 13.824 9.98265 13.818 9.97935 13.8118L9.97694 13.8071L9.97006 13.7915L9.9688 13.7882C9.96625 13.782 9.96424 13.7753 9.9622 13.7689L9.96084 13.7635C9.95945 13.7586 9.95807 13.7535 9.95696 13.7482L9.95587 13.7426L9.95241 13.7215L9.9525 13.7203L9.95075 13.6998L9.95123 13.6933L9.95074 13.6762L9.95118 13.6703L9.95289 13.6471L9.95525 13.6151L9.95818 13.5958L9.95865 13.5896L9.96348 13.5648L9.96387 13.5596L9.96904 13.5372L9.97112 13.5293L9.9777 13.5047L9.97798 13.501C9.98071 13.4911 9.98394 13.4813 9.98719 13.4713L9.99003 13.4635C9.99265 13.4552 9.99579 13.4466 9.99885 13.4391L10.0011 13.433L10.014 13.4003L10.0171 13.3928L10.0304 13.3619L10.0322 13.358C10.0379 13.3454 10.0437 13.3338 10.0503 13.3195L10.0539 13.3122L10.0732 13.2738L10.0765 13.2677C10.0846 13.252 10.093 13.2366 10.102 13.2207L10.1054 13.2147C10.1144 13.1988 10.1238 13.183 10.1341 13.1667L10.1395 13.1578L10.1532 13.1355L10.16 13.1245L10.1748 13.1005L10.181 13.0912L10.2025 13.0589L10.2059 13.0536L10.2249 13.0262L10.23 13.0188C10.2427 13.0005 10.2559 12.9822 10.2694 12.9638L10.2742 12.9571C10.2878 12.9388 10.302 12.9203 10.3161 12.9018L10.3211 12.8951L10.366 12.8382C10.3676 12.8365 10.3691 12.8347 10.3704 12.8328C10.3864 12.8132 10.4029 12.7933 10.4197 12.7735L10.4224 12.7704C10.44 12.7494 10.4581 12.7287 10.4772 12.7078C10.4955 12.6871 10.5141 12.6664 10.5319 12.6456L10.536 12.6412C10.554 12.6217 10.5725 12.602 10.5905 12.5822L10.5967 12.5759C10.6149 12.5567 10.6336 12.5375 10.6529 12.5184L10.6583 12.5128C10.6903 12.481 10.7227 12.4493 10.7561 12.4177L10.7633 12.4129C10.7895 12.388 10.8164 12.3633 10.844 12.3389L10.8504 12.3331C10.8735 12.3122 10.8969 12.2914 10.9207 12.2708L10.9341 12.259L10.9958 12.2044L10.9993 12.2017C11.0234 12.1814 11.0476 12.1616 11.0719 12.1423L11.0751 12.1398C11.0983 12.1212 11.1214 12.1031 11.1446 12.0853L11.1507 12.0804C11.173 12.0633 11.1953 12.0466 11.2176 12.03L11.2253 12.0245C11.2476 12.0081 11.2696 11.9919 11.2918 11.9763L11.2992 11.971C11.3222 11.9547 11.3452 11.9386 11.3682 11.9232L11.3729 11.9198C11.3993 11.9029 11.4233 11.8862 11.4483 11.87L11.4526 11.8673C11.4788 11.8509 11.5033 11.8349 11.5283 11.8194L11.5346 11.8156C11.5622 11.7989 11.5895 11.7826 11.6167 11.767C11.6196 11.7652 11.6225 11.7637 11.6253 11.7622L11.6599 11.7424L11.6696 11.7371C11.6834 11.7293 11.6973 11.7221 11.7108 11.7151L11.7181 11.7113C11.734 11.7027 11.7499 11.6946 11.7658 11.6865L11.7687 11.685C11.7849 11.6766 11.801 11.6688 11.8169 11.6612C11.8195 11.6599 11.8221 11.6586 11.8246 11.6575C11.846 11.6471 11.867 11.6373 11.8878 11.6281L11.8909 11.6265C11.9127 11.617 11.9341 11.6078 11.9554 11.599L11.968 11.5939C11.9735 11.5915 11.9789 11.5894 11.9846 11.5871L11.9977 11.582C12.0032 11.5799 12.0083 11.5778 12.0137 11.5759L12.0271 11.5709L12.0426 11.5653C12.0472 11.5636 12.0516 11.5622 12.056 11.5605C12.0604 11.5588 12.066 11.557 12.0712 11.5553C12.0763 11.5537 12.0799 11.5522 12.0846 11.5508C12.0892 11.5494 12.0943 11.5475 12.0992 11.5461C12.1041 11.5447 12.1079 11.5433 12.1126 11.5419L12.1267 11.5374L12.1397 11.5336L12.1541 11.5294C12.1582 11.5282 12.1625 11.5272 12.1669 11.5261C12.1712 11.5249 12.1761 11.5235 12.1807 11.5223C12.1853 11.5211 12.1891 11.5202 12.1932 11.5192L12.207 11.5157L12.2193 11.5129C12.2235 11.5132 12.2282 11.511 12.2328 11.5099C12.2374 11.5087 12.2407 11.5082 12.2447 11.5075C12.2488 11.5068 12.2537 11.5056 12.258 11.5049L12.2697 11.5028C12.2739 11.5031 12.2783 11.5012 12.2826 11.5005C12.2869 11.4998 12.2902 11.4993 12.2943 11.4986C12.2984 11.4979 12.3027 11.4975 12.3067 11.497C12.3107 11.4966 12.3143 11.4958 12.3181 11.4953L12.3302 11.494C12.334 11.4943 12.3376 11.4933 12.3414 11.4928C12.3452 11.4923 12.3493 11.4934 12.3532 11.4919C12.3571 11.4905 12.3605 11.4912 12.3641 11.491L12.3757 11.4903C12.3791 11.4906 12.3829 11.4909 12.3864 11.4911C12.3899 11.4914 12.3936 11.4916 12.3974 11.4919L12.4076 11.4927L12.4186 11.4935C12.4218 11.4937 12.4253 11.494 12.4285 11.4942C12.4318 11.4945 12.4355 11.4947 12.439 11.495C12.4425 11.4953 12.4455 11.4955 12.4487 11.4957C12.452 11.496 12.4557 11.4962 12.459 11.4965C12.4622 11.4967 12.4654 11.497 12.4684 11.4972L12.4784 11.4979L12.4876 11.4986C12.4909 11.4988 12.4941 11.4991 12.4974 11.4993C12.5006 11.4995 12.5031 11.4997 12.5061 11.5C12.5091 11.5002 12.5123 11.5004 12.5154 11.5024C12.5186 11.5044 12.5209 11.5028 12.5237 11.503C12.5264 11.5032 12.5298 11.505 12.5328 11.5057C12.5357 11.5064 12.5382 11.5061 12.5406 11.5083C12.5429 11.5104 12.5465 11.5102 12.5494 11.5114C12.552 11.5121 12.5545 11.5131 12.557 11.5142C12.5597 11.5144 12.5626 11.5164 12.5652 11.5176C12.5679 11.5188 12.5701 11.5197 12.5723 11.5209C12.5744 11.5221 12.5778 11.5236 12.5805 11.5248L12.587 11.5282C12.5898 11.5284 12.5923 11.5314 12.5947 11.5328L12.6012 11.5366L12.6086 11.5416L12.6143 11.5458C12.6169 11.5476 12.6193 11.5495 12.6216 11.5516C12.6234 11.5517 12.6252 11.5544 12.6266 11.5557C12.6293 11.558 12.6319 11.5603 12.6344 11.5628L12.6384 11.5664C12.6421 11.5702 12.6456 11.574 12.649 11.578L11.1879 9.88191C11.1845 9.8779 11.1807 9.87411 11.177 9.87032C11.1733 9.86654 11.1744 9.86788 11.173 9.86652L11.1655 9.85944L11.1603 9.85555C11.158 9.85339 11.1555 9.85137 11.153 9.84949L11.1472 9.84555L11.1398 9.84049C11.1377 9.83908 11.1355 9.83792 11.1336 9.83677C11.1317 9.83563 11.1285 9.83364 11.1259 9.83219L11.1191 9.82868C11.1164 9.82848 11.1138 9.82578 11.1112 9.82458C11.1085 9.82338 11.1063 9.82247 11.1039 9.82154L11.0956 9.81792L11.088 9.8151C11.085 9.81488 11.0824 9.81293 11.0795 9.81196C11.0766 9.81099 11.0741 9.81031 11.0714 9.80961C11.0687 9.80891 11.0655 9.80767 11.0626 9.80695L11.0542 9.80483L11.0448 9.80263C11.0418 9.80241 11.0391 9.80221 11.0361 9.80199C11.0331 9.80177 11.0296 9.80151 11.0264 9.80127C11.0231 9.80103 11.0204 9.80083 11.0174 9.80061L11.0072 9.79985C11.0042 9.79963 11.0009 9.79939 10.9979 9.79917C10.9949 9.79895 10.991 9.79865 10.9875 9.7984L10.978 9.7977C10.9745 9.79744 10.9708 9.79716 10.9673 9.7969C10.9638 9.79665 10.9608 9.79642 10.9573 9.79617C10.9538 9.79591 10.95 9.79563 10.9463 9.79536C10.9426 9.79508 10.9396 9.79486 10.9361 9.7946C10.9326 9.79434 10.9288 9.79407 10.9251 9.79379C10.9214 9.79351 10.9181 9.79327 10.9145 9.79426L10.903 9.79491L10.8919 9.7956C10.8881 9.79532 10.8841 9.79503 10.88 9.79673C10.8759 9.79843 10.8727 9.79744 10.8689 9.79791L10.8567 9.79927L10.8454 9.80069C10.8414 9.80039 10.837 9.80183 10.8329 9.80253C10.8289 9.80323 10.8251 9.8037 10.8213 9.80443L10.8083 9.80648L10.7966 9.80862L10.7834 9.81141C10.7796 9.81113 10.7755 9.81283 10.7714 9.81379C10.7673 9.81474 10.7625 9.81563 10.7579 9.8168L10.7457 9.81966C10.7412 9.81932 10.7365 9.82174 10.7319 9.8229C10.7273 9.82407 10.7237 9.82505 10.7194 9.82599C10.715 9.82692 10.7101 9.82857 10.7055 9.82973L10.6927 9.8333C10.6881 9.83472 10.6832 9.83611 10.6786 9.83728L10.6656 9.84133C10.6607 9.84272 10.6558 9.84412 10.6512 9.84578C10.6465 9.84744 10.6422 9.84838 10.6378 9.84981L10.6232 9.85475L10.6098 9.85903C10.6049 9.86092 10.5998 9.86255 10.5946 9.86442C10.5895 9.8663 10.5859 9.86754 10.5813 9.86895C10.5766 9.87037 10.571 9.87271 10.5658 9.87483C10.5606 9.87696 10.557 9.87795 10.5524 9.87961L10.5364 9.88595L10.5232 9.891L10.5067 9.89755C10.5028 9.89927 10.4989 9.90074 10.4951 9.90221C10.4738 9.91092 10.4524 9.92012 10.4308 9.93006C10.4296 9.93041 10.4285 9.93091 10.4274 9.93157C10.4067 9.9409 10.3856 9.95064 10.3643 9.96076L10.3617 9.96208C10.36 9.96297 10.3583 9.96376 10.3565 9.96445L10.3086 9.98825L10.3055 9.99002C10.2896 9.99788 10.2737 10.0062 10.2575 10.0148C10.2563 10.0147 10.2547 10.0164 10.2531 10.0172L10.2507 10.0186C10.2368 10.0259 10.223 10.0332 10.2092 10.0406L10.1998 10.0459C10.1883 10.0523 10.1765 10.0587 10.1648 10.0656C10.1627 10.0667 10.1606 10.0678 10.1585 10.0692L10.1565 10.069C10.1302 10.0849 10.102 10.1009 10.0744 10.1179L10.0718 10.1195C10.0706 10.1201 10.0694 10.1209 10.0683 10.1217C10.0421 10.1368 10.0179 10.1528 9.99234 10.1693L9.9897 10.1711L9.9882 10.171C9.96193 10.1871 9.93812 10.2039 9.91278 10.2211L9.91128 10.221L9.90813 10.223C9.88516 10.2386 9.86217 10.2544 9.83914 10.2708L9.83596 10.2731L9.83174 10.276C9.80949 10.2919 9.7875 10.3079 9.76523 10.3243C9.76392 10.3254 9.76251 10.3264 9.761 10.3272L9.75753 10.33C9.73526 10.3464 9.71294 10.3633 9.69086 10.3805L9.6869 10.3832L9.68449 10.3853C9.66137 10.4029 9.6382 10.4212 9.61503 10.4396L9.61288 10.4414C9.58862 10.4609 9.56434 10.4807 9.54002 10.501L9.53761 10.5031C9.51651 10.5206 9.49539 10.5383 9.47423 10.5566L9.46459 10.5649C9.4634 10.566 9.46214 10.5671 9.46084 10.5681C9.43698 10.5889 9.41364 10.6095 9.39054 10.6304L9.38679 10.6336L9.38409 10.6362C9.3572 10.6608 9.33028 10.6856 9.30339 10.7102L9.30151 10.7118L9.2996 10.7139C9.26622 10.7449 9.2337 10.7766 9.20205 10.809L9.19964 10.8111L9.19637 10.8146C9.1774 10.8338 9.15868 10.853 9.14021 10.8722L9.13424 10.8783C9.11524 10.8979 9.09698 10.9176 9.07972 10.9374L9.07563 10.9419C9.05655 10.9626 9.03797 10.9832 9.0209 11.0038L9.02081 11.0051C9.00221 11.026 8.98411 11.047 8.96603 11.0677L8.96328 11.071C8.94651 11.0908 8.93002 11.1104 8.91426 11.1303L8.90984 11.1358C8.8944 11.1547 8.87946 11.1737 8.86477 11.1926L8.85978 11.199C8.84537 11.2175 8.83147 11.2361 8.81806 11.2546L8.81307 11.261C8.79966 11.2796 8.78527 11.2979 8.77363 11.3163L8.77113 11.3196L8.76859 11.3235L8.7492 11.3516L8.74611 11.3562L8.72467 11.3884L8.71871 11.3978L8.70365 11.4217L8.69709 11.4325L8.68313 11.4551L8.67915 11.4616L8.67896 11.464C8.66925 11.4801 8.65978 11.4962 8.65034 11.5121L8.64715 11.5179C8.6382 11.5338 8.62952 11.5494 8.62136 11.5649L8.61959 11.5685L8.61814 11.5711L8.59875 11.6096L8.5952 11.6168C8.58899 11.6297 8.58277 11.6425 8.57708 11.6551L8.57686 11.6581C8.57207 11.6686 8.56781 11.6788 8.56354 11.689L8.56021 11.6968L8.54727 11.7294L8.54714 11.7312L8.54558 11.7353L8.53675 11.7597L8.53419 11.7673C8.53069 11.7773 8.52744 11.7874 8.52472 11.797L8.52448 11.8002C8.52188 11.8083 8.51977 11.8164 8.51765 11.8248L8.51555 11.8329L8.51038 11.8553L8.51009 11.8593L8.50525 11.884L8.50477 11.8905L8.50334 11.91L8.501 11.9417C8.50041 11.9496 8.49984 11.9574 8.49928 11.9649L8.49882 11.9711L8.49931 11.9882L8.49884 11.9947L8.5006 12.0149L8.50051 12.0161L8.50397 12.0372L8.50529 12.043L8.50893 12.0584L8.50869 12.0616L8.50856 12.0633L8.51514 12.0829L8.51642 12.086C8.51852 12.0914 8.5209 12.0966 8.52329 12.1015L8.52459 12.1044L8.52568 12.1065C8.52898 12.1127 8.5323 12.1188 8.53614 12.1246L8.53727 12.1262C8.54065 12.1314 8.54452 12.1367 8.54841 12.1418L8.55026 12.1439L8.55438 12.1492L10.0157 13.8453L10.0021 13.8471Z" fill="#e22828"/>
<path d="M11.6625 13.1038C12.2279 12.6164 12.8238 12.3805 12.9933 12.5776C13.1628 12.7747 12.8416 13.328 12.275 13.8153C11.7084 14.3026 11.1139 14.5385 10.9444 14.3422C10.7748 14.1459 11.0971 13.5911 11.6625 13.1038Z" fill="#EDF5F7"/>
<path d="M10.941 14.3359C10.938 14.3319 10.9351 14.328 10.9324 14.3238L10.9325 14.3225C10.9296 14.318 10.9269 14.3134 10.9245 14.3086L10.9225 14.3047L10.9171 14.2928L10.9161 14.2902C10.9141 14.2852 10.9125 14.2802 10.9112 14.275L10.9099 14.2712L10.9071 14.2592L10.9061 14.2549C10.905 14.2495 10.9042 14.2442 10.9036 14.2386L10.9022 14.223L10.9026 14.218L10.9023 14.2047L10.9027 14.1999C10.9031 14.1943 10.9035 14.1883 10.904 14.182L10.9058 14.157L10.9069 14.1421L10.9073 14.1371L10.911 14.117L10.9113 14.1131L10.9154 14.0956L10.9171 14.0894L10.9223 14.0705L10.9225 14.0675C10.9245 14.0599 10.9271 14.0523 10.9297 14.0444L10.9316 14.0383L10.9386 14.0188L10.9405 14.0141L10.9503 13.9898L10.9527 13.984L10.9633 13.9597L10.9635 13.9564C10.968 13.9467 10.9725 13.9368 10.9775 13.9269L10.9802 13.921C10.9849 13.9111 10.9902 13.9012 10.9954 13.8913L10.9978 13.8865L11.0178 13.8501L11.0204 13.8455C11.0273 13.8332 11.0344 13.8215 11.0422 13.8083L11.0462 13.8013L11.057 13.784L11.0624 13.7754L11.0738 13.7577L11.0783 13.7502L11.0949 13.7264L11.0977 13.7223L11.1123 13.7008L11.1162 13.6951L11.1484 13.6501L11.152 13.6448L11.1846 13.6018L11.1884 13.5969L11.2233 13.5528L11.2266 13.5485C11.239 13.5331 11.2517 13.5178 11.2649 13.5025L11.2668 13.5001C11.2806 13.4838 11.2943 13.4678 11.309 13.4516C11.3232 13.4359 11.3377 13.4202 11.3524 13.4046L11.3556 13.4011C11.3695 13.3858 11.383 13.3705 11.3987 13.3541L11.4033 13.3492C11.4175 13.3344 11.4321 13.3195 11.4467 13.3047L11.4511 13.3003C11.4757 13.2755 11.5011 13.2511 11.527 13.2264L11.5297 13.2239C11.5502 13.2045 11.5709 13.1855 11.5919 13.1663L11.597 13.1619C11.615 13.1456 11.6332 13.1297 11.6507 13.1134L11.6609 13.1044C11.6773 13.0902 11.6937 13.0764 11.7099 13.0629L11.7125 13.0608C11.7312 13.0451 11.7502 13.0297 11.7688 13.0148L11.7712 13.013C11.7893 12.9988 11.8072 12.9845 11.8245 12.9708L11.8293 12.9669C11.847 12.9536 11.8643 12.9406 11.8811 12.9278C11.8829 12.9264 11.8851 12.9251 11.8869 12.9235C11.9042 12.9107 11.9214 12.8984 11.9398 12.8863L11.9456 12.8822C11.9634 12.8694 11.9813 12.8572 11.9986 12.845C11.9998 12.8442 12.0011 12.8434 12.0022 12.8425C12.0218 12.8294 12.0413 12.8163 12.0608 12.8037L12.0639 12.8016C12.0837 12.7891 12.1034 12.7767 12.1228 12.7649L12.1276 12.7617C12.1491 12.7487 12.1701 12.736 12.1913 12.724L12.1978 12.7202L12.2241 12.7049L12.2316 12.7007C12.2421 12.6949 12.2528 12.6889 12.2635 12.6835L12.269 12.6804L12.306 12.661C12.3068 12.6612 12.3075 12.6612 12.3083 12.6612C12.3208 12.6548 12.3343 12.6488 12.3458 12.6426L12.3515 12.6398C12.3681 12.632 12.3845 12.6242 12.4005 12.6184L12.4031 12.6173C12.4199 12.6098 12.4365 12.6025 12.4528 12.5959L12.4626 12.5921C12.467 12.5904 12.4711 12.5885 12.4755 12.587C12.4799 12.5856 12.4822 12.5843 12.4856 12.583C12.4889 12.5818 12.4941 12.5796 12.4982 12.5782L12.5085 12.5744C12.5124 12.5727 12.5165 12.5713 12.5207 12.5698C12.5248 12.5684 12.5274 12.5675 12.531 12.5663L12.5426 12.5621C12.5462 12.5609 12.5495 12.5599 12.5528 12.5586L12.5644 12.555L12.5747 12.5517C12.5785 12.5505 12.5821 12.5495 12.5857 12.5483L12.596 12.5453C12.5995 12.5443 12.6031 12.5433 12.607 12.5421C12.6108 12.5409 12.6136 12.5403 12.6167 12.5395L12.6277 12.5366C12.6307 12.5368 12.6341 12.535 12.6374 12.534C12.6407 12.533 12.6443 12.5323 12.6479 12.5316L12.6573 12.5292L12.6678 12.527C12.671 12.5272 12.6741 12.5257 12.6772 12.5252C12.6802 12.5247 12.6841 12.5237 12.6874 12.5232C12.6907 12.5227 12.6935 12.5219 12.6965 12.5214L12.7064 12.5198L12.7156 12.5182C12.7188 12.5185 12.722 12.5187 12.7252 12.5169C12.7283 12.5152 12.7313 12.5161 12.734 12.5158C12.7368 12.5156 12.7403 12.5163 12.7437 12.5146L12.7523 12.5137C12.7553 12.5139 12.7582 12.5141 12.7612 12.5143C12.7642 12.5146 12.767 12.5148 12.7698 12.5137C12.7727 12.5127 12.7756 12.5141 12.7785 12.5144C12.7815 12.5146 12.784 12.5148 12.7868 12.515L12.7955 12.5156L12.8032 12.5162C12.8062 12.5164 12.809 12.5166 12.8117 12.5168C12.8145 12.517 12.817 12.5172 12.8194 12.5174C12.8219 12.5176 12.8249 12.5178 12.8277 12.518L12.8369 12.5187C12.8396 12.5189 12.8424 12.5191 12.8449 12.5193C12.8474 12.5195 12.8499 12.5196 12.8524 12.5198C12.8549 12.52 12.8574 12.5202 12.8599 12.5204C12.8623 12.5204 12.8647 12.5206 12.8671 12.5209L12.8746 12.5215C12.8768 12.5215 12.8791 12.5217 12.8813 12.522C12.8838 12.5221 12.8863 12.5223 12.8888 12.5225C12.8913 12.5227 12.893 12.5228 12.8952 12.5242L12.902 12.5262L12.9082 12.5282C12.9107 12.5284 12.9128 12.5298 12.915 12.5305C12.9169 12.5313 12.9189 12.532 12.9209 12.5327L12.9272 12.5354C12.9292 12.5355 12.9311 12.5372 12.9328 12.5378L12.9391 12.541L12.9441 12.5437L12.9502 12.5471L12.9552 12.5502C12.9572 12.5504 12.959 12.5528 12.9609 12.5542L12.9652 12.5572C12.9674 12.5587 12.9692 12.5603 12.9712 12.5617L12.9749 12.565C12.9771 12.5666 12.9789 12.5685 12.981 12.5705L12.9838 12.5732C12.9869 12.5761 12.9897 12.5791 12.9924 12.5823L12.4019 11.8965C12.3993 11.8933 12.3965 11.8902 12.3935 11.8873C12.3926 11.8864 12.3915 11.8855 12.3905 11.8846C12.3886 11.8827 12.3867 11.8808 12.3846 11.8792L12.3808 11.8759C12.3789 11.8745 12.377 11.8728 12.3749 11.8714C12.3735 11.8703 12.3721 11.8693 12.3706 11.8683L12.3646 11.8641L12.3598 11.8613L12.3538 11.8578L12.3488 11.8552C12.3465 11.855 12.3447 11.8529 12.3425 11.852C12.3403 11.8511 12.3387 11.8517 12.3369 11.8496L12.3306 11.8468C12.3287 11.846 12.3267 11.8453 12.3247 11.8446C12.3225 11.8445 12.32 11.8443 12.3179 11.8421C12.3158 11.84 12.3136 11.8418 12.3117 11.8404C12.3095 11.8396 12.3072 11.839 12.3049 11.8384C12.3027 11.8377 12.3005 11.8371 12.2982 11.8367C12.296 11.8365 12.2935 11.8363 12.291 11.8361L12.2842 11.8356L12.2768 11.8351L12.2698 11.8346C12.267 11.8344 12.2645 11.8342 12.2618 11.834C12.2591 11.8338 12.2571 11.8336 12.2546 11.8334L12.2391 11.8323C12.2364 11.8321 12.2336 11.8319 12.2309 11.8317C12.2281 11.8315 12.2259 11.8313 12.2231 11.8311C12.2204 11.8309 12.2177 11.8307 12.2147 11.8305L12.2069 11.8299L12.1982 11.8293C12.1955 11.8291 12.1927 11.8289 12.19 11.8287C12.1872 11.8285 12.184 11.8282 12.1812 11.828C12.1785 11.8278 12.1755 11.8276 12.1727 11.8286L12.1636 11.8295L12.1547 11.8303C12.1517 11.8301 12.1488 11.8299 12.1454 11.8314C12.142 11.8329 12.1396 11.8322 12.1365 11.8327C12.1335 11.8333 12.1303 11.8323 12.1269 11.834C12.1235 11.8358 12.1209 11.8336 12.1178 11.8354C12.1146 11.8371 12.1111 11.8366 12.1078 11.8372L12.0987 11.8387C12.0955 11.8385 12.0921 11.8402 12.0885 11.8407C12.085 11.8412 12.0824 11.842 12.0791 11.8428L12.0689 11.8451L12.0592 11.8473C12.0557 11.8471 12.052 11.8491 12.0487 11.8498C12.0454 11.8506 12.0421 11.8514 12.039 11.8524C12.0359 11.8534 12.0316 11.8541 12.028 11.8551C12.0244 11.8561 12.0216 11.8571 12.018 11.8579L12.0073 11.8611L11.997 11.8641C11.9934 11.8651 11.9896 11.8663 11.986 11.8675C11.9824 11.8688 11.9791 11.8695 11.9757 11.8708L11.9642 11.8744C11.9608 11.8757 11.9575 11.8767 11.9539 11.8779C11.9503 11.8792 11.9461 11.8806 11.9423 11.8821C11.9384 11.8836 11.9353 11.8843 11.9317 11.8856L11.9199 11.89C11.9163 11.8912 11.9129 11.8925 11.9095 11.894L11.8969 11.8986C11.8936 11.9001 11.8902 11.9013 11.8868 11.9026C11.8835 11.9038 11.8783 11.906 11.8739 11.9079C11.8695 11.9098 11.868 11.9102 11.8649 11.9115C11.8486 11.9183 11.832 11.9254 11.8151 11.9329L11.8125 11.9342C11.7965 11.9413 11.7801 11.9489 11.7638 11.9557L11.7616 11.9555L11.7577 11.9575L11.7204 11.9761L11.7181 11.9771C11.7058 11.9835 11.6933 11.9898 11.681 11.9965C11.6799 11.9971 11.6787 11.9977 11.6774 11.9982C11.6769 11.9987 11.6763 11.9991 11.6756 11.9993C11.6649 12.0051 11.6542 12.0108 11.6434 12.0168L11.6361 12.021C11.6272 12.0258 11.6181 12.0309 11.6099 12.0363L11.6049 12.039L11.6034 12.0389C11.5822 12.0509 11.561 12.0636 11.5397 12.0766L11.5376 12.0779L11.535 12.0795C11.5156 12.0913 11.4958 12.1037 11.4761 12.1165L11.4742 12.1179L11.473 12.1178C11.4535 12.1304 11.434 12.1432 11.4144 12.1566L11.4132 12.1565L11.4108 12.1581C11.3931 12.17 11.3752 12.1825 11.3579 12.1953C11.3569 12.1957 11.356 12.1964 11.3553 12.1971L11.3521 12.1994C11.3349 12.2114 11.3177 12.2239 11.2992 12.2366L11.296 12.2389L11.2934 12.2409C11.2757 12.2537 11.2584 12.2667 11.2416 12.28L11.2384 12.2823L11.2368 12.2836C11.2187 12.2976 11.2009 12.3116 11.1835 12.3261L11.1816 12.3275C11.163 12.3426 11.144 12.358 11.1253 12.3735L11.1235 12.3751C11.1071 12.3886 11.0908 12.4024 11.0745 12.4166L11.067 12.4231L11.0641 12.4256C11.0456 12.4415 11.0276 12.4578 11.0103 12.474C11.0093 12.4748 11.0083 12.4757 11.0074 12.4766C11.0066 12.4771 11.0059 12.4778 11.0052 12.4784C10.9843 12.4975 10.9635 12.5167 10.9431 12.5358L10.9417 12.5372L10.9404 12.5386C10.9135 12.5632 10.8891 12.5877 10.8644 12.6125L10.8628 12.6141L10.8601 12.6167C10.8455 12.6316 10.8308 12.6464 10.8167 12.6614L10.8118 12.6663L10.7661 12.7141L10.7629 12.7176L10.7195 12.7645C10.705 12.7808 10.6921 12.7971 10.6773 12.8133L10.6754 12.8157C10.6622 12.831 10.6495 12.8464 10.6371 12.8618L10.6338 12.866L10.599 12.9099L10.5951 12.9151L10.5626 12.9581L10.5589 12.9631C10.5483 12.9773 10.538 12.9916 10.5282 13.0059L10.5262 13.0085L10.5243 13.0114L10.5093 13.0334L10.5068 13.0367L10.4902 13.0618L10.4856 13.069L10.474 13.0872L10.4689 13.0953L10.4581 13.1129L10.4549 13.1181L10.4548 13.1199C10.4471 13.1324 10.44 13.1439 10.4327 13.1571L10.4304 13.1617L10.4104 13.1981L10.409 13.2008L10.4088 13.203L10.3938 13.2327L10.3911 13.2383L10.3772 13.2681L10.377 13.2704L10.3667 13.2947L10.3642 13.3005L10.3544 13.3249L10.3543 13.3261L10.3541 13.3294L10.3471 13.3492L10.3451 13.3553C10.3426 13.3629 10.34 13.3707 10.3379 13.3783L10.3378 13.3806C10.336 13.3872 10.3341 13.3933 10.3326 13.3997L10.3309 13.4059L10.3268 13.4231L10.3266 13.4264C10.3251 13.433 10.3239 13.4396 10.3229 13.4464L10.3225 13.4514L10.3214 13.4664L10.3195 13.4913C10.3191 13.4973 10.3187 13.5033 10.3182 13.5093L10.3179 13.514L10.3181 13.5273L10.3178 13.5323L10.3191 13.548C10.3197 13.5533 10.3206 13.5587 10.3217 13.5639L10.3226 13.5685L10.3255 13.5803L10.3253 13.583L10.3252 13.5843C10.3266 13.5894 10.3282 13.5945 10.3301 13.5994L10.3312 13.602L10.3366 13.6139L10.3377 13.616L10.3376 13.6175C10.3399 13.6224 10.3426 13.6271 10.3455 13.6317L10.3454 13.6329C10.3481 13.637 10.351 13.641 10.3541 13.6448L10.3555 13.6467L10.3587 13.6507L10.949 14.3365L10.941 14.3359Z" fill="#e22828"/>
<path d="M11.946 13.4327C12.5114 12.9453 13.1073 12.7095 13.2766 12.9055C13.446 13.1016 13.1252 13.6562 12.5595 14.1436C11.9939 14.6309 11.3984 14.8668 11.2291 14.6705C11.0598 14.4741 11.3806 13.9198 11.946 13.4327Z" fill="#999999"/>
<path d="M11.224 14.6645C11.2208 14.6607 11.2179 14.6567 11.2151 14.6526L11.2152 14.6513L11.2072 14.6372L11.2055 14.6336C11.2035 14.6297 11.2018 14.6255 11.2001 14.6214L11.199 14.6191L11.1939 14.6039L11.1929 14.5998C11.1917 14.5959 11.1908 14.592 11.19 14.5881L11.1891 14.5835L11.1863 14.5672L11.1847 14.5515L11.1851 14.5463L11.1848 14.5332L11.1852 14.5285L11.1865 14.5106L11.1867 14.5078C11.1871 14.5026 11.1875 14.4971 11.1879 14.4916L11.1883 14.4859L11.1894 14.4706L11.1898 14.4657L11.1935 14.4456L11.1938 14.4416L11.1979 14.4244L11.1983 14.4179L11.2037 14.399L11.204 14.396L11.2112 14.3732L11.2134 14.3671L11.2203 14.3475L11.222 14.3426L11.232 14.3183L11.2345 14.3125L11.2448 14.2882L11.245 14.2852L11.259 14.2554L11.2619 14.2498L11.2769 14.2198L11.2795 14.2152C11.2857 14.2032 11.2923 14.1911 11.2993 14.1788L11.3018 14.1743C11.3088 14.1617 11.3162 14.1502 11.3237 14.137L11.328 14.1298L11.3385 14.1128L11.3439 14.1041L11.3552 14.0864L11.36 14.079L11.3767 14.0539L11.3792 14.0501L11.3941 14.0286L11.398 14.0229L11.4285 13.9802L11.4324 13.975C11.443 13.9607 11.4536 13.9465 11.4647 13.9323L11.4686 13.927L11.5075 13.8815L11.5111 13.8775C11.5235 13.8617 11.5362 13.8459 11.5492 13.8302L11.5514 13.8276L11.5933 13.779C11.6076 13.763 11.6208 13.7469 11.6367 13.7321L11.6397 13.7285C11.6539 13.7133 11.667 13.6979 11.6828 13.6815L11.6874 13.6769C11.7018 13.6619 11.7162 13.6471 11.7311 13.6322L11.7354 13.6278C11.7601 13.6032 11.7852 13.5785 11.8111 13.5541L11.814 13.5513C11.8343 13.5322 11.855 13.513 11.8762 13.494L11.8811 13.4893C11.899 13.4733 11.9173 13.4571 11.9348 13.4411L11.9452 13.4321C11.9615 13.4181 11.9778 13.4042 11.9942 13.3906C11.995 13.3897 11.9959 13.389 11.9969 13.3883C12.0156 13.3726 12.0342 13.3574 12.0532 13.3423L12.0556 13.3404C12.0734 13.326 12.0915 13.312 12.1089 13.298L12.1136 13.2943C12.1313 13.2811 12.1486 13.2681 12.1654 13.2553L12.1715 13.251C12.1887 13.2382 12.206 13.2257 12.2232 13.2136L12.2288 13.2093C12.2467 13.1968 12.2644 13.1843 12.2816 13.1723C12.2829 13.1716 12.2841 13.1707 12.2853 13.1698C12.3051 13.1565 12.3246 13.1436 12.3441 13.131L12.3473 13.129C12.3668 13.1162 12.3865 13.1038 12.4059 13.092L12.4109 13.0891C12.4322 13.0759 12.4534 13.0634 12.4744 13.0514L12.4812 13.0474C12.4901 13.0423 12.499 13.0372 12.5074 13.0323L12.515 13.0281L12.5498 13.0113C12.5518 13.0115 12.5537 13.0094 12.5555 13.0085C12.5678 13.0019 12.5803 12.9953 12.5926 12.9892C12.5933 12.9887 12.5941 12.9883 12.5949 12.9881C12.6074 12.9815 12.6209 12.9754 12.6321 12.9695L12.6381 12.9667C12.6545 12.9586 12.6709 12.951 12.6872 12.9437C12.688 12.9439 12.6887 12.9439 12.6895 12.9439C12.7063 12.9364 12.7229 12.9293 12.7394 12.9225C12.7428 12.9213 12.7459 12.92 12.7493 12.9185L12.7619 12.9134C12.7655 12.9121 12.7689 12.9106 12.7723 12.9094C12.7756 12.9081 12.7805 12.9062 12.7847 12.9045L12.795 12.9008L12.8071 12.8964L12.8174 12.8927C12.8215 12.8915 12.8253 12.89 12.8292 12.8888C12.8331 12.8875 12.8362 12.8863 12.8395 12.8853L12.8508 12.8816C12.8544 12.8803 12.8577 12.8793 12.8613 12.8783C12.8649 12.8774 12.8688 12.8759 12.8724 12.8749L12.8824 12.8719C12.8862 12.8707 12.8898 12.8697 12.8934 12.8687L12.9034 12.8659C12.9069 12.8649 12.9105 12.8639 12.9141 12.8632C12.9177 12.8624 12.9205 12.8614 12.9238 12.8606C12.9271 12.8599 12.931 12.8589 12.9345 12.8579C12.9381 12.8569 12.9409 12.8566 12.944 12.8559L12.9544 12.8536C12.9574 12.8538 12.9608 12.8523 12.9639 12.8516C12.9669 12.8508 12.9705 12.8503 12.974 12.8496L12.9832 12.848C12.9864 12.8482 12.9898 12.8467 12.9931 12.8462C12.9964 12.8457 12.9991 12.8466 13.0022 12.8449L13.0119 12.8433C13.0146 12.8435 13.0176 12.8437 13.0207 12.8422C13.0238 12.8407 13.027 12.8427 13.0301 12.8412L13.0387 12.8403L13.048 12.8395C13.0507 12.8397 13.0535 12.8399 13.0563 12.8388C13.0592 12.8378 13.0623 12.8393 13.0653 12.8395C13.0683 12.8397 13.0708 12.8399 13.0733 12.8401L13.082 12.8407L13.09 12.8413C13.0927 12.8415 13.0957 12.8417 13.0985 12.8419C13.1012 12.8422 13.1037 12.8423 13.1062 12.8425C13.1087 12.8427 13.1117 12.8429 13.1144 12.8431L13.1299 12.8443C13.1324 12.8445 13.1346 12.8446 13.1371 12.8448C13.1396 12.845 13.1424 12.8452 13.1449 12.8454C13.1474 12.8456 13.1496 12.8457 13.1518 12.8459C13.1544 12.8459 13.157 12.8461 13.1596 12.8465L13.1663 12.847C13.1687 12.847 13.1711 12.8472 13.1735 12.8475C13.1758 12.8477 13.178 12.8478 13.18 12.848L13.1872 12.85L13.1933 12.852C13.1955 12.8521 13.1978 12.8523 13.1999 12.8545C13.2019 12.8551 13.2038 12.8558 13.2057 12.8566L13.2123 12.8594C13.214 12.8595 13.216 12.8597 13.2179 12.8618L13.2242 12.865L13.2292 12.8677L13.2353 12.8711C13.237 12.8712 13.2384 12.8731 13.2401 12.874C13.2417 12.8748 13.2439 12.8768 13.2458 12.8779L13.2503 12.881L13.256 12.8857L13.26 12.8887L13.2659 12.8944C13.267 12.8953 13.268 12.8962 13.2689 12.8972L13.2773 12.9061L12.9944 12.5767L12.9861 12.5678C12.9851 12.5668 12.9841 12.5659 12.983 12.5651L12.9772 12.5594L12.9731 12.5563L12.9674 12.5517L12.9629 12.5486L12.9572 12.5446L12.9524 12.5418C12.9504 12.5416 12.9483 12.5392 12.9464 12.5383C12.9444 12.5374 12.943 12.5366 12.9413 12.5354C12.9396 12.5343 12.937 12.5334 12.935 12.5325C12.9332 12.5315 12.9313 12.5307 12.9294 12.53C12.9272 12.5299 12.9251 12.528 12.9229 12.5273C12.9209 12.5265 12.919 12.5257 12.917 12.5251C12.9148 12.5242 12.9126 12.5233 12.9104 12.5226L12.9043 12.5207L12.8972 12.5186C12.8952 12.5185 12.8929 12.5183 12.8907 12.5182C12.8883 12.5179 12.8859 12.5177 12.8834 12.5176L12.8767 12.5171C12.8741 12.5168 12.8716 12.5166 12.869 12.5165C12.8667 12.5164 12.8645 12.5162 12.862 12.516C12.8595 12.5158 12.857 12.5157 12.8543 12.5155C12.8515 12.5153 12.8495 12.5151 12.847 12.5149C12.8445 12.5147 12.8418 12.5145 12.839 12.5143C12.8363 12.5141 12.8341 12.514 12.8316 12.5138L12.8233 12.5132C12.8208 12.513 12.8181 12.5128 12.8156 12.5126C12.8131 12.5124 12.8099 12.5122 12.8071 12.512C12.8044 12.5118 12.8019 12.5116 12.7991 12.5114C12.7964 12.5112 12.7934 12.511 12.7904 12.5107L12.7824 12.5102C12.7794 12.5099 12.7764 12.5097 12.7735 12.5095C12.7705 12.5093 12.768 12.5091 12.7652 12.5089L12.7559 12.5097L12.7473 12.5106C12.7443 12.5103 12.741 12.5114 12.7379 12.5116C12.7349 12.5119 12.732 12.5112 12.7291 12.5127L12.7194 12.5143C12.7164 12.5141 12.7134 12.5151 12.7103 12.5156C12.7073 12.5161 12.7037 12.5166 12.7004 12.5174L12.6913 12.519C12.6878 12.5187 12.6844 12.5202 12.6811 12.521C12.6778 12.5217 12.6747 12.5223 12.6716 12.523L12.6612 12.5253C12.6582 12.5251 12.6548 12.5266 12.6518 12.5273L12.641 12.5301L12.6313 12.5323L12.6206 12.5353L12.6106 12.5381C12.607 12.5391 12.6034 12.5401 12.5998 12.5413C12.5962 12.5425 12.5929 12.5431 12.5896 12.5443C12.5862 12.5456 12.5821 12.5465 12.5783 12.5477L12.5683 12.5508L12.5567 12.5547L12.5464 12.5579C12.5426 12.5594 12.5387 12.5609 12.5346 12.5621L12.5243 12.5658L12.5122 12.5702L12.5019 12.5739L12.4895 12.5788L12.4792 12.5828L12.4665 12.5879C12.4634 12.5892 12.4605 12.5905 12.4574 12.5915C12.4409 12.5983 12.4243 12.6053 12.4075 12.6129C12.4067 12.6134 12.4058 12.6137 12.4049 12.6139C12.3888 12.6213 12.3727 12.6289 12.3561 12.6354L12.3542 12.6353L12.3502 12.6372C12.338 12.6431 12.3255 12.6492 12.313 12.6555L12.3107 12.6569L12.2734 12.6762L12.27 12.6779L12.2683 12.6778C12.2576 12.6835 12.2468 12.6893 12.2361 12.6953L12.2288 12.6992L12.2026 12.7146C12.201 12.7157 12.1994 12.7167 12.1976 12.7175L12.1961 12.7174C12.1752 12.7296 12.1539 12.7421 12.1326 12.7553C12.132 12.7552 12.1313 12.7552 12.1306 12.7552L12.128 12.757C12.1083 12.7688 12.0888 12.7812 12.0691 12.794L12.0671 12.7939C12.0476 12.8065 12.0281 12.8193 12.0083 12.8326L12.0059 12.8345C11.988 12.8464 11.9703 12.8589 11.953 12.8714L11.9506 12.8733L11.9475 12.8756C11.9298 12.8878 11.9126 12.9003 11.8958 12.9131L11.8926 12.9154L11.8899 12.9174C11.8725 12.9302 11.8552 12.9432 11.8369 12.9564L11.834 12.9587L11.8321 12.9601C11.8143 12.9738 11.7962 12.988 11.7789 13.0023L11.7773 13.0037C11.7583 13.0188 11.7397 13.034 11.7209 13.0497C11.7203 13.0501 11.7196 13.0507 11.7191 13.0513L11.6701 13.0925L11.6624 13.0992L11.6597 13.1018C11.6412 13.1177 11.6229 13.134 11.6059 13.15L11.603 13.1525L11.6008 13.1546C11.5796 13.1736 11.5589 13.1927 11.5387 13.212L11.5373 13.2131L11.5357 13.2148C11.5088 13.2391 11.4847 13.2639 11.4601 13.2884L11.4582 13.2903L11.4557 13.2929L11.4121 13.3373L11.4074 13.3422C11.3928 13.3574 11.3786 13.3727 11.3647 13.388L11.3614 13.3915C11.3464 13.4074 11.3322 13.4234 11.3181 13.4384L11.2761 13.487L11.2739 13.4896L11.2359 13.5354L11.2324 13.5397C11.2205 13.5546 11.2089 13.5691 11.1978 13.5838L11.1936 13.5887C11.1825 13.6032 11.1717 13.6175 11.1614 13.6317L11.1575 13.637L11.127 13.6796L11.125 13.6822L11.1231 13.6851L11.1079 13.707L11.1056 13.7106L11.0891 13.7345L11.0845 13.7417L11.0729 13.7596L11.0675 13.768L11.057 13.7855L11.0538 13.7906L11.0537 13.7923C11.0462 13.8051 11.0389 13.8163 11.0319 13.8298L11.0293 13.8341C11.0224 13.8464 11.0157 13.8582 11.0095 13.8708L11.0093 13.8735L11.0092 13.8755L10.9942 13.9055L10.9913 13.9111L10.9773 13.9409L10.9771 13.9431L10.9668 13.9675L10.9644 13.9733L10.9543 13.9976L10.9542 13.9991L10.9539 14.0024L10.947 14.0222L10.9447 14.0283L10.9375 14.0511L10.9374 14.0533L10.932 14.0722L10.9315 14.0784L10.9275 14.096L10.9272 14.0992L10.9232 14.1192L10.9229 14.1242L10.9217 14.1394L10.9213 14.1452C10.9209 14.1506 10.9205 14.1561 10.9201 14.1614L10.9199 14.1641L10.9186 14.1821L10.9169 14.2048L10.9172 14.2178L10.9168 14.2231L10.9184 14.2387L10.9212 14.255L10.9222 14.2593C10.9229 14.2634 10.9238 14.2674 10.925 14.2713L10.9248 14.2741C10.9265 14.2792 10.9281 14.2843 10.93 14.289L10.9311 14.2916C10.9328 14.2957 10.9345 14.2998 10.9364 14.3038L10.9363 14.3057L10.9362 14.3072L10.9442 14.3214C10.9469 14.3256 10.9499 14.3297 10.953 14.3336L10.9542 14.3354L10.9576 14.3394L11.2405 14.6688L11.224 14.6645Z" fill="#404040"/>
<path d="M2.37085 14.7474L6.02328 11.5974C6.05435 11.5707 6.09474 11.5574 6.1356 11.5604C6.17646 11.5634 6.21446 11.5825 6.24127 11.6135L8.07417 13.7388C8.08742 13.7541 8.09752 13.7719 8.10388 13.7912C8.11025 13.8104 8.11275 13.8307 8.11126 13.851C8.10977 13.8712 8.1043 13.8909 8.09518 13.909C8.08605 13.9271 8.07345 13.9433 8.05809 13.9565L4.40539 17.1067C4.39004 17.12 4.37223 17.1301 4.35298 17.1365C4.33373 17.1428 4.31341 17.1453 4.29319 17.1438C4.27297 17.1423 4.25324 17.1369 4.23513 17.1277C4.21702 17.1186 4.20089 17.106 4.18766 17.0907L2.35475 14.9654C2.32804 14.9343 2.31474 14.8939 2.31775 14.8531C2.32077 14.8122 2.33987 14.7742 2.37085 14.7474Z" fill="#e22828"/>
<path d="M2.88179 8.7616C3.21854 9.15205 4.79196 8.34702 6.39614 6.96351C8.00031 5.58 9.02777 4.14192 8.69103 3.75147C8.35428 3.36101 6.78086 4.16604 5.17668 5.54955C3.57251 6.93306 2.54505 8.37114 2.88179 8.7616Z" fill="#3E4546"/>
<path d="M4.12724 4.36627C4.14549 4.3505 4.16791 4.34035 4.1918 4.33703C4.21569 4.33372 4.24002 4.33738 4.26188 4.34758C4.28373 4.35778 4.30217 4.37409 4.31497 4.39453C4.32777 4.41497 4.33438 4.43868 4.33402 4.46279L4.27094 8.53894C4.27068 8.55539 4.26718 8.57162 4.26065 8.58672C4.25412 8.60182 4.24467 8.61548 4.23286 8.62692C4.22105 8.63837 4.20709 8.64737 4.1918 8.65343C4.17651 8.65948 4.16017 8.66246 4.14372 8.66221C4.12728 8.66195 4.11104 8.65845 4.09595 8.65192C4.08085 8.64538 4.06719 8.63594 4.05574 8.62412C4.0443 8.61231 4.03529 8.59836 4.02924 8.58307C4.02318 8.56777 4.0202 8.55143 4.02046 8.53499L4.08327 4.45907C4.08361 4.44137 4.08771 4.42394 4.09529 4.40794C4.10287 4.39195 4.11376 4.37774 4.12724 4.36627Z" fill="#e22828"/>
<path d="M4.12715 4.36631C4.14052 4.35475 4.15618 4.34616 4.17311 4.3411C4.19004 4.33604 4.20785 4.33463 4.22537 4.33695L8.27765 4.87598C8.29396 4.87816 8.30967 4.88353 8.3239 4.89178C8.33814 4.90003 8.3506 4.911 8.36059 4.92407C8.37059 4.93713 8.3779 4.95204 8.38213 4.96794C8.38636 4.98383 8.38742 5.00041 8.38524 5.01671C8.38307 5.03302 8.3777 5.04874 8.36945 5.06297C8.3612 5.0772 8.35023 5.08967 8.33716 5.09966C8.32409 5.10965 8.30919 5.11697 8.29329 5.1212C8.27739 5.12543 8.26082 5.12648 8.24451 5.12431L4.19225 4.58502C4.16834 4.58184 4.14586 4.57182 4.12753 4.55615C4.10919 4.54049 4.09577 4.51986 4.08889 4.49674C4.08201 4.47363 4.08196 4.44901 4.08875 4.42587C4.09554 4.40273 4.10887 4.38204 4.12715 4.36631Z" fill="#e22828"/>
<path d="M4.12704 4.36627C4.15216 4.34462 4.18484 4.33383 4.21791 4.33627C4.25097 4.33871 4.28172 4.35419 4.30338 4.37929L6.47468 6.89692C6.49566 6.92212 6.50591 6.95454 6.50321 6.98722C6.50051 7.0199 6.48508 7.05021 6.46025 7.07162C6.43542 7.09303 6.40318 7.10384 6.37046 7.10171C6.33774 7.09958 6.30717 7.08468 6.28533 7.06023L4.11402 4.5426C4.09237 4.51749 4.08158 4.48481 4.08402 4.45174C4.08646 4.41867 4.10194 4.38793 4.12704 4.36627Z" fill="#e22828"/>
<path d="M3.86929 4.75388C3.93757 4.83306 4.14513 4.76599 4.33288 4.60406C4.52063 4.44214 4.61747 4.24669 4.54918 4.16751C4.48089 4.08833 4.27334 4.15541 4.08559 4.31733C3.89784 4.47926 3.801 4.6747 3.86929 4.75388Z" fill="#3E4546"/>
<path d="M3.93993 4.14857C3.8328 4.24097 3.71965 4.28577 3.68754 4.24854C3.65544 4.21132 3.71611 4.10621 3.8235 4.01383C3.93088 3.92145 4.04353 3.87661 4.07588 3.91386C4.10824 3.95111 4.04707 4.05617 3.93993 4.14857Z" fill="#90A6B4"/>
<path d="M4.07642 3.91492L4.07825 3.91731L4.07981 3.91994L4.07967 3.92193L4.08071 3.92477L4.08055 3.92701L4.08031 3.93026L4.08009 3.93325L4.07889 3.94946L4.07859 3.95345L4.07836 3.95669L4.07826 3.95794L4.07799 3.96168L4.07766 3.96617L4.07738 3.96991L4.07526 3.97477L4.07317 3.97938L4.07048 3.9852L4.06755 3.991L4.06377 3.998L4.05949 4.00495L4.05938 4.00645L4.0574 4.00956L4.05727 4.01131L4.05502 4.01465L4.0549 4.01615L4.05179 4.02094L4.04899 4.02499L4.04312 4.03308L4.03699 4.04141L4.03036 4.0497C4.02812 4.05279 4.02566 4.05562 4.02319 4.05845L4.01524 4.06764L4.00704 4.07681L3.99888 4.08549L3.99048 4.0939L3.97616 4.10788L3.96434 4.11855L3.95387 4.1278L3.952 4.12942L3.94264 4.13726L3.93197 4.146C3.92852 4.1485 3.92531 4.15127 3.92184 4.15403L3.91203 4.16133C3.90885 4.1636 3.90565 4.16612 3.90223 4.16838L3.89218 4.17541C3.88846 4.17814 3.88479 4.18038 3.88109 4.18286L3.8698 4.1898L3.85772 4.19719L3.85274 4.20008L3.85124 4.19997L3.84523 4.20329L3.83818 4.20703C3.83585 4.20811 3.83351 4.20919 3.83115 4.21052C3.82803 4.21205 3.82491 4.21357 3.82181 4.21485C3.81868 4.21637 3.81558 4.21765 3.81248 4.21892L3.81048 4.21878L3.80824 4.21861L3.80624 4.21846L3.804 4.2183L3.80225 4.21817C3.80151 4.21802 3.80076 4.21796 3.80001 4.218L3.79801 4.21786L3.79602 4.21771L3.79402 4.21756L3.79203 4.21741L3.79003 4.21727L3.78804 4.21712L3.78604 4.21697L3.78404 4.21682L3.7823 4.21669L3.7803 4.21655L3.77856 4.21642L3.77656 4.21627L3.77482 4.21614L3.77282 4.21599L3.77108 4.21587L3.76908 4.21572L3.76733 4.21559L3.76559 4.21546L3.76384 4.21533L3.7621 4.2152L3.76035 4.21507L3.75861 4.21494L3.72045 4.21213L3.70673 4.21111C3.70631 4.21106 3.7059 4.21103 3.70548 4.21102C3.70548 4.21102 3.70548 4.21102 3.70398 4.21091L3.70274 4.21082L3.7011 4.20919L3.97019 4.52147L3.97182 4.52309L3.97307 4.52318L3.97432 4.52328C3.97473 4.52328 3.97515 4.52331 3.97556 4.52337C3.97556 4.52337 3.97556 4.52337 3.97706 4.52348L4.00699 4.52569L4.00873 4.52582L4.01048 4.52595L4.01223 4.52608L4.01397 4.52621L4.01572 4.52633L4.01771 4.52648L4.01946 4.52661L4.02145 4.52676L4.0232 4.52689L4.0252 4.52703L4.02694 4.52716L4.02894 4.52731L4.03068 4.52744L4.03268 4.52759L4.03467 4.52773L4.03667 4.52788L4.03866 4.52803L4.04066 4.52818L4.04266 4.52832L4.04465 4.52847L4.04665 4.52862L4.04889 4.52878L4.05064 4.52891L4.05313 4.5291L4.05488 4.52923L4.05712 4.52939L4.05887 4.52952C4.06197 4.52825 4.06507 4.52697 4.06819 4.52545C4.0713 4.52417 4.07442 4.52265 4.07754 4.52112C4.0799 4.51979 4.08223 4.51871 4.08457 4.51763L4.09162 4.51389C4.0938 4.51285 4.09589 4.51167 4.0979 4.51034L4.0994 4.51045L4.10437 4.50755L4.11644 4.50042C4.12011 4.49818 4.12404 4.49597 4.12773 4.49348C4.13143 4.491 4.1351 4.48876 4.13882 4.48602L4.14913 4.47876C4.15256 4.47651 4.15575 4.47398 4.15893 4.47171L4.16875 4.46441C4.17221 4.46166 4.17566 4.45915 4.17887 4.45638L4.18955 4.44764L4.19917 4.43958L4.19926 4.43833L4.20973 4.42907L4.22157 4.41816L4.23591 4.40392L4.2443 4.39551L4.25247 4.38684L4.26067 4.37766L4.26889 4.36824L4.27606 4.35949L4.28269 4.3512L4.2888 4.34313L4.28889 4.34188L4.29476 4.33379L4.29781 4.32975L4.30092 4.32497L4.30103 4.32347L4.30329 4.32012L4.30342 4.31838L4.3054 4.31526L4.30549 4.31402L4.30952 4.30704L4.3133 4.30005L4.31623 4.29425L4.3189 4.28868L4.32073 4.2843L4.32082 4.28305L4.32269 4.27817L4.32298 4.27418L4.32331 4.26969L4.32359 4.26595L4.32383 4.26271L4.32412 4.25872L4.32532 4.24251L4.32554 4.23951L4.32576 4.23652L4.32593 4.23428L4.32615 4.23128L4.32507 4.22895L4.32351 4.22632L4.32168 4.22393L4.05259 3.91166L4.07642 3.91492Z" fill="#EDF5F7"/>
<path d="M6.39639 6.96362C4.79209 8.34701 3.21871 9.15213 2.88218 8.76165C3.44833 9.41811 5.31482 8.95311 6.91888 7.56946C8.52295 6.18581 9.25735 4.40816 8.6912 3.75171C9.028 4.14196 8.00045 5.57997 6.39639 6.96362Z" fill="#EDF5F7"/>
<path d="M5.20148 14.5284L6.13699 15.6131L6.32635 15.4498L5.39084 14.3651L7.23942 12.7708L7.07611 12.5815L5.22753 14.1757L4.29179 13.0908L4.10243 13.2541L5.03817 14.3391L3.18959 15.9333L3.3529 16.1227L5.20148 14.5284Z" fill="#EDF5F7"/>
<path d="M12.2133 13.8769C12.2152 13.8523 12.2243 13.8288 12.2395 13.8094C12.2547 13.7899 12.2753 13.7754 12.2988 13.7677C12.3222 13.7599 12.3475 13.7593 12.3713 13.7659C12.3951 13.7725 12.4164 13.7859 12.4325 13.8046L12.8539 14.2931C12.8649 14.3055 12.8734 14.32 12.8788 14.3357C12.8842 14.3514 12.8865 14.368 12.8854 14.3846C12.8843 14.4011 12.8799 14.4173 12.8725 14.4322C12.8651 14.4471 12.8548 14.4603 12.8423 14.4711C12.8297 14.482 12.8151 14.4902 12.7993 14.4954C12.7835 14.5005 12.7669 14.5024 12.7503 14.5011C12.7338 14.4997 12.7177 14.4951 12.7029 14.4874C12.6882 14.4797 12.6751 14.4692 12.6645 14.4565L12.2432 13.9679C12.2325 13.9555 12.2243 13.941 12.2192 13.9254C12.214 13.9098 12.212 13.8933 12.2133 13.8769Z" fill="#e22828"/>
<path fill-rule="evenodd" clip-rule="evenodd" d="M0.624398 3.49123C0.647234 3.09496 0.749555 2.70744 0.92527 2.35172C1.10099 1.99599 1.3465 1.67935 1.64721 1.42063C2.27891 0.875825 3.07534 0.644618 3.8456 0.713123C3.8904 0.717124 3.93184 0.738595 3.96097 0.772894C3.9901 0.807193 4.00458 0.851565 4.00127 0.896418L3.9931 1.01023C3.99145 1.03287 3.98531 1.05496 3.97504 1.0752C3.96477 1.09545 3.95057 1.11344 3.93327 1.12813C3.91598 1.14282 3.89593 1.15392 3.87429 1.16078C3.85265 1.16765 3.82986 1.17013 3.80725 1.1681C3.15453 1.1098 2.48047 1.30513 1.9455 1.7665C1.41054 2.22788 1.1183 2.86593 1.08007 3.52013C1.07876 3.5428 1.07295 3.56498 1.06299 3.58537C1.05302 3.60577 1.03909 3.62397 1.02202 3.63892C1.00495 3.65387 0.985064 3.66527 0.963533 3.67245C0.942002 3.67964 0.919252 3.68246 0.896608 3.68077L0.782833 3.67214C0.737981 3.66882 0.696218 3.64798 0.66657 3.61413C0.636923 3.58027 0.621773 3.53613 0.624398 3.49123ZM1.53492 3.5603C1.54893 3.28343 1.61898 3.01235 1.74083 2.76347C1.86267 2.51459 2.03379 2.29309 2.2438 2.11238C2.4534 1.93119 2.69764 1.79448 2.96172 1.71052C3.2258 1.62656 3.50423 1.59709 3.78016 1.62391C3.82471 1.62819 3.86583 1.64974 3.89472 1.68396C3.92361 1.71817 3.93797 1.76233 3.93471 1.80696L3.92636 1.92092C3.92469 1.94365 3.91849 1.96581 3.90814 1.9861C3.89778 2.00639 3.88348 2.02441 3.86607 2.03909C3.84865 2.05377 3.82848 2.06483 3.80673 2.0716C3.78497 2.07838 3.76208 2.08074 3.7394 2.07855C3.52442 2.05729 3.30741 2.07998 3.10158 2.14526C2.89575 2.21054 2.7054 2.31703 2.5421 2.45825C2.19835 2.75472 2.01191 3.16581 1.99078 3.58663C1.98963 3.60942 1.98395 3.63175 1.97405 3.65229C1.96415 3.67284 1.95024 3.6912 1.93313 3.70629C1.91603 3.72137 1.89608 3.73289 1.87446 3.74014C1.85284 3.7474 1.82998 3.75026 1.80722 3.74856L1.69327 3.74007C1.64859 3.73673 1.60698 3.71599 1.57738 3.68232C1.54777 3.64865 1.53254 3.60472 1.53494 3.55998L1.53492 3.5603ZM2.44562 3.63133C2.45047 3.47355 2.48807 3.31853 2.55603 3.17613C2.62399 3.03373 2.72083 2.90704 2.84039 2.80413C3.0919 2.58722 3.41128 2.49965 3.71679 2.53502C3.76071 2.54011 3.80098 2.562 3.82916 2.59611C3.85734 2.63021 3.87124 2.67388 3.86796 2.71798L3.85961 2.83193C3.8579 2.85503 3.85153 2.87753 3.84088 2.89808C3.83023 2.91863 3.81552 2.9368 3.79763 2.95149C3.77975 2.96618 3.75907 2.97709 3.73684 2.98355C3.71461 2.99001 3.6913 2.99189 3.66831 2.98908C3.57365 2.97738 3.4776 2.98566 3.38638 3.01338C3.29516 3.0411 3.21078 3.08764 3.13869 3.15C2.98668 3.2811 2.90645 3.46399 2.90153 3.65038C2.90091 3.6735 2.89562 3.69625 2.88596 3.71726C2.87631 3.73827 2.8625 3.7571 2.84536 3.77261C2.82822 3.78813 2.80812 3.8 2.78625 3.80752C2.76439 3.81504 2.74123 3.81805 2.71816 3.81637L2.60421 3.80788C2.56012 3.80461 2.51899 3.7844 2.48942 3.75149C2.45986 3.71858 2.44416 3.67552 2.44562 3.63133ZM3.33888 3.69087C3.34155 3.65347 3.35158 3.61698 3.36839 3.58349C3.3852 3.55 3.40846 3.52016 3.43683 3.49569C3.4652 3.47122 3.49813 3.4526 3.53373 3.44089C3.56933 3.42919 3.60689 3.42463 3.64427 3.42748C3.68951 3.43087 3.73157 3.45209 3.76121 3.48646C3.79086 3.52083 3.80566 3.56555 3.80237 3.61079L3.79402 3.72475C3.79068 3.76999 3.76952 3.81203 3.73519 3.84164C3.70085 3.87125 3.65616 3.886 3.61092 3.88266L3.49712 3.87435C3.45189 3.87096 3.40983 3.84974 3.38018 3.81537C3.35054 3.781 3.33559 3.73611 3.33888 3.69087Z" fill="#e22828"/>
</svg>
