<svg width="30" height="30" viewBox="0 0 30 30" fill="none" xmlns="http://www.w3.org/2000/svg">
<g clip-path="url(#clip0_1027_12854)">
<path d="M10.147 13.4195H9.45958C8.52151 13.3856 7.58648 13.5449 6.71252 13.8874C5.83856 14.2299 5.04432 14.7484 4.37908 15.4106L4.18945 15.6319V22.1741H7.41316V18.4605L7.84772 17.9706L8.04526 17.7415C9.07394 16.6847 10.3546 15.907 11.7667 15.4817C11.0597 14.9438 10.5021 14.2338 10.147 13.4195Z" fill="white"/>
<path d="M25.4282 15.3872C24.763 14.7249 23.9687 14.2064 23.0948 13.8639C22.2208 13.5214 21.2858 13.3622 20.3477 13.3961C20.06 13.3969 19.7726 13.4127 19.4865 13.4435C19.1247 14.2075 18.5823 14.8719 17.9062 15.3793C19.4138 15.7963 20.7794 16.6157 21.8569 17.7497L22.0544 17.9709L22.4811 18.4608V22.1822H25.5942V15.6084L25.4282 15.3872Z" fill="white"/>
<path d="M9.43636 11.8789H9.6813C9.56749 10.9017 9.73895 9.91244 10.175 9.03055C10.611 8.14866 11.293 7.41183 12.1386 6.90899C11.8321 6.44073 11.4092 6.06009 10.9114 5.80436C10.4135 5.54863 9.85784 5.42657 9.29867 5.45013C8.7395 5.4737 8.19603 5.64208 7.72149 5.93878C7.24695 6.23549 6.85759 6.65036 6.59156 7.14275C6.32553 7.63515 6.19193 8.18819 6.20386 8.74773C6.21578 9.30727 6.37282 9.85412 6.65959 10.3347C6.94636 10.8153 7.35304 11.2132 7.83979 11.4895C8.32655 11.7657 8.87669 11.9108 9.43636 11.9105V11.8789Z" fill="white"/>
<path d="M19.9696 11.286C19.9792 11.4676 19.9792 11.6496 19.9696 11.8312C20.1213 11.8553 20.2744 11.8685 20.4279 11.8707H20.578C21.1352 11.841 21.6752 11.6675 22.1455 11.3672C22.6158 11.0668 23.0002 10.6498 23.2615 10.1567C23.5227 9.66367 23.6519 9.11137 23.6363 8.55359C23.6207 7.9958 23.461 7.45156 23.1727 6.97383C22.8843 6.4961 22.4772 6.10118 21.9909 5.8275C21.5047 5.55382 20.9558 5.41072 20.3978 5.41212C19.8398 5.41352 19.2917 5.55939 18.8068 5.83551C18.3219 6.11163 17.9168 6.5086 17.6309 6.98777C18.346 7.45468 18.934 8.09182 19.3422 8.84201C19.7504 9.5922 19.966 10.432 19.9696 11.286Z" fill="white"/>
<path d="M14.7858 14.8264C16.7363 14.8264 18.3176 13.2451 18.3176 11.2945C18.3176 9.34396 16.7363 7.7627 14.7858 7.7627C12.8352 7.7627 11.2539 9.34396 11.2539 11.2945C11.2539 13.2451 12.8352 14.8264 14.7858 14.8264Z" fill="white"/>
<path d="M14.9755 16.7063C13.9436 16.6646 12.914 16.8322 11.9485 17.1988C10.9831 17.5654 10.1018 18.1236 9.35769 18.8396L9.16016 19.0609V24.0624C9.16324 24.2253 9.19839 24.386 9.26359 24.5353C9.3288 24.6846 9.42279 24.8196 9.54018 24.9326C9.65758 25.0456 9.79609 25.1344 9.9478 25.1938C10.0995 25.2533 10.2614 25.2823 10.4244 25.2791H19.5029C19.6658 25.2823 19.8277 25.2533 19.9794 25.1938C20.1311 25.1344 20.2696 25.0456 20.387 24.9326C20.5044 24.8196 20.5984 24.6846 20.6636 24.5353C20.7288 24.386 20.764 24.2253 20.7671 24.0624V19.0767L20.5774 18.8396C19.8381 18.1213 18.9599 17.5616 17.9966 17.1948C17.0333 16.828 16.0053 16.6617 14.9755 16.7063Z" fill="white"/>
</g>
<defs>
<clipPath id="clip0_1027_12854">
<rect width="28.4444" height="28.4444"  transform="translate(0.666016 0.666992)"/>
</clipPath>
</defs>
</svg>
