<svg width="40" height="36" viewBox="0 0 40 36" fill="none" xmlns="http://www.w3.org/2000/svg">
<path d="M15.0049 11.75C15.0049 12.7446 14.6098 13.6984 13.9065 14.4017C13.2033 15.1049 12.2494 15.5 11.2549 15.5C10.2603 15.5 9.30649 15.1049 8.60323 14.4017C7.89997 13.6984 7.50488 12.7446 7.50488 11.75C7.50488 10.7554 7.89997 9.80161 8.60323 9.09835C9.30649 8.39509 10.2603 8 11.2549 8C12.2494 8 13.2033 8.39509 13.9065 9.09835C14.6098 9.80161 15.0049 10.7554 15.0049 11.75Z" fill="#ABABAB"/>
<path d="M5.00488 0.5C3.6788 0.5 2.40703 1.02678 1.46935 1.96447C0.531667 2.90215 0.00488281 4.17392 0.00488281 5.5V30.5C0.00488281 31.8261 0.531667 33.0979 1.46935 34.0355C2.40703 34.9732 3.6788 35.5 5.00488 35.5H35.0049C36.331 35.5 37.6027 34.9732 38.5404 34.0355C39.4781 33.0979 40.0049 31.8261 40.0049 30.5V5.5C40.0049 4.17392 39.4781 2.90215 38.5404 1.96447C37.6027 1.02678 36.331 0.5 35.0049 0.5H5.00488ZM35.0049 3C35.6679 3 36.3038 3.26339 36.7726 3.73223C37.2415 4.20107 37.5049 4.83696 37.5049 5.5V21.75L28.0624 16.8825C27.8279 16.7651 27.5625 16.7243 27.3036 16.766C27.0448 16.8078 26.8056 16.9298 26.6199 17.115L17.3449 26.39L10.6949 21.96C10.4548 21.8001 10.1668 21.7283 9.87973 21.7565C9.59267 21.7848 9.32422 21.9114 9.11988 22.115L2.50488 28V5.5C2.50488 4.83696 2.76828 4.20107 3.23712 3.73223C3.70596 3.26339 4.34184 3 5.00488 3H35.0049Z" fill="#ABABAB"/>
</svg>
