<svg width="28" height="31" viewBox="0 0 28 31" fill="none" xmlns="http://www.w3.org/2000/svg">
<path d="M7.75825 9.3584H17.4675C17.9825 9.3584 18.4764 9.56298 18.8405 9.92715C19.2047 10.2913 19.4093 10.7852 19.4093 11.3002V26.835C19.4093 27.35 19.2047 27.8439 18.8405 28.2081C18.4764 28.5722 17.9825 28.7768 17.4675 28.7768H7.75825C7.24324 28.7768 6.74932 28.5722 6.38516 28.2081C6.02099 27.8439 5.81641 27.35 5.81641 26.835V11.3002C5.81641 10.7852 6.02099 10.2913 6.38516 9.92715C6.74932 9.56298 7.24324 9.3584 7.75825 9.3584ZM7.75825 11.3002V15.1839H17.4675V11.3002H7.75825ZM7.75825 17.1258V19.0676H9.70009V17.1258H7.75825ZM11.6419 17.1258V19.0676H13.5838V17.1258H11.6419ZM15.5256 17.1258V19.0676H17.4675V17.1258H15.5256ZM7.75825 21.0094V22.9513H9.70009V21.0094H7.75825ZM11.6419 21.0094V22.9513H13.5838V21.0094H11.6419ZM15.5256 21.0094V22.9513H17.4675V21.0094H15.5256ZM7.75825 24.8931V26.835H9.70009V24.8931H7.75825ZM11.6419 24.8931V26.835H13.5838V24.8931H11.6419ZM15.5256 24.8931V26.835H17.4675V24.8931H15.5256Z" fill="white"/>
<path fill-rule="evenodd" clip-rule="evenodd" d="M16.9073 1.53125C16.5169 1.53125 16.1426 1.6863 15.8666 1.9623C15.5906 2.2383 15.4355 2.61264 15.4355 3.00296V13.3049L18.011 11.8332L20.5865 13.3049L23.162 11.8332L25.7375 13.3049V3.00296C25.7375 2.61264 25.5825 2.2383 25.3065 1.9623C25.0305 1.6863 24.6561 1.53125 24.2658 1.53125H16.9073ZM18.7469 3.73882C18.4542 3.73882 18.1734 3.85511 17.9664 4.06211C17.7594 4.26911 17.6431 4.54986 17.6431 4.8426C17.6431 5.13534 17.7594 5.41609 17.9664 5.62309C18.1734 5.83009 18.4542 5.94638 18.7469 5.94638C19.0396 5.94638 19.3204 5.83009 19.5274 5.62309C19.7344 5.41609 19.8507 5.13534 19.8507 4.8426C19.8507 4.54986 19.7344 4.26911 19.5274 4.06211C19.3204 3.85511 19.0396 3.73882 18.7469 3.73882ZM23.3144 3.95442C23.1764 3.81647 22.9892 3.73897 22.7941 3.73897C22.599 3.73897 22.4118 3.81647 22.2739 3.95442L17.8587 8.36956C17.7884 8.43744 17.7324 8.51864 17.6938 8.60841C17.6552 8.69819 17.6349 8.79475 17.6341 8.89246C17.6333 8.99016 17.6519 9.08706 17.6889 9.17749C17.7259 9.26793 17.7805 9.35009 17.8496 9.41918C17.9187 9.48827 18.0008 9.54291 18.0913 9.57991C18.1817 9.61691 18.2786 9.63553 18.3763 9.63468C18.474 9.63383 18.5706 9.61353 18.6604 9.57496C18.7501 9.5364 18.8313 9.48034 18.8992 9.41006L23.3144 4.99492C23.4523 4.85693 23.5298 4.6698 23.5298 4.47467C23.5298 4.27955 23.4523 4.09242 23.3144 3.95442ZM22.4262 7.4181C22.1334 7.4181 21.8527 7.53439 21.6457 7.74139C21.4387 7.94839 21.3224 8.22914 21.3224 8.52188C21.3224 8.81462 21.4387 9.09537 21.6457 9.30237C21.8527 9.50937 22.1334 9.62566 22.4262 9.62566C22.7189 9.62566 22.9997 9.50937 23.2067 9.30237C23.4137 9.09537 23.53 8.81462 23.53 8.52188C23.53 8.22914 23.4137 7.94839 23.2067 7.74139C22.9997 7.53439 22.7189 7.4181 22.4262 7.4181Z" fill="white"/>
</svg>
