<svg width="21" height="22" viewBox="0 0 21 22" fill="none" xmlns="http://www.w3.org/2000/svg">
<path d="M11.5764 1.03125C11.5764 0.459766 11.1166 0 10.5451 0C9.97363 0 9.51387 0.459766 9.51387 1.03125V4.46875C9.51387 5.04023 9.97363 5.5 10.5451 5.5C11.1166 5.5 11.5764 5.04023 11.5764 4.46875V1.03125ZM7.52871 9.625H13.5615C13.8537 9.625 14.1115 9.80977 14.2104 10.0805L15.0268 12.375H6.06348L6.88418 10.0805C6.98301 9.80547 7.24082 9.625 7.53301 9.625H7.52871ZM4.29316 9.15664L3.07715 12.5641C2.21348 12.9293 1.60762 13.7844 1.60762 14.7812V20.625C1.60762 21.3855 2.22207 22 2.98262 22H3.67012C4.43066 22 5.04512 21.3855 5.04512 20.625V19.25H16.0451V20.625C16.0451 21.3855 16.6596 22 17.4201 22H18.1076C18.8682 22 19.4826 21.3855 19.4826 20.625V14.7812C19.4826 13.7844 18.8768 12.9293 18.0131 12.5641L16.7971 9.15664C16.3072 7.79023 15.0139 6.875 13.5615 6.875H7.52871C6.07637 6.875 4.77871 7.79023 4.29316 9.15664ZM5.04512 14.7812C5.31862 14.7812 5.58092 14.8899 5.77432 15.0833C5.96772 15.2767 6.07637 15.539 6.07637 15.8125C6.07637 16.086 5.96772 16.3483 5.77432 16.5417C5.58092 16.7351 5.31862 16.8438 5.04512 16.8438C4.77161 16.8438 4.50931 16.7351 4.31591 16.5417C4.12252 16.3483 4.01387 16.086 4.01387 15.8125C4.01387 15.539 4.12252 15.2767 4.31591 15.0833C4.50931 14.8899 4.77161 14.7812 5.04512 14.7812ZM15.0139 15.8125C15.0139 15.539 15.1225 15.2767 15.3159 15.0833C15.5093 14.8899 15.7716 14.7812 16.0451 14.7812C16.3186 14.7812 16.5809 14.8899 16.7743 15.0833C16.9677 15.2767 17.0764 15.539 17.0764 15.8125C17.0764 16.086 16.9677 16.3483 16.7743 16.5417C16.5809 16.7351 16.3186 16.8438 16.0451 16.8438C15.7716 16.8438 15.5093 16.7351 15.3159 16.5417C15.1225 16.3483 15.0139 16.086 15.0139 15.8125ZM1.2209 1.67578C0.816992 2.07969 0.816992 2.73281 1.2209 3.13242L3.2834 5.19492C3.6873 5.59883 4.34043 5.59883 4.74004 5.19492C5.13965 4.79102 5.14395 4.13789 4.74004 3.73828L2.68184 1.67578C2.27793 1.27188 1.6248 1.27188 1.2252 1.67578H1.2209ZM18.4084 1.67578L16.3459 3.73828C15.942 4.14219 15.942 4.79531 16.3459 5.19492C16.7498 5.59453 17.4029 5.59883 17.8025 5.19492L19.865 3.13242C20.2689 2.72852 20.2689 2.07539 19.865 1.67578C19.4611 1.27617 18.808 1.27188 18.4084 1.67578Z" />
</svg>
