<svg width="20" height="20" viewBox="0 0 20 20" fill="none" xmlns="http://www.w3.org/2000/svg">
<path d="M10 3.75C11.2361 3.75 12.4445 4.11656 13.4723 4.80331C14.5001 5.49007 15.3012 6.46619 15.7742 7.60823C16.2473 8.75027 16.3711 10.0069 16.1299 11.2193C15.8888 12.4317 15.2935 13.5453 14.4194 14.4194C13.5453 15.2935 12.4317 15.8888 11.2193 16.1299C10.0069 16.3711 8.75027 16.2473 7.60823 15.7742C6.46619 15.3012 5.49007 14.5001 4.80331 13.4723C4.11656 12.4445 3.75 11.2361 3.75 10C3.75 9.83424 3.68415 9.67527 3.56694 9.55806C3.44973 9.44085 3.29076 9.375 3.125 9.375C2.95924 9.375 2.80027 9.44085 2.68306 9.55806C2.56585 9.67527 2.5 9.83424 2.5 10C2.49996 11.7173 3.08923 13.3825 4.16936 14.7175C5.24948 16.0526 6.75504 16.9765 8.43447 17.335C10.1139 17.6934 11.8655 17.4647 13.3965 16.687C14.9276 15.9093 16.1454 14.6297 16.8465 13.0621C17.5476 11.4945 17.6895 9.73375 17.2485 8.07408C16.8074 6.41442 15.8102 4.95636 14.4235 3.94353C13.0367 2.9307 11.3444 2.42444 9.6292 2.50934C7.91404 2.59424 6.27997 3.26516 5 4.41V3.125C5 2.95924 4.93415 2.80027 4.81694 2.68306C4.69973 2.56585 4.54076 2.5 4.375 2.5C4.20924 2.5 4.05027 2.56585 3.93306 2.68306C3.81585 2.80027 3.75 2.95924 3.75 3.125V6.875C3.75 7.04076 3.81585 7.19973 3.93306 7.31694C4.05027 7.43415 4.20924 7.5 4.375 7.5H6.875C7.04076 7.5 7.19973 7.43415 7.31694 7.31694C7.43415 7.19973 7.5 7.04076 7.5 6.875C7.5 6.70924 7.43415 6.55027 7.31694 6.43306C7.19973 6.31585 7.04076 6.25 6.875 6.25H5C5.58163 5.4732 6.33642 4.84276 7.20439 4.40877C8.07236 3.97479 9.02958 3.74922 10 3.75ZM10.0013 6.875C10.0013 6.70924 9.9354 6.55027 9.81819 6.43306C9.70098 6.31585 9.54201 6.25 9.37625 6.25C9.21049 6.25 9.05152 6.31585 8.93431 6.43306C8.8171 6.55027 8.75125 6.70924 8.75125 6.875V10.625C8.75125 10.7908 8.8171 10.9497 8.93431 11.0669C9.05152 11.1842 9.21049 11.25 9.37625 11.25H11.8763C12.042 11.25 12.201 11.1842 12.3182 11.0669C12.4354 10.9497 12.5013 10.7908 12.5013 10.625C12.5013 10.4592 12.4354 10.3003 12.3182 10.1831C12.201 10.0658 12.042 10 11.8763 10H10.0013V6.875Z" fill="#606060"/>
</svg>
