<svg width="20" height="19" viewBox="0 0 20 19" fill="none" xmlns="http://www.w3.org/2000/svg">
<path d="M10.4333 0.152042C10.3126 0.0539197 10.1589 0 10 0C9.8411 0 9.68742 0.0539197 9.56667 0.152042L0 7.94204V17.1C0 17.604 0.210714 18.0872 0.585786 18.4435C0.960859 18.7999 1.46957 19 2 19H7.33333C7.51014 19 7.67971 18.9333 7.80474 18.8145C7.92976 18.6958 8 18.5347 8 18.3667V14.5667C8 14.0628 8.21071 13.5795 8.58579 13.2232C8.96086 12.8669 9.46957 12.6667 10 12.6667C10.5304 12.6667 11.0391 12.8669 11.4142 13.2232C11.7893 13.5795 12 14.0628 12 14.5667V18.3667C12 18.5347 12.0702 18.6958 12.1953 18.8145C12.3203 18.9333 12.4899 19 12.6667 19H18C18.5304 19 19.0391 18.7999 19.4142 18.4435C19.7893 18.0872 20 17.604 20 17.1V7.94204L10.4333 0.152042Z" stroke="none" stroke-opacity="1" stroke-width="2" />
</svg>
