<svg width="29" height="32" viewBox="0 0 29 32" fill="none" xmlns="http://www.w3.org/2000/svg">
<path d="M15.4333 0.152042C15.3126 0.0539197 15.1589 0 15 0C14.8411 0 14.6874 0.0539197 14.5667 0.152042L5 7.94204V17.1C5 17.604 5.21071 18.0872 5.58579 18.4435C5.96086 18.7999 6.46957 19 7 19H12.3333C12.5101 19 12.6797 18.9333 12.8047 18.8145C12.9298 18.6958 13 18.5347 13 18.3667V14.5667C13 14.0628 13.2107 13.5795 13.5858 13.2232C13.9609 12.8669 14.4696 12.6667 15 12.6667C15.5304 12.6667 16.0391 12.8669 16.4142 13.2232C16.7893 13.5795 17 14.0628 17 14.5667V18.3667C17 18.5347 17.0702 18.6958 17.1953 18.8145C17.3203 18.9333 17.4899 19 17.6667 19H23C23.5304 19 24.0391 18.7999 24.4142 18.4435C24.7893 18.0872 25 17.604 25 17.1V7.94204L15.4333 0.152042Z" fill="white"/>
<path d="M1.00346 30V22.7273H2.32093V25.8061H5.69096V22.7273H7.01199V30H5.69096V26.9105H2.32093V30H1.00346ZM10.7673 30.1065C10.2346 30.1065 9.77299 29.9893 9.38237 29.755C8.99174 29.5206 8.68871 29.1927 8.47328 28.7713C8.26021 28.3499 8.15368 27.8575 8.15368 27.294C8.15368 26.7306 8.26021 26.237 8.47328 25.8132C8.68871 25.3894 8.99174 25.0604 9.38237 24.826C9.77299 24.5916 10.2346 24.4744 10.7673 24.4744C11.3 24.4744 11.7616 24.5916 12.1523 24.826C12.5429 25.0604 12.8447 25.3894 13.0578 25.8132C13.2732 26.237 13.3809 26.7306 13.3809 27.294C13.3809 27.8575 13.2732 28.3499 13.0578 28.7713C12.8447 29.1927 12.5429 29.5206 12.1523 29.755C11.7616 29.9893 11.3 30.1065 10.7673 30.1065ZM10.7744 29.0767C11.0632 29.0767 11.3047 28.9974 11.4988 28.8388C11.693 28.6778 11.8374 28.4624 11.9321 28.1925C12.0291 27.9226 12.0777 27.6219 12.0777 27.2905C12.0777 26.9567 12.0291 26.6548 11.9321 26.3849C11.8374 26.1127 11.693 25.8961 11.4988 25.7351C11.3047 25.5741 11.0632 25.4936 10.7744 25.4936C10.4785 25.4936 10.2323 25.5741 10.0358 25.7351C9.84165 25.8961 9.69605 26.1127 9.59899 26.3849C9.50429 26.6548 9.45694 26.9567 9.45694 27.2905C9.45694 27.6219 9.50429 27.9226 9.59899 28.1925C9.69605 28.4624 9.84165 28.6778 10.0358 28.8388C10.2323 28.9974 10.4785 29.0767 10.7744 29.0767ZM14.472 30V24.5455H15.7007V25.4723H15.7646C15.8783 25.1598 16.0665 24.916 16.3293 24.7408C16.5921 24.5632 16.9057 24.4744 17.2703 24.4744C17.6396 24.4744 17.951 24.5644 18.2043 24.7443C18.46 24.9219 18.6399 25.1645 18.7441 25.4723H18.8009C18.9216 25.1693 19.1252 24.9278 19.4117 24.7479C19.7005 24.5656 20.0426 24.4744 20.4379 24.4744C20.9398 24.4744 21.3494 24.633 21.6666 24.9503C21.9839 25.2675 22.1425 25.7304 22.1425 26.3388V30H20.8534V26.5376C20.8534 26.1991 20.7635 25.9517 20.5835 25.7955C20.4036 25.6368 20.1834 25.5575 19.923 25.5575C19.6129 25.5575 19.3702 25.6546 19.195 25.8487C19.0222 26.0405 18.9358 26.2902 18.9358 26.598V30H17.6752V26.4844C17.6752 26.2027 17.5899 25.9777 17.4195 25.8097C17.2514 25.6416 17.0312 25.5575 16.759 25.5575C16.5743 25.5575 16.4062 25.6049 16.2547 25.6996C16.1032 25.7919 15.9825 25.9233 15.8925 26.0938C15.8025 26.2618 15.7575 26.4583 15.7575 26.6832V30H14.472ZM25.8614 30.1065C25.3145 30.1065 24.8422 29.9929 24.4445 29.7656C24.0492 29.536 23.7449 29.2116 23.5319 28.7926C23.3188 28.3712 23.2123 27.8752 23.2123 27.3047C23.2123 26.7436 23.3188 26.2512 23.5319 25.8274C23.7473 25.4013 24.048 25.0698 24.4339 24.8331C24.8198 24.594 25.2731 24.4744 25.7939 24.4744C26.1301 24.4744 26.4474 24.5289 26.7456 24.6378C27.0463 24.7443 27.3115 24.91 27.5411 25.1349C27.7731 25.3598 27.9554 25.6463 28.088 25.9943C28.2206 26.34 28.2868 26.7519 28.2868 27.2301V27.6243H23.816V26.7578H27.0546C27.0522 26.5116 26.999 26.2926 26.8948 26.1009C26.7906 25.9067 26.645 25.754 26.458 25.6428C26.2733 25.5315 26.0579 25.4759 25.8117 25.4759C25.5489 25.4759 25.3181 25.5398 25.1192 25.6676C24.9204 25.7931 24.7653 25.9588 24.654 26.1648C24.5451 26.3684 24.4895 26.5921 24.4871 26.8359V27.5923C24.4871 27.9096 24.5451 28.1818 24.6611 28.4091C24.7771 28.634 24.9393 28.8068 25.1476 28.9276C25.356 29.0459 25.5998 29.1051 25.8792 29.1051C26.0662 29.1051 26.2355 29.0791 26.387 29.027C26.5385 28.9725 26.6699 28.8932 26.7812 28.7891C26.8924 28.6849 26.9765 28.5559 27.0333 28.402L28.2336 28.5369C28.1578 28.8542 28.0134 29.1312 27.8003 29.3679C27.5896 29.6023 27.3198 29.7846 26.9907 29.9148C26.6616 30.0426 26.2852 30.1065 25.8614 30.1065Z" fill="white"/>
</svg>
