<svg width="16" height="16" viewBox="0 0 16 16" fill="none" xmlns="http://www.w3.org/2000/svg">
<g clip-path="url(#clip0_2351_27347)">
<path d="M8 0.533368L8.34667 0.128035C8.25006 0.0454061 8.12712 0 8 0C7.87288 0 7.74994 0.0454061 7.65333 0.128035L8 0.533368ZM0.533333 6.93337L0.186667 6.52803L0 6.68803V6.93337H0.533333ZM5.86667 15.4667V16C6.00812 16 6.14377 15.9438 6.24379 15.8438C6.34381 15.7438 6.4 15.6081 6.4 15.4667H5.86667ZM10.1333 15.4667H9.6C9.6 15.6081 9.65619 15.7438 9.75621 15.8438C9.85623 15.9438 9.99189 16 10.1333 16V15.4667ZM15.4667 6.93337H16V6.68803L15.8133 6.52803L15.4667 6.93337ZM1.6 16H5.86667V14.9334H1.6V16ZM15.8133 6.52803L8.34667 0.128035L7.65333 0.938702L15.12 7.3387L15.8133 6.52803ZM7.65333 0.128035L0.186667 6.52803L0.88 7.3387L8.34667 0.938702L7.65333 0.128035ZM6.4 15.4667V12.2667H5.33333V15.4667H6.4ZM9.6 12.2667V15.4667H10.6667V12.2667H9.6ZM10.1333 16H14.4V14.9334H10.1333V16ZM16 14.4V6.93337H14.9333V14.4H16ZM0 6.93337V14.4H1.06667V6.93337H0ZM8 10.6667C8.42435 10.6667 8.83131 10.8353 9.13137 11.1353C9.43143 11.4354 9.6 11.8424 9.6 12.2667H10.6667C10.6667 11.5595 10.3857 10.8812 9.88562 10.3811C9.38552 9.88099 8.70724 9.60003 8 9.60003V10.6667ZM8 9.60003C7.29276 9.60003 6.61448 9.88099 6.11438 10.3811C5.61428 10.8812 5.33333 11.5595 5.33333 12.2667H6.4C6.4 11.8424 6.56857 11.4354 6.86863 11.1353C7.16869 10.8353 7.57565 10.6667 8 10.6667V9.60003ZM14.4 16C14.8243 16 15.2313 15.8315 15.5314 15.5314C15.8314 15.2313 16 14.8244 16 14.4H14.9333C14.9333 14.5415 14.8771 14.6771 14.7771 14.7772C14.6771 14.8772 14.5414 14.9334 14.4 14.9334V16ZM1.6 14.9334C1.45855 14.9334 1.3229 14.8772 1.22288 14.7772C1.12286 14.6771 1.06667 14.5415 1.06667 14.4H0C0 14.8244 0.168571 15.2313 0.468629 15.5314C0.768687 15.8315 1.17565 16 1.6 16V14.9334Z" fill="#333322"/>
<path d="M8 0.533368L8.34667 0.128035C8.25006 0.0454061 8.12712 0 8 0C7.87288 0 7.74994 0.0454061 7.65333 0.128035L8 0.533368ZM0.533333 6.93337L0.186667 6.52803L0 6.68803V6.93337H0.533333ZM5.86667 15.4667V16C6.00812 16 6.14377 15.9438 6.24379 15.8438C6.34381 15.7438 6.4 15.6081 6.4 15.4667H5.86667ZM10.1333 15.4667H9.6C9.6 15.6081 9.65619 15.7438 9.75621 15.8438C9.85623 15.9438 9.99189 16 10.1333 16V15.4667ZM15.4667 6.93337H16V6.68803L15.8133 6.52803L15.4667 6.93337ZM1.6 16H5.86667V14.9334H1.6V16ZM15.8133 6.52803L8.34667 0.128035L7.65333 0.938702L15.12 7.3387L15.8133 6.52803ZM7.65333 0.128035L0.186667 6.52803L0.88 7.3387L8.34667 0.938702L7.65333 0.128035ZM6.4 15.4667V12.2667H5.33333V15.4667H6.4ZM9.6 12.2667V15.4667H10.6667V12.2667H9.6ZM10.1333 16H14.4V14.9334H10.1333V16ZM16 14.4V6.93337H14.9333V14.4H16ZM0 6.93337V14.4H1.06667V6.93337H0ZM8 10.6667C8.42435 10.6667 8.83131 10.8353 9.13137 11.1353C9.43143 11.4354 9.6 11.8424 9.6 12.2667H10.6667C10.6667 11.5595 10.3857 10.8812 9.88562 10.3811C9.38552 9.88099 8.70724 9.60003 8 9.60003V10.6667ZM8 9.60003C7.29276 9.60003 6.61448 9.88099 6.11438 10.3811C5.61428 10.8812 5.33333 11.5595 5.33333 12.2667H6.4C6.4 11.8424 6.56857 11.4354 6.86863 11.1353C7.16869 10.8353 7.57565 10.6667 8 10.6667V9.60003ZM14.4 16C14.8243 16 15.2313 15.8315 15.5314 15.5314C15.8314 15.2313 16 14.8244 16 14.4H14.9333C14.9333 14.5415 14.8771 14.6771 14.7771 14.7772C14.6771 14.8772 14.5414 14.9334 14.4 14.9334V16ZM1.6 14.9334C1.45855 14.9334 1.3229 14.8772 1.22288 14.7772C1.12286 14.6771 1.06667 14.5415 1.06667 14.4H0C0 14.8244 0.168571 15.2313 0.468629 15.5314C0.768687 15.8315 1.17565 16 1.6 16V14.9334Z"  fill-opacity="0.2"/>
</g>
<defs>
<clipPath id="clip0_2351_27347">
<rect width="16" height="16" fill="white"/>
</clipPath>
</defs>
</svg>
