<svg width="108" height="68" viewBox="0 0 108 68" fill="none" xmlns="http://www.w3.org/2000/svg">
<rect width="108" height="68" rx="4" fill="transparent"/>
<path d="M71.1433 66.2076H30C28.8954 66.2076 28 65.3121 28 64.2075V8.49116C28 7.38659 28.8954 6.49116 30 6.49116H33.5561V3C33.5561 1.89543 34.4515 1 35.5561 1H77.3939C78.4985 1 79.3939 1.89543 79.3939 3V60.0892C79.3939 61.1938 78.4985 62.0892 77.3939 62.0892H73.1433V64.2076C73.1433 65.3121 72.2479 66.2076 71.1433 66.2076Z" fill="white"/>
<path d="M33.5561 6.49116H30C28.8954 6.49116 28 7.38659 28 8.49116V64.2075C28 65.3121 28.8954 66.2075 30 66.2075H71.1433C72.2479 66.2075 73.1433 65.3121 73.1433 64.2075V62.0892M33.5561 6.49116H71.1433C72.2479 6.49116 73.1433 7.38659 73.1433 8.49116V62.0892M33.5561 6.49116V3C33.5561 1.89543 34.4515 1 35.5561 1H77.3939C78.4985 1 79.3939 1.89543 79.3939 3V60.0892C79.3939 61.1938 78.4985 62.0892 77.3939 62.0892H73.1433M68.9762 62.0892H31.8788" stroke="#113870" stroke-width="2"/>
<path d="M32.5994 52.1458V57.0097C32.5994 57.562 33.0471 58.0097 33.5994 58.0097H37.1555C37.7078 58.0097 38.1555 57.562 38.1555 57.0097V52.1458C38.1555 51.5935 37.7078 51.1458 37.1555 51.1458H33.5994C33.0471 51.1458 32.5994 51.5935 32.5994 52.1458Z" fill="#113870"/>
<path d="M47.4288 47.7139H43.1782C42.6259 47.7139 42.1782 48.1616 42.1782 48.7139V57.0098C42.1782 57.5621 42.6259 58.0098 43.1782 58.0098H47.4288C47.9811 58.0098 48.4288 57.5621 48.4288 57.0098V48.7139C48.4288 48.1616 47.9811 47.7139 47.4288 47.7139Z" fill="#113870"/>
<path d="M52.4524 57.0098V44.5955C52.4524 44.0432 52.9001 43.5955 53.4524 43.5955H57.703C58.2553 43.5955 58.703 44.0432 58.703 44.5955V57.0098C58.703 57.562 58.2553 58.0098 57.703 58.0098H53.4524C52.9001 58.0098 52.4524 57.562 52.4524 57.0098Z" fill="#113870"/>
<path d="M62.7256 57.0098V38.418C62.7256 37.8657 63.1733 37.418 63.7256 37.418H67.9762C68.5285 37.418 68.9762 37.8657 68.9762 38.418V57.0098C68.9762 57.5621 68.5285 58.0098 67.9762 58.0098H63.7256C63.1733 58.0098 62.7256 57.5621 62.7256 57.0098Z" fill="#113870"/>
<path d="M32 19H62" stroke="#29A7E4" stroke-width="2.2" stroke-linecap="round"/>
<path d="M32 31H62" stroke="#29A7E4" stroke-width="2.2" stroke-linecap="round"/>
<path d="M31.6226 62.585H69.0565" stroke="#29A7E4" stroke-width="2.8" stroke-linecap="round"/>
<path d="M32 14H62" stroke="#29A7E4" stroke-width="2.2" stroke-linecap="round"/>
<path d="M32 26H62" stroke="#29A7E4" stroke-width="2.2" stroke-linecap="round"/>
<path d="M70.884 25.083C70.9519 25.1044 71.0178 25.1224 71.0787 25.1349M70.884 25.083L59.8735 25.4022L59.8733 25.4037C59.946 24.8852 60.1858 24.4045 60.5562 24.0344M70.884 25.083L70.5954 26.4046L70.5844 26.4549L70.5683 26.5039C70.4177 26.9611 70.1235 27.417 69.7219 27.7409C69.315 28.0691 68.6847 28.3379 67.9745 28.1138L67.9741 28.1137C67.9129 28.0944 67.8533 28.0705 67.7969 28.0446C67.7099 28.254 67.6149 28.4771 67.5157 28.7016C67.3116 29.1633 67.0783 29.656 66.8517 30.0485C66.7404 30.2414 66.6121 30.4431 66.472 30.6116C66.4021 30.6957 66.309 30.7963 66.1932 30.8865C66.0879 30.9685 65.8886 31.1014 65.6112 31.1408L65.612 31.1407L65.4704 30.1508L65.6104 31.1409L62.1058 31.6422L62.1052 31.6423C61.7339 31.6952 61.3555 31.6609 60.9997 31.5422C60.644 31.4236 60.3208 31.2238 60.0556 30.9586L60.7627 30.2515L60.0556 30.9586C59.7904 30.6934 59.5906 30.3702 59.472 30.0145C59.3533 29.6587 59.319 29.2803 59.3719 28.909L59.372 28.9084L59.873 25.4057L70.884 25.083ZM71.0787 25.1349C71.0783 25.1349 71.078 25.1348 71.0777 25.1347L71.2802 24.1554L71.0787 25.1349ZM71.0787 25.1349C71.9754 25.3198 72.6735 24.7641 72.9893 24.4471M72.9893 24.4471C73.2555 24.1812 73.4555 23.8564 73.5731 23.4989L73.5979 23.4237L73.6104 23.3455L73.814 22.082M72.9893 24.4471C72.9898 24.4466 72.9903 24.446 72.9908 24.4455L72.2818 23.7404M72.9893 24.4471C72.9888 24.4476 72.9883 24.4481 72.9878 24.4486L72.2818 23.7404M73.814 22.082C73.9439 22.1095 74.068 22.1323 74.1674 22.1439L74.1702 22.1442C74.9536 22.2336 75.6011 21.8353 75.9927 21.4422L75.9919 21.443L75.2851 20.7356M73.814 22.082L73.9733 21.0935C74.0974 21.1207 74.2074 21.1418 74.2835 21.1507C74.6561 21.1932 75.0188 21.0034 75.2851 20.7356M73.814 22.082C73.6269 22.0425 73.4277 21.9933 73.2732 21.9541C73.1275 21.9171 72.9931 21.8816 72.8953 21.8553C72.8753 21.85 72.8568 21.845 72.84 21.8404L72.6232 23.1864C72.5545 23.3953 72.4375 23.5851 72.2818 23.7404M75.2851 20.7356L75.9941 21.4408L77.1887 20.2472M75.2851 20.7356L76.8973 19.1249M77.1887 20.2472C78.5518 20.5844 79.979 20.5909 81.3503 20.2621C82.9243 19.8847 84.3636 19.0803 85.5098 17.9375L85.5117 17.9355C87.1574 16.2856 88.0816 14.0503 88.0816 11.7199C88.0816 9.38956 87.1574 7.15429 85.5117 5.50433L85.5099 5.5025C83.8599 3.8568 81.6246 2.93262 79.2943 2.93262C76.9639 2.93262 74.7286 3.8568 73.0787 5.5025L73.0769 5.50427C71.9337 6.65026 71.129 8.08963 70.7516 9.66375C70.4229 11.0351 70.4295 12.4622 70.7668 13.8252M77.1887 20.2472L77.6041 19.8323L76.8973 19.1249M77.1887 20.2472C76.9873 20.1974 76.7872 20.1404 76.589 20.0762L76.8973 19.1249M70.7668 13.8252L60.5562 24.0344M70.7668 13.8252L71.1823 13.4098L71.8893 14.1169L70.9381 14.4254C70.8738 14.227 70.8167 14.0268 70.7668 13.8252ZM60.5562 24.0344L61.2629 24.7419L60.5559 24.0348L60.5562 24.0344ZM76.8973 19.1249L72.2818 23.7404M76.8973 19.1249C78.2619 19.5671 79.7222 19.6241 81.1172 19.2897C82.5122 18.9552 83.7879 18.2423 84.8037 17.2294M76.8973 19.1249L84.8037 17.2294M84.8037 17.2294C86.2624 15.7669 87.0816 13.7856 87.0816 11.7199C87.0816 9.65432 86.2624 7.67302 84.8037 6.21052V17.2294ZM81.5068 9.50723C82.0922 10.0948 82.4209 10.8905 82.4209 11.7199C82.4209 12.206 82.308 12.6805 82.0968 13.1082L77.906 8.91743C78.3337 8.70618 78.8082 8.59331 79.2943 8.59331C80.1237 8.59331 80.9192 8.92195 81.5068 9.50723Z" fill="#29A7E4" stroke="white" stroke-width="2"/>
</svg>
