<svg width="26" height="26" viewBox="0 0 13 13" fill="none" xmlns="http://www.w3.org/2000/svg">
<path d="M10.9454 1.53969C9.47271 0.373749 7.29622 0.905936 6.20036 1.86469C4.97349 2.93719 4.93896 4.63226 5.57779 6.01656L1.15169 10.3604C0.971927 10.5371 0.787083 11.8016 0.796224 12.0504L1.39544 12.4688C1.39544 12.4688 2.41005 12.7725 2.85185 12.4272C3.29365 12.0819 3.68161 11.4562 3.63591 11.1749C3.60951 11.0134 3.64404 10.8631 3.74865 10.7605C3.87865 10.6326 4.08583 10.6112 4.29607 10.6813C4.45755 10.7352 4.63732 10.6895 4.75818 10.5706L4.80083 10.529C4.97247 10.3685 4.99177 10.1816 4.95826 10.0252C4.90646 9.7825 4.99482 9.5814 5.13091 9.40367C5.24872 9.2493 5.47216 9.1843 5.66716 9.18125C6.01857 9.17617 6.24607 9.10101 6.4949 8.85726L7.14287 8.22351C8.6013 8.87351 10.3898 8.58 11.5507 7.34195C13.0396 5.75351 12.6587 2.89656 10.9454 1.53969ZM10.0679 4.9268C9.66161 5.32492 9.00349 5.32492 8.59724 4.9268C8.19099 4.52867 8.19099 3.88172 8.59724 3.48359C9.00349 3.08547 9.66161 3.08547 10.0679 3.48359C10.4741 3.88172 10.4741 4.52867 10.0679 4.9268Z" fill="#064A25"/>
<path d="M10.9454 1.53969C9.43418 0.0284374 6.98449 0.0284374 5.47324 1.53969C4.31644 2.69648 4.04629 4.40172 4.65972 5.81648L0.795272 9.65656C0.705373 9.74627 0.634904 9.85351 0.588251 9.97163C0.541598 10.0897 0.519761 10.2162 0.5241 10.3431L0.568787 11.5365C0.789178 11.6604 0.796287 12.0514 0.796287 12.0514L1.80176 12.1286C2.05871 12.1367 2.30754 12.0382 2.48832 11.8574L2.80722 11.5385C3.00629 11.3395 3.11902 11.0581 3.06926 10.7819C3.03777 10.6102 3.0723 10.4498 3.18097 10.3411C3.30894 10.2131 3.50902 10.1888 3.71519 10.2527C3.88683 10.3066 4.07371 10.272 4.20168 10.1451L4.24535 10.1014C4.41902 9.93586 4.43832 9.74391 4.4048 9.58344C4.35301 9.33359 4.44238 9.12742 4.57847 8.94461C4.6973 8.78516 4.92379 8.71914 5.1198 8.71609C5.47426 8.71102 5.7048 8.63383 5.95566 8.38297L6.56301 7.77867C7.99808 8.45406 9.76121 8.19914 10.9475 7.01289C12.4567 5.50063 12.4567 3.05094 10.9454 1.53969ZM9.56418 4.40578C9.15386 4.81609 8.48863 4.81609 8.07933 4.40578C7.66902 3.99547 7.66902 3.33023 8.07933 2.92094C8.48965 2.51063 9.15488 2.51063 9.56418 2.92094C9.97449 3.33023 9.97449 3.99547 9.56418 4.40578Z" fill="#e22828"/>
<path d="M0.568726 11.5365C0.568726 11.5365 0.694663 11.6218 0.796226 12.0514L5.61841 7.14898C5.77584 6.97632 5.06998 7.0657 4.85873 7.27593L0.568726 11.5365Z" fill="#07572C"/>
<path d="M6.13739 2.02313C5.7413 2.23844 5.29442 2.81531 5.17153 3.64813C5.05981 4.40375 5.10755 4.92883 5.36145 5.37063C5.64887 5.8693 6.03989 5.60524 5.88247 5.11977C5.77887 4.79985 5.75247 4.67899 5.73825 4.33977C5.72708 4.07469 5.7545 3.80758 5.82966 3.55367C6.01653 2.92399 6.4502 2.51063 6.57716 2.30649C6.73864 2.04547 6.48372 1.83321 6.13739 2.02313ZM3.35661 8.09657C3.06817 8.34235 3.36677 7.57758 3.58817 7.31961C3.87966 6.97836 4.57028 6.25422 4.69216 6.19227C4.85872 6.10797 4.84856 6.57313 4.78052 6.65844C4.5388 6.95703 3.64606 7.85078 3.35661 8.09657Z" fill="#fff"/>
</svg>
