<svg width="108" height="68" viewBox="0 0 108 68" fill="none" xmlns="http://www.w3.org/2000/svg">

<path d="M71.1433 66.2076H30C28.8954 66.2076 28 65.3121 28 64.2075V8.49116C28 7.38659 28.8954 6.49116 30 6.49116H33.5561V3C33.5561 1.89543 34.4515 1 35.5561 1H77.3939C78.4985 1 79.3939 1.89543 79.3939 3V60.0892C79.3939 61.1938 78.4985 62.0892 77.3939 62.0892H73.1433V64.2076C73.1433 65.3121 72.2479 66.2076 71.1433 66.2076Z" fill="#ebf2fc"/>
<path d="M33.5561 6.49116H30C28.8954 6.49116 28 7.38659 28 8.49116V64.2075C28 65.3121 28.8954 66.2075 30 66.2075H71.1433C72.2479 66.2075 73.1433 65.3121 73.1433 64.2075V62.0892M33.5561 6.49116H71.1433C72.2479 6.49116 73.1433 7.38659 73.1433 8.49116V62.0892M33.5561 6.49116V3C33.5561 1.89543 34.4515 1 35.5561 1H77.3939C78.4985 1 79.3939 1.89543 79.3939 3V60.0892C79.3939 61.1938 78.4985 62.0892 77.3939 62.0892H73.1433M68.9762 62.0892H31.8788" stroke="#ebf2fc" stroke-width="2"/>
<path d="M32.5994 52.1458V57.0097C32.5994 57.562 33.0471 58.0097 33.5994 58.0097H37.1555C37.7078 58.0097 38.1555 57.562 38.1555 57.0097V52.1458C38.1555 51.5935 37.7078 51.1458 37.1555 51.1458H33.5994C33.0471 51.1458 32.5994 51.5935 32.5994 52.1458Z" fill="#113870"/>
<path d="M47.4288 47.7139H43.1782C42.6259 47.7139 42.1782 48.1616 42.1782 48.7139V57.0098C42.1782 57.5621 42.6259 58.0098 43.1782 58.0098H47.4288C47.9811 58.0098 48.4288 57.5621 48.4288 57.0098V48.7139C48.4288 48.1616 47.9811 47.7139 47.4288 47.7139Z" fill="#ebf2fc"/>
<path d="M52.4524 57.0098V44.5955C52.4524 44.0432 52.9001 43.5955 53.4524 43.5955H57.703C58.2553 43.5955 58.703 44.0432 58.703 44.5955V57.0098C58.703 57.562 58.2553 58.0098 57.703 58.0098H53.4524C52.9001 58.0098 52.4524 57.562 52.4524 57.0098Z" fill="#ebf2fc"/>
<path d="M62.7256 57.0098V38.418C62.7256 37.8657 63.1733 37.418 63.7256 37.418H67.9762C68.5285 37.418 68.9762 37.8657 68.9762 38.418V57.0098C68.9762 57.5621 68.5285 58.0098 67.9762 58.0098H63.7256C63.1733 58.0098 62.7256 57.5621 62.7256 57.0098Z" fill="#ebf2fc"/>
<path d="M31.6227 62.585H69.0566" stroke="#29A7E4" stroke-width="2.8" stroke-linecap="round"/>
<path d="M52 11.7563C45.6725 11.7563 40.5234 16.9055 40.5234 23.2329C40.5234 25.6635 41.2839 27.9197 42.5783 29.7774L44.0911 28.7689C43.1972 27.4932 42.6274 26.0191 42.4307 24.474H43.875V23.5599H42.3574C42.3538 23.4512 42.3516 23.3423 42.3516 23.2329C42.3516 20.9285 43.1547 18.8164 44.4964 17.1595L45.38 18.0431L46.0262 17.3968L45.1054 16.4761C46.7561 14.7919 49.0209 13.7124 51.543 13.5955V15.0794H52.457V13.5956C54.9791 13.7125 57.2439 14.7921 58.8946 16.4762L57.9738 17.397L58.62 18.0433L59.5036 17.1597C60.8452 18.8167 61.6484 20.9287 61.6484 23.2331C61.6484 23.3425 61.6462 23.4515 61.6426 23.56H60.125V24.4741H61.5692C61.3726 26.0192 60.8028 27.4932 59.909 28.7689L61.4218 29.7774C62.7161 27.9197 63.4766 25.6636 63.4766 23.233C63.4766 16.9056 58.3275 11.7564 52 11.7564V11.7563ZM52.8039 15.1196C53.7201 15.625 54.5307 16.3384 55.1834 17.2136C55.836 18.0889 56.316 19.1066 56.5926 20.2009L59.1299 19.3087C59.0602 19.1882 58.9874 19.0695 58.9115 18.9527L58.6508 19.2143L57.1086 17.6762L56.8161 17.3844L57.2148 16.9845C55.9652 15.9338 54.4281 15.2839 52.8038 15.1195L52.8039 15.1196ZM60.7334 19.682L51.8298 22.7593C51.2131 22.8438 50.7305 23.3789 50.7305 24.017C50.7305 24.7127 51.3043 25.2865 52 25.2865C52.3438 25.2865 52.6576 25.1461 52.8873 24.9205L60.7334 19.682ZM59.8948 21.3233L56.8117 23.3911C56.6902 24.4757 56.3731 25.5219 55.8792 26.467C55.3853 27.4122 54.7249 28.2369 53.9375 28.8919H57.7998C58.7543 27.9189 59.4486 26.7215 59.819 25.4097H59.2353V22.743H60.0997C60.0734 22.2646 60.0048 21.7896 59.8948 21.3233ZM45.5 30.4154V32.2435H58.5V30.4154H45.5Z" fill="#29A7E4"/>
<path d="M81.569 15.7239L81.569 15.7239L81.5725 15.7204C81.8874 15.403 82.2632 15.15 82.6783 14.9765C83.0934 14.803 83.5394 14.7125 83.9904 14.7102C84.4414 14.708 84.8883 14.7942 85.3052 14.9636C85.722 15.1331 86.1003 15.3823 86.4184 15.6967L86.7625 15.3485L86.4184 15.6967C86.7365 16.011 86.9881 16.3842 87.1589 16.7946C87.3298 17.205 87.4165 17.6445 87.4143 18.0879C87.4121 18.5312 87.3211 18.9699 87.1462 19.3786C86.9713 19.7874 86.7161 20.1582 86.3949 20.4695L86.3949 20.4694L86.3912 20.473L85.1275 21.7231L84.7796 22.0673L85.1163 22.4225L85.6452 22.9804L85.6453 22.9806C85.9827 23.3362 86.166 23.8065 86.1581 24.2916C86.1502 24.7768 85.9518 25.241 85.6029 25.5859C85.6029 25.5859 85.6028 25.5859 85.6028 25.5859L83.6536 27.5124C83.6152 27.5503 83.5619 27.5727 83.505 27.5727C83.4482 27.5727 83.3949 27.5503 83.3565 27.5124C83.3182 27.4746 83.2979 27.4246 83.2979 27.3738C83.2979 27.323 83.3182 27.273 83.3565 27.2352L85.3055 25.309C85.3056 25.3089 85.3056 25.3088 85.3057 25.3088C85.58 25.0379 85.738 24.671 85.7444 24.2853C85.7508 23.8996 85.605 23.5275 85.3396 23.2478L85.3395 23.2476L84.8412 22.7227L84.4899 22.3527L84.127 22.7113L72.7206 33.9861C72.3532 34.3491 71.8932 34.6083 71.3884 34.7358L71.3884 34.7358L66.0226 36.0915L66.0224 36.0915C65.9866 36.1006 65.9491 36.1003 65.9135 36.0906C65.878 36.081 65.8462 36.0626 65.8211 36.0378C65.7961 36.013 65.7785 35.9828 65.7695 35.9504C65.7605 35.9179 65.7603 35.8839 65.7687 35.8513L65.7687 35.8513L67.1415 30.5488C67.1415 30.5488 67.1416 30.5487 67.1416 30.5487C67.27 30.0531 67.5311 29.6 67.8982 29.2372L67.8982 29.2371L81.569 15.7239Z" fill="#29A7E4" stroke="white"/>
</svg>
