<svg width="35" height="33" viewBox="0 0 35 33" fill="none" xmlns="http://www.w3.org/2000/svg">
<path d="M29.669 25.7651L29.1707 31.2653L26.2976 28.5117L28.1881 31.2653H31.4477L33.5241 26.7254L30.6146 31.2653L29.669 25.7651ZM5.59822 25.7721L6.09655 31.273L8.97794 28.5257L7.07916 31.273H3.81955L1.74316 26.7324L4.66033 31.273L5.59822 25.7721Z" stroke="#323232" stroke-width="2.33" stroke-linejoin="round"/>
<path d="M29.9054 31.2647H5.3593C5.26153 31.2647 5.1647 31.2455 5.07436 31.2082C4.98402 31.1708 4.90194 31.116 4.83281 31.0468C4.76367 30.9777 4.70885 30.8956 4.67148 30.8053C4.6341 30.7149 4.61491 30.6181 4.61499 30.5203V13.0212C4.69037 9.6187 6.09495 6.38097 8.52797 4.00126C10.961 1.62155 14.229 0.289032 17.6324 0.289032C21.0357 0.289032 24.3037 1.62155 26.7367 4.00126C29.1698 6.38097 30.5743 9.6187 30.6497 13.0212V30.5203C30.6497 30.7178 30.5713 30.9071 30.4317 31.0467C30.2921 31.1862 30.1028 31.2647 29.9054 31.2647Z" fill="#fff"/>
<path d="M17.6322 0.00383306C16.7881 0.00516128 15.9461 0.0886101 15.1182 0.253C18.076 0.838291 20.7393 2.43099 22.6545 4.75974C24.5697 7.0885 25.6183 10.0092 25.6215 13.0244V31.2647H29.9059C30.0037 31.2647 30.1005 31.2454 30.1909 31.208C30.2812 31.1705 30.3633 31.1156 30.4324 31.0464C30.5015 30.9773 30.5564 30.8951 30.5937 30.8048C30.6311 30.7144 30.6503 30.6175 30.6502 30.5197V13.0206C30.6468 9.56833 29.2739 6.25846 26.8328 3.81737C24.3917 1.37627 21.0819 0.00338288 17.6296 0L17.6322 0.00383306Z" fill="#F0F0F0"/>
<path d="M5.35913 23.3616V13.018C5.35913 9.76297 6.65218 6.64127 8.95383 4.33963C11.2555 2.03798 14.3772 0.744934 17.6322 0.744934C19.2439 0.744934 20.8398 1.06239 22.3289 1.67917C23.8179 2.29594 25.1709 3.19997 26.3105 4.33963C27.4502 5.47929 28.3542 6.83226 28.971 8.32129C29.5878 9.81033 29.9052 11.4063 29.9052 13.018V23.3616M11.2369 12.3983H24.0275M11.2369 15.7333H24.0275M14.278 21.3683H17.6322H20.9864" stroke="#323232" stroke-linecap="round" stroke-linejoin="round"/>
<path d="M30.6081 32.0058H28.1886C28.068 32.0058 27.9492 31.9766 27.8424 31.9206C27.7356 31.8646 27.6439 31.7836 27.5753 31.6844L25.6778 28.9372C25.5723 28.7856 25.5268 28.6002 25.5504 28.417C25.5739 28.2338 25.6647 28.0659 25.8052 27.9459C25.9456 27.826 26.1257 27.7625 26.3103 27.7679C26.4949 27.7733 26.6709 27.8471 26.8042 27.975L28.5669 29.6585L28.9272 25.6974C28.9437 25.5174 29.025 25.3496 29.1561 25.2253C29.2872 25.1009 29.459 25.0284 29.6396 25.0214C29.8208 25.0113 29.9993 25.069 30.1402 25.1833C30.2811 25.2977 30.3744 25.4605 30.4018 25.6399L31.0183 29.2439L32.8941 26.3216C32.9957 26.1629 33.1537 26.0486 33.3362 26.0019C33.5188 25.9551 33.7122 25.9794 33.8776 26.0697C34.043 26.16 34.168 26.3097 34.2273 26.4885C34.2867 26.6673 34.276 26.862 34.1974 27.0333L32.1184 31.5713C32.0591 31.701 31.9637 31.8109 31.8436 31.8879C31.7235 31.965 31.5839 32.0059 31.4412 32.0058H30.6081ZM4.65645 32.0122H3.8227C3.68016 32.0121 3.54063 31.9712 3.42069 31.8942C3.30076 31.8172 3.20545 31.7073 3.14611 31.5777L1.06781 27.0397C0.989228 26.8684 0.978532 26.6737 1.03788 26.4949C1.09723 26.316 1.2222 26.1664 1.38758 26.0761C1.55296 25.9857 1.74644 25.9615 1.92898 26.0083C2.11152 26.055 2.26954 26.1693 2.37114 26.328L4.24692 29.2515L4.86345 25.6456C4.89414 25.4678 4.98837 25.3072 5.12863 25.1937C5.26889 25.0802 5.44561 25.0214 5.62591 25.0285C5.80622 25.0355 5.97783 25.1078 6.10882 25.2319C6.23981 25.356 6.32126 25.5235 6.338 25.7031L6.69834 29.6642L8.46039 27.9821C8.59372 27.8552 8.76929 27.7823 8.95323 27.7774C9.13716 27.7724 9.31642 27.8357 9.4564 27.9551C9.59638 28.0746 9.68717 28.2416 9.71124 28.424C9.73532 28.6064 9.69097 28.7913 9.58675 28.9429L7.68925 31.6902C7.62063 31.7893 7.52898 31.8704 7.42215 31.9264C7.31533 31.9823 7.19652 32.0116 7.07592 32.0115H6.10225C6.09889 32.0108 6.0954 32.0108 6.09203 32.0115L4.65645 32.0122Z" fill="#5C9E31"/>
</svg>
