<svg width="20" height="20" viewBox="0 0 20 20" fill="none" xmlns="http://www.w3.org/2000/svg">
<path d="M18.0564 10.0004H16.0564C15.7912 10.0004 15.5369 10.1057 15.3493 10.2933C15.1618 10.4808 15.0564 10.7352 15.0564 11.0004C15.0564 11.2656 15.1618 11.5199 15.3493 11.7075C15.5369 11.895 15.7912 12.0004 16.0564 12.0004V14.0004H14.8704C14.9892 13.6802 15.0518 13.3419 15.0554 13.0004C15.0554 12.34 14.8375 11.6981 14.4355 11.1742C14.0334 10.6503 13.4698 10.2736 12.8319 10.1027C12.194 9.93181 11.5176 9.97613 10.9075 10.2288C10.2974 10.4815 9.78766 10.9285 9.45745 11.5004C9.39075 11.6141 9.34721 11.74 9.32935 11.8706C9.31148 12.0013 9.31964 12.1342 9.35335 12.2617C9.38706 12.3892 9.44565 12.5088 9.52576 12.6136C9.60587 12.7183 9.70591 12.8062 9.82012 12.8721C9.93433 12.9381 10.0605 12.9808 10.1912 12.9978C10.322 13.0148 10.4549 13.0057 10.5821 12.9712C10.7094 12.9366 10.8286 12.8772 10.9328 12.7964C11.037 12.7156 11.1243 12.615 11.1894 12.5004C11.2772 12.3484 11.4034 12.2221 11.5555 12.1344C11.7075 12.0466 11.8799 12.0004 12.0554 12.0004C12.3207 12.0004 12.575 12.1057 12.7626 12.2933C12.9501 12.4808 13.0554 12.7352 13.0554 13.0004C13.0554 13.2656 12.9501 13.5199 12.7626 13.7075C12.575 13.895 12.3207 14.0004 12.0554 14.0004C11.7902 14.0004 11.5359 14.1057 11.3483 14.2933C11.1608 14.4808 11.0554 14.7352 11.0554 15.0004C11.0554 15.2656 11.1608 15.5199 11.3483 15.7075C11.5359 15.895 11.7902 16.0004 12.0554 16.0004C12.3207 16.0004 12.575 16.1057 12.7626 16.2933C12.9501 16.4808 13.0554 16.7352 13.0554 17.0004C13.0554 17.2656 12.9501 17.5199 12.7626 17.7075C12.575 17.895 12.3207 18.0004 12.0554 18.0004C11.8799 18.0004 11.7075 17.9542 11.5555 17.8664C11.4034 17.7786 11.2772 17.6524 11.1894 17.5004C11.1243 17.3857 11.037 17.2851 10.9328 17.2043C10.8286 17.1235 10.7094 17.0641 10.5821 17.0296C10.4549 16.995 10.322 16.986 10.1912 17.003C10.0605 17.02 9.93433 17.0627 9.82012 17.1286C9.70591 17.1945 9.60587 17.2824 9.52576 17.3872C9.44565 17.492 9.38706 17.6115 9.35335 17.739C9.31964 17.8665 9.31148 17.9994 9.32935 18.1301C9.34721 18.2608 9.39075 18.3866 9.45745 18.5004C9.78766 19.0723 10.2974 19.5192 10.9075 19.7719C11.5176 20.0246 12.194 20.0689 12.8319 19.898C13.4698 19.7271 14.0334 19.3505 14.4355 18.8266C14.8375 18.3027 15.0554 17.6607 15.0554 17.0004C15.0518 16.6589 14.9892 16.3206 14.8704 16.0004H16.0554V19.0004C16.0554 19.2656 16.1608 19.5199 16.3483 19.7075C16.5359 19.895 16.7902 20.0004 17.0554 20.0004C17.3207 20.0004 17.575 19.895 17.7626 19.7075C17.9501 19.5199 18.0554 19.2656 18.0554 19.0004V12.0004C18.3207 12.0004 18.575 11.895 18.7626 11.7075C18.9501 11.5199 19.0554 11.2656 19.0554 11.0004C19.0554 10.7352 18.9501 10.4808 18.7626 10.2933C18.575 10.1057 18.3217 10.0004 18.0564 10.0004ZM6.08545 9.24337C6.11659 9.37156 6.17279 9.49233 6.25081 9.59871C6.32883 9.70509 6.42713 9.79498 6.54004 9.8632C6.65296 9.93142 6.77825 9.97663 6.90871 9.99621C7.03917 10.0158 7.17222 10.0094 7.30019 9.97732C7.42816 9.94527 7.54852 9.8882 7.65434 9.80943C7.76015 9.73065 7.84934 9.63171 7.91675 9.51831C7.98417 9.40491 8.02848 9.2793 8.04713 9.1487C8.06579 9.0181 8.05842 8.88511 8.02545 8.75737L6.26845 1.72737C6.14554 1.23356 5.86096 0.795051 5.46002 0.48167C5.05908 0.168289 4.56483 -0.00195313 4.05595 -0.00195312C3.54706 -0.00195312 3.05281 0.168289 2.65187 0.48167C2.25093 0.795051 1.96635 1.23356 1.84345 1.72737L0.0854464 8.75737C0.0524753 8.88511 0.0451046 9.0181 0.0637589 9.1487C0.0824133 9.2793 0.126724 9.40491 0.194138 9.51831C0.261553 9.63171 0.350738 9.73065 0.456557 9.80943C0.562376 9.8882 0.682736 9.94527 0.810705 9.97732C0.938673 10.0094 1.07172 10.0158 1.20218 9.99621C1.33264 9.97663 1.45794 9.93142 1.57085 9.8632C1.68376 9.79498 1.78206 9.70509 1.86008 9.59871C1.9381 9.49233 1.9943 9.37156 2.02545 9.24337L2.58545 7.00037H5.52545L6.08545 9.24337ZM3.08645 5.00037L3.78345 2.21337C3.80447 2.15798 3.84184 2.1103 3.8906 2.07665C3.93936 2.043 3.9972 2.02498 4.05645 2.02498C4.11569 2.02498 4.17353 2.043 4.22229 2.07665C4.27105 2.1103 4.30842 2.15798 4.32945 2.21337L5.02645 5.00037H3.08645ZM11.0564 5.00037H12.0564C12.3216 5.00064 12.5758 5.10608 12.7633 5.29356C12.9507 5.48104 13.0562 5.73524 13.0564 6.00037V7.00037C13.0564 7.26559 13.1618 7.51994 13.3493 7.70748C13.5369 7.89501 13.7912 8.00037 14.0564 8.00037C14.3217 8.00037 14.576 7.89501 14.7636 7.70748C14.9511 7.51994 15.0564 7.26559 15.0564 7.00037V6.00037C15.0557 5.20497 14.7393 4.44236 14.1769 3.87993C13.6145 3.31749 12.8519 3.00117 12.0564 3.00037H11.0564C10.7912 3.00037 10.5369 3.10573 10.3493 3.29326C10.1618 3.4808 10.0564 3.73515 10.0564 4.00037C10.0564 4.26559 10.1618 4.51994 10.3493 4.70748C10.5369 4.89501 10.7912 5.00037 11.0564 5.00037ZM7.05645 14.0004H6.05645C5.79131 14.0001 5.53711 13.8947 5.34963 13.7072C5.16215 13.5197 5.05671 13.2655 5.05645 13.0004V12.0004C5.05645 11.7352 4.95109 11.4808 4.76355 11.2933C4.57602 11.1057 4.32166 11.0004 4.05645 11.0004C3.79123 11.0004 3.53688 11.1057 3.34934 11.2933C3.1618 11.4808 3.05645 11.7352 3.05645 12.0004V13.0004C3.05724 13.7958 3.37357 14.5584 3.936 15.1208C4.49844 15.6833 5.26104 15.9996 6.05645 16.0004H7.05645C7.32166 16.0004 7.57602 15.895 7.76355 15.7075C7.95109 15.5199 8.05645 15.2656 8.05645 15.0004C8.05645 14.7352 7.95109 14.4808 7.76355 14.2933C7.57602 14.1057 7.32166 14.0004 7.05645 14.0004Z" />
</svg>
