<svg width="30" height="30" viewBox="0 0 30 30" fill="none" xmlns="http://www.w3.org/2000/svg">
<path d="M15 19.5C16.1935 19.5 17.3381 19.0259 18.182 18.182C19.0259 17.3381 19.5 16.1935 19.5 15C19.5 13.8065 19.0259 12.6619 18.182 11.818C17.3381 10.9741 16.1935 10.5 15 10.5C13.8065 10.5 12.6619 10.9741 11.818 11.818C10.9741 12.6619 10.5 13.8065 10.5 15C10.5 16.1935 10.9741 17.3381 11.818 18.182C12.6619 19.0259 13.8065 19.5 15 19.5ZM16.125 4.125C16.125 3.82663 16.0065 3.54048 15.7955 3.3295C15.5845 3.11853 15.2984 3 15 3C14.7016 3 14.4155 3.11853 14.2045 3.3295C13.9935 3.54048 13.875 3.82663 13.875 4.125V6.069C11.8921 6.31929 10.0487 7.2222 8.63547 8.63547C7.2222 10.0487 6.31929 11.8921 6.069 13.875H4.125C3.82663 13.875 3.54048 13.9935 3.3295 14.2045C3.11853 14.4155 3 14.7016 3 15C3 15.2984 3.11853 15.5845 3.3295 15.7955C3.54048 16.0065 3.82663 16.125 4.125 16.125H6.069C6.31929 18.1079 7.2222 19.9512 8.63547 21.3645C10.0487 22.7778 11.8921 23.6807 13.875 23.931V25.875C13.875 26.1734 13.9935 26.4595 14.2045 26.6705C14.4155 26.8815 14.7016 27 15 27C15.2984 27 15.5845 26.8815 15.7955 26.6705C16.0065 26.4595 16.125 26.1734 16.125 25.875V23.931C18.1079 23.6807 19.9512 22.7778 21.3645 21.3645C22.7778 19.9512 23.6807 18.1079 23.931 16.125H25.875C26.1734 16.125 26.4595 16.0065 26.6705 15.7955C26.8815 15.5845 27 15.2984 27 15C27 14.7016 26.8815 14.4155 26.6705 14.2045C26.4595 13.9935 26.1734 13.875 25.875 13.875H23.931C23.6807 11.8921 22.7778 10.0487 21.3645 8.63547C19.9512 7.2222 18.1079 6.31929 16.125 6.069V4.125ZM15 21.75C14.1136 21.75 13.2358 21.5754 12.4169 21.2362C11.5979 20.897 10.8538 20.3998 10.227 19.773C9.60023 19.1462 9.10303 18.4021 8.76381 17.5831C8.42459 16.7642 8.25 15.8864 8.25 15C8.25 14.1136 8.42459 13.2358 8.76381 12.4169C9.10303 11.5979 9.60023 10.8538 10.227 10.227C10.8538 9.60023 11.5979 9.10303 12.4169 8.76381C13.2358 8.42459 14.1136 8.25 15 8.25C16.7902 8.25 18.5071 8.96116 19.773 10.227C21.0388 11.4929 21.75 13.2098 21.75 15C21.75 16.7902 21.0388 18.5071 19.773 19.773C18.5071 21.0388 16.7902 21.75 15 21.75Z" fill="#323232"/>
</svg>
