<svg width="20" height="20" viewBox="0 0 20 20" fill="none" xmlns="http://www.w3.org/2000/svg">
<path d="M10 10.834C11.3807 10.834 12.5 9.7147 12.5 8.33398C12.5 6.95327 11.3807 5.83398 10 5.83398C8.61929 5.83398 7.5 6.95327 7.5 8.33398C7.5 9.7147 8.61929 10.834 10 10.834Z" stroke="#333322" stroke-width="2" stroke-linecap="round" stroke-linejoin="round"/>
<path d="M10 10.834C11.3807 10.834 12.5 9.7147 12.5 8.33398C12.5 6.95327 11.3807 5.83398 10 5.83398C8.61929 5.83398 7.5 6.95327 7.5 8.33398C7.5 9.7147 8.61929 10.834 10 10.834Z" stroke="black" stroke-opacity="0.2" stroke-width="2" stroke-linecap="round" stroke-linejoin="round"/>
<path d="M9.99999 1.66699C8.23188 1.66699 6.53619 2.36937 5.28595 3.61961C4.03571 4.86986 3.33333 6.56555 3.33333 8.33366C3.33333 9.91033 3.66833 10.942 4.58333 12.0837L9.99999 18.3337L15.4167 12.0837C16.3317 10.942 16.6667 9.91033 16.6667 8.33366C16.6667 6.56555 15.9643 4.86986 14.714 3.61961C13.4638 2.36937 11.7681 1.66699 9.99999 1.66699Z" stroke="#333322" stroke-width="2" stroke-linecap="round" stroke-linejoin="round"/>
<path d="M9.99999 1.66699C8.23188 1.66699 6.53619 2.36937 5.28595 3.61961C4.03571 4.86986 3.33333 6.56555 3.33333 8.33366C3.33333 9.91033 3.66833 10.942 4.58333 12.0837L9.99999 18.3337L15.4167 12.0837C16.3317 10.942 16.6667 9.91033 16.6667 8.33366C16.6667 6.56555 15.9643 4.86986 14.714 3.61961C13.4638 2.36937 11.7681 1.66699 9.99999 1.66699Z" stroke="black" stroke-opacity="0.2" stroke-width="2" stroke-linecap="round" stroke-linejoin="round"/>
</svg>
