<svg width="108" height="68" viewBox="0 0 108 68" fill="none" xmlns="http://www.w3.org/2000/svg">
<rect width="108" height="68" rx="4" fill="transparent"/>
<path d="M71.1433 66.2076H30C28.8954 66.2076 28 65.3121 28 64.2075V8.49116C28 7.38659 28.8954 6.49116 30 6.49116H33.5561V3C33.5561 1.89543 34.4515 1 35.5561 1H77.3939C78.4985 1 79.3939 1.89543 79.3939 3V60.0892C79.3939 61.1938 78.4985 62.0892 77.3939 62.0892H73.1433V64.2076C73.1433 65.3121 72.2479 66.2076 71.1433 66.2076Z" fill="white"/>
<path d="M33.5561 6.49116H30C28.8954 6.49116 28 7.38659 28 8.49116V64.2075C28 65.3121 28.8954 66.2075 30 66.2075H71.1433C72.2479 66.2075 73.1433 65.3121 73.1433 64.2075V62.0892M33.5561 6.49116H71.1433C72.2479 6.49116 73.1433 7.38659 73.1433 8.49116V62.0892M33.5561 6.49116V3C33.5561 1.89543 34.4515 1 35.5561 1H77.3939C78.4985 1 79.3939 1.89543 79.3939 3V60.0892C79.3939 61.1938 78.4985 62.0892 77.3939 62.0892H73.1433M68.9762 62.0892H31.8788" stroke="#113870" stroke-width="2"/>
<path d="M40.1391 47.5416C40.0292 47.5361 39.9106 47.5329 39.785 47.5318L40.1391 47.5416ZM40.1391 47.5416L40.3645 49.283C39.5588 49.1665 38.7843 49.0447 38.0841 48.8682C37.3452 48.6819 36.7372 48.4455 36.2886 48.1262C36.3008 48.1098 36.3141 48.0931 36.3285 48.0761C36.4345 47.9508 36.5693 47.8476 36.6926 47.7946C36.6938 47.7946 36.7149 47.7882 36.7671 47.7774C36.8289 47.7645 36.9128 47.7497 37.0169 47.7338C37.2244 47.7019 37.4973 47.6678 37.8057 47.6367C38.4241 47.5745 39.1649 47.5265 39.785 47.5318L40.1391 47.5416ZM31.5908 51.9573L31.5907 51.9582C31.5063 52.3888 31.4931 52.9241 31.5027 53.3491C31.5076 53.5701 31.5191 53.7719 31.5324 53.9291C31.5391 54.0074 31.5465 54.0778 31.5543 54.1358L31.5543 54.1358C31.5586 54.1679 31.567 54.2305 31.584 54.2917C31.6553 54.5847 31.8592 54.7948 32.0722 54.9392C32.2923 55.0884 32.5705 55.2018 32.88 55.2896L33.3572 55.425C33.428 55.7325 33.5683 56.021 33.773 56.2593C34.082 56.6192 34.5189 56.8396 34.9939 56.8396C35.4689 56.8396 35.9058 56.6192 36.2148 56.2593C36.3451 56.1076 36.4493 55.9356 36.5261 55.7512L36.9502 55.7579C36.9554 55.758 36.9667 55.7582 36.9798 55.7585C37.0014 55.759 37.0282 55.7595 37.0421 55.7597L37.0435 55.7597L48.9087 55.8746L49.3894 55.8793C49.4579 56.0155 49.5422 56.1434 49.6418 56.2593C49.9509 56.6192 50.3878 56.8396 50.8628 56.8396C51.3378 56.8396 51.7747 56.6192 52.0837 56.2593C52.1763 56.1514 52.2558 56.0332 52.3216 55.9076L52.8021 55.9123L55.8859 55.9421L56.3664 55.9468L56.3902 55.4669C56.4003 55.2621 56.4173 55.0401 56.4349 54.81C56.469 54.3645 56.5055 53.8885 56.4993 53.4465C56.4894 52.7464 56.3787 52.0135 55.9717 51.3323C55.8534 51.1344 55.6578 50.9503 55.4169 50.7806C55.1692 50.6061 54.8442 50.4263 54.4327 50.2474C53.624 49.8958 52.4519 49.5348 50.8089 49.227C50.4763 49.0315 50.1409 48.8285 49.8022 48.6235C48.4566 47.8091 47.0594 46.9634 45.5755 46.4329L45.5481 46.4231L45.5197 46.4165C44.0819 46.0844 42.5143 45.8454 40.6436 45.8397C39.1906 45.8352 37.561 45.9714 35.673 46.3099C35.5915 46.3241 35.5213 46.3554 35.4913 46.3689C35.4477 46.3886 35.4012 46.4125 35.3549 46.4378C35.2617 46.4888 35.1485 46.5569 35.0237 46.6365C34.7733 46.7963 34.459 47.0137 34.1346 47.2603C33.8106 47.5066 33.4703 47.7867 33.1708 48.0721C32.8769 48.3522 32.5981 48.66 32.4204 48.9623L32.4204 48.9623C32.0905 49.5234 31.8862 50.2976 31.7645 50.8886C31.7019 51.1922 31.6581 51.4637 31.6298 51.6594C31.6156 51.7575 31.6053 51.837 31.5985 51.8925C31.595 51.9203 31.5925 51.9421 31.5908 51.9573ZM42.1237 47.5702C43.2718 47.624 44.6463 47.804 45.6125 48.2994C46.1037 48.5649 46.9818 49.1444 47.6822 49.7106C47.6133 49.707 47.544 49.7034 47.4741 49.6998C45.6958 49.6072 43.6294 49.4996 42.4977 49.3831L42.1237 47.5702Z" fill="#113870" stroke="white"/>
<rect x="3" y="62" width="6" height="1" rx="0.5" fill="white"/>
<rect x="11" y="62" width="6" height="1" rx="0.5" fill="white"/>
<rect x="19" y="62" width="6" height="1" rx="0.5" fill="white"/>
<rect x="31" y="61" width="39" height="3" rx="1.5" fill="white"/>
<path d="M31.6226 58.3396H69.0565" stroke="#113870" stroke-width="2.8" stroke-linecap="round"/>
<path d="M65.5 43C67.981 43 70 45.1873 70 47.875C70 53.0555 65.5 56 65.5 56C65.5 56 61 53.0539 61 47.875C61 45.1873 63.019 43 65.5 43ZM65.5 50.3125C65.7956 50.3124 66.0882 50.2492 66.3613 50.1266C66.6343 50.0039 66.8824 49.8243 67.0913 49.5978C67.3002 49.3713 67.4659 49.1024 67.579 48.8065C67.692 48.5107 67.7501 48.1936 67.75 47.8734C67.7499 47.5532 67.6916 47.2361 67.5784 46.9403C67.4652 46.6445 67.2993 46.3758 67.0902 46.1495C66.8812 45.9231 66.633 45.7436 66.3599 45.6212C66.0868 45.4987 65.7941 45.4358 65.4985 45.4359C64.9016 45.4361 64.3292 45.6932 63.9072 46.1506C63.4852 46.608 63.2483 47.2283 63.2485 47.875C63.2487 48.5217 63.486 49.1418 63.9083 49.5989C64.3305 50.056 64.9031 50.3127 65.5 50.3125Z" fill="#113870"/>
<path d="M41.6737 34.0653V33.1818H46.3157V34.0653H44.5174V39H43.4719V34.0653H41.6737ZM47.1651 39V34.6364H48.1935V39H47.1651ZM47.6822 34.017C47.5193 34.017 47.3791 33.9631 47.2617 33.8551C47.1443 33.7453 47.0856 33.6136 47.0856 33.4602C47.0856 33.3049 47.1443 33.1733 47.2617 33.0653C47.3791 32.9555 47.5193 32.9006 47.6822 32.9006C47.8469 32.9006 47.9871 32.9555 48.1026 33.0653C48.2201 33.1733 48.2788 33.3049 48.2788 33.4602C48.2788 33.6136 48.2201 33.7453 48.1026 33.8551C47.9871 33.9631 47.8469 34.017 47.6822 34.017ZM49.2511 39V34.6364H50.234V35.3778H50.2852C50.3761 35.1278 50.5266 34.9328 50.7369 34.7926C50.9471 34.6506 51.198 34.5795 51.4897 34.5795C51.7852 34.5795 52.0342 34.6515 52.2369 34.7955C52.4414 34.9375 52.5853 35.1316 52.6687 35.3778H52.7141C52.8107 35.1354 52.9736 34.9422 53.2028 34.7983C53.4338 34.6525 53.7075 34.5795 54.0238 34.5795C54.4253 34.5795 54.753 34.7064 55.0067 34.9602C55.2605 35.214 55.3874 35.5843 55.3874 36.071V39H54.3562V36.2301C54.3562 35.9593 54.2842 35.7614 54.1403 35.6364C53.9963 35.5095 53.8202 35.446 53.6119 35.446C53.3638 35.446 53.1696 35.5237 53.0295 35.679C52.8912 35.8324 52.8221 36.0322 52.8221 36.2784V39H51.8136V36.1875C51.8136 35.9621 51.7454 35.7822 51.609 35.6477C51.4746 35.5133 51.2984 35.446 51.0806 35.446C50.9329 35.446 50.7984 35.4839 50.6772 35.5597C50.556 35.6335 50.4594 35.7386 50.3874 35.875C50.3155 36.0095 50.2795 36.1667 50.2795 36.3466V39H49.2511ZM58.3626 39.0852C57.9251 39.0852 57.5472 38.9943 57.229 38.8125C56.9128 38.6288 56.6694 38.3693 56.4989 38.0341C56.3285 37.697 56.2433 37.3002 56.2433 36.8438C56.2433 36.3949 56.3285 36.0009 56.4989 35.6619C56.6713 35.321 56.9118 35.0559 57.2205 34.8665C57.5292 34.6752 57.8919 34.5795 58.3086 34.5795C58.5775 34.5795 58.8313 34.6231 59.07 34.7102C59.3105 34.7955 59.5226 34.928 59.7063 35.108C59.8919 35.2879 60.0378 35.517 60.1438 35.7955C60.2499 36.072 60.3029 36.4015 60.3029 36.7841V37.0994H56.7262V36.4062H59.3171C59.3152 36.2093 59.2726 36.0341 59.1893 35.8807C59.1059 35.7254 58.9895 35.6032 58.8398 35.5142C58.6921 35.4252 58.5198 35.3807 58.3228 35.3807C58.1126 35.3807 57.9279 35.4318 57.7688 35.5341C57.6097 35.6345 57.4857 35.767 57.3967 35.9318C57.3095 36.0947 57.265 36.2737 57.2631 36.4688V37.0739C57.2631 37.3277 57.3095 37.5455 57.4023 37.7273C57.4951 37.9072 57.6249 38.0455 57.7915 38.142C57.9582 38.2367 58.1533 38.2841 58.3768 38.2841C58.5264 38.2841 58.6618 38.2633 58.783 38.2216C58.9042 38.178 59.0094 38.1146 59.0984 38.0312C59.1874 37.9479 59.2546 37.8447 59.3001 37.7216L60.2603 37.8295C60.1997 38.0833 60.0842 38.3049 59.9137 38.4943C59.7451 38.6818 59.5292 38.8277 59.266 38.9318C59.0027 39.0341 58.7016 39.0852 58.3626 39.0852Z" fill="#29A7E4"/>
<path d="M50.9375 11.0625C46.0017 11.0625 42 15.0642 42 20C42 24.9281 46.0098 28.9375 50.9375 28.9375C55.8729 28.9375 59.875 24.9354 59.875 20C59.875 15.0719 55.8656 11.0625 50.9375 11.0625ZM55.5781 21.375H50.4219C50.3763 21.375 50.3326 21.3569 50.3003 21.3247C50.2681 21.2924 50.25 21.2487 50.25 21.2031V13.9844C50.25 13.9388 50.2681 13.8951 50.3003 13.8628C50.3326 13.8306 50.3763 13.8125 50.4219 13.8125H51.4531C51.4987 13.8125 51.5424 13.8306 51.5747 13.8628C51.6069 13.8951 51.625 13.9388 51.625 13.9844V20H55.5781C55.6237 20 55.6674 20.0181 55.6997 20.0503C55.7319 20.0826 55.75 20.1263 55.75 20.1719V21.2031C55.75 21.2487 55.7319 21.2924 55.6997 21.3247C55.6674 21.3569 55.6237 21.375 55.5781 21.375Z" fill="#29A7E4"/>
</svg>
