<svg width="18" height="20" viewBox="0 0 18 20" fill="none" xmlns="http://www.w3.org/2000/svg">
<path d="M8.16686 1.36608C8.23583 1.21617 8.34398 1.08765 8.47991 0.994097C8.61583 0.900539 8.77449 0.845407 8.93914 0.834518C9.1038 0.823629 9.26833 0.857386 9.4154 0.932229C9.56246 1.00707 9.68659 1.12022 9.7747 1.25974L9.83153 1.36608L17.1694 17.284C17.3509 17.8028 17.2153 18.3803 16.8229 18.7644C16.6503 18.9351 16.4362 19.058 16.2018 19.1212C15.9674 19.1843 15.7206 19.1855 15.4855 19.1247L8.99828 16.9265L2.6742 19.0697C2.44384 19.16 2.19374 19.188 1.94911 19.1508C1.70448 19.1136 1.47399 19.0126 1.28086 18.8579L1.1782 18.7662C0.813364 18.4124 0.668531 17.8917 0.817947 17.3399L0.861031 17.2024L8.16686 1.36608Z" />
</svg>
