<svg width="30" height="30" viewBox="0 0 30 30" fill="none" xmlns="http://www.w3.org/2000/svg">
<path d="M10.4813 9.6375C10.6219 9.05625 11.1469 8.625 11.775 8.625C12.4219 8.625 12.9657 9.08438 13.0875 9.70313C13.0947 9.73508 13.0944 9.76824 13.0868 9.80008C13.0792 9.83193 13.0645 9.86163 13.0437 9.88693C13.0229 9.91223 12.9966 9.93246 12.9669 9.9461C12.9371 9.95973 12.9046 9.96641 12.8719 9.96563H12.7969C12.8157 9.89063 12.825 9.81563 12.825 9.74063C12.825 9.27188 12.45 8.8875 11.9719 8.8875C11.8407 8.88774 11.7113 8.91815 11.5937 8.97637C11.4761 9.0346 11.3735 9.11907 11.2937 9.22328C11.214 9.32748 11.1593 9.44862 11.1338 9.57734C11.1084 9.70606 11.1128 9.83891 11.1469 9.96563H10.7344C10.5657 9.96563 10.4344 9.79688 10.4813 9.6375ZM17.6532 9.6375C17.5125 9.05625 16.9875 8.625 16.3594 8.625C15.7032 8.625 15.1688 9.08438 15.0469 9.70313C15.0188 9.84375 15.1219 9.96563 15.2625 9.96563H15.3375C15.319 9.89206 15.3095 9.8165 15.3094 9.74063C15.3081 9.62824 15.3294 9.51674 15.3718 9.41267C15.4142 9.3086 15.477 9.21405 15.5565 9.13458C15.636 9.0551 15.7305 8.99231 15.8346 8.94988C15.9386 8.90745 16.0501 8.88624 16.1625 8.8875C16.2937 8.88774 16.4231 8.91815 16.5407 8.97637C16.6583 9.0346 16.7609 9.11907 16.8407 9.22328C16.9204 9.32748 16.9751 9.44862 17.0006 9.57734C17.0261 9.70606 17.0216 9.83891 16.9875 9.96563H17.4C17.5688 9.96563 17.6907 9.80625 17.6532 9.6375Z" fill="#29A7E4"/>
<path d="M12.4595 9.73087C12.4595 9.45899 12.2439 9.24337 11.972 9.24337C11.9064 9.24302 11.8414 9.25577 11.7808 9.28086C11.8037 9.30103 11.8198 9.32768 11.8272 9.35726C11.8345 9.38685 11.8327 9.41797 11.8219 9.44647C11.8111 9.47498 11.7918 9.49952 11.7668 9.51683C11.7417 9.53414 11.7119 9.5434 11.6814 9.54337C11.6564 9.54332 11.6319 9.53704 11.6099 9.52509C11.588 9.51314 11.5694 9.49589 11.5558 9.47493C11.5121 9.54701 11.4877 9.62916 11.4851 9.71343C11.4825 9.79769 11.5017 9.8812 11.5408 9.95587H12.4033C12.4408 9.89024 12.4595 9.81524 12.4595 9.73087ZM15.9845 9.27618C16.0771 9.23778 16.1793 9.22908 16.277 9.25127C16.3748 9.27347 16.4632 9.32547 16.5301 9.40008C16.597 9.4747 16.6391 9.56825 16.6505 9.66781C16.6619 9.76737 16.6422 9.86802 16.5939 9.95587H15.7314C15.6906 9.87846 15.6713 9.7915 15.6756 9.70409C15.6799 9.61668 15.7076 9.53203 15.7558 9.45899C15.7657 9.47917 15.78 9.49688 15.7976 9.5108C15.8152 9.52472 15.8358 9.5345 15.8577 9.53942C15.8796 9.54434 15.9024 9.54427 15.9242 9.53922C15.9461 9.53416 15.9666 9.52426 15.9842 9.51023C16.0017 9.49621 16.0159 9.47842 16.0257 9.45818C16.0354 9.43794 16.0405 9.41576 16.0405 9.3933C16.0406 9.37083 16.0355 9.34864 16.0259 9.32837C16.0162 9.3081 16.002 9.29026 15.9845 9.27618ZM13.2752 11.2684L13.772 9.66524C13.8845 9.30899 14.3814 9.30899 14.4845 9.66524L14.9814 11.2684C15.0845 11.5965 14.8408 11.934 14.4939 11.934H13.7627C13.4158 11.934 13.172 11.5965 13.2752 11.2684ZM14.0627 12.8246C13.5564 12.8246 13.0783 12.7027 12.6752 12.4871C12.5345 12.4121 12.3939 12.5715 12.4783 12.7027C12.8158 13.2184 13.397 13.5652 14.0627 13.5652C14.7283 13.5652 15.3095 13.2184 15.647 12.7027C15.7314 12.5715 15.5814 12.4215 15.4502 12.4871C15.047 12.7027 14.5783 12.8246 14.0627 12.8246Z" fill="#29A7E4"/>
<path d="M25.7785 23.9128C25.7814 23.9409 25.7823 23.969 25.7814 23.9981V27.2906C25.7814 27.6312 25.646 27.9579 25.4052 28.1988C25.1643 28.4396 24.8376 28.5749 24.497 28.5749H24.4914C24.4506 28.5873 24.4083 28.5936 24.3657 28.5937H3.75011C3.62579 28.5937 3.50656 28.5443 3.41865 28.4564C3.33075 28.3685 3.28136 28.2493 3.28136 28.1249V24.8437C3.27205 22.7812 3.85828 20.7598 4.96966 19.0223C6.08103 17.2848 7.67032 15.905 9.54667 15.0487C9.50234 14.9877 9.46013 14.9251 9.42011 14.8612C8.93198 14.6743 8.51108 14.3454 8.21177 13.9169C7.91247 13.4884 7.7485 12.9801 7.74105 12.4574V11.7881C7.49498 11.5752 7.30275 11.3072 7.18006 11.0059C7.05738 10.7045 7.00773 10.3784 7.03515 10.0543C7.06258 9.73007 7.16631 9.41696 7.33788 9.14053C7.50944 8.86409 7.74397 8.63216 8.0223 8.46369V7.29275C7.86596 6.55884 7.86675 5.80015 8.02462 5.06657C8.18248 4.33299 8.49385 3.64113 8.93823 3.0365C9.45914 2.48272 10.095 2.04978 10.8012 1.76812C11.5074 1.48646 12.2667 1.36292 13.0257 1.40619H15.1379C15.8982 1.36213 16.6588 1.48527 17.3663 1.76695C18.0738 2.04862 18.711 2.48198 19.2329 3.0365C19.6819 3.65376 19.995 4.35914 20.1516 5.10619C20.3082 5.85323 20.3047 6.62497 20.1414 7.37056V8.46931C20.416 8.63764 20.6474 8.86796 20.8171 9.14183C20.9867 9.4157 21.0898 9.72549 21.1182 10.0464C21.1465 10.3673 21.0993 10.6903 20.9803 10.9897C20.8613 11.2891 20.6738 11.5564 20.4329 11.7703V12.4574C20.4322 12.9472 20.2915 13.4265 20.0274 13.8389C19.7633 14.2514 19.3868 14.5797 18.9423 14.7852C18.8748 14.8996 18.8007 15.0102 18.722 15.1181C19.2001 15.3524 19.6595 15.6196 20.0973 15.9206C19.9454 16.2056 19.8367 16.5112 19.7748 16.829L19.7673 16.8234C19.6642 17.3465 19.691 17.8869 19.8455 18.3972C20 18.9075 20.2773 19.3721 20.6532 19.7502V22.9874C20.8347 22.8441 21.0532 22.7553 21.2832 22.7315C21.3224 22.721 21.3627 22.7157 21.4032 22.7156H22.0595V19.7681C22.0595 19.6743 22.0032 19.5806 21.9189 19.5337C21.5687 19.3532 21.2693 19.0878 21.0482 18.7617C20.8271 18.4356 20.6913 18.0593 20.6532 17.6671V17.2453C20.6871 16.8605 20.8162 16.4903 21.029 16.1681C21.2418 15.8458 21.5315 15.5816 21.872 15.3993C22.0501 15.3056 22.2751 15.4368 22.2751 15.6431V17.1056C22.2751 17.4899 22.5751 17.7993 22.9595 17.8087C23.3532 17.8181 23.672 17.4899 23.672 17.0962V15.6431C23.672 15.4368 23.897 15.3149 24.0751 15.4087C24.8064 15.8024 25.3032 16.5806 25.3126 17.4524C25.3126 18.3431 24.8157 19.1212 24.0751 19.5149C23.9907 19.5618 23.9345 19.6556 23.9345 19.7493V20.7665C24.1454 20.6992 24.3693 20.6825 24.5879 20.7179C24.8065 20.7532 25.0137 20.8396 25.1927 20.97C25.3716 21.1004 25.5174 21.2711 25.618 21.4684C25.7187 21.6656 25.7714 21.8838 25.772 22.1053V23.8434L25.7785 23.9128ZM18.7126 16.1671C18.5708 16.0906 18.427 16.0177 18.2814 15.9487V19.7624C18.2814 20.5753 17.3739 21.0384 16.7176 20.5781L16.6989 20.564L14.1451 18.3581C14.1222 18.3383 14.0929 18.3275 14.0626 18.3275C14.0323 18.3275 14.0031 18.3383 13.9801 18.3581L11.4264 20.564L11.4076 20.5771C11.2588 20.6821 11.084 20.7441 10.9022 20.7564C10.7205 20.7686 10.539 20.7305 10.3774 20.6464C10.2159 20.5622 10.0807 20.4352 9.98657 20.2793C9.89245 20.1234 9.84307 19.9446 9.84386 19.7624V15.9449C9.70792 16.0087 9.57292 16.0762 9.44073 16.1456V21.1781C9.44073 21.3937 9.60948 21.5624 9.82511 21.5624H18.3282C18.5439 21.5624 18.7126 21.3937 18.7126 21.1781V16.1671ZM7.50011 17.4909C6.46302 18.4137 5.63409 19.5465 5.06837 20.8142C4.50265 22.0819 4.21307 23.4555 4.21886 24.8437V27.6562H7.50011V17.4909ZM24.8345 22.6753V22.1043C24.8345 21.8474 24.6226 21.6356 24.3657 21.6356C24.2737 21.6362 24.1839 21.6637 24.1073 21.7146C24.0307 21.7656 23.9706 21.8378 23.9345 21.9224V22.6762L24.8345 22.6753ZM21.4032 27.6374H24.497C24.589 27.6374 24.6772 27.6009 24.7423 27.5358C24.8073 27.4708 24.8439 27.3826 24.8439 27.2906V24.0018C24.8409 23.9788 24.8388 23.9556 24.8373 23.9324C24.8217 23.8537 24.7792 23.7828 24.7171 23.7318C24.6551 23.6809 24.5773 23.653 24.497 23.6531H21.497C21.4661 23.6593 21.4347 23.6624 21.4032 23.6624C21.256 23.6624 21.1529 23.7768 21.1501 23.8893V23.8959C21.1496 23.9361 21.1594 23.9757 21.1786 24.011C21.1978 24.0463 21.2258 24.0761 21.2598 24.0974C21.3244 24.1404 21.3773 24.1988 21.4138 24.2673C21.4502 24.3358 21.4691 24.4123 21.4687 24.4899C21.4684 24.5674 21.4487 24.6437 21.4116 24.7119C21.3745 24.78 21.321 24.8379 21.256 24.8802C21.2243 24.9006 21.198 24.9284 21.1795 24.9612C21.161 24.9941 21.1509 25.031 21.1501 25.0687C21.1501 25.1531 21.1904 25.2159 21.2467 25.2515C21.3138 25.293 21.3693 25.3508 21.4081 25.4195C21.4469 25.4882 21.4678 25.5656 21.4687 25.6446C21.4697 25.7235 21.4507 25.8013 21.4135 25.8709C21.3763 25.9405 21.3222 25.9996 21.256 26.0427C21.2243 26.0631 21.198 26.0909 21.1795 26.1237C21.161 26.1566 21.1509 26.1935 21.1501 26.2312C21.1501 26.3156 21.1904 26.3784 21.2467 26.414C21.3134 26.4553 21.3686 26.5128 21.4074 26.581C21.4461 26.6493 21.4671 26.7262 21.4684 26.8046C21.4697 26.8831 21.4513 26.9607 21.4149 27.0302C21.3784 27.0997 21.3251 27.1589 21.2598 27.2024C21.2255 27.2264 21.1975 27.2584 21.1784 27.2957C21.1593 27.333 21.1496 27.3743 21.1501 27.4162C21.1557 27.5268 21.2579 27.6374 21.4032 27.6374ZM11.7264 16.1231C11.3905 15.9926 11.0728 15.8193 10.7814 15.6074V19.7624C10.7814 19.7812 10.786 19.7906 10.7889 19.7962C10.7942 19.8042 10.8017 19.8107 10.8104 19.8149C10.8191 19.8195 10.8288 19.8218 10.8385 19.8215C10.8451 19.8213 10.8515 19.8197 10.8573 19.8168L13.1851 17.8068C12.824 17.665 12.5026 17.4377 12.2485 17.1444C11.9945 16.8512 11.8153 16.5007 11.7264 16.1231ZM8.36261 9.92806C8.36261 10.5337 8.85386 11.0249 9.45948 11.0249L9.9123 11.0231L10.0201 12.6646C10.1293 13.4409 10.5148 14.1518 11.1058 14.6669C11.6968 15.182 12.4537 15.4666 13.2376 15.4687H15.0189C15.8031 15.4682 16.5607 15.1842 17.152 14.6691C17.7434 14.1539 18.1285 13.4423 18.2364 12.6656L18.3367 11.0549L18.7398 11.0212C18.9501 11.0035 19.1508 10.9255 19.3178 10.7966C19.4849 10.6677 19.6112 10.4933 19.6817 10.2944C19.7522 10.0955 19.7637 9.88051 19.7151 9.67519C19.6664 9.46986 19.5595 9.28293 19.4073 9.13681C19.3771 9.11635 19.3494 9.09244 19.3248 9.06556C19.193 8.96155 19.039 8.88936 18.8748 8.85462L18.4792 8.77119L18.5045 8.35869C18.1918 8.43367 17.863 8.39926 17.5726 8.26119C17.5539 8.29216 17.5288 8.31883 17.499 8.33943C17.4693 8.36004 17.4355 8.37413 17.3999 8.38076C17.3643 8.3874 17.3278 8.38645 17.2926 8.37796C17.2574 8.36947 17.2244 8.35364 17.1957 8.3315L17.3439 8.14025L17.1957 8.33056L17.1939 8.32963L17.1779 8.31838C17.0656 8.24437 16.9459 8.18217 16.8207 8.13275C16.4934 8.00324 16.139 7.95717 15.7895 7.99869C15.7307 8.00561 15.6713 7.99199 15.6213 7.96015C15.5714 7.92831 15.534 7.88019 15.5155 7.82394C15.497 7.76769 15.4984 7.70677 15.5197 7.65149C15.5409 7.5962 15.5806 7.54995 15.632 7.52056C15.1166 7.40666 14.5904 7.34944 14.0626 7.34994C13.4879 7.34994 12.9657 7.4165 12.4998 7.51869C12.552 7.54747 12.5926 7.59351 12.6146 7.64894C12.6366 7.70436 12.6386 7.7657 12.6203 7.82244C12.602 7.87919 12.5645 7.92781 12.5143 7.95996C12.4641 7.99212 12.4043 8.00581 12.3451 7.99869C11.888 7.94476 11.4257 8.04084 11.0279 8.27244C11.0037 8.28698 10.9799 8.3023 10.9567 8.31838L10.9407 8.32963L10.9389 8.3315C10.9099 8.3538 10.8766 8.36967 10.841 8.37806C10.8055 8.38646 10.7686 8.38717 10.7327 8.38016C10.6969 8.37315 10.6629 8.35858 10.6332 8.33742C10.6034 8.31626 10.5785 8.28899 10.5601 8.25744C10.2976 8.384 10.0117 8.42244 9.73886 8.38119L9.76511 8.78619L9.32448 8.83962C9.17253 8.85823 9.02621 8.9087 8.89511 8.98775C8.83837 9.0854 8.74859 9.15955 8.64198 9.19681C8.46855 9.39088 8.36261 9.64681 8.36261 9.92806ZM10.5376 8.04744L10.4476 7.88431L10.5385 8.04556L10.5376 8.04744ZM13.2376 16.4062C13.1064 16.4062 12.976 16.4006 12.8476 16.3874C12.9804 16.5857 13.1598 16.7483 13.37 16.8612C13.5802 16.974 13.8149 17.0336 14.0535 17.0347C14.2921 17.0358 14.5274 16.9784 14.7386 16.8675C14.9499 16.7567 15.1308 16.5957 15.2654 16.3987C15.1833 16.4036 15.1011 16.4061 15.0189 16.4062H13.2376ZM14.9392 17.8059L17.2689 19.8168C17.2744 19.8196 17.2805 19.8212 17.2867 19.8215C17.2965 19.8218 17.3062 19.8195 17.3148 19.8149C17.3235 19.8107 17.331 19.8042 17.3364 19.7962C17.3421 19.7859 17.3447 19.7742 17.3439 19.7624V15.7012C17.0455 15.9014 16.7225 16.0621 16.3829 16.1793C16.286 16.5444 16.105 16.8816 15.8543 17.1641C15.6035 17.4466 15.2901 17.6664 14.9392 17.8059ZM17.342 5.86494C16.319 5.38913 15.2044 5.14261 14.0762 5.14261C12.948 5.14261 11.8334 5.38913 10.8104 5.86494L10.8067 5.86681C10.3281 6.08808 9.88283 6.37524 9.48386 6.71994L9.58886 6.85119C9.73886 7.03494 9.99761 7.08275 10.1964 6.97213L10.1982 6.97119C11.3885 6.31963 12.7244 5.98002 14.0814 5.984C15.8607 5.984 17.2042 6.55119 17.9645 6.97119H17.9664C18.0631 7.02534 18.1758 7.04348 18.2847 7.02237C18.3935 7.00126 18.4913 6.94227 18.5607 6.85588L18.5626 6.85306L18.6695 6.72088C18.2668 6.3781 17.8204 6.09027 17.342 5.86494ZM12.8439 24.1312C12.8439 23.4656 12.3001 22.9218 11.6345 22.9218H10.2751C9.60948 22.9218 9.06573 23.4656 9.06573 24.1312C9.06573 24.7968 9.60948 25.3406 10.2751 25.3406H11.6345C12.3095 25.3406 12.8439 24.8062 12.8439 24.1312Z" fill="#29A7E4"/>
</svg>
