<svg width="24" height="24" viewBox="0 0 24 24" fill="none" xmlns="http://www.w3.org/2000/svg">
<path d="M11.0919 2.58109C11.1672 2.41755 11.2852 2.27735 11.4334 2.17529C11.5817 2.07323 11.7548 2.01308 11.9344 2.0012C12.1141 1.98932 12.2935 2.02615 12.454 2.1078C12.6144 2.18944 12.7498 2.31288 12.8459 2.46509L12.9079 2.58109L20.9129 19.9461C21.1109 20.5121 20.9629 21.1421 20.5349 21.5611C20.3466 21.7473 20.1131 21.8814 19.8573 21.9503C19.6016 22.0191 19.3324 22.0205 19.0759 21.9541L11.9989 19.5561L5.09995 21.8941C4.84865 21.9926 4.57581 22.0232 4.30894 21.9826C4.04208 21.942 3.79062 21.8318 3.57995 21.6631L3.46795 21.5631C3.06995 21.1771 2.91195 20.6091 3.07495 20.0071L3.12195 19.8571L11.0919 2.58109Z" fill="#333333"/>
</svg>
