<svg width="24" height="24" viewBox="0 0 24 24" fill="none" xmlns="http://www.w3.org/2000/svg">
<path d="M21.5 19.6361C21.5 20.0727 21.2993 20.5283 20.8551 20.9866C20.4086 21.4473 19.7383 21.885 18.8711 22.2634C17.1382 23.0196 14.7093 23.4997 12 23.4997C9.29071 23.4997 6.86179 23.0196 5.1289 22.2634C4.2617 21.885 3.59138 21.4473 3.14487 20.9866C2.70067 20.5283 2.5 20.0727 2.5 19.6361C2.5 19.1995 2.70067 18.7438 3.14487 18.2856C3.59138 17.8249 4.2617 17.3872 5.1289 17.0088C6.86179 16.2526 9.29071 15.7725 12 15.7725C14.7093 15.7725 17.1382 16.2526 18.8711 17.0088C19.7383 17.3872 20.4086 17.8249 20.8551 18.2856C21.2993 18.7438 21.5 19.1995 21.5 19.6361Z" fill="transparent" stroke="#323232"/>
<path d="M12.0001 19.0662L7.12248 16.4057C7.16523 16.388 7.20853 16.3708 7.25377 16.3537C7.52322 16.2517 7.83915 16.1665 8.47229 16.0596C9.73734 15.8458 11.0942 15.7491 12.4546 15.7767C13.8151 15.8043 15.1439 15.9556 16.355 16.219C16.661 16.2855 16.844 16.3268 16.9641 16.3585L12.0001 19.0662Z" fill="transparent" stroke="transparent"/>
<path d="M21.5 15.6273C21.6173 15.6273 21.7334 15.6026 21.8417 15.5546C21.95 15.5066 22.0484 15.4363 22.1313 15.3477C22.2143 15.2591 22.28 15.1538 22.3249 15.038C22.3698 14.9222 22.3929 14.7981 22.3929 14.6727C22.3929 14.4196 22.2988 14.1768 22.1313 13.9978C21.9639 13.8187 21.7368 13.7182 21.5 13.7182C21.2632 13.7182 21.0361 13.8187 20.8687 13.9978C20.7012 14.1768 20.6071 14.4196 20.6071 14.6727C20.6071 14.7981 20.6302 14.9222 20.6751 15.038C20.72 15.1538 20.7857 15.2591 20.8687 15.3477C21.0361 15.5267 21.2632 15.6273 21.5 15.6273ZM21.5 12C22.8786 12 24 13.1951 24 14.6727C24 16.6773 21.5 19.6364 21.5 19.6364C21.5 19.6364 19 16.6773 19 14.6727C19 13.9639 19.2634 13.2841 19.7322 12.7828C20.2011 12.2816 20.837 12 21.5 12Z" fill="#323232"/>
<path d="M6 0V20.7273H18V0H6ZM17 19.4318H13V15.5455H11V19.4318H7V1.29545H17V19.4318Z" fill="#323232"/>
<path d="M8 9.81792H10V11.9997H8V9.81792ZM11 9.81792H13V11.9997H11V9.81792ZM14 9.81792H16V11.9997H14V9.81792ZM8 6.54519H10V8.72701H8V6.54519ZM11 6.54519H13V8.72701H11V6.54519ZM14 6.54519H16V8.72701H14V6.54519ZM8 3.27246H10V5.45428H8V3.27246ZM11 3.27246H13V5.45428H11V3.27246ZM14 3.27246H16V5.45428H14V3.27246Z" fill="#323232"/>
<path d="M2.5 16.5365C2.61725 16.5365 2.73336 16.5118 2.84168 16.4638C2.95001 16.4158 3.04844 16.3455 3.13135 16.2569C3.21426 16.1682 3.28002 16.063 3.32489 15.9472C3.36976 15.8314 3.39286 15.7073 3.39286 15.5819C3.39286 15.3287 3.29879 15.086 3.13135 14.9069C2.9639 14.7279 2.7368 14.6274 2.5 14.6274C2.2632 14.6274 2.0361 14.7279 1.86865 14.9069C1.70121 15.086 1.60714 15.3287 1.60714 15.5819C1.60714 15.7073 1.63024 15.8314 1.67511 15.9472C1.71998 16.063 1.78575 16.1682 1.86865 16.2569C2.0361 16.4359 2.2632 16.5365 2.5 16.5365ZM2.5 12.9092C3.87857 12.9092 5 14.1043 5 15.5819C5 17.5865 2.5 20.5455 2.5 20.5455C2.5 20.5455 0 17.5865 0 15.5819C0 14.8731 0.263392 14.1932 0.732233 13.692C1.20107 13.1908 1.83696 12.9092 2.5 12.9092Z" fill="#323232"/>
<path d="M2.5 16.5365C2.61725 16.5365 2.73336 16.5118 2.84168 16.4638C2.95001 16.4158 3.04844 16.3455 3.13135 16.2569C3.21426 16.1682 3.28002 16.063 3.32489 15.9472C3.36976 15.8314 3.39286 15.7073 3.39286 15.5819C3.39286 15.3287 3.29879 15.086 3.13135 14.9069C2.9639 14.7279 2.7368 14.6274 2.5 14.6274C2.2632 14.6274 2.0361 14.7279 1.86865 14.9069C1.70121 15.086 1.60714 15.3287 1.60714 15.5819C1.60714 15.7073 1.63024 15.8314 1.67511 15.9472C1.71998 16.063 1.78575 16.1682 1.86865 16.2569C2.0361 16.4359 2.2632 16.5365 2.5 16.5365ZM2.5 12.9092C3.87857 12.9092 5 14.1043 5 15.5819C5 17.5865 2.5 20.5455 2.5 20.5455C2.5 20.5455 0 17.5865 0 15.5819C0 14.8731 0.263392 14.1932 0.732233 13.692C1.20107 13.1908 1.83696 12.9092 2.5 12.9092Z" stroke="transparent"/>
<path d="M15.5 19.3453C15.7286 19.3453 15.9551 19.3011 16.1667 19.215C16.3784 19.1289 16.5713 19.0025 16.7342 18.8426C16.8971 18.6826 17.0268 18.4922 17.1155 18.282C17.2042 18.0718 17.25 17.8461 17.25 17.618C17.25 17.1569 17.0634 16.7166 16.7342 16.3934C16.4053 16.0705 15.9612 15.8907 15.5 15.8907C15.0388 15.8907 14.5947 16.0705 14.2658 16.3934C13.9366 16.7166 13.75 17.1569 13.75 17.618C13.75 17.8461 13.7958 18.0718 13.8845 18.282C13.9732 18.4922 14.1029 18.6826 14.2658 18.8426C14.5947 19.1655 15.0388 19.3453 15.5 19.3453ZM15.5 14.6816C17.163 14.6816 18.5 16.0034 18.5 17.618C18.5 18.1593 18.3133 18.8045 17.9982 19.4949C17.6863 20.1785 17.2658 20.8695 16.8379 21.4922C16.411 22.1134 15.9831 22.6575 15.6615 23.0465C15.604 23.1161 15.5499 23.1806 15.5 23.2397C15.4501 23.1806 15.396 23.1161 15.3385 23.0465C15.0169 22.6575 14.589 22.1134 14.1621 21.4922C13.7342 20.8695 13.3137 20.1785 13.0018 19.4949C12.6867 18.8045 12.5 18.1593 12.5 17.618C12.5 16.8422 12.8138 16.0963 13.3754 15.5449C13.9374 14.9932 14.7014 14.6816 15.5 14.6816Z" fill="#323232" stroke="transparent"/>
<path d="M14.5035 16.9287L14.8656 17.2674L14.5035 16.9287C14.2463 17.2036 14.1071 17.5698 14.1071 17.9452C14.1071 18.1317 14.1415 18.3172 14.2089 18.4911C14.2763 18.6651 14.3759 18.8253 14.5035 18.9617C14.7617 19.2378 15.1194 19.3997 15.5 19.3997C15.6877 19.3997 15.8727 19.3602 16.0441 19.2843L15.8417 18.8271L16.0441 19.2843C16.2154 19.2084 16.3688 19.0982 16.4965 18.9617L16.1313 18.6202L16.4965 18.9617C16.6241 18.8253 16.7237 18.6651 16.7911 18.4911C16.8585 18.3172 16.8929 18.1317 16.8929 17.9452C16.8929 17.5698 16.7537 17.2036 16.4965 16.9287C16.2383 16.6526 15.8806 16.4906 15.5 16.4906C15.1194 16.4906 14.7617 16.6526 14.5035 16.9287ZM15.5 15.7725C16.5719 15.7725 17.5 16.7122 17.5 17.9452C17.5 18.3517 17.3708 18.842 17.1482 19.3732C16.9281 19.8984 16.6308 20.4307 16.3272 20.9119C16.0277 21.3864 15.7274 21.8028 15.5 22.1028C15.2726 21.8028 14.9723 21.3864 14.6728 20.9119C14.3692 20.4307 14.0719 19.8984 13.8518 19.3732C13.6292 18.842 13.5 18.3517 13.5 17.9452C13.5 17.3586 13.7183 16.8021 14.0974 16.3968C14.4754 15.9927 14.9808 15.7725 15.5 15.7725Z" fill="#323232" stroke="#323232"/>
</svg>
