<svg width="35" height="35" viewBox="0 0 35 35" fill="none" xmlns="http://www.w3.org/2000/svg">
<path d="M33.3594 16.9531H1.64062V33.3594H33.3594V16.9531Z" fill="#2D85CC"/>
<path d="M24.6094 16.9531H10.3906V33.3594H24.6094V16.9531Z" fill="#1261A0"/>
<path d="M22.9688 10.3906C22.9688 7.97439 20.5203 6.01562 17.5 6.01562C14.4797 6.01562 12.0312 7.97439 12.0312 10.3906H1.64062V16.9531H33.3594V10.3906H22.9688Z" fill="#E9EEF2"/>
<path d="M25.7031 16.9531H22.9688V33.3594H25.7031V16.9531Z" fill="#E9EEF2"/>
<path d="M12.0312 16.9531H9.29688V33.3594H12.0312V16.9531Z" fill="#E9EEF2"/>
<path d="M20.2344 26.7969H14.7656V33.3594H20.2344V26.7969Z" fill="#6ED2F0"/>
<path d="M18.0469 26.7969H16.9531V33.3594H18.0469V26.7969Z" fill="#53BFE0"/>
<path d="M9.29688 13.125H1.64062C1.49558 13.125 1.35648 13.0674 1.25393 12.9648C1.15137 12.8623 1.09375 12.7232 1.09375 12.5781C1.09375 12.4331 1.15137 12.294 1.25393 12.1914C1.35648 12.0889 1.49558 12.0312 1.64062 12.0312H9.29688C9.44192 12.0312 9.58102 12.0889 9.68357 12.1914C9.78613 12.294 9.84375 12.4331 9.84375 12.5781C9.84375 12.7232 9.78613 12.8623 9.68357 12.9648C9.58102 13.0674 9.44192 13.125 9.29688 13.125ZM9.29688 15.3125H1.64062C1.49558 15.3125 1.35648 15.2549 1.25393 15.1523C1.15137 15.0498 1.09375 14.9107 1.09375 14.7656C1.09375 14.6206 1.15137 14.4815 1.25393 14.3789C1.35648 14.2764 1.49558 14.2188 1.64062 14.2188H9.29688C9.44192 14.2188 9.58102 14.2764 9.68357 14.3789C9.78613 14.4815 9.84375 14.6206 9.84375 14.7656C9.84375 14.9107 9.78613 15.0498 9.68357 15.1523C9.58102 15.2549 9.44192 15.3125 9.29688 15.3125ZM33.3594 13.125H25.7031C25.5581 13.125 25.419 13.0674 25.3164 12.9648C25.2139 12.8623 25.1562 12.7232 25.1562 12.5781C25.1562 12.4331 25.2139 12.294 25.3164 12.1914C25.419 12.0889 25.5581 12.0312 25.7031 12.0312H33.3594C33.5044 12.0312 33.6435 12.0889 33.7461 12.1914C33.8486 12.294 33.9062 12.4331 33.9062 12.5781C33.9062 12.7232 33.8486 12.8623 33.7461 12.9648C33.6435 13.0674 33.5044 13.125 33.3594 13.125ZM33.3594 15.3125H25.7031C25.5581 15.3125 25.419 15.2549 25.3164 15.1523C25.2139 15.0498 25.1562 14.9107 25.1562 14.7656C25.1562 14.6206 25.2139 14.4815 25.3164 14.3789C25.419 14.2764 25.5581 14.2188 25.7031 14.2188H33.3594C33.5044 14.2188 33.6435 14.2764 33.7461 14.3789C33.8486 14.4815 33.9062 14.6206 33.9062 14.7656C33.9062 14.9107 33.8486 15.0498 33.7461 15.1523C33.6435 15.2549 33.5044 15.3125 33.3594 15.3125ZM20.7812 27.3438H14.2188C14.0737 27.3438 13.9346 27.2861 13.8321 27.1836C13.7295 27.081 13.6719 26.9419 13.6719 26.7969C13.6719 26.6518 13.7295 26.5127 13.8321 26.4102C13.9346 26.3076 14.0737 26.25 14.2188 26.25H20.7812C20.9263 26.25 21.0654 26.3076 21.1679 26.4102C21.2705 26.5127 21.3281 26.6518 21.3281 26.7969C21.3281 26.9419 21.2705 27.081 21.1679 27.1836C21.0654 27.2861 20.9263 27.3438 20.7812 27.3438ZM19.6875 9.29688V13.125C19.6875 13.125 18.5938 14.7656 17.5 14.7656C16.4062 14.7656 15.3125 13.125 15.3125 13.125V9.29688C15.3125 9.58696 15.4277 9.86515 15.6329 10.0703C15.838 10.2754 16.1162 10.3906 16.4062 10.3906C16.6963 10.3906 16.9745 10.2754 17.1796 10.0703C17.3848 9.86515 17.5 9.58696 17.5 9.29688C17.5 9.58696 17.6152 9.86515 17.8204 10.0703C18.0255 10.2754 18.3037 10.3906 18.5938 10.3906C18.8838 10.3906 19.162 10.2754 19.3671 10.0703C19.5723 9.86515 19.6875 9.58696 19.6875 9.29688Z" fill="#2D85CC"/>
<path d="M25.7031 16.9531H9.29688V19.1406H25.7031V16.9531Z" fill="#C3C6C7"/>
<path d="M20.2344 21.3281H14.7656V24.6094H20.2344V21.3281Z" fill="#C3C6C7"/>
<path d="M7.10938 20.2344H3.82812V23.5156H7.10938V20.2344Z" fill="#6ED2F0"/>
<path d="M7.10938 26.7969H3.82812V30.0781H7.10938V26.7969Z" fill="#6ED2F0"/>
<path d="M31.1719 20.2344H27.8906V23.5156H31.1719V20.2344Z" fill="#6ED2F0"/>
<path d="M31.1719 26.7969H27.8906V30.0781H31.1719V26.7969Z" fill="#6ED2F0"/>
<rect x="13.9453" y="8.81836" width="7.58789" height="7.58789" fill="#E9EEF2"/>
<path d="M12.4637 14.375V11.9157H13.434C13.6205 11.9157 13.7794 11.9513 13.9107 12.0226C14.042 12.093 14.1421 12.1911 14.2109 12.3168C14.2806 12.4417 14.3154 12.5858 14.3154 12.7491C14.3154 12.9124 14.2802 13.0565 14.2097 13.1814C14.1393 13.3063 14.0372 13.4035 13.9035 13.4732C13.7706 13.5428 13.6097 13.5777 13.4208 13.5777H12.8024V13.161H13.3367C13.4368 13.161 13.5193 13.1438 13.5841 13.1093C13.6498 13.0741 13.6986 13.0257 13.7306 12.964C13.7634 12.9016 13.7798 12.8299 13.7798 12.7491C13.7798 12.6674 13.7634 12.5962 13.7306 12.5353C13.6986 12.4737 13.6498 12.4261 13.5841 12.3924C13.5185 12.358 13.4352 12.3408 13.3343 12.3408H12.9837V14.375H12.4637ZM15.4472 14.411C15.2607 14.411 15.0993 14.3714 14.9633 14.2921C14.828 14.2121 14.7235 14.1008 14.6498 13.9583C14.5762 13.815 14.5394 13.6489 14.5394 13.46C14.5394 13.2694 14.5762 13.1029 14.6498 12.9604C14.7235 12.8171 14.828 12.7059 14.9633 12.6266C15.0993 12.5466 15.2607 12.5065 15.4472 12.5065C15.6337 12.5065 15.7946 12.5466 15.9299 12.6266C16.066 12.7059 16.1709 12.8171 16.2445 12.9604C16.3182 13.1029 16.355 13.2694 16.355 13.46C16.355 13.6489 16.3182 13.815 16.2445 13.9583C16.1709 14.1008 16.066 14.2121 15.9299 14.2921C15.7946 14.3714 15.6337 14.411 15.4472 14.411ZM15.4496 14.0148C15.5344 14.0148 15.6053 13.9907 15.6621 13.9427C15.719 13.8939 15.7618 13.8274 15.7906 13.7434C15.8202 13.6593 15.835 13.5636 15.835 13.4564C15.835 13.3491 15.8202 13.2534 15.7906 13.1694C15.7618 13.0853 15.719 13.0189 15.6621 12.97C15.6053 12.9212 15.5344 12.8968 15.4496 12.8968C15.3639 12.8968 15.2919 12.9212 15.2334 12.97C15.1758 13.0189 15.1322 13.0853 15.1025 13.1694C15.0737 13.2534 15.0593 13.3491 15.0593 13.4564C15.0593 13.5636 15.0737 13.6593 15.1025 13.7434C15.1322 13.8274 15.1758 13.8939 15.2334 13.9427C15.2919 13.9907 15.3639 14.0148 15.4496 14.0148ZM17.1992 11.9157V14.375H16.6876V11.9157H17.1992ZM17.609 14.375V12.5305H18.1205V14.375H17.609ZM17.8659 12.2928C17.7899 12.2928 17.7246 12.2676 17.6702 12.2171C17.6166 12.1659 17.5897 12.1046 17.5897 12.0334C17.5897 11.963 17.6166 11.9025 17.6702 11.8521C17.7246 11.8008 17.7899 11.7752 17.8659 11.7752C17.942 11.7752 18.0068 11.8008 18.0605 11.8521C18.1149 11.9025 18.1421 11.963 18.1421 12.0334C18.1421 12.1046 18.1149 12.1659 18.0605 12.2171C18.0068 12.2676 17.942 12.2928 17.8659 12.2928ZM19.3637 14.411C19.1747 14.411 19.0122 14.371 18.8761 14.2909C18.7408 14.2101 18.6368 14.098 18.5639 13.9547C18.4919 13.8114 18.4558 13.6465 18.4558 13.46C18.4558 13.271 18.4923 13.1053 18.5651 12.9628C18.6388 12.8195 18.7432 12.7079 18.8785 12.6278C19.0138 12.547 19.1747 12.5065 19.3613 12.5065C19.5222 12.5065 19.6631 12.5357 19.7839 12.5942C19.9048 12.6526 20.0005 12.7347 20.0709 12.8404C20.1414 12.946 20.1802 13.0701 20.1874 13.2126H19.7047C19.6911 13.1205 19.6551 13.0465 19.5966 12.9905C19.539 12.9336 19.4633 12.9052 19.3697 12.9052C19.2904 12.9052 19.2212 12.9268 19.1619 12.97C19.1035 13.0125 19.0579 13.0745 19.025 13.1562C18.9922 13.2378 18.9758 13.3367 18.9758 13.4528C18.9758 13.5705 18.9918 13.6705 19.0238 13.753C19.0567 13.8354 19.1027 13.8983 19.1619 13.9415C19.2212 13.9847 19.2904 14.0063 19.3697 14.0063C19.4281 14.0063 19.4805 13.9943 19.527 13.9703C19.5742 13.9463 19.613 13.9115 19.6435 13.8659C19.6747 13.8194 19.6951 13.7638 19.7047 13.6989H20.1874C20.1794 13.8398 20.141 13.9639 20.0721 14.0712C20.0041 14.1777 19.91 14.2609 19.79 14.321C19.6699 14.381 19.5278 14.411 19.3637 14.411ZM21.3555 14.411C21.1658 14.411 21.0025 14.3726 20.8656 14.2957C20.7295 14.2181 20.6246 14.1084 20.551 13.9667C20.4773 13.8242 20.4405 13.6557 20.4405 13.4612C20.4405 13.2714 20.4773 13.1049 20.551 12.9616C20.6246 12.8183 20.7283 12.7067 20.862 12.6266C20.9965 12.5466 21.1542 12.5065 21.3351 12.5065C21.4568 12.5065 21.5701 12.5261 21.6749 12.5654C21.7806 12.6038 21.8727 12.6618 21.9511 12.7395C22.0304 12.8171 22.092 12.9148 22.1361 13.0325C22.1801 13.1494 22.2021 13.2863 22.2021 13.4432V13.5837H20.6446V13.2666H21.7206C21.7206 13.193 21.7046 13.1277 21.6725 13.0709C21.6405 13.0141 21.5961 12.9696 21.5392 12.9376C21.4832 12.9048 21.418 12.8884 21.3435 12.8884C21.2659 12.8884 21.197 12.9064 21.137 12.9424C21.0777 12.9776 21.0313 13.0253 20.9977 13.0853C20.9641 13.1446 20.9468 13.2106 20.946 13.2835V13.5849C20.946 13.6761 20.9629 13.755 20.9965 13.8214C21.0309 13.8879 21.0793 13.9391 21.1418 13.9751C21.2042 14.0112 21.2783 14.0292 21.3639 14.0292C21.4208 14.0292 21.4728 14.0212 21.52 14.0051C21.5673 13.9891 21.6077 13.9651 21.6413 13.9331C21.6749 13.9011 21.7006 13.8618 21.7182 13.8154L22.1913 13.8466C22.1673 13.9603 22.118 14.0596 22.0436 14.1444C21.9699 14.2285 21.8747 14.2941 21.7578 14.3414C21.6417 14.3878 21.5076 14.411 21.3555 14.411Z" fill="#1261A0"/>
</svg>
