<svg width="30" height="30" viewBox="0 0 30 30" fill="none" xmlns="http://www.w3.org/2000/svg">
<path d="M5 23.75V21.25H7.5V12.5C7.5 10.7708 8.02083 9.23458 9.0625 7.89125C10.1042 6.54792 11.4583 5.6675 13.125 5.25V2.5H16.875V5.25C18.5417 5.66667 19.8958 6.54708 20.9375 7.89125C21.9792 9.23542 22.5 10.7717 22.5 12.5V21.25H25V23.75H5ZM15 27.5C14.3125 27.5 13.7242 27.2554 13.235 26.7663C12.7458 26.2771 12.5008 25.6883 12.5 25H17.5C17.5 25.6875 17.2554 26.2763 16.7662 26.7663C16.2771 27.2563 15.6883 27.5008 15 27.5Z" />
<path d="M16.2903 10.5455L16.0502 17.0455H13.9451L13.7051 10.5455H16.2903ZM14.9977 20.1477C14.6407 20.1477 14.3345 20.0231 14.079 19.7738C13.8266 19.5214 13.702 19.2152 13.7051 18.8551C13.702 18.5043 13.8266 18.2042 14.079 17.9549C14.3345 17.7056 14.6407 17.581 14.9977 17.581C15.3362 17.581 15.6348 17.7056 15.8933 17.9549C16.1549 18.2042 16.2872 18.5043 16.2903 18.8551C16.2872 19.0952 16.2241 19.3137 16.101 19.5107C15.981 19.7045 15.824 19.86 15.6301 19.9769C15.4363 20.0908 15.2254 20.1477 14.9977 20.1477Z" fill="white"/>
</svg>
