<svg width="66" height="66" viewBox="0 0 50 50" fill="none" xmlns="http://www.w3.org/2000/svg">
<path d="M62.2366 13.1113H33.8371C33.6251 13.1113 33.4217 13.1956 33.2718 13.3455C33.1218 13.4954 33.0376 13.6988 33.0376 13.9108V22.4353C33.0376 22.6475 33.1218 22.851 33.2717 23.0012C33.4216 23.1514 33.6249 23.2359 33.8371 23.2363H62.2366C62.3418 23.2363 62.4459 23.2156 62.5431 23.1754C62.6403 23.1351 62.7286 23.0761 62.803 23.0017C62.8774 22.9273 62.9364 22.839 62.9766 22.7419C63.0169 22.6447 63.0376 22.5405 63.0376 22.4353V13.9108C63.0372 13.6986 62.9526 13.4953 62.8025 13.3454C62.6523 13.1955 62.4488 13.1113 62.2366 13.1113ZM62.2876 21.7813C62.2876 21.9938 62.2032 22.1975 62.053 22.3477C61.9028 22.4979 61.699 22.5823 61.4866 22.5823H34.5061C34.2939 22.5819 34.0906 22.4974 33.9407 22.3472C33.7908 22.197 33.7066 21.9935 33.7066 21.7813V14.5963C33.7066 14.3841 33.7908 14.1806 33.9407 14.0305C34.0906 13.8803 34.2939 13.7957 34.5061 13.7953H61.4866C61.699 13.7953 61.9028 13.8797 62.053 14.0299C62.2032 14.1802 62.2876 14.3839 62.2876 14.5963V21.7813ZM60.0526 14.3323H58.5376C58.7292 14.5066 58.9791 14.6029 59.2381 14.6023C59.5319 14.6041 59.818 14.5092 60.0526 14.3323ZM59.3866 20.0338C58.7296 20.0338 58.2646 20.6113 58.2646 21.4198C58.2648 21.6277 58.312 21.8328 58.4026 22.0198H60.4876C60.5322 21.9397 60.5544 21.849 60.5521 21.7573C60.5551 20.7793 60.1921 20.0338 59.3866 20.0338ZM61.4326 14.3338H61.1671C61.1194 15.1419 60.7873 15.9071 60.2296 16.4938C59.7779 16.9222 59.1984 17.1909 58.5796 17.2588C58.3446 17.2963 58.1064 17.3104 57.8686 17.3008V16.6708C58.0765 16.6818 58.2849 16.6728 58.4911 16.6438C58.9364 16.5887 59.3534 16.3957 59.6836 16.0918C60.1015 15.6889 60.3666 15.1534 60.4336 14.5768H60.4051C60.2428 14.7744 60.0374 14.9323 59.8048 15.0384C59.5721 15.1445 59.3182 15.1959 59.0626 15.1888C58.7668 15.1953 58.4751 15.1186 58.2208 14.9675C57.9665 14.8163 57.7597 14.5968 57.6241 14.3338H57.2656C57.1616 14.3338 57.0619 14.375 56.9882 14.4484C56.9146 14.5218 56.873 14.6214 56.8726 14.7253V21.6253C56.8726 21.7296 56.914 21.8295 56.9877 21.9032C57.0614 21.9769 57.1614 22.0183 57.2656 22.0183H57.5956C57.5003 21.725 57.4755 21.4132 57.5233 21.1085C57.5711 20.8038 57.69 20.5146 57.8705 20.2644C58.0509 20.0143 58.2878 19.8102 58.5619 19.6687C58.836 19.5273 59.1396 19.4525 59.4481 19.4503C60.6136 19.4503 61.3321 20.3968 61.3321 21.8503C61.3321 21.9103 61.3201 21.9568 61.3171 22.0153H61.4326C61.5368 22.0153 61.6368 21.9739 61.7105 21.9002C61.7842 21.8265 61.8256 21.7266 61.8256 21.6223V14.7253C61.8256 14.6211 61.7842 14.5211 61.7105 14.4474C61.6368 14.3737 61.5368 14.3338 61.4326 14.3338ZM55.7551 14.3323H51.5881C51.4841 14.3323 51.3844 14.3735 51.3107 14.4469C51.2371 14.5203 51.1955 14.6199 51.1951 14.7238V21.6238C51.1951 21.7281 51.2365 21.828 51.3102 21.9017C51.3839 21.9754 51.4839 22.0168 51.5881 22.0168H55.7551C55.8593 22.0168 55.9593 21.9754 56.033 21.9017C56.1067 21.828 56.1481 21.7281 56.1481 21.6238V14.7238C56.1481 14.6196 56.1067 14.5196 56.033 14.4459C55.9593 14.3722 55.8593 14.3308 55.7551 14.3308M55.5496 15.7918L53.0686 20.9818H52.2736L54.7426 15.9418V15.9223H51.9556V15.2833H55.5556L55.5496 15.7918ZM50.0551 14.3293H45.8851C45.7809 14.3293 45.6809 14.3707 45.6072 14.4444C45.5335 14.5181 45.4921 14.6181 45.4921 14.7223V21.6223C45.4921 21.7266 45.5335 21.8265 45.6072 21.9002C45.6809 21.9739 45.7809 22.0153 45.8851 22.0153H50.0551C50.1593 22.0153 50.2593 21.9739 50.333 21.9002C50.4067 21.8265 50.4481 21.7266 50.4481 21.6223V14.7223C50.4481 14.6181 50.4067 14.5181 50.333 14.4444C50.2593 14.3707 50.1593 14.3293 50.0551 14.3293ZM47.5621 21.0793C47.043 21.0854 46.5318 20.9523 46.0816 20.6938L46.2916 20.0938C46.6745 20.3196 47.1088 20.4435 47.5531 20.4538C48.5446 20.4538 48.8521 19.8208 48.8431 19.3483C48.8341 18.5488 48.1141 18.2083 47.3701 18.2083H46.9411V17.6323H47.3701C47.9311 17.6323 48.6406 17.3428 48.6406 16.6693C48.6406 16.2193 48.3526 15.8083 47.6416 15.8083C47.2329 15.8207 46.8367 15.952 46.5016 16.1863L46.3066 15.6253C46.7498 15.3372 47.2675 15.185 47.7961 15.1873C48.9181 15.1873 49.4251 15.8533 49.4251 16.5373C49.4214 16.8461 49.3168 17.1452 49.1272 17.389C48.9376 17.6328 48.6735 17.8078 48.3751 17.8873V17.9038C48.7272 17.9549 49.0493 18.1309 49.2825 18.3996C49.5157 18.6684 49.6446 19.012 49.6456 19.3678C49.6366 20.2798 48.9271 21.0778 47.5606 21.0778L47.5621 21.0793ZM44.3746 14.3293H40.2076C40.156 14.3293 40.1049 14.3395 40.0572 14.3592C40.0095 14.379 39.9662 14.4079 39.9297 14.4444C39.8932 14.4809 39.8643 14.5243 39.8445 14.5719C39.8248 14.6196 39.8146 14.6707 39.8146 14.7223V21.6223C39.8146 21.6739 39.8248 21.725 39.8445 21.7727C39.8643 21.8204 39.8932 21.8637 39.9297 21.9002C39.9662 21.9367 40.0095 21.9657 40.0572 21.9854C40.1049 22.0052 40.156 22.0153 40.2076 22.0153H44.3746C44.4788 22.0153 44.5788 21.9739 44.6525 21.9002C44.7262 21.8265 44.7676 21.7266 44.7676 21.6223V14.7223C44.7676 14.6181 44.7262 14.5181 44.6525 14.4444C44.5788 14.3707 44.4788 14.3293 44.3746 14.3293ZM42.7771 20.9848H42.0271V16.0003H42.0151L41.0251 16.5358L40.8751 15.9478L42.1201 15.2818H42.7756L42.7771 20.9848ZM38.6971 14.3323H34.5301C34.4259 14.3323 34.3259 14.3737 34.2522 14.4474C34.1785 14.5211 34.1371 14.6211 34.1371 14.7253V21.6253C34.1371 21.7296 34.1785 21.8295 34.2522 21.9032C34.3259 21.9769 34.4259 22.0183 34.5301 22.0183H38.6956C38.7998 22.0183 38.8998 21.9769 38.9735 21.9032C39.0472 21.8295 39.0886 21.7296 39.0886 21.6253V14.7253C39.0886 14.6211 39.0472 14.5211 38.9735 14.4474C38.8998 14.3737 38.8013 14.3323 38.6971 14.3323ZM38.4301 20.9848H34.7941V20.5108L35.3941 19.9228C36.8491 18.5383 37.5091 17.8018 37.5151 16.9423C37.5308 16.7907 37.5122 16.6375 37.4607 16.4941C37.4091 16.3507 37.3259 16.2207 37.2173 16.1138C37.1087 16.0069 36.9774 15.9258 36.8331 15.8766C36.6889 15.8273 36.5354 15.8112 36.3841 15.8293C35.9379 15.8467 35.5111 16.0166 35.1751 16.3108L34.9291 15.7678C35.383 15.3905 35.9558 15.1859 36.5461 15.1903C36.7723 15.17 37.0003 15.198 37.2148 15.2724C37.4294 15.3468 37.6258 15.466 37.7908 15.622C37.9559 15.778 38.0859 15.9673 38.1724 16.1773C38.2588 16.3873 38.2996 16.6133 38.2921 16.8403C38.2921 17.8903 37.5286 18.7423 36.3271 19.9003L35.8771 20.3203V20.3503H38.4316L38.4301 20.9848Z" />
<path d="M15 29.25C16.4774 29.25 17.9403 28.959 19.3052 28.3936C20.6701 27.8283 21.9103 26.9996 22.955 25.955C23.9996 24.9103 24.8283 23.6701 25.3936 22.3052C25.959 20.9403 26.25 19.4774 26.25 18C26.25 16.5226 25.959 15.0597 25.3936 13.6948C24.8283 12.3299 23.9996 11.0897 22.955 10.045C21.9103 9.00039 20.6701 8.17172 19.3052 7.60636C17.9403 7.04099 16.4774 6.75 15 6.75C12.0163 6.75 9.15483 7.93526 7.04505 10.045C4.93526 12.1548 3.75 15.0163 3.75 18C3.75 20.9837 4.93526 23.8452 7.04505 25.955C9.15483 28.0647 12.0163 29.25 15 29.25ZM15 31.125C11.519 31.125 8.18064 29.7422 5.71922 27.2808C3.25781 24.8194 1.875 21.481 1.875 18C1.875 14.519 3.25781 11.1806 5.71922 8.71922C8.18064 6.25781 11.519 4.875 15 4.875C18.481 4.875 21.8194 6.25781 24.2808 8.71922C26.7422 11.1806 28.125 14.519 28.125 18C28.125 21.481 26.7422 24.8194 24.2808 27.2808C21.8194 29.7422 18.481 31.125 15 31.125Z" />
<path d="M5.625 18C5.625 15.5136 6.61272 13.129 8.37087 11.3709C10.129 9.61272 12.5136 8.625 15 8.625C17.4864 8.625 19.871 9.61272 21.6291 11.3709C23.3873 13.129 24.375 15.5136 24.375 18C24.375 18.2486 24.2762 18.4871 24.1004 18.6629C23.9246 18.8387 23.6861 18.9375 23.4375 18.9375C23.1889 18.9375 22.9504 18.8387 22.7746 18.6629C22.5988 18.4871 22.5 18.2486 22.5 18C22.5 16.0109 21.7098 14.1032 20.3033 12.6967C18.8968 11.2902 16.9891 10.5 15 10.5C13.0109 10.5 11.1032 11.2902 9.6967 12.6967C8.29018 14.1032 7.5 16.0109 7.5 18C7.5 18.2486 7.40123 18.4871 7.22541 18.6629C7.0496 18.8387 6.81114 18.9375 6.5625 18.9375C6.31386 18.9375 6.0754 18.8387 5.89959 18.6629C5.72377 18.4871 5.625 18.2486 5.625 18Z" />
<path d="M16.7119 21.3933C17.238 21.7975 17.6043 22.3746 17.7461 23.0227C17.8878 23.6708 17.7959 24.3482 17.4866 24.9351C17.1772 25.522 16.6704 25.9807 16.0556 26.23C15.4408 26.4793 14.7577 26.5033 14.1269 26.2977C13.4961 26.0921 12.9583 25.6701 12.6086 25.1064C12.2588 24.5426 12.1197 23.8734 12.2156 23.2169C12.3116 22.5604 12.6365 21.959 13.133 21.519C13.6295 21.0789 14.2655 20.8285 14.9288 20.8121L16.7156 15.3108C16.7527 15.1925 16.8128 15.0827 16.8925 14.9878C16.9723 14.8929 17.07 14.8147 17.1802 14.7578C17.2903 14.7009 17.4107 14.6665 17.5343 14.6564C17.6578 14.6464 17.7821 14.6609 17.9 14.6992C18.018 14.7375 18.1271 14.7988 18.2211 14.8796C18.3152 14.9604 18.3923 15.059 18.448 15.1697C18.5036 15.2805 18.5368 15.4012 18.5455 15.5249C18.5542 15.6485 18.5383 15.7727 18.4988 15.8902L16.7119 21.3914V21.3933ZM14.7094 24.5171C14.8266 24.5552 14.9502 24.5699 15.0731 24.5604C15.1959 24.5508 15.3157 24.5171 15.4256 24.4612C15.5355 24.4053 15.6332 24.3283 15.7134 24.2346C15.7935 24.1409 15.8543 24.0324 15.8925 23.9152C15.9307 23.798 15.9454 23.6744 15.9358 23.5515C15.9262 23.4286 15.8925 23.3088 15.8366 23.199C15.7807 23.0891 15.7037 22.9913 15.6101 22.9112C15.5164 22.8311 15.4078 22.7702 15.2906 22.7321C15.0539 22.655 14.7963 22.6751 14.5744 22.788C14.3525 22.9008 14.1846 23.0972 14.1075 23.3339C14.0304 23.5707 14.0505 23.8283 14.1634 24.0502C14.2763 24.272 14.4727 24.44 14.7094 24.5171Z" />
</svg>
