<svg width="26" height="26" viewBox="0 0 26 26" fill="none" xmlns="http://www.w3.org/2000/svg">
<path d="M13.3929 0.802734C15.0625 0.802734 16.6636 1.46596 17.8442 2.64652C19.0248 3.82708 19.688 5.42826 19.688 7.09782C19.688 8.76738 19.0248 10.3686 17.8442 11.5491C16.6636 12.7297 15.0625 13.3929 13.3929 13.3929C11.7233 13.3929 10.1222 12.7297 8.9416 11.5491C7.76105 10.3686 7.09782 8.76738 7.09782 7.09782C7.09782 5.42826 7.76105 3.82708 8.9416 2.64652C10.1222 1.46596 11.7233 0.802734 13.3929 0.802734ZM13.3929 16.5404C20.349 16.5404 25.9831 19.3575 25.9831 22.8355V25.9831H0.802734V22.8355C0.802734 19.3575 6.43683 16.5404 13.3929 16.5404Z" />
</svg>
