<svg width="27" height="21" viewBox="0 0 27 21" fill="none" xmlns="http://www.w3.org/2000/svg">
<path d="M11.0906 15.0938C11.6156 15.6187 12.2938 15.876 13.125 15.8655C13.9563 15.855 14.5688 15.554 14.9625 14.9625L20.5078 6.66094C20.7047 6.35469 20.6776 6.07556 20.4264 5.82356C20.1753 5.57156 19.8962 5.54444 19.5891 5.74219L11.2875 11.2875C10.6969 11.6813 10.3854 12.2828 10.353 13.0922C10.3206 13.9016 10.5665 14.5688 11.0906 15.0938ZM13.125 0C13.9125 0 14.6891 0.0656251 15.4547 0.196875C16.2203 0.328125 16.9641 0.535937 17.6859 0.820312C18.0359 0.951563 18.4078 1.19788 18.8016 1.55925C19.1953 1.92063 19.3047 2.26494 19.1297 2.59219C18.9547 2.92031 18.5609 3.13906 17.9484 3.24844C17.3359 3.35781 16.8438 3.34687 16.4719 3.21562C15.925 3.01875 15.3729 2.87131 14.8155 2.77331C14.2581 2.67531 13.6946 2.62587 13.125 2.625C10.2156 2.625 7.73806 3.64788 5.69231 5.69363C3.64656 7.73938 2.62413 10.2165 2.625 13.125C2.625 14.0437 2.751 14.9516 3.003 15.8484C3.255 16.7453 3.61025 17.5875 4.06875 18.375H22.1813C22.6844 17.5438 23.051 16.6797 23.2811 15.7828C23.5113 14.8859 23.6259 13.9562 23.625 12.9937C23.625 12.425 23.5756 11.8672 23.4767 11.3203C23.3778 10.7734 23.2304 10.2375 23.0344 9.7125C22.9031 9.34062 22.8813 8.97969 22.9688 8.62969C23.0563 8.27969 23.2531 7.98437 23.5594 7.74375C23.8438 7.525 24.1557 7.45937 24.4952 7.54688C24.8347 7.63438 25.0696 7.83125 25.2 8.1375C25.5281 8.90312 25.7797 9.68538 25.9547 10.4843C26.1297 11.2831 26.2281 12.0978 26.25 12.9281C26.2719 14.175 26.1297 15.3672 25.8234 16.5047C25.5172 17.6422 25.0688 18.725 24.4781 19.7531C24.2375 20.1469 23.9094 20.4531 23.4938 20.6719C23.0781 20.8906 22.6406 21 22.1813 21H4.06875C3.60938 21 3.17188 20.8906 2.75625 20.6719C2.34063 20.4531 2.0125 20.1469 1.77188 19.7531C1.20312 18.7687 0.765625 17.7244 0.459375 16.6202C0.153125 15.5159 0 14.3509 0 13.125C0 11.3094 0.34475 9.60881 1.03425 8.02331C1.72375 6.43781 2.66438 5.04875 3.85613 3.85613C5.04788 2.6635 6.44175 1.72288 8.03775 1.03425C9.63375 0.345625 11.3295 0.000875 13.125 0Z" />
</svg>
