<svg width="108" height="68" viewBox="0 0 108 68" fill="none" xmlns="http://www.w3.org/2000/svg">
<path d="M32.6054 7.38947H29C27.8954 7.38947 27 8.28491 27 9.38948V64C27 65.1046 27.8954 66 29 66H70.5439C71.6485 66 72.5439 65.1046 72.5439 64V61.9579M32.6054 7.38947H70.5439C71.6485 7.38947 72.5439 8.2849 72.5439 9.38947V61.9579M32.6054 7.38947V4C32.6054 2.89543 33.5008 2 34.6054 2H76.85C77.9546 2 78.85 2.89543 78.85 4V59.9579C78.85 61.0625 77.9546 61.9579 76.85 61.9579H72.5439M68.3399 61.9579H37.5101" stroke="#113870" stroke-width="2"/>
<rect x="36.7832" y="60.3181" width="33.2623" height="3.76246" fill="white"/>
<rect x="29.5801" y="59.5" width="40.6026" height="5" fill="#29A7E4" stroke="white"/>
<rect x="33.2888" y="61.2588" width="3.91321" height="1.20936" fill="white"/>
<rect x="41.1155" y="61.2588" width="3.91321" height="1.20936" fill="white"/>
<rect x="48.942" y="61.2588" width="3.91321" height="1.20936" fill="white"/>
<rect x="56.7679" y="61.2588" width="3.91321" height="1.20936" fill="white"/>
<rect x="64.5947" y="61.2588" width="3.91321" height="1.20936" fill="white"/>
<path d="M55.0938 43.6875C55.0938 43.3891 55.232 43.103 55.4782 42.892C55.7243 42.681 56.0582 42.5625 56.4062 42.5625H59.0312C59.3793 42.5625 59.7132 42.681 59.9593 42.892C60.2055 43.103 60.3438 43.3891 60.3438 43.6875V47.0625C60.3438 47.3609 60.2055 47.647 59.9593 47.858C59.7132 48.069 59.3793 48.1875 59.0312 48.1875H58.375V58.875C58.375 59.0242 58.3059 59.1673 58.1828 59.2727C58.0597 59.3782 57.8928 59.4375 57.7188 59.4375C57.5447 59.4375 57.3778 59.3782 57.2547 59.2727C57.1316 59.1673 57.0625 59.0242 57.0625 58.875V48.1875H56.4062C56.0582 48.1875 55.7243 48.069 55.4782 47.858C55.232 47.647 55.0938 47.3609 55.0938 47.0625V43.6875ZM54.1094 43.6875H46.8296C46.2323 43.6875 45.6529 43.862 45.187 44.1823C44.7211 44.5026 44.3965 44.9495 44.2669 45.4492L43.8482 47.0625H43.2812C43.1072 47.0625 42.9403 47.1218 42.8172 47.2273C42.6941 47.3327 42.625 47.4758 42.625 47.625C42.625 47.7742 42.6941 47.9173 42.8172 48.0227C42.9403 48.1282 43.1072 48.1875 43.2812 48.1875H43.5569L43.3403 49.0228C42.9253 49.2161 42.5789 49.5018 42.3375 49.8498C42.0961 50.1978 41.9687 50.5952 41.9688 51V56.625C41.9688 57.0726 42.1762 57.5018 42.5454 57.8182C42.9146 58.1347 43.4154 58.3125 43.9375 58.3125H44.5938C45.1159 58.3125 45.6167 58.1347 45.9859 57.8182C46.3551 57.5018 46.5625 57.0726 46.5625 56.625V56.0625H54.4375V56.625C54.4374 57.0239 54.6021 57.4099 54.9024 57.7146C55.2027 58.0193 55.6193 58.223 56.0781 58.2894V57.1121C55.9784 57.0628 55.8955 56.9917 55.8379 56.9062C55.7803 56.8207 55.75 56.7237 55.75 56.625V56.0625H56.0781V49.0116C55.7753 48.9744 55.4843 48.8854 55.2224 48.75H44.7552L45.5479 45.6934C45.6127 45.4436 45.775 45.2201 46.0078 45.06C46.2407 44.8998 46.5304 44.8125 46.8289 44.8125H54.1094V43.6875ZM43.2812 56.625V56.0625H45.25V56.625C45.25 56.7742 45.1809 56.9173 45.0578 57.0227C44.9347 57.1282 44.7678 57.1875 44.5938 57.1875H43.9375C43.7635 57.1875 43.5965 57.1282 43.4735 57.0227C43.3504 56.9173 43.2812 56.7742 43.2812 56.625ZM48.8594 53.8125C48.6853 53.8125 48.5184 53.7532 48.3953 53.6477C48.2723 53.5423 48.2031 53.3992 48.2031 53.25C48.2031 53.1008 48.2723 52.9577 48.3953 52.8523C48.5184 52.7468 48.6853 52.6875 48.8594 52.6875H52.1406C52.3147 52.6875 52.4816 52.7468 52.6047 52.8523C52.7277 52.9577 52.7969 53.1008 52.7969 53.25C52.7969 53.3992 52.7277 53.5423 52.6047 53.6477C52.4816 53.7532 52.3147 53.8125 52.1406 53.8125H48.8594ZM47.2188 51.8438C47.2188 52.0675 47.115 52.2821 46.9304 52.4404C46.7458 52.5986 46.4954 52.6875 46.2344 52.6875C45.9733 52.6875 45.7229 52.5986 45.5383 52.4404C45.3537 52.2821 45.25 52.0675 45.25 51.8438C45.25 51.62 45.3537 51.4054 45.5383 51.2471C45.7229 51.0889 45.9733 51 46.2344 51C46.4954 51 46.7458 51.0889 46.9304 51.2471C47.115 51.4054 47.2188 51.62 47.2188 51.8438ZM54.7656 51C55.0267 51 55.2771 51.0889 55.4617 51.2471C55.6463 51.4054 55.75 51.62 55.75 51.8438C55.75 52.0675 55.6463 52.2821 55.4617 52.4404C55.2771 52.5986 55.0267 52.6875 54.7656 52.6875C54.5046 52.6875 54.2542 52.5986 54.0696 52.4404C53.885 52.2821 53.7812 52.0675 53.7812 51.8438C53.7812 51.62 53.885 51.4054 54.0696 51.2471C54.2542 51.0889 54.5046 51 54.7656 51Z" fill="#113870"/>
<path d="M34.1429 13C32.9609 13 32 13.8969 32 15V25C32 26.1031 32.9609 27 34.1429 27H44.8571C46.0391 27 47 26.1031 47 25V15C47 13.8969 46.0391 13 44.8571 13H34.1429ZM38.4286 20H40.0357C40.6283 20 41.1071 19.5531 41.1071 19C41.1071 18.4469 40.6283 18 40.0357 18H38.4286V20ZM40.0357 22H38.4286V23C38.4286 23.5531 37.9498 24 37.3571 24C36.7645 24 36.2857 23.5531 36.2857 23V17.25C36.2857 16.5594 36.885 16 37.625 16H40.0357C41.8103 16 43.25 17.3438 43.25 19C43.25 20.6562 41.8103 22 40.0357 22Z" fill="#29A7E4"/>
<path d="M61.3333 15.625H56.6667C54.0903 15.625 52 17.6266 52 20.0938C52 22.5609 54.0903 24.5625 56.6667 24.5625H61.3333C63.9097 24.5625 66 22.5609 66 20.0938C66 17.6266 63.9097 15.625 61.3333 15.625ZM61.3333 23.0729C59.6125 23.0729 58.2222 21.7393 58.2222 20.0938C58.2222 18.4459 59.6149 17.1146 61.3333 17.1146C63.0542 17.1146 64.4444 18.4482 64.4444 20.0938C64.4444 21.7416 63.0517 23.0729 61.3333 23.0729Z" fill="#29A7E4"/>
</svg>
