<svg width="30" height="30" viewBox="0 0 30 30" fill="none" xmlns="http://www.w3.org/2000/svg">
<path d="M22.5 12.5C22.1685 12.5 21.8505 12.3683 21.6161 12.1339C21.3817 11.8995 21.25 11.5815 21.25 11.25C21.25 10.9185 21.3817 10.6005 21.6161 10.3661C21.8505 10.1317 22.1685 10 22.5 10C22.8315 10 23.1495 10.1317 23.3839 10.3661C23.6183 10.6005 23.75 10.9185 23.75 11.25C23.75 11.5815 23.6183 11.8995 23.3839 12.1339C23.1495 12.3683 22.8315 12.5 22.5 12.5ZM15 12.5H7.5V6.25H15M24.7125 9.0375L24.725 9.025L20.075 4.375L18.75 5.7L21.3875 8.3375C20.2125 8.75 19.375 9.9125 19.375 11.25C19.375 11.6604 19.4558 12.0667 19.6129 12.4459C19.7699 12.825 20.0001 13.1695 20.2903 13.4597C20.8763 14.0458 21.6712 14.375 22.5 14.375C22.95 14.375 23.3625 14.275 23.75 14.1125V23.125C23.75 23.4565 23.6183 23.7745 23.3839 24.0089C23.1495 24.2433 22.8315 24.375 22.5 24.375C22.1685 24.375 21.8505 24.2433 21.6161 24.0089C21.3817 23.7745 21.25 23.4565 21.25 23.125V17.5C21.25 16.837 20.9866 16.2011 20.5178 15.7322C20.0489 15.2634 19.413 15 18.75 15H17.5V6.25C17.5 5.58696 17.2366 4.95107 16.7678 4.48223C16.2989 4.01339 15.663 3.75 15 3.75H7.5C6.1125 3.75 5 4.8625 5 6.25V26.25H17.5V16.875H19.375V23.125C19.375 23.9538 19.7042 24.7487 20.2903 25.3347C20.8763 25.9208 21.6712 26.25 22.5 26.25C22.9104 26.25 23.3167 26.1692 23.6959 26.0121C24.075 25.8551 24.4195 25.6249 24.7097 25.3347C24.9999 25.0445 25.2301 24.7 25.3871 24.3209C25.5442 23.9417 25.625 23.5354 25.625 23.125V11.25C25.625 10.3875 25.275 9.6 24.7125 9.0375Z" fill="#29A7E4"/>
</svg>
