<svg width="24" height="24" viewBox="0 0 24 24" fill="none" xmlns="http://www.w3.org/2000/svg">
<path d="M18.3282 22.4996C17.4132 22.4996 16.1278 22.1686 14.2032 21.0933C11.8627 19.7808 10.0524 18.5691 7.72457 16.2474C5.48019 14.0044 4.388 12.5522 2.85941 9.77066C1.13254 6.63003 1.42691 4.98378 1.75597 4.28019C2.14785 3.43925 2.72629 2.93628 3.47394 2.43707C3.89861 2.15883 4.34801 1.92032 4.81644 1.72457C4.86332 1.70441 4.90691 1.68519 4.94582 1.66785C5.17785 1.56332 5.52941 1.40535 5.97472 1.5741C6.27191 1.68566 6.53722 1.91394 6.95254 2.3241C7.80425 3.1641 8.96816 5.03488 9.39754 5.95363C9.68582 6.57285 9.8766 6.9816 9.87707 7.44003C9.87707 7.97675 9.60707 8.39066 9.27941 8.83738C9.218 8.92128 9.15707 9.00144 9.098 9.07925C8.74129 9.548 8.663 9.68347 8.71457 9.92535C8.8191 10.4114 9.59863 11.8585 10.8797 13.1368C12.1608 14.415 13.5661 15.1453 14.0541 15.2494C14.3063 15.3033 14.4446 15.2218 14.9283 14.8524C14.9977 14.7994 15.0689 14.7446 15.1435 14.6897C15.6432 14.318 16.0378 14.055 16.5619 14.055H16.5647C17.0208 14.055 17.4113 14.2528 18.0582 14.5791C18.9019 15.0047 20.8289 16.1536 21.6741 17.0063C22.0852 17.4207 22.3144 17.685 22.4264 17.9818C22.5952 18.4285 22.4363 18.7786 22.3327 19.013C22.3153 19.0519 22.2961 19.0946 22.276 19.1419C22.0787 19.6095 21.8387 20.058 21.5593 20.4816C21.061 21.2269 20.5561 21.8039 19.7133 22.1963C19.2805 22.401 18.8069 22.5047 18.3282 22.4996Z" fill="white"/>
</svg>
