<svg width="21" height="24" viewBox="0 0 21 24" fill="none" xmlns="http://www.w3.org/2000/svg">
<path d="M15.094 16.7998L14.1689 18.5392L18.6981 17.7988C17.7841 17.3403 16.5468 17.0127 15.094 16.7998ZM3.42673 17.179C1.32898 17.7323 0 18.6388 0 19.9853C0.000863771 20.2752 0.0642285 20.5615 0.185773 20.8247L7.4547 19.6366L3.42673 17.179ZM20.2311 19.2L10.1143 20.8489L12.7824 23.8842C17.1636 23.4917 20.4015 22.0922 20.4015 19.9853C20.4015 19.7045 20.341 19.4434 20.2311 19.2ZM8.40493 21.1336L1.56923 22.2508C3.37608 23.37 6.56519 24.0003 10.2007 24.0003C10.4211 24.0003 10.6364 23.9941 10.8533 23.9895L8.40493 21.1336Z" />
<path d="M10.2004 0C6.28812 0 3.07812 3.20015 3.07812 7.10355C3.07812 8.60414 3.55504 10.002 4.3603 11.1514L8.97679 19.132L8.99647 19.1577C9.17864 19.3956 9.3565 19.5833 9.56531 19.7213C9.77413 19.8595 10.0333 19.9421 10.2878 19.9166C10.7961 19.8658 11.1074 19.5067 11.4029 19.1063L11.4187 19.0857L16.5153 10.4112L16.5181 10.4057C16.6377 10.1897 16.726 9.96984 16.8009 9.75574C17.1447 8.91377 17.3215 8.01301 17.3217 7.10355C17.3217 3.20015 14.1127 0 10.2004 0ZM10.2004 4.09109C11.8976 4.09109 13.2222 5.41335 13.2222 7.10331C13.2222 8.79375 11.8976 10.1155 10.2004 10.1155C8.503 10.1155 7.17762 8.79351 7.17762 7.10331C7.17762 5.41359 8.50324 4.09109 10.2004 4.09109Z" />
</svg>
