<svg width="30" height="30" viewBox="0 0 30 30" fill="none" xmlns="http://www.w3.org/2000/svg">
<path d="M15 12.5C15 12.5 20 11.5 20 9.5C20 8.5 19 6.5 19 5.5C19 4.5 20 3.5 20 3.5L19 2.5C18.425 2.825 17.7 3 17 3C16.3 3 15.575 2.8125 15 2.5C14.425 2.8125 13.7 3 13 3C12.3 3 11.575 2.825 11 2.5L10 3.5C10 3.5 11 4.5 11 5.5C11 6.5 10 8.5 10 9.5C10 11.5 15 12.5 15 12.5ZM14.2875 6.65L15 5L15.6875 6.65L17.5 6.8L16.1125 7.975L16.525 9.725L15 8.8L13.45 9.725L13.8625 7.975L12.5 6.8L14.2875 6.65ZM26.25 7.5H20.8125C21.05 8.225 21.25 8.9 21.25 9.5C21.25 12.3125 16.65 13.45 15.25 13.75H14.75C13.35 13.45 8.75 12.3125 8.75 9.5C8.75 8.9 8.95 8.225 9.1875 7.5H3.75C3.0625 7.5 2.5 8.0625 2.5 8.75V27.5H12.5V21.25H17.5V27.5H27.5V8.75C27.5 8.0625 26.9375 7.5 26.25 7.5ZM10 25H5V21.25H10V25ZM10 18.75H5V15H10V18.75ZM17.5 18.75H12.5V15H17.5V18.75ZM25 25H20V21.25H25V25ZM25 18.75H20V15H25V18.75Z" fill="#29A7E4"/>
</svg>
