<?xml version="1.0" encoding="UTF-8"?>
<!DOCTYPE svg PUBLIC "-//W3C//DTD SVG 1.1//EN" "http://www.w3.org/Graphics/SVG/1.1/DTD/svg11.dtd">
<!-- Creator: CorelDRAW -->
<svg xmlns="http://www.w3.org/2000/svg" xml:space="preserve" width="4.72917in" height="4.72919in" style="shape-rendering:geometricPrecision; text-rendering:geometricPrecision; image-rendering:optimizeQuality; fill-rule:evenodd; clip-rule:evenodd"
viewBox="0 0 4.51817 4.51818"
 xmlns:xlink="http://www.w3.org/1999/xlink">
 <defs>
  <style type="text/css">
   <![CDATA[
    .str0 {stroke:#011947;stroke-width:0.00663126}
    .fil0 {fill:none}
    .fil2 {fill:#011947}
    .fil1 {fill:white}
    .fil8 {fill:#0B9ACD}
    .fil3 {fill:#5FA44F}
    .fil7 {fill:#A83345}
    .fil6 {fill:#D13539}
    .fil5 {fill:#E96B37}
    .fil4 {fill:#F6C92D}
   ]]>
  </style>
 </defs>
 <g id="Layer_x0020_1">
  <metadata id="CorelCorpID_0Corel-Layer"/>
  <rect class="fil0" x="0.00227733" y="0.00331648" width="4.51362" height="4.51362"/>
  <g id="_239141528">
   <path id="_248412400" class="fil1" d="M2.25909 0.266973c1.10019,0 1.99209,0.891925 1.99209,1.99212 0,1.10019 -0.891895,1.99209 -1.99209,1.99209 -1.10021,0 -1.9921,-0.891895 -1.9921,-1.99209 0,-1.10019 0.891895,-1.99212 1.9921,-1.99212z"/>
   <path id="_247965936" class="fil2" d="M2.4336 1.97415c0.168358,0.097197 0.226046,0.312482 0.128834,0.480843 -0.097197,0.168343 -0.312482,0.226016 -0.480843,0.128834 -0.168362,-0.097197 -0.226046,-0.312497 -0.128834,-0.480843 0.097197,-0.168373 0.312482,-0.226061 0.480843,-0.128834zm-0.0852133 0.147573c0.0868495,0.0501388 0.116598,0.161196 0.0664593,0.248042 -0.0501388,0.0868495 -0.161196,0.116613 -0.248042,0.0664743 -0.0868495,-0.0501538 -0.116602,-0.161193 -0.0664593,-0.248042 0.0501388,-0.0868646 0.161193,-0.116598 0.248042,-0.0664743z"/>
   <path id="_247965960" class="fil3" d="M1.01672 1.10814c0.441981,-0.443707 0.977074,-0.535891 1.5506,-0.517904 -0.406805,0.326767 -0.646564,0.652665 -0.795875,1.32751l-0.227539 -0.73036 -0.527191 -0.0792441z"/>
   <path id="_247965984" class="fil4" d="M2.65114 0.618907c0.605254,0.160899 0.952618,0.578232 1.22382,1.08392 -0.486403,-0.188914 -0.888521,-0.233583 -1.54761,-0.0254756l0.518746 -0.562239 -0.194954 -0.496205z"/>
   <path id="_247966008" class="fil5" d="M3.89202 1.78975c0.163273,0.604607 -0.024445,1.11409 -0.326786,1.60182 -0.0795788,-0.515696 -0.241952,-0.886294 -0.751736,-1.35303l0.746297 0.16814 0.332225 -0.416934z"/>
   <path id="_247966032" class="fil6" d="M3.4985 3.4498c-0.441981,0.443722 -0.977078,0.535891 -1.55061,0.517919 0.406805,-0.326782 0.646549,-0.652711 0.795864,-1.32755l0.22755 0.730379 0.527194 0.0792554z"/>
   <path id="_247966056" class="fil7" d="M1.86408 3.939c-0.605257,-0.160899 -0.952622,-0.578202 -1.22382,-1.08389 0.486399,0.188925 0.888517,0.233595 1.54761,0.0254719l-0.518761 0.562254 0.194969 0.496159z"/>
   <path id="_247966080" class="fil2 str0" d="M2.25909 0.00331751c1.24579,0 2.25576,1.00997 2.25576,2.25577 0,1.2458 -1.00997,2.25577 -2.25576,2.25577 -1.24581,0 -2.25577,-1.00997 -2.25577,-2.25577 0,-1.24581 1.00997,-2.25577 2.25577,-2.25577zm0 0.263655c1.10019,0 1.99209,0.891925 1.99209,1.99212 0,1.10019 -0.891895,1.99209 -1.99209,1.99209 -1.10019,0 -1.9921,-0.891895 -1.9921,-1.99209 0,-1.10019 0.89191,-1.99212 1.9921,-1.99212z"/>
   <path id="_243071544" class="fil8" d="M0.623199 2.76819c-0.163276,-0.604637 0.0244412,-1.11411 0.326767,-1.60181 0.0795939,0.515681 0.241971,0.886249 0.751754,1.35298l-0.7463 -0.16811 -0.332221 0.416934z"/>
   <path id="_248414424" class="fil5" d="M2.72919 2.0067c0.0126193,0.0218497 0.00513048,0.0497702 -0.0167154,0.0624045 -0.0218497,0.0126043 -0.049789,0.00511543 -0.0623932,-0.0167305 -0.0126193,-0.0218497 -0.00513048,-0.0497739 0.0167192,-0.0624083 0.0218497,-0.0125892 0.0497852,-0.00511543 0.0623895,0.0167342z"/>
   <path id="_247410096" class="fil6" d="M2.72919 2.55126c-0.0126043,0.0218497 -0.0405398,0.0293385 -0.0623895,0.0167041 -0.0218497,-0.0125892 -0.0293385,-0.0405285 -0.0167192,-0.0623895 0.0126043,-0.0218647 0.0405436,-0.0293385 0.0623932,-0.0167192 0.0218459,0.0126043 0.0293348,0.0405549 0.0167154,0.0624045z"/>
   <path id="_244539496" class="fil7" d="M2.25759 2.82354c-0.0252236,0 -0.0456741,-0.0204617 -0.0456741,-0.0457004 0,-0.0252274 0.0204505,-0.045659 0.0456741,-0.045659 0.0252386,0 0.0456853,0.0204316 0.0456853,0.045659 0,0.0252386 -0.0204467,0.0457004 -0.0456853,0.0457004z"/>
   <path id="_244539592" class="fil8" d="M1.786 2.55126c-0.0126193,-0.0218497 -0.00513048,-0.0498003 0.0167192,-0.0624045 0.0218497,-0.0126193 0.0497852,-0.00514552 0.0623895,0.0167192 0.0126193,0.021861 0.00513048,0.0498003 -0.0167154,0.0623895 -0.0218497,0.0126344 -0.049789,0.00514552 -0.0623932,-0.0167041z"/>
   <path id="_244539688" class="fil3" d="M1.786 2.0067c0.0126043,-0.0218497 0.0405436,-0.0293235 0.0623932,-0.0167342 0.0218459,0.0126344 0.0293348,0.0405586 0.0167154,0.0624083 -0.0126043,0.0218459 -0.0405398,0.0293348 -0.0623895,0.0167305 -0.0218497,-0.0126344 -0.0293385,-0.0405549 -0.0167192,-0.0624045z"/>
   <path id="_394998352" class="fil4" d="M2.25759 1.73442c0.0252386,0 0.0456853,0.0204467 0.0456853,0.0456741 0,0.0252386 -0.0204467,0.0457004 -0.0456853,0.0457004 -0.0252236,0 -0.0456741,-0.0204617 -0.0456741,-0.0457004 0,-0.0252274 0.0204505,-0.0456741 0.0456741,-0.0456741z"/>
  </g>
 </g>
</svg>
