<?xml version="1.0" encoding="UTF-8"?>
<!DOCTYPE svg PUBLIC "-//W3C//DTD SVG 1.1//EN" "http://www.w3.org/Graphics/SVG/1.1/DTD/svg11.dtd">
<!-- Creator: CorelDRAW -->
<svg xmlns="http://www.w3.org/2000/svg" xml:space="preserve" width="4.72917in" height="4.72919in" style="shape-rendering:geometricPrecision; text-rendering:geometricPrecision; image-rendering:optimizeQuality; fill-rule:evenodd; clip-rule:evenodd"
viewBox="0 0 5.26404 5.26406"
 xmlns:xlink="http://www.w3.org/1999/xlink">
 <defs>
  <style type="text/css">
   <![CDATA[
    .str0 {stroke:#011947;stroke-width:0.00772597}
    .fil0 {fill:none}
    .fil2 {fill:#373435}
    .fil3 {fill:#4B4B4D}
    .fil4 {fill:#606062}
    .fil5 {fill:#727376}
    .fil6 {fill:#848688}
    .fil7 {fill:#96989A}
    .fil8 {fill:#A9ABAE}
    .fil1 {fill:white}
   ]]>
  </style>
 </defs>
 <g id="Layer_x0020_1">
  <metadata id="CorelCorpID_0Corel-Layer"/>
  <rect class="fil0" x="0.00265328" y="0.00386397" width="5.25874" height="5.25874"/>
  <path class="fil1" d="M2.63203 0.311046c1.28181,0 2.32095,1.03917 2.32095,2.32099 0,1.28181 -1.03913,2.32095 -2.32095,2.32095 -1.28184,0 -2.32097,-1.03913 -2.32097,-2.32095 0,-1.28182 1.03913,-2.32099 2.32097,-2.32099z"/>
  <path class="fil2" d="M2.83535 2.30005c0.196151,0.113243 0.263362,0.364067 0.150102,0.560223 -0.113243,0.196134 -0.364067,0.263327 -0.560223,0.150102 -0.196155,-0.113243 -0.263362,-0.364085 -0.150102,-0.560223 0.113243,-0.196169 0.364067,-0.26338 0.560223,-0.150102zm-0.0992807 0.171935c0.101187,0.0584159 0.135846,0.187807 0.0774306,0.28899 -0.0584159,0.101187 -0.187807,0.135864 -0.28899,0.0774481 -0.101187,-0.0584334 -0.135851,-0.187803 -0.0774306,-0.28899 0.0584159,-0.101204 0.187803,-0.135846 0.28899,-0.0774481z"/>
  <path class="fil3" d="M1.18457 1.29107c0.514945,-0.516956 1.13837,-0.624357 1.80658,-0.603401 -0.473962,0.380711 -0.753302,0.76041 -0.927261,1.54666l-0.265102 -0.85093 -0.614221 -0.092326z"/>
  <path class="fil4" d="M3.0888 0.721079c0.705171,0.187461 1.10988,0.673689 1.42586,1.26286 -0.5667,-0.2201 -1.0352,-0.272144 -1.8031,-0.0296812l0.604383 -0.655055 -0.227138 -0.57812z"/>
  <path class="fil5" d="M4.53453 2.08521c0.190226,0.704417 -0.0284805,1.29801 -0.380733,1.86626 -0.092716,-0.600829 -0.281895,-1.03261 -0.875835,-1.57639l0.869498 0.195897 0.38707 -0.485763z"/>
  <path class="fil6" d="M4.07604 4.01931c-0.514945,0.516974 -1.13838,0.624357 -1.80659,0.603419 0.473962,-0.380729 0.753284,-0.760462 0.927248,-1.54671l0.265115 0.850952 0.614225 0.0923391z"/>
  <path class="fil7" d="M2.17181 4.58927c-0.705175,-0.187461 -1.10988,-0.673654 -1.42586,-1.26282 0.566695,0.220113 1.0352,0.272157 1.8031,0.0296768l-0.6044 0.655073 0.227156 0.578067z"/>
  <path class="fil2 str0" d="M2.63203 0.00386518c1.45145,0 2.62814,1.1767 2.62814,2.62817 0,1.45147 -1.1767,2.62816 -2.62814,2.62816 -1.45147,0 -2.62817,-1.1767 -2.62817,-2.62816 0,-1.45147 1.1767,-2.62817 2.62817,-2.62817zm0 0.307181c1.28181,0 2.32095,1.03917 2.32095,2.32099 0,1.28181 -1.03913,2.32095 -2.32095,2.32095 -1.28182,0 -2.32097,-1.03913 -2.32097,-2.32095 0,-1.28182 1.03915,-2.32099 2.32097,-2.32099z"/>
  <path class="fil8" d="M0.726079 3.22518c-0.190231,-0.704452 0.0284761,-1.29803 0.380711,-1.86624 0.0927335,0.600811 0.281917,1.03255 0.875857,1.57634l-0.869502 -0.195862 -0.387065 0.485763z"/>
  <path class="fil5" d="M3.17973 2.33797c0.0147026,0.0254567 0.00597744,0.0579864 -0.0194749,0.0727065 -0.0254567,0.014685 -0.0580083,0.00595991 -0.0726933,-0.0194924 -0.0147026,-0.0254567 -0.00597744,-0.0579908 0.0194793,-0.0727109 0.0254567,-0.0146675 0.0580039,-0.00595991 0.072689,0.0194968z"/>
  <path class="fil6" d="M3.17973 2.97243c-0.014685,0.0254567 -0.0472323,0.0341818 -0.072689,0.0194617 -0.0254567,-0.0146675 -0.0341818,-0.0472191 -0.0194793,-0.072689 0.014685,-0.0254742 0.0472367,-0.0341818 0.0726933,-0.0194793 0.0254523,0.014685 0.0341774,0.0472498 0.0194749,0.0727065z"/>
  <path class="fil7" d="M2.63028 3.28966c-0.0293876,0 -0.0532141,-0.0238396 -0.0532141,-0.0532448 0,-0.029392 0.0238265,-0.0531966 0.0532141,-0.0531966 0.0294051,0 0.0532272,0.0238046 0.0532272,0.0531966 0,0.0294051 -0.0238221,0.0532448 -0.0532272,0.0532448z"/>
  <path class="fil8" d="M2.08084 2.97243c-0.0147026,-0.0254567 -0.00597744,-0.0580215 0.0194793,-0.0727065 0.0254567,-0.0147026 0.0580039,-0.00599497 0.072689,0.0194793 0.0147026,0.0254698 0.00597744,0.0580215 -0.0194749,0.072689 -0.0254567,0.0147201 -0.0580083,0.00599497 -0.0726933,-0.0194617z"/>
  <path class="fil3" d="M2.08084 2.33797c0.014685,-0.0254567 0.0472367,-0.0341643 0.0726933,-0.0194968 0.0254523,0.0147201 0.0341774,0.0472542 0.0194749,0.0727109 -0.014685,0.0254523 -0.0472323,0.0341774 -0.072689,0.0194924 -0.0254567,-0.0147201 -0.0341818,-0.0472498 -0.0194793,-0.0727065z"/>
  <path class="fil4" d="M2.63028 2.02074c0.0294051,0 0.0532272,0.0238221 0.0532272,0.0532141 0,0.0294051 -0.0238221,0.0532448 -0.0532272,0.0532448 -0.0293876,0 -0.0532141,-0.0238396 -0.0532141,-0.0532448 0,-0.029392 0.0238265,-0.0532141 0.0532141,-0.0532141z"/>
 </g>
</svg>
