<svg width="30" height="30" viewBox="0 0 30 30" fill="none" xmlns="http://www.w3.org/2000/svg">
<g clip-path="url(#clip0_2369_30981)">
<path d="M26.4426 0.337109C26.4426 0.337109 3.57327 0.330078 3.57983 0.337109C1.47187 0.337109 0.286865 1.42695 0.286865 3.65305V26.6059C0.286865 28.6885 1.35233 29.7788 3.45843 29.7788H26.5083C28.6144 29.7788 29.6812 28.7429 29.6812 26.6059V3.65305C29.6817 1.48086 28.6148 0.337109 26.4426 0.337109ZM14.4136 10.9566C14.4136 11.6766 13.7578 12.4477 12.9066 12.4477V24.6048C12.9066 26.3307 10.5544 26.3307 10.5544 24.6048V12.4477C9.72608 12.4477 9.00468 11.8098 9.00468 10.854V4.16352C9.00468 3.58133 9.84608 3.55883 9.84608 4.18648V9.1318H10.5506V4.14055C10.5506 3.6057 11.3611 3.57148 11.3611 4.16352V9.1318H12.0891V4.14758C12.0891 3.58836 12.8756 3.56586 12.8756 4.16961V9.1318H13.5919V4.14758C13.5919 3.59445 14.4136 3.57242 14.4136 4.16961V10.9566ZM20.6883 24.5991C20.6883 26.2871 18.3314 26.2618 18.3314 24.5991V17.1076H17.0766V5.71836C17.0766 3.06711 20.6887 3.06711 20.6887 5.71836V24.5991H20.6883Z" fill="#29A7E4"/>
</g>
<defs>
<clipPath id="clip0_2369_30981">
<rect width="30" height="30" fill="white"/>
</clipPath>
</defs>
</svg>
