<svg width="22" height="22" viewBox="0 0 22 22" fill="none" xmlns="http://www.w3.org/2000/svg">
<path d="M7.33181 21.556C6.02811 21.556 4.91206 21.0918 3.98367 20.1634C3.05527 19.235 2.59107 18.119 2.59107 16.8152V7.12636C1.89972 6.86957 1.33201 6.44014 0.887962 5.83806C0.443913 5.23599 0.221493 4.54937 0.220703 3.77821C0.220703 2.79056 0.566382 1.95105 1.25774 1.25969C1.9491 0.568335 2.7886 0.222656 3.77626 0.222656C4.76391 0.222656 5.60342 0.568335 6.29478 1.25969C6.98614 1.95105 7.33181 2.79056 7.33181 3.77821C7.33181 4.54858 7.10979 5.2352 6.66574 5.83806C6.22169 6.44093 5.65359 6.87036 4.96144 7.12636V16.8152C4.96144 17.4671 5.19374 18.0253 5.65833 18.4899C6.12293 18.9545 6.68075 19.1864 7.33181 19.1856C7.98367 19.1856 8.54189 18.9537 9.00648 18.4899C9.47107 18.0261 9.70298 17.4679 9.70218 16.8152V4.9634C9.70218 3.65969 10.1664 2.54364 11.0948 1.61525C12.0232 0.686854 13.1392 0.222656 14.4429 0.222656C15.7466 0.222656 16.8627 0.686854 17.7911 1.61525C18.7195 2.54364 19.1837 3.65969 19.1837 4.9634V14.6523C19.875 14.9091 20.4431 15.3389 20.888 15.9418C21.3328 16.5446 21.5548 17.2309 21.554 18.0004C21.554 18.9881 21.2084 19.8276 20.517 20.519C19.8256 21.2103 18.9861 21.556 17.9985 21.556C17.0108 21.556 16.1713 21.2103 15.48 20.519C14.7886 19.8276 14.4429 18.9881 14.4429 18.0004C14.4429 17.2301 14.6653 16.5387 15.1102 15.9264C15.555 15.314 16.1227 14.8893 16.8133 14.6523V4.9634C16.8133 4.31155 16.5814 3.75372 16.1176 3.28992C15.6538 2.82611 15.0956 2.59382 14.4429 2.59303C13.7911 2.59303 13.2332 2.82532 12.7694 3.28992C12.3056 3.75451 12.0733 4.31234 12.0726 4.9634V16.8152C12.0726 18.119 11.6084 19.235 10.68 20.1634C9.75157 21.0918 8.63552 21.556 7.33181 21.556Z" />
</svg>
