<svg width="18" height="18" viewBox="0 0 18 18" fill="none" xmlns="http://www.w3.org/2000/svg">
<path d="M8.75022 2.6816C8.58748 2.6816 8.4314 2.74625 8.31632 2.86133C8.20124 2.97641 8.13659 3.13249 8.13659 3.29523C8.13659 3.45798 8.20124 3.61406 8.31632 3.72914C8.4314 3.84422 8.58748 3.90887 8.75022 3.90887H9.9775C10.1402 3.90887 10.2963 3.84422 10.4114 3.72914C10.5265 3.61406 10.5911 3.45798 10.5911 3.29523C10.5911 3.13249 10.5265 2.97641 10.4114 2.86133C10.2963 2.74625 10.1402 2.6816 9.9775 2.6816H8.75022ZM5.55931 0.227051C5.09193 0.227051 4.62912 0.319109 4.19731 0.49797C3.7655 0.676832 3.37315 0.938992 3.04266 1.26948C2.3752 1.93694 2.00022 2.84221 2.00022 3.78614V6.36341H1.38659C1.22384 6.36341 1.06776 6.42807 0.952679 6.54314C0.8376 6.65822 0.772949 6.8143 0.772949 6.97705C0.772949 7.1398 0.8376 7.29588 0.952679 7.41096C1.06776 7.52604 1.22384 7.59069 1.38659 7.59069H2.00022V15.8134C2.00022 16.2366 2.16831 16.6424 2.46752 16.9416C2.76673 17.2408 3.17254 17.4089 3.59568 17.4089H5.31386C5.52338 17.4089 5.73084 17.3676 5.92441 17.2874C6.11798 17.2072 6.29386 17.0897 6.44202 16.9416C6.59017 16.7934 6.70769 16.6175 6.78787 16.424C6.86805 16.2304 6.90931 16.0229 6.90931 15.8134V14.9543H11.8184V15.8134C11.8184 16.2366 11.9865 16.6424 12.2857 16.9416C12.5849 17.2408 12.9907 17.4089 13.4139 17.4089H15.132C15.5552 17.4089 15.961 17.2408 16.2602 16.9416C16.5594 16.6424 16.7275 16.2366 16.7275 15.8134V7.59069H17.3411C17.5039 7.59069 17.66 7.52604 17.775 7.41096C17.8901 7.29588 17.9548 7.1398 17.9548 6.97705C17.9548 6.8143 17.8901 6.65822 17.775 6.54314C17.66 6.42807 17.5039 6.36341 17.3411 6.36341H16.7275V3.78614C16.7275 2.84221 16.3525 1.93694 15.6851 1.26948C15.0176 0.602025 14.1123 0.227051 13.1684 0.227051H5.55931ZM15.5002 3.78614V8.81796H3.22749V3.78614C3.22749 2.49751 4.27068 1.45432 5.55931 1.45432H13.1684C14.457 1.45432 15.5002 2.49751 15.5002 3.78614ZM15.5002 14.9543V15.8134C15.5002 15.8618 15.4907 15.9096 15.4722 15.9543C15.4537 15.999 15.4266 16.0396 15.3924 16.0738C15.3582 16.1079 15.3176 16.1351 15.2729 16.1536C15.2283 16.1721 15.1804 16.1816 15.132 16.1816H13.4139C13.3655 16.1816 13.3176 16.1721 13.273 16.1536C13.2283 16.1351 13.1877 16.1079 13.1535 16.0738C13.1193 16.0396 13.0922 15.999 13.0737 15.9543C13.0552 15.9096 13.0457 15.8618 13.0457 15.8134V14.9543H15.5002ZM5.68204 14.9543V15.8134C5.68204 15.8618 5.67252 15.9096 5.65401 15.9543C5.63551 15.999 5.60839 16.0396 5.5742 16.0738C5.54001 16.1079 5.49943 16.1351 5.45476 16.1536C5.41009 16.1721 5.36221 16.1816 5.31386 16.1816H3.59568C3.54733 16.1816 3.49945 16.1721 3.45478 16.1536C3.41011 16.1351 3.36952 16.1079 3.33533 16.0738C3.30114 16.0396 3.27402 15.999 3.25552 15.9543C3.23702 15.9096 3.22749 15.8618 3.22749 15.8134V14.9543H5.68204ZM7.52295 11.5793C7.52295 11.7002 7.49914 11.8199 7.45288 11.9316C7.40663 12.0432 7.33883 12.1447 7.25335 12.2302C7.16788 12.3157 7.06641 12.3835 6.95474 12.4297C6.84306 12.476 6.72337 12.4998 6.60249 12.4998C6.48162 12.4998 6.36193 12.476 6.25025 12.4297C6.13858 12.3835 6.03711 12.3157 5.95163 12.2302C5.86616 12.1447 5.79836 12.0432 5.75211 11.9316C5.70585 11.8199 5.68204 11.7002 5.68204 11.5793C5.68204 11.3352 5.77902 11.1011 5.95163 10.9285C6.12425 10.7558 6.35838 10.6589 6.60249 10.6589C6.84661 10.6589 7.08074 10.7558 7.25335 10.9285C7.42597 11.1011 7.52295 11.3352 7.52295 11.5793ZM12.1252 12.4998C11.8811 12.4998 11.647 12.4028 11.4744 12.2302C11.3017 12.0576 11.2048 11.8234 11.2048 11.5793C11.2048 11.3352 11.3017 11.1011 11.4744 10.9285C11.647 10.7558 11.8811 10.6589 12.1252 10.6589C12.3693 10.6589 12.6035 10.7558 12.7761 10.9285C12.9487 11.1011 13.0457 11.3352 13.0457 11.5793C13.0457 11.8234 12.9487 12.0576 12.7761 12.2302C12.6035 12.4028 12.3693 12.4998 12.1252 12.4998Z" />
</svg>
