<svg width="17" height="22" viewBox="0 0 17 22" fill="none" xmlns="http://www.w3.org/2000/svg">
<path d="M11.5001 4.5C12.5901 4.5 13.5001 3.58 13.5001 2.5C13.5001 1.96957 13.2894 1.46086 12.9143 1.08579C12.5393 0.710714 12.0306 0.5 11.5001 0.5C10.3901 0.5 9.50014 1.38 9.50014 2.5C9.50014 3.58 10.3901 4.5 11.5001 4.5ZM7.89014 18.38L8.89014 14L11.0001 16V22H13.0001V14.5L10.8901 12.5L11.5001 9.5C12.1849 10.2856 13.0302 10.9153 13.979 11.3466C14.9277 11.7778 15.958 12.0006 17.0001 12V10C15.0901 10 13.5001 9 12.6901 7.58L11.6901 6C11.2901 5.38 10.6901 5 10.0001 5C9.69014 5 9.50014 5.08 9.19014 5.08L4.00014 7.28V12H6.00014V8.58L7.79014 7.88L6.19014 16L1.29014 15L0.890137 17L7.89014 18.38Z" />
</svg>
