<svg width="21" height="21" viewBox="0 0 21 21" fill="none" xmlns="http://www.w3.org/2000/svg">
<path d="M9.375 0.166992C11.104 0.166876 12.798 0.653524 14.2633 1.57124C15.7286 2.48896 16.906 3.80067 17.6606 5.35626C18.4152 6.91185 18.7166 8.64846 18.5304 10.3674C18.3441 12.0863 17.6777 13.718 16.6073 15.0758L20.5637 19.0322C20.761 19.2365 20.8702 19.5101 20.8677 19.7942C20.8653 20.0782 20.7513 20.3499 20.5505 20.5508C20.3496 20.7517 20.0779 20.8656 19.7938 20.8681C19.5098 20.8705 19.2362 20.7613 19.0318 20.564L15.0755 16.6077C13.9222 17.5165 12.5683 18.1364 11.1268 18.4156C9.6852 18.6949 8.19777 18.6253 6.78856 18.2127C5.37935 17.8002 4.08923 17.0566 3.02584 16.044C1.96245 15.0315 1.15662 13.7793 0.675593 12.392C0.194562 11.0046 0.0522739 9.52238 0.260601 8.06887C0.468927 6.61537 1.02183 5.23276 1.87317 4.03639C2.72452 2.84003 3.84962 1.8646 5.15461 1.19149C6.4596 0.518387 7.90664 0.167117 9.375 0.166992ZM9.375 2.33366C7.50743 2.33366 5.71636 3.07555 4.39579 4.39612C3.07522 5.71668 2.33333 7.50776 2.33333 9.37533C2.33333 11.2429 3.07522 13.034 4.39579 14.3545C5.71636 15.6751 7.50743 16.417 9.375 16.417C11.2426 16.417 13.0336 15.6751 14.3542 14.3545C15.6748 13.034 16.4167 11.2429 16.4167 9.37533C16.4167 7.50776 15.6748 5.71668 14.3542 4.39612C13.0336 3.07555 11.2426 2.33366 9.375 2.33366ZM9.375 3.41699C10.9552 3.41699 12.4708 4.04474 13.5882 5.16215C14.7056 6.27955 15.3333 7.79508 15.3333 9.37533C15.3333 10.9556 14.7056 12.4711 13.5882 13.5885C12.4708 14.7059 10.9552 15.3337 9.375 15.3337C7.79475 15.3337 6.27923 14.7059 5.16182 13.5885C4.04442 12.4711 3.41667 10.9556 3.41667 9.37533C3.41667 7.79508 4.04442 6.27955 5.16182 5.16215C6.27923 4.04474 7.79475 3.41699 9.375 3.41699Z"  fill-opacity='0.5'/>
</svg>
