<svg width="24" height="24" viewBox="0 0 24 24" fill="none" xmlns="http://www.w3.org/2000/svg">
<path d="M13.5743 0.652541C12.7043 -0.217514 11.2942 -0.217514 10.4242 0.652541L0.652541 10.4257C-0.217514 11.2957 -0.217514 12.7043 0.652541 13.5728L10.4272 23.3475C11.2972 24.2175 12.7058 24.2175 13.5743 23.3475L23.349 13.5728C24.219 12.7028 24.219 11.2942 23.349 10.4257L13.5743 0.652541ZM13.4993 12.6998V10.5007H11.2492C10.6524 10.5007 10.0801 10.7377 9.65811 11.1597C9.23613 11.5817 8.99906 12.154 8.99906 12.7508V16.501H7.49897V12.7508C7.49897 11.7562 7.89408 10.8023 8.59739 10.099C9.30069 9.39567 10.2546 9.00056 11.2492 9.00056H13.4993V6.80142C13.4994 6.73017 13.5197 6.66039 13.558 6.60026C13.5962 6.54014 13.6508 6.49216 13.7153 6.46194C13.7799 6.43172 13.8517 6.42051 13.9223 6.42962C13.993 6.43874 14.0596 6.4678 14.1144 6.51341L17.6546 9.46259C17.8346 9.6126 17.8346 9.88862 17.6546 10.0386L14.1144 12.9878C14.0596 13.0334 13.993 13.0625 13.9223 13.0716C13.8517 13.0807 13.7799 13.0695 13.7153 13.0393C13.6508 13.0091 13.5962 12.9611 13.558 12.901C13.5197 12.8408 13.4994 12.7711 13.4993 12.6998Z" />
</svg>
