<svg width="20" height="20" viewBox="0 0 20 20" fill="none" xmlns="http://www.w3.org/2000/svg">
<path fill-rule="evenodd" clip-rule="evenodd" d="M11.5028 4.4445C11.5028 2.91117 12.7528 1.667 14.2928 1.667C14.6584 1.66612 15.0207 1.73727 15.3588 1.87638C15.6969 2.01549 16.0043 2.21983 16.2635 2.47775C16.5226 2.73566 16.7285 3.0421 16.8692 3.37955C17.0099 3.71701 17.0828 4.07888 17.0837 4.4445C17.0837 5.97867 15.8337 7.22283 14.2928 7.22283C13.9233 7.22329 13.5574 7.15029 13.2163 7.00809C12.8753 6.86589 12.5659 6.65732 12.3062 6.3945L8.44366 9.0245C8.55123 9.56033 8.49848 10.116 8.29199 10.622L12.527 13.4053C13.0258 12.9985 13.65 12.7768 14.2937 12.7778C14.6593 12.7771 15.0215 12.8483 15.3596 12.9875C15.6976 13.1267 16.005 13.3312 16.2641 13.5892C16.5231 13.8472 16.7289 14.1537 16.8695 14.4912C17.0101 14.8287 17.0829 15.1905 17.0837 15.5562C17.0837 17.0895 15.8337 18.3337 14.2928 18.3337C13.5546 18.3352 12.8459 18.0435 12.3227 17.5226C11.7995 17.0018 11.5046 16.2944 11.5028 15.5562C11.5022 15.1667 11.5843 14.7815 11.7437 14.4262L7.54199 11.667C7.03317 12.1094 6.38126 12.3525 5.70699 12.3512C5.34134 12.352 4.9791 12.2809 4.64096 12.1417C4.30283 12.0025 3.99543 11.7981 3.73634 11.5401C3.47724 11.2821 3.27152 10.9755 3.13093 10.638C2.99035 10.3004 2.91765 9.93849 2.91699 9.57283C2.91776 9.20725 2.99054 8.8454 3.13117 8.50795C3.27181 8.1705 3.47754 7.86406 3.73663 7.60613C3.99572 7.34821 4.30308 7.14385 4.64116 7.00473C4.97924 6.86561 5.34141 6.79446 5.70699 6.79533C6.59366 6.79533 7.38199 7.20617 7.89283 7.84617L11.637 5.297C11.5479 5.02161 11.5026 4.73394 11.5028 4.4445Z" fill="#D69B27"/>
</svg>
