<svg width="18" height="20" viewBox="0 0 18 20" fill="none" xmlns="http://www.w3.org/2000/svg">
<path d="M14.5 13.7402C13.8033 13.7402 13.18 14.0152 12.7033 14.446L6.1675 10.6418C6.21333 10.431 6.25 10.2202 6.25 10.0002C6.25 9.78016 6.21333 9.56933 6.1675 9.3585L12.63 5.591C13.125 6.04933 13.7758 6.3335 14.5 6.3335C16.0217 6.3335 17.25 5.10516 17.25 3.5835C17.25 2.06183 16.0217 0.833496 14.5 0.833496C12.9783 0.833496 11.75 2.06183 11.75 3.5835C11.75 3.8035 11.7867 4.01433 11.8325 4.22516L5.37 7.99266C4.875 7.53433 4.22417 7.25016 3.5 7.25016C1.97833 7.25016 0.75 8.4785 0.75 10.0002C0.75 11.5218 1.97833 12.7502 3.5 12.7502C4.22417 12.7502 4.875 12.466 5.37 12.0077L11.8967 15.821C11.8508 16.0135 11.8233 16.2152 11.8233 16.4168C11.8233 17.8927 13.0242 19.0935 14.5 19.0935C15.9758 19.0935 17.1767 17.8927 17.1767 16.4168C17.1767 14.941 15.9758 13.7402 14.5 13.7402Z" />
</svg>
