<svg width="36" height="34" viewBox="0 0 18 17" fill="none" xmlns="http://www.w3.org/2000/svg">
<path d="M11.5891 1.55546L11.589 1.55561L11.5938 1.5602L14.4813 4.28728C14.7627 4.55298 14.9 4.88137 14.9 5.20625V14.5208C14.9 15.2395 14.2752 15.8375 13.5 15.8375H4.5C3.72477 15.8375 3.1 15.2395 3.1 14.5208V2.47917C3.1 1.76054 3.72477 1.1625 4.5 1.1625H10.6125C11.0022 1.1625 11.3487 1.29597 11.5891 1.55546Z" fill="#ccc" stroke="#323232" stroke-width="0.2"/>
<path d="M12 13.4583H6C5.5875 13.4583 5.25 13.1396 5.25 12.75V8.5C5.25 8.11041 5.5875 7.79166 6 7.79166H12C12.4125 7.79166 12.75 8.11041 12.75 8.5V12.75C12.75 13.1396 12.4125 13.4583 12 13.4583Z" fill="#FFFAFA"/>
<path d="M10.875 10.625V11.6875H12.75V12.3958H10.875V13.4583H10.125V7.79166H10.875V9.91666H12.75V10.625H10.875ZM5.25 10.2708V10.9792H7.125V11.6875H5.25V12.3958H7.125V13.4583H7.875V10.2708H5.25Z" fill="#ccc"/>
</svg>
