<svg width="28" height="30" viewBox="0 0 28 30" fill="none" xmlns="http://www.w3.org/2000/svg">
<g clip-path="url(#clip0_2369_30979)">
<path d="M28 28.8281V30H0V28.8281C0 28.4398 0.335813 28.125 0.75 28.125H2V7.03125C2 6.25459 2.67156 5.625 3.5 5.625H9V1.40625C9 0.62959 9.67156 0 10.5 0H17.5C18.3284 0 19 0.62959 19 1.40625V5.625H24.5C25.3284 5.625 26 6.25459 26 7.03125V28.125H27.25C27.6642 28.125 28 28.4398 28 28.8281ZM19.25 11.25H16.75C16.3358 11.25 16 11.5648 16 11.9531V14.2969C16 14.6852 16.3358 15 16.75 15H19.25C19.6642 15 20 14.6852 20 14.2969V11.9531C20 11.5648 19.6642 11.25 19.25 11.25ZM8.75 15H11.25C11.6642 15 12 14.6852 12 14.2969V11.9531C12 11.5648 11.6642 11.25 11.25 11.25H8.75C8.33581 11.25 8 11.5648 8 11.9531V14.2969C8 14.6852 8.33581 15 8.75 15ZM15.25 22.5H12.75C12.3358 22.5 12 22.8148 12 23.2031V28.125H16V23.2031C16 22.8148 15.6642 22.5 15.25 22.5ZM19.25 16.875H16.75C16.3358 16.875 16 17.1898 16 17.5781V19.9219C16 20.3102 16.3358 20.625 16.75 20.625H19.25C19.6642 20.625 20 20.3102 20 19.9219V17.5781C20 17.1898 19.6642 16.875 19.25 16.875ZM12 17.5781C12 17.1898 11.6642 16.875 11.25 16.875H8.75C8.33581 16.875 8 17.1898 8 17.5781V19.9219C8 20.3102 8.33581 20.625 8.75 20.625H11.25C11.6642 20.625 12 20.3102 12 19.9219V17.5781ZM11.375 5.625H13V7.14844C13 7.24168 13.0395 7.3311 13.1098 7.39703C13.1802 7.46296 13.2755 7.5 13.375 7.5H14.625C14.7245 7.5 14.8198 7.46296 14.8902 7.39703C14.9605 7.3311 15 7.24168 15 7.14844V5.625H16.625C16.7245 5.625 16.8198 5.58796 16.8902 5.52203C16.9605 5.4561 17 5.36668 17 5.27344V4.10156C17 4.00832 16.9605 3.9189 16.8902 3.85297C16.8198 3.78704 16.7245 3.75 16.625 3.75H15V2.22656C15 2.13332 14.9605 2.0439 14.8902 1.97797C14.8198 1.91204 14.7245 1.875 14.625 1.875H13.375C13.2755 1.875 13.1802 1.91204 13.1098 1.97797C13.0395 2.0439 13 2.13332 13 2.22656V3.75H11.375C11.2755 3.75 11.1802 3.78704 11.1098 3.85297C11.0395 3.9189 11 4.00832 11 4.10156V5.27344C11 5.36668 11.0395 5.4561 11.1098 5.52203C11.1802 5.58796 11.2755 5.625 11.375 5.625Z" fill="#29A7E4"/>
</g>
<defs>
<clipPath id="clip0_2369_30979">
<rect width="28" height="30" fill="white"/>
</clipPath>
</defs>
</svg>
