<svg width="30" height="30" viewBox="0 0 30 30" fill="none" xmlns="http://www.w3.org/2000/svg">
<path d="M15 3.75C15.2486 3.75 15.4871 3.84877 15.6629 4.02459C15.8387 4.2004 15.9375 4.43886 15.9375 4.6875V7.5C15.9375 7.74864 15.8387 7.9871 15.6629 8.16291C15.4871 8.33873 15.2486 8.4375 15 8.4375C14.7514 8.4375 14.5129 8.33873 14.3371 8.16291C14.1613 7.9871 14.0625 7.74864 14.0625 7.5V4.6875C14.0625 4.43886 14.1613 4.2004 14.3371 4.02459C14.5129 3.84877 14.7514 3.75 15 3.75ZM6.9975 6.9975C7.17331 6.82175 7.41172 6.72301 7.66031 6.72301C7.9089 6.72301 8.14732 6.82175 8.32313 6.9975L10.0388 8.71125C10.2148 8.88729 10.3137 9.12605 10.3137 9.375C10.3137 9.62395 10.2148 9.86271 10.0388 10.0388C9.86271 10.2148 9.62395 10.3137 9.375 10.3137C9.12605 10.3137 8.88729 10.2148 8.71125 10.0388L6.9975 8.32313C6.82175 8.14732 6.72301 7.9089 6.72301 7.66031C6.72301 7.41172 6.82175 7.17331 6.9975 6.9975ZM3.75 15C3.75 14.7514 3.84877 14.5129 4.02459 14.3371C4.2004 14.1613 4.43886 14.0625 4.6875 14.0625H7.66125C7.90989 14.0625 8.14835 14.1613 8.32416 14.3371C8.49998 14.5129 8.59875 14.7514 8.59875 15C8.59875 15.2486 8.49998 15.4871 8.32416 15.6629C8.14835 15.8387 7.90989 15.9375 7.66125 15.9375H4.6875C4.43886 15.9375 4.2004 15.8387 4.02459 15.6629C3.84877 15.4871 3.75 15.2486 3.75 15ZM21.5625 15C21.5625 14.7514 21.6613 14.5129 21.8371 14.3371C22.0129 14.1613 22.2514 14.0625 22.5 14.0625H25.3125C25.5611 14.0625 25.7996 14.1613 25.9754 14.3371C26.1512 14.5129 26.25 14.7514 26.25 15C26.25 15.2486 26.1512 15.4871 25.9754 15.6629C25.7996 15.8387 25.5611 15.9375 25.3125 15.9375H22.5C22.2514 15.9375 22.0129 15.8387 21.8371 15.6629C21.6613 15.4871 21.5625 15.2486 21.5625 15ZM22.9762 7.03875C22.8461 6.90993 22.6724 6.83461 22.4895 6.82766C22.3065 6.82072 22.1276 6.88266 21.9881 7.00125L14.1506 13.7063C13.9701 13.8608 13.8239 14.0514 13.7212 14.2657C13.6186 14.4801 13.562 14.7135 13.5548 14.951C13.5477 15.1886 13.5902 15.425 13.6797 15.6451C13.7693 15.8653 13.9038 16.0643 14.0747 16.2294C14.2456 16.3946 14.4491 16.5222 14.6722 16.6041C14.8953 16.686 15.133 16.7204 15.3702 16.7051C15.6073 16.6898 15.8386 16.6251 16.0494 16.5152C16.2601 16.4053 16.4455 16.2526 16.5938 16.0669L23.0325 8.01C23.1441 7.86961 23.2003 7.6931 23.1902 7.51402C23.1802 7.33495 23.1047 7.1658 22.9781 7.03875H22.9762Z" />
<path fill-rule="evenodd" clip-rule="evenodd" d="M12.4965 29.7943C10.5539 29.4654 8.6951 28.757 7.02624 27.7097C5.35738 26.6623 3.91115 25.2966 2.77012 23.6903C0.465709 20.4463 -0.455659 16.4198 0.208709 12.4965C0.873076 8.57322 3.06876 5.07453 6.31273 2.77012C9.5567 0.465709 13.5832 -0.455659 17.5065 0.208709C21.4301 0.873076 24.929 3.06886 27.2336 6.313C29.5382 9.55715 30.4596 13.5839 29.7953 17.5075C29.1309 21.431 26.9351 24.9299 23.691 27.2345C20.4468 29.5391 16.4201 30.4606 12.4965 29.7962V29.7943ZM3.74965 21.7637C7.16923 19.7856 11.051 18.7467 15.0015 18.7525C19.1003 18.7525 22.944 19.8493 26.2534 21.7637C27.4494 19.7722 28.0954 17.4988 28.1254 15.176C28.1554 12.8531 27.5684 10.5638 26.4242 8.54205C25.28 6.52027 23.6197 4.8384 21.6129 3.6682C19.6061 2.49801 17.3246 1.88142 15.0015 1.88142C12.6784 1.88142 10.397 2.49801 8.39014 3.6682C6.38331 4.8384 4.72302 6.52027 3.57885 8.54205C2.43467 10.5638 1.84761 12.8531 1.87762 15.176C1.90762 17.4988 2.55363 19.7722 3.74965 21.7637Z" />
<path d="M7.50036 24.4886V24.0043L8.71484 22.0909H9.13246V22.7614H8.8853L8.11967 23.973V23.9957H9.84553V24.4886H7.50036ZM8.89666 25V24.3409L8.90803 24.1264V22.0909H9.48473V25H8.89666ZM11.3718 25.0398C11.2222 25.0388 11.0778 25.0137 10.9386 24.9645C10.8003 24.9152 10.6763 24.8352 10.5664 24.7244C10.4566 24.6136 10.3694 24.4669 10.305 24.2841C10.2416 24.1013 10.2099 23.8769 10.2099 23.6108C10.2108 23.3665 10.2388 23.1482 10.2937 22.956C10.3496 22.7628 10.4291 22.599 10.5323 22.4645C10.6365 22.33 10.761 22.2277 10.9059 22.1577C11.0508 22.0866 11.2132 22.0511 11.3931 22.0511C11.5872 22.0511 11.7586 22.089 11.9073 22.1648C12.056 22.2396 12.1753 22.3414 12.2653 22.4702C12.3562 22.599 12.4111 22.7434 12.43 22.9034H11.8235C11.7998 22.8021 11.7501 22.7225 11.6744 22.6648C11.5986 22.607 11.5049 22.5781 11.3931 22.5781C11.2037 22.5781 11.0598 22.6605 10.9613 22.8253C10.8638 22.9901 10.814 23.214 10.8121 23.4972H10.832C10.8756 23.411 10.9343 23.3376 11.0082 23.277C11.083 23.2154 11.1677 23.1686 11.2624 23.1364C11.3581 23.1032 11.4589 23.0866 11.565 23.0866C11.7373 23.0866 11.8907 23.1274 12.0252 23.2088C12.1597 23.2893 12.2657 23.4001 12.3434 23.5412C12.421 23.6823 12.4599 23.8437 12.4599 24.0256C12.4599 24.2225 12.4139 24.3977 12.3221 24.5511C12.2312 24.7045 12.1038 24.8248 11.94 24.9119C11.7771 24.9981 11.5877 25.0407 11.3718 25.0398ZM11.369 24.5568C11.4637 24.5568 11.5484 24.5341 11.6232 24.4886C11.698 24.4432 11.7567 24.3816 11.7994 24.304C11.842 24.2263 11.8633 24.1392 11.8633 24.0426C11.8633 23.946 11.842 23.8594 11.7994 23.7827C11.7577 23.706 11.6999 23.6449 11.6261 23.5994C11.5522 23.554 11.4679 23.5312 11.3732 23.5312C11.3022 23.5312 11.2364 23.5445 11.1758 23.571C11.1161 23.5975 11.0636 23.6345 11.0181 23.6818C10.9736 23.7292 10.9386 23.7841 10.913 23.8466C10.8874 23.9081 10.8746 23.974 10.8746 24.044C10.8746 24.1378 10.896 24.2235 10.9386 24.3011C10.9821 24.3788 11.0408 24.4408 11.1147 24.4872C11.1895 24.5336 11.2743 24.5568 11.369 24.5568ZM13.4499 24.3722L13.4513 23.6463H13.5394L14.2383 22.8182H14.9329L13.994 23.9148H13.8505L13.4499 24.3722ZM12.9016 25V22.0909H13.5067V25H12.9016ZM14.2653 25L13.6232 24.0497L14.0266 23.6222L14.9741 25H14.2653ZM15.2298 25V22.8182H15.8065V23.2031H15.832C15.8775 23.0753 15.9532 22.9744 16.0593 22.9006C16.1654 22.8267 16.2923 22.7898 16.44 22.7898C16.5896 22.7898 16.717 22.8272 16.8221 22.902C16.9272 22.9759 16.9973 23.0762 17.0323 23.2031H17.055C17.0996 23.0781 17.18 22.9782 17.2965 22.9034C17.4139 22.8277 17.5527 22.7898 17.7127 22.7898C17.9163 22.7898 18.0816 22.8546 18.2085 22.9844C18.3363 23.1132 18.4002 23.2959 18.4002 23.5327V25H17.7965V23.652C17.7965 23.5308 17.7643 23.4399 17.6999 23.3793C17.6355 23.3187 17.555 23.2884 17.4585 23.2884C17.3486 23.2884 17.2629 23.3234 17.2013 23.3935C17.1398 23.4626 17.109 23.554 17.109 23.6676V25H16.5224V23.6392C16.5224 23.5322 16.4916 23.447 16.43 23.3835C16.3694 23.3201 16.2894 23.2884 16.19 23.2884C16.1228 23.2884 16.0621 23.3054 16.0082 23.3395C15.9551 23.3726 15.913 23.4195 15.8817 23.4801C15.8505 23.5398 15.8349 23.6098 15.8349 23.6903V25H15.2298ZM20.1452 21.9545L19.2077 25.4375H18.6864L19.6239 21.9545H20.1452ZM21.0419 23.7386V25H20.4368V22.0909H21.0249V23.2031H21.0504C21.0997 23.0743 21.1792 22.9735 21.2891 22.9006C21.3989 22.8267 21.5367 22.7898 21.7024 22.7898C21.8539 22.7898 21.986 22.8229 22.0987 22.8892C22.2124 22.9545 22.3004 23.0488 22.3629 23.1719C22.4264 23.294 22.4576 23.4403 22.4567 23.6108V25H21.8516V23.7188C21.8525 23.5843 21.8184 23.4796 21.7493 23.4048C21.6811 23.33 21.5855 23.2926 21.4624 23.2926C21.38 23.2926 21.3071 23.3101 21.2436 23.3452C21.1811 23.3802 21.1319 23.4313 21.0959 23.4986C21.0608 23.5649 21.0429 23.6449 21.0419 23.7386Z" fill="white"/>
</svg>
