<svg width="12" height="11" viewBox="0 0 12 11" fill="none" xmlns="http://www.w3.org/2000/svg">
<path d="M5.41699 1.07534V1.9165C5.41699 2.07121 5.47845 2.21959 5.58785 2.32898C5.69724 2.43838 5.84562 2.49984 6.00033 2.49984C6.15504 2.49984 6.30341 2.43838 6.4128 2.32898C6.5222 2.21959 6.58366 2.07121 6.58366 1.9165V1.07534C7.68952 1.20664 8.71903 1.70623 9.50648 2.49368C10.2939 3.28113 10.7935 4.31065 10.9248 5.4165H10.0837C9.92895 5.4165 9.78058 5.47796 9.67118 5.58736C9.56178 5.69675 9.50033 5.84513 9.50033 5.99984C9.50033 6.15455 9.56178 6.30292 9.67118 6.41232C9.78058 6.52171 9.92895 6.58317 10.0837 6.58317H10.9237C10.793 7.64309 10.3147 8.5945 9.61699 9.34817C9.53809 9.43326 9.49622 9.54621 9.5006 9.66217C9.50497 9.77813 9.55523 9.8876 9.64032 9.9665C9.72542 10.0454 9.83836 10.0873 9.95432 10.0829C10.0703 10.0785 10.1798 10.0283 10.2587 9.94317C11.2171 8.90775 11.8337 7.53575 11.8337 5.99984C11.8337 2.77809 9.22208 0.166504 6.00033 0.166504C2.77858 0.166504 0.166992 2.77809 0.166992 5.99984C0.166992 7.53575 0.783575 8.90775 1.74199 9.94317C1.78106 9.9853 1.82804 10.0193 1.88026 10.0433C1.93248 10.0673 1.98891 10.0807 2.04633 10.0829C2.10374 10.0851 2.16103 10.0759 2.2149 10.0559C2.26878 10.036 2.31819 10.0056 2.36033 9.9665C2.40246 9.92744 2.43648 9.88045 2.46046 9.82823C2.48443 9.77602 2.49789 9.71959 2.50005 9.66217C2.50222 9.60475 2.49306 9.54747 2.47309 9.4936C2.45311 9.43972 2.42273 9.3903 2.38366 9.34817C1.68599 8.59509 1.20766 7.64367 1.07699 6.58317H1.91699C2.0717 6.58317 2.22007 6.52171 2.32947 6.41232C2.43887 6.30292 2.50033 6.15455 2.50033 5.99984C2.50033 5.84513 2.43887 5.69675 2.32947 5.58736C2.22007 5.47796 2.0717 5.4165 1.91699 5.4165H1.07583C1.18223 4.50834 1.53889 3.6476 2.10599 2.93034L2.67124 3.49617C2.72544 3.55033 2.78977 3.59328 2.86057 3.62258C2.93137 3.65188 3.00724 3.66694 3.08386 3.66691C3.16048 3.66689 3.23635 3.65177 3.30713 3.62242C3.3779 3.59308 3.44221 3.55008 3.49637 3.49588C3.55053 3.44168 3.59348 3.37735 3.62278 3.30655C3.65207 3.23575 3.66714 3.15988 3.66711 3.08326C3.66708 3.00664 3.65196 2.93077 3.62262 2.85999C3.59327 2.78922 3.55027 2.72491 3.49608 2.67075L2.93083 2.1055C3.64809 1.5384 4.50883 1.18174 5.41699 1.07534ZM8.77641 2.86967C8.70861 2.81746 8.62506 2.78989 8.5395 2.79148C8.45394 2.79307 8.37147 2.82373 8.30566 2.87842L8.17849 2.98517C7.71985 3.37034 7.26271 3.75728 6.80708 4.146C6.42441 4.47267 6.03299 4.811 5.72033 5.08692C5.58494 5.2059 5.45096 5.32646 5.31841 5.44859C5.23189 5.52608 5.15008 5.60867 5.07341 5.69592C4.98294 5.8073 4.91576 5.93571 4.87585 6.07355C4.83595 6.21138 4.82413 6.35582 4.8411 6.49831C4.85808 6.6408 4.9035 6.77842 4.97467 6.90302C5.04583 7.02763 5.1413 7.13666 5.25541 7.22367C5.4878 7.40285 5.78085 7.48443 6.0724 7.45111C6.36395 7.41778 6.63103 7.27217 6.81699 7.04517C6.86833 6.98217 6.93658 6.8725 7.00658 6.75525C7.08124 6.62984 7.17283 6.46942 7.27433 6.28975C7.47674 5.92809 7.72233 5.47775 7.95974 5.0385C8.2417 4.51524 8.52151 3.99082 8.79916 3.46525L8.87558 3.32C8.91484 3.24531 8.92643 3.15913 8.90828 3.07672C8.89013 2.9943 8.84342 2.92096 8.77641 2.86967Z" />
</svg>
