<svg width="108" height="68" viewBox="0 0 108 68" fill="none" xmlns="http://www.w3.org/2000/svg">
<!-- <rect width="108" height="68" rx="4" fill="white"/> -->
<path d="M71.1433 66.2076H30C28.8954 66.2076 28 65.3121 28 64.2075V8.49116C28 7.38659 28.8954 6.49116 30 6.49116H33.5561V3C33.5561 1.89543 34.4515 1 35.5561 1H77.3939C78.4985 1 79.3939 1.89543 79.3939 3V60.0892C79.3939 61.1938 78.4985 62.0892 77.3939 62.0892H73.1433V64.2076C73.1433 65.3121 72.2479 66.2076 71.1433 66.2076Z" fill="white"/>
<path d="M33.5561 6.49116H30C28.8954 6.49116 28 7.38659 28 8.49116V64.2075C28 65.3121 28.8954 66.2075 30 66.2075H71.1433C72.2479 66.2075 73.1433 65.3121 73.1433 64.2075V62.0892M33.5561 6.49116H71.1433C72.2479 6.49116 73.1433 7.38659 73.1433 8.49116V62.0892M33.5561 6.49116V3C33.5561 1.89543 34.4515 1 35.5561 1H77.3939C78.4985 1 79.3939 1.89543 79.3939 3V60.0892C79.3939 61.1938 78.4985 62.0892 77.3939 62.0892H73.1433M68.9762 62.0892H31.8788" stroke="#113870" stroke-width="2"/>
<path d="M40.1391 47.5416C40.0292 47.5361 39.9106 47.5329 39.785 47.5318L40.1391 47.5416ZM40.1391 47.5416L40.3645 49.283C39.5588 49.1665 38.7843 49.0447 38.0841 48.8682C37.3452 48.6819 36.7372 48.4455 36.2886 48.1262C36.3008 48.1098 36.3141 48.0931 36.3285 48.0761C36.4345 47.9508 36.5693 47.8476 36.6926 47.7946C36.6938 47.7946 36.7149 47.7882 36.7671 47.7774C36.8289 47.7645 36.9128 47.7497 37.0169 47.7338C37.2244 47.7019 37.4973 47.6678 37.8057 47.6367C38.4241 47.5745 39.1649 47.5265 39.785 47.5318L40.1391 47.5416ZM31.5908 51.9573L31.5907 51.9582C31.5063 52.3888 31.4931 52.9241 31.5027 53.3491C31.5076 53.5701 31.5191 53.7719 31.5324 53.9291C31.5391 54.0074 31.5465 54.0778 31.5543 54.1358L31.5543 54.1358C31.5586 54.1679 31.567 54.2305 31.584 54.2917C31.6553 54.5847 31.8592 54.7948 32.0722 54.9392C32.2923 55.0884 32.5705 55.2018 32.88 55.2896L33.3572 55.425C33.428 55.7325 33.5683 56.021 33.773 56.2593C34.082 56.6192 34.5189 56.8396 34.9939 56.8396C35.4689 56.8396 35.9058 56.6192 36.2148 56.2593C36.3451 56.1076 36.4493 55.9356 36.5261 55.7512L36.9502 55.7579C36.9554 55.758 36.9667 55.7582 36.9798 55.7585C37.0014 55.759 37.0282 55.7595 37.0421 55.7597L37.0435 55.7597L48.9087 55.8746L49.3894 55.8793C49.4579 56.0155 49.5422 56.1434 49.6418 56.2593C49.9509 56.6192 50.3878 56.8396 50.8628 56.8396C51.3378 56.8396 51.7747 56.6192 52.0837 56.2593C52.1763 56.1514 52.2558 56.0332 52.3216 55.9076L52.8021 55.9123L55.8859 55.9421L56.3664 55.9468L56.3902 55.4669C56.4003 55.2621 56.4173 55.0401 56.4349 54.81C56.469 54.3645 56.5055 53.8885 56.4993 53.4465C56.4894 52.7464 56.3787 52.0135 55.9717 51.3323C55.8534 51.1344 55.6578 50.9503 55.4169 50.7806C55.1692 50.6061 54.8442 50.4263 54.4327 50.2474C53.624 49.8958 52.4519 49.5348 50.8089 49.227C50.4763 49.0315 50.1409 48.8285 49.8022 48.6235C48.4566 47.8091 47.0594 46.9634 45.5755 46.4329L45.5481 46.4231L45.5197 46.4165C44.0819 46.0844 42.5143 45.8454 40.6436 45.8397C39.1906 45.8352 37.561 45.9714 35.673 46.3099C35.5915 46.3241 35.5213 46.3554 35.4913 46.3689C35.4477 46.3886 35.4012 46.4125 35.3549 46.4378C35.2617 46.4888 35.1485 46.5569 35.0237 46.6365C34.7733 46.7963 34.459 47.0137 34.1346 47.2603C33.8106 47.5066 33.4703 47.7867 33.1708 48.0721C32.8769 48.3522 32.5981 48.66 32.4204 48.9623L32.4204 48.9623C32.0905 49.5234 31.8862 50.2976 31.7645 50.8886C31.7019 51.1922 31.6581 51.4637 31.6298 51.6594C31.6156 51.7575 31.6053 51.837 31.5985 51.8925C31.595 51.9203 31.5925 51.9421 31.5908 51.9573ZM42.1237 47.5702C43.2718 47.624 44.6463 47.804 45.6125 48.2994C46.1037 48.5649 46.9818 49.1444 47.6822 49.7106C47.6133 49.707 47.544 49.7034 47.4741 49.6998C45.6958 49.6072 43.6294 49.4996 42.4977 49.3831L42.1237 47.5702Z" fill="#113870" stroke="white"/>
<rect x="3" y="62" width="6" height="1" rx="0.5" fill="white"/>
<rect x="11" y="62" width="6" height="1" rx="0.5" fill="white"/>
<rect x="19" y="62" width="6" height="1" rx="0.5" fill="white"/>
<rect x="31" y="61" width="39" height="3" rx="1.5" fill="white"/>
<path d="M63.371 29.6166V29.0636C63.371 28.2366 62.949 27.8296 62.384 27.8296C61.812 27.8296 61.394 28.2366 61.394 29.0636V29.6166C61.394 30.4466 61.812 30.8536 62.384 30.8536C62.949 30.8536 63.371 30.4456 63.371 29.6166ZM65.957 29.3766C66.42 29.3766 66.692 29.1046 66.692 28.6326C66.692 28.1606 66.42 27.8916 65.957 27.8916H65.183V29.3766H65.957Z" fill="#29A7E4"/>
<path d="M57.893 21.3396C57.7606 21.3396 57.6337 21.3921 57.54 21.4856L53.146 25.8796C53.0525 25.9733 53 26.1002 53 26.2326V32.4466C53 32.579 53.0525 32.7059 53.146 32.7996L57.54 37.1936C57.6337 37.2871 57.7606 37.3396 57.893 37.3396H64.107C64.2394 37.3396 64.3663 37.2871 64.46 37.1936L68.854 32.7996C68.9475 32.7059 69 32.579 69 32.4466V26.2326C69 26.1002 68.9475 25.9733 68.854 25.8796L64.46 21.4856C64.3663 21.3921 64.2394 21.3396 64.107 21.3396H57.893ZM56.16 31.4196C55.229 31.4196 54.713 30.9266 54.666 30.2876H55.319C55.384 30.6336 55.715 30.8706 56.21 30.8706C56.734 30.8706 57.04 30.6246 57.04 30.2506C57.04 29.9476 56.837 29.7836 56.403 29.6786L55.747 29.5146C55.137 29.3676 54.769 29.0046 54.769 28.4366C54.769 27.7306 55.366 27.2526 56.213 27.2526C57.066 27.2526 57.599 27.7276 57.649 28.3396H57.004C56.94 28.0196 56.652 27.7976 56.207 27.7976C55.735 27.7976 55.437 28.0436 55.437 28.3976C55.437 28.6586 55.633 28.8346 55.99 28.9196L56.644 29.0806C57.317 29.2446 57.704 29.5676 57.704 30.1906C57.704 30.9266 57.13 31.4196 56.16 31.4196ZM59.587 27.9096V31.3396H58.922V27.9096H57.753V27.3396H60.759V27.9076H59.587V27.9096ZM64.045 29.0696V29.6136C64.045 30.7446 63.409 31.4186 62.384 31.4186C61.358 31.4186 60.72 30.7446 60.72 29.6136V29.0696C60.72 27.9336 61.358 27.2626 62.384 27.2626C63.41 27.2626 64.044 27.9366 64.044 29.0696H64.045ZM64.52 27.3396H66.055C66.875 27.3396 67.371 27.8896 67.371 28.6316C67.371 29.3786 66.87 29.9206 66.05 29.9206H65.185V31.3396H64.52V27.3396Z" fill="#29A7E4"/>
<rect x="60" y="35.3396" width="2" height="21" fill="#29A7E4"/>
<path d="M32 26.3396H47" stroke="#29A7E4" stroke-width="2.2" stroke-linecap="round"/>
<path d="M32 38.3396H55" stroke="#29A7E4" stroke-width="2.2" stroke-linecap="round"/>
<path d="M32 21.3396H53" stroke="#29A7E4" stroke-width="2.2" stroke-linecap="round"/>
<path d="M32 33.3396H50" stroke="#29A7E4" stroke-width="2.2" stroke-linecap="round"/>
<path d="M31.6226 58.3396H69.0565" stroke="#113870" stroke-width="2.8" stroke-linecap="round"/>
</svg>
