<svg width="20" height="20" viewBox="0 0 20 20" fill="none" xmlns="http://www.w3.org/2000/svg">
<path d="M17.7917 17.1958L4.87591 4.27995L1.20924 0.613281L0.0175781 1.74995L3.18924 4.92161L1.75008 9.08328V16.4166C1.75008 16.6597 1.84666 16.8929 2.01856 17.0648C2.19047 17.2367 2.42363 17.3333 2.66674 17.3333H3.58341C3.82653 17.3333 4.05968 17.2367 4.23159 17.0648C4.4035 16.8929 4.50008 16.6597 4.50008 16.4166V15.4999H13.7676L18.1034 19.8358L19.2676 18.6716L17.7917 17.1958ZM4.95841 12.7499C4.59374 12.7499 4.244 12.6051 3.98614 12.3472C3.72828 12.0894 3.58341 11.7396 3.58341 11.3749C3.58341 11.0103 3.72828 10.6605 3.98614 10.4027C4.244 10.1448 4.59374 9.99995 4.95841 9.99995C5.32308 9.99995 5.67282 10.1448 5.93068 10.4027C6.18855 10.6605 6.33341 11.0103 6.33341 11.3749C6.33341 11.7396 6.18855 12.0894 5.93068 12.3472C5.67282 12.6051 5.32308 12.7499 4.95841 12.7499ZM3.58341 8.16661L4.29841 6.03078L6.43424 8.16661H3.58341ZM15.0417 4.04161L16.4167 8.16661H11.1001L13.7767 10.8433C14.1251 10.1558 14.9226 9.87161 15.6101 10.1924C16.2976 10.5224 16.5817 11.3474 16.2609 12.0258C16.1234 12.2916 15.8942 12.5391 15.6101 12.6766L18.2501 15.3166V9.08328L16.3434 3.58328C16.1509 3.03328 15.6284 2.66661 15.0417 2.66661H5.60008L6.97508 4.04161H15.0417Z" />
</svg>
