<svg width="18" height="18" viewBox="0 0 18 18" fill="none" xmlns="http://www.w3.org/2000/svg">
<path d="M9 0.25C4.16797 0.25 0.25 4.16797 0.25 9C0.25 13.832 4.16797 17.75 9 17.75C13.832 17.75 17.75 13.832 17.75 9C17.75 4.16797 13.832 0.25 9 0.25ZM14.6348 13.5859L4.42383 3.375C4.03906 3.6875 3.6875 4.03906 3.375 4.42383L13.5859 14.6348C12.3359 15.6543 10.7383 16.2656 9 16.2656C4.98828 16.2656 1.73438 13.0117 1.73438 9C1.73438 4.98828 4.98828 1.73438 9 1.73438C13.0117 1.73438 16.2656 4.98828 16.2656 9C16.2656 10.7383 15.6543 12.3359 14.6348 13.5859Z" />
</svg>
