<svg width="24" height="24" viewBox="0 0 24 24" fill="none" xmlns="http://www.w3.org/2000/svg">
<rect width="24" height="24" fill="white"/>
<path d="M11.9998 4.66675C7.40484 4.66675 3.6665 8.40508 3.6665 13.0001V16.4526C3.6665 17.3059 4.414 18.0001 5.33317 18.0001H6.1665C6.38752 18.0001 6.59948 17.9123 6.75576 17.756C6.91204 17.5997 6.99984 17.3878 6.99984 17.1667V12.8809C6.99984 12.6599 6.91204 12.4479 6.75576 12.2917C6.59948 12.1354 6.38752 12.0476 6.1665 12.0476H5.40984C5.87317 8.82258 8.64817 6.33341 11.9998 6.33341C15.3515 6.33341 18.1265 8.82258 18.5898 12.0476H17.8332C17.6122 12.0476 17.4002 12.1354 17.2439 12.2917C17.0876 12.4479 16.9998 12.6599 16.9998 12.8809V18.0001C16.9998 18.9192 16.2523 19.6667 15.3332 19.6667H13.6665V18.8334H10.3332V21.3334H15.3332C17.1715 21.3334 18.6665 19.8384 18.6665 18.0001C19.5857 18.0001 20.3332 17.3059 20.3332 16.4526V13.0001C20.3332 8.40508 16.5948 4.66675 11.9998 4.66675Z" />
<path d="M11.9998 4.66675C7.40484 4.66675 3.6665 8.40508 3.6665 13.0001V16.4526C3.6665 17.3059 4.414 18.0001 5.33317 18.0001H6.1665C6.38752 18.0001 6.59948 17.9123 6.75576 17.756C6.91204 17.5997 6.99984 17.3878 6.99984 17.1667V12.8809C6.99984 12.6599 6.91204 12.4479 6.75576 12.2917C6.59948 12.1354 6.38752 12.0476 6.1665 12.0476H5.40984C5.87317 8.82258 8.64817 6.33341 11.9998 6.33341C15.3515 6.33341 18.1265 8.82258 18.5898 12.0476H17.8332C17.6122 12.0476 17.4002 12.1354 17.2439 12.2917C17.0876 12.4479 16.9998 12.6599 16.9998 12.8809V18.0001C16.9998 18.9192 16.2523 19.6667 15.3332 19.6667H13.6665V18.8334H10.3332V21.3334H15.3332C17.1715 21.3334 18.6665 19.8384 18.6665 18.0001C19.5857 18.0001 20.3332 17.3059 20.3332 16.4526V13.0001C20.3332 8.40508 16.5948 4.66675 11.9998 4.66675Z"  fill-opacity="0.2"/>
</svg>
