<svg width="20" height="20" viewBox="0 0 20 20" fill="none" xmlns="http://www.w3.org/2000/svg">
<g clip-path="url(#clip0_2372_28081)">
<path d="M10 1.66699C14.6025 1.66699 18.3334 5.39783 18.3334 10.0003C18.3334 14.6028 14.6025 18.3337 10 18.3337C5.39752 18.3337 1.66669 14.6028 1.66669 10.0003C1.66669 5.39783 5.39752 1.66699 10 1.66699ZM10 5.00033C9.77901 5.00033 9.56705 5.08812 9.41076 5.2444C9.25448 5.40068 9.16669 5.61264 9.16669 5.83366V10.0003C9.16673 10.2213 9.25456 10.4332 9.41085 10.5895L11.9109 13.0895C12.068 13.2413 12.2785 13.3253 12.497 13.3234C12.7155 13.3215 12.9245 13.2338 13.079 13.0793C13.2335 12.9248 13.3212 12.7158 13.3231 12.4973C13.325 12.2788 13.241 12.0683 13.0892 11.9112L10.8334 9.65533V5.83366C10.8334 5.61264 10.7456 5.40068 10.5893 5.2444C10.433 5.08812 10.221 5.00033 10 5.00033Z" />
</g>
<defs>
<clipPath id="clip0_2372_28081">
<rect width="20" height="20" fill="white"/>
</clipPath>
</defs>
</svg>
