<svg width="19" height="16" viewBox="0 0 19 16" fill="none" xmlns="http://www.w3.org/2000/svg">
<path d="M8.03441 11.2083C8.41635 11.5902 8.8976 11.7699 9.47816 11.7473C10.0587 11.7247 10.4789 11.5145 10.7386 11.1166L15.8719 3.41663L8.17191 8.54996C7.77469 8.82496 7.55713 9.24113 7.51924 9.79846C7.48135 10.3558 7.65307 10.8257 8.03441 11.2083ZM3.13024 15.3333C2.79413 15.3333 2.48491 15.2606 2.20257 15.1151C1.92024 14.9697 1.69474 14.7521 1.52607 14.4625C1.12885 13.7444 0.823296 12.9998 0.609407 12.2285C0.395519 11.4573 0.288574 10.6589 0.288574 9.83329C0.288574 8.56524 0.529352 7.37357 1.01091 6.25829C1.49246 5.14301 2.14544 4.17288 2.96982 3.34788C3.79482 2.52288 4.76496 1.8699 5.88024 1.38896C6.99552 0.908015 8.18719 0.667237 9.45524 0.666626C10.708 0.666626 11.8844 0.903432 12.9844 1.37704C14.0844 1.85065 15.0469 2.49629 15.8719 3.31396C16.6969 4.13101 17.3539 5.08588 17.8427 6.17854C18.3316 7.27121 18.5837 8.44363 18.599 9.69579C18.6143 10.5361 18.5189 11.3574 18.313 12.1598C18.107 12.9622 17.7899 13.7297 17.3615 14.4625C17.1934 14.7527 16.9682 14.9706 16.6859 15.116C16.4036 15.2615 16.0937 15.3339 15.7564 15.3333H3.13024Z" />
</svg>
