<svg width="24" height="24" viewBox="0 0 24 24" fill="none" xmlns="http://www.w3.org/2000/svg">
<path d="M12 18C12.4333 18 12.7917 17.8583 13.075 17.575C13.3583 17.2917 13.5 16.9333 13.5 16.5C13.5 16.0667 13.3583 15.7083 13.075 15.425C12.7917 15.1417 12.4333 15 12 15C11.5667 15 11.2083 15.1417 10.925 15.425C10.6417 15.7083 10.5 16.0667 10.5 16.5C10.5 16.9333 10.6417 17.2917 10.925 17.575C11.2083 17.8583 11.5667 18 12 18ZM12 13.5C12.4333 13.5 12.7917 13.3583 13.075 13.075C13.3583 12.7917 13.5 12.4333 13.5 12C13.5 11.5667 13.3583 11.2083 13.075 10.925C12.7917 10.6417 12.4333 10.5 12 10.5C11.5667 10.5 11.2083 10.6417 10.925 10.925C10.6417 11.2083 10.5 11.5667 10.5 12C10.5 12.4333 10.6417 12.7917 10.925 13.075C11.2083 13.3583 11.5667 13.5 12 13.5ZM12 9C12.4333 9 12.7917 8.85833 13.075 8.575C13.3583 8.29167 13.5 7.93333 13.5 7.5C13.5 7.06667 13.3583 6.70833 13.075 6.425C12.7917 6.14167 12.4333 6 12 6C11.5667 6 11.2083 6.14167 10.925 6.425C10.6417 6.70833 10.5 7.06667 10.5 7.5C10.5 7.93333 10.6417 8.29167 10.925 8.575C11.2083 8.85833 11.5667 9 12 9ZM7 21V18.85C6.15 18.6167 5.43767 18.15 4.863 17.45C4.28833 16.75 4.00067 15.9333 4 15H7V13.85C6.15 13.6167 5.43767 13.15 4.863 12.45C4.28833 11.75 4.00067 10.9333 4 10H7V8.85C6.15 8.61667 5.43767 8.15 4.863 7.45C4.28833 6.75 4.00067 5.93333 4 5H7V3H17V5H20C20 5.93333 19.7127 6.75 19.138 7.45C18.5633 8.15 17.8507 8.61667 17 8.85V10H20C20 10.9333 19.7127 11.75 19.138 12.45C18.5633 13.15 17.8507 13.6167 17 13.85V15H20C20 15.9333 19.7127 16.75 19.138 17.45C18.5633 18.15 17.8507 18.6167 17 18.85V21H7Z" fill="#125cc6"/>
</svg>
