<svg width="108" height="68" viewBox="0 0 108 68" fill="none" xmlns="http://www.w3.org/2000/svg">
<path d="M25.4054 7.38947H22C20.8954 7.38947 20 8.28491 20 9.38948V64C20 65.1046 20.8954 66 22 66H61.9189C63.0235 66 63.9189 65.1046 63.9189 64V61.9579M25.4054 7.38947H61.9189C63.0235 7.38947 63.9189 8.2849 63.9189 9.38947V61.9579M25.4054 7.38947V4C25.4054 2.89543 26.3008 2 27.4054 2H68C69.1046 2 70 2.89543 70 4V59.9579C70 61.0625 69.1046 61.9579 68 61.9579H63.9189M59.8649 61.9579H30.1351" stroke="#113870" stroke-width="2"/>
<path d="M23.8562 43.6885H37.3529" stroke="#29A7E4" stroke-width="2.2" stroke-linecap="round"/>
<path d="M23.8562 54.3552H37.3529" stroke="#29A7E4" stroke-width="2.2" stroke-linecap="round"/>
<path d="M23.8562 39.9258H37.3529" stroke="#29A7E4" stroke-width="2.2" stroke-linecap="round"/>
<path d="M23.8562 50.5925H37.3529" stroke="#29A7E4" stroke-width="2.2" stroke-linecap="round"/>
<path d="M48.7153 58.4368C55.1079 58.0857 68.9391 55.6978 73.1234 48.9554C77.3076 42.2131 78.9348 34.9089 79.2254 32.0996" stroke="white" stroke-width="3.2"/>
<path d="M48.7153 58.437C55.0858 58.0737 68.8692 55.6035 73.0389 48.6286C77.2087 41.6538 77.1411 33.1247 77.4307 30.2185" stroke="#113870" stroke-width="1.2" stroke-linecap="round" stroke-dasharray="2 2"/>
<path d="M49.0373 39.9258C51.9777 39.9258 54.3706 42.3187 54.3706 45.2591C54.3706 50.9267 49.0373 54.148 49.0373 54.148C49.0373 54.148 43.7039 50.9249 43.7039 45.2591C43.7039 42.3187 46.0968 39.9258 49.0373 39.9258ZM49.0373 47.9258C49.3876 47.9257 49.7344 47.8565 50.058 47.7224C50.3816 47.5882 50.6756 47.3916 50.9233 47.1438C51.1709 46.8961 51.3673 46.6019 51.5012 46.2782C51.6352 45.9545 51.7041 45.6076 51.7039 45.2573C51.7038 44.907 51.6347 44.5602 51.5005 44.2366C51.3664 43.913 51.1698 43.619 50.922 43.3713C50.6742 43.1237 50.3801 42.9273 50.0564 42.7934C49.7327 42.6594 49.3858 42.5906 49.0355 42.5907C48.328 42.5909 47.6496 42.8722 47.1495 43.3726C46.6494 43.873 46.3686 44.5516 46.3688 45.2591C46.3691 45.9666 46.6503 46.645 47.1508 47.1451C47.6512 47.6452 48.3298 47.926 49.0373 47.9258Z" fill="#113870"/>
<path d="M78 13C80.7567 13 83 15.1872 83 17.875C83 23.0555 78 26 78 26C78 26 73 23.0539 73 17.875C73 15.1872 75.2433 13 78 13ZM78 20.3125C78.3284 20.3124 78.6536 20.2492 78.957 20.1266C79.2603 20.0039 79.536 19.8243 79.7681 19.5978C80.0003 19.3713 80.1844 19.1024 80.31 18.8065C80.4355 18.5107 80.5001 18.1936 80.5 17.8734C80.4999 17.5532 80.4351 17.2361 80.3093 16.9403C80.1835 16.6445 79.9992 16.3758 79.7669 16.1495C79.5346 15.9231 79.2589 15.7436 78.9554 15.6212C78.652 15.4987 78.3267 15.4358 77.9983 15.4359C77.3351 15.4361 76.6991 15.6932 76.2302 16.1506C75.7614 16.608 75.4981 17.2283 75.4983 17.875C75.4986 18.5217 75.7622 19.1418 76.2314 19.5989C76.7006 20.056 77.3367 20.3127 78 20.3125Z" fill="#113870"/>
<path d="M78 14C79.654 14 81 15.346 81 17C81 20.188 78 22 78 22C78 22 75 20.187 75 17C75 15.346 76.346 14 78 14ZM78 18.5C78.197 18.4999 78.3922 18.4611 78.5742 18.3856C78.7562 18.3101 78.9216 18.1995 79.0609 18.0602C79.2002 17.9208 79.3106 17.7553 79.386 17.5733C79.4613 17.3912 79.5001 17.196 79.5 16.999C79.4999 16.802 79.4611 16.6068 79.3856 16.4248C79.3101 16.2428 79.1995 16.0774 79.0602 15.9381C78.9208 15.7988 78.7553 15.6884 78.5733 15.613C78.3912 15.5377 78.196 15.4989 77.999 15.499C77.601 15.4991 77.2194 15.6573 76.9381 15.9388C76.6568 16.2203 76.4989 16.602 76.499 17C76.4991 17.398 76.6573 17.7796 76.9388 18.0609C77.2203 18.3422 77.602 18.5001 78 18.5Z" fill="#113870"/>
<rect x="29" y="60" width="31" height="4" fill="white"/>
<path d="M41.0348 60.7778H39.7166L41.7251 54.9597H43.3103L45.316 60.7778H43.9978L42.5405 56.2892H42.495L41.0348 60.7778ZM40.9524 58.4909H44.066V59.4511H40.9524V58.4909Z" fill="#113870"/>
<path d="M83.0462 31.1482V25.33H85.3758C85.8038 25.33 86.1608 25.3935 86.4468 25.5204C86.7328 25.6472 86.9477 25.8234 87.0917 26.0488C87.2356 26.2722 87.3076 26.5298 87.3076 26.8215C87.3076 27.0488 87.2621 27.2486 87.1712 27.4209C87.0803 27.5914 86.9553 27.7315 86.7962 27.8414C86.639 27.9493 86.4591 28.026 86.2564 28.0715V28.1283C86.478 28.1378 86.6854 28.2003 86.8786 28.3158C87.0737 28.4313 87.2318 28.5933 87.353 28.8016C87.4743 29.008 87.5349 29.2543 87.5349 29.5402C87.5349 29.849 87.4582 30.1245 87.3047 30.3669C87.1532 30.6075 86.9288 30.7978 86.6314 30.938C86.3341 31.0781 85.9676 31.1482 85.532 31.1482H83.0462ZM84.2763 30.1425H85.2792C85.622 30.1425 85.872 30.0772 86.0292 29.9465C86.1864 29.8139 86.265 29.6378 86.265 29.4181C86.265 29.2571 86.2261 29.115 86.1485 28.9919C86.0708 28.8688 85.96 28.7722 85.8161 28.7022C85.6741 28.6321 85.5046 28.5971 85.3076 28.5971H84.2763V30.1425ZM84.2763 27.7647H85.1883C85.3568 27.7647 85.5064 27.7353 85.6371 27.6766C85.7697 27.616 85.8739 27.5308 85.9496 27.4209C86.0273 27.3111 86.0661 27.1794 86.0661 27.026C86.0661 26.8158 85.9913 26.6463 85.8417 26.5175C85.6939 26.3887 85.4837 26.3243 85.211 26.3243H84.2763V27.7647Z" fill="#113870"/>
<path d="M29.6062 19.598V18.2727H36.5692V19.598H33.8718V27H32.3036V19.598H29.6062ZM37.9116 27V18.2727H41.1843C41.8548 18.2727 42.4173 18.3892 42.8718 18.6222C43.3292 18.8551 43.6744 19.1818 43.9073 19.6023C44.1431 20.0199 44.261 20.5071 44.261 21.0639C44.261 21.6236 44.1417 22.1094 43.9031 22.5213C43.6673 22.9304 43.3192 23.2472 42.859 23.4716C42.3988 23.6932 41.8335 23.804 41.163 23.804H38.832V22.4915H40.9499C41.342 22.4915 41.663 22.4375 41.913 22.3295C42.163 22.2187 42.3477 22.0582 42.467 21.848C42.5891 21.6349 42.6502 21.3736 42.6502 21.0639C42.6502 20.7543 42.5891 20.4901 42.467 20.2713C42.3448 20.0497 42.1587 19.8821 41.9087 19.7685C41.6587 19.652 41.3363 19.5938 40.9414 19.5938H39.4925V27H37.9116ZM42.4201 23.0455L44.5806 27H42.8164L40.6942 23.0455H42.4201ZM47.2972 18.2727V27H45.7163V18.2727H47.2972ZM49.0092 27V18.2727H52.282C52.9524 18.2727 53.5149 18.3977 53.9695 18.6477C54.4268 18.8977 54.772 19.2415 55.005 19.679C55.2408 20.1136 55.3587 20.608 55.3587 21.1619C55.3587 21.7216 55.2408 22.2187 55.005 22.6534C54.7692 23.0881 54.4212 23.4304 53.9609 23.6804C53.5007 23.9276 52.9339 24.0511 52.2607 24.0511H50.0916V22.7514H52.0476C52.4396 22.7514 52.7607 22.6832 53.0107 22.5469C53.2607 22.4105 53.4453 22.223 53.5646 21.9844C53.6868 21.7457 53.7479 21.4716 53.7479 21.1619C53.7479 20.8523 53.6868 20.5795 53.5646 20.3438C53.4453 20.108 53.2592 19.9247 53.0064 19.794C52.7564 19.6605 52.4339 19.5938 52.0391 19.5938H50.5902V27H49.0092Z" fill="#29A7E4"/>
</svg>
