<svg width="30" height="30" viewBox="0 0 30 30" fill="none" xmlns="http://www.w3.org/2000/svg">
<path d="M10.625 19.375C15.4575 19.375 19.375 15.4575 19.375 10.625C19.375 5.79251 15.4575 1.875 10.625 1.875C5.79251 1.875 1.875 5.79251 1.875 10.625C1.875 15.4575 5.79251 19.375 10.625 19.375Z" />
<path d="M10.625 17.5C14.422 17.5 17.5 14.422 17.5 10.625C17.5 6.82804 14.422 3.75 10.625 3.75C6.82804 3.75 3.75 6.82804 3.75 10.625C3.75 14.422 6.82804 17.5 10.625 17.5Z" fill="white"/>
<path d="M10 5H11.25V10.625H10V5Z" />
<path d="M14.1594 13.0962L13.0988 14.1568L10.0938 11.1524L11.1544 10.0918L14.1594 13.0962Z" />
<path d="M10.625 11.875C11.3154 11.875 11.875 11.3154 11.875 10.625C11.875 9.93464 11.3154 9.375 10.625 9.375C9.93464 9.375 9.375 9.93464 9.375 10.625C9.375 11.3154 9.93464 11.875 10.625 11.875Z" />
<path d="M10.5 12C11.3284 12 12 11.3284 12 10.5C12 9.67157 11.3284 9 10.5 9C9.67157 9 9 9.67157 9 10.5C9 11.3284 9.67157 12 10.5 12Z" />
<path d="M7.94861 26.5645L7.94865 26.5645L7.95267 26.5578L16.9504 11.4991C17.2333 11.0438 17.8382 11.1076 18.0343 11.472L18.0407 11.4838L18.0476 11.4953L27.0476 26.5578L27.0475 26.5578L27.0516 26.5645C27.2954 26.9607 26.9877 27.525 26.5001 27.525H8.50011C8.01248 27.525 7.70478 26.9607 7.94861 26.5645Z"  stroke="white" stroke-width="1.2"/>
<path d="M16.5 24.9375C16.5 24.8125 16.5 24.6875 16.5625 24.5625C16.625 24.4375 16.6875 24.375 16.75 24.25C16.8125 24.125 16.9375 24.125 17.0625 24.0625C17.1875 24 17.3125 24 17.4375 24C17.5625 24 17.75 24 17.875 24.0625C18 24.125 18.125 24.1875 18.1875 24.25C18.25 24.3125 18.3125 24.4375 18.375 24.5625C18.4375 24.6875 18.4375 24.8125 18.4375 24.9375C18.4375 25.0625 18.4375 25.1875 18.375 25.3125C18.3125 25.4375 18.25 25.5 18.1875 25.625C18.125 25.75 18 25.75 17.875 25.8125C17.75 25.875 17.625 25.875 17.4375 25.875C17.25 25.875 17.125 25.875 17.0625 25.8125C17 25.75 16.8125 25.6875 16.75 25.625C16.6875 25.5625 16.625 25.4375 16.5625 25.3125C16.5 25.1875 16.5 25.0625 16.5 24.9375ZM18.25 23H16.8125L16.5625 16.875H18.4375L18.25 23Z" fill="white"/>
</svg>
