<svg width="22" height="22" viewBox="0 0 22 22" fill="none" xmlns="http://www.w3.org/2000/svg">
<path d="M11 22C9.47833 22 8.04833 21.7111 6.71 21.1332C5.37167 20.5553 4.2075 19.7718 3.2175 18.7825C2.2275 17.7925 1.44393 16.6283 0.8668 15.29C0.289667 13.9517 0.000733333 12.5217 0 11C0 9.47833 0.288933 8.04833 0.8668 6.71C1.44467 5.37167 2.22823 4.2075 3.2175 3.2175C4.2075 2.2275 5.37167 1.44393 6.71 0.8668C8.04833 0.289667 9.47833 0.000733333 11 0C12.5217 0 13.9517 0.288933 15.29 0.8668C16.6283 1.44467 17.7925 2.22823 18.7825 3.2175C19.7725 4.2075 20.5564 5.37167 21.1343 6.71C21.7122 8.04833 22.0007 9.47833 22 11C22 12.5217 21.7111 13.9517 21.1332 15.29C20.5553 16.6283 19.7718 17.7925 18.7825 18.7825C17.7925 19.7725 16.6283 20.5564 15.29 21.1343C13.9517 21.7122 12.5217 22.0007 11 22ZM11 17.05C11.825 16.225 12.5583 15.3725 13.2 14.4925C13.75 13.7408 14.2542 12.9158 14.7125 12.0175C15.1708 11.1192 15.4 10.23 15.4 9.35C15.4 8.14 14.9692 7.10417 14.1075 6.2425C13.2458 5.38083 12.21 4.95 11 4.95C9.79 4.95 8.75417 5.38083 7.8925 6.2425C7.03083 7.10417 6.6 8.14 6.6 9.35C6.6 10.23 6.82917 11.1192 7.2875 12.0175C7.74583 12.9158 8.25 13.7408 8.8 14.4925C9.44167 15.3725 10.175 16.225 11 17.05ZM11 11C10.5417 11 10.1523 10.8398 9.8318 10.5193C9.51133 10.1988 9.35073 9.80907 9.35 9.35C9.35 8.89167 9.5106 8.50227 9.8318 8.1818C10.153 7.86133 10.5424 7.70073 11 7.7C11.4583 7.7 11.8481 7.8606 12.1693 8.1818C12.4905 8.503 12.6507 8.8924 12.65 9.35C12.65 9.80833 12.4898 10.1981 12.1693 10.5193C11.8488 10.8405 11.4591 11.0007 11 11Z" />
</svg>
