<svg width="30" height="25" viewBox="0 0 30 25" fill="none" xmlns="http://www.w3.org/2000/svg">
<path d="M0 3.25C0 2.58696 0.263392 1.95107 0.732233 1.48223C1.20107 1.01339 1.83696 0.75 2.5 0.75H16.25C16.913 0.75 17.5489 1.01339 18.0178 1.48223C18.4866 1.95107 18.75 2.58696 18.75 3.25V5.75H16.25V3.25H2.5V12H10V14.5H2.5V19.5H10V22H6.7675L4.375 24.3925L2.6075 22.625L3.2325 22H2.5C1.83696 22 1.20107 21.7366 0.732233 21.2678C0.263392 20.7989 0 20.163 0 19.5V3.25ZM14.1537 7H27.0963L30 14.2588V23.875H27.5V22H13.75V23.875H11.25V14.2588L14.1537 7ZM13.75 19.5H27.5V14.7413L27.4038 14.5H13.8462L13.75 14.7413V19.5ZM14.8462 12H26.4037L25.4037 9.5H15.8463L14.8462 12ZM3.75 15.75H6.255V18.255H3.75V15.75ZM15 15.75H17.505V18.255H15V15.75ZM23.75 15.75H26.255V18.255H23.75V15.75Z" />
</svg>
