<svg width="29" height="29" viewBox="0 0 29 29" fill="none" xmlns="http://www.w3.org/2000/svg">
<path d="M5.68787 1.42188C6.20548 1.42188 6.69181 1.55981 7.10987 1.80297C7.54221 1.55336 8.03264 1.42195 8.53186 1.42195C9.03108 1.42194 9.5215 1.55335 9.95384 1.80295C10.3862 2.05256 10.7452 2.41157 10.9948 2.8439C11.2444 3.27623 11.3759 3.76665 11.3759 4.26588V5.68788H12.0869C12.2754 5.68788 12.4563 5.76278 12.5896 5.89612C12.723 6.02946 12.7979 6.21031 12.7979 6.39888V12.7979C12.7979 13.5522 12.4982 14.2755 11.9649 14.8089C11.4315 15.3422 10.7081 15.6419 9.95387 15.6419H4.26587C3.5116 15.6419 2.78822 15.3422 2.25486 14.8089C1.72151 14.2755 1.42188 13.5522 1.42188 12.7979V6.39888C1.42188 6.21031 1.49678 6.02946 1.63012 5.89612C1.76346 5.76278 1.94431 5.68788 2.13287 5.68788H2.84387V4.26588C2.84387 3.5116 3.14351 2.78822 3.67686 2.25486C4.21022 1.72151 4.9336 1.42188 5.68787 1.42188ZM4.26587 5.68788H7.10987V4.26588C7.10987 3.88874 6.96006 3.52705 6.69338 3.26037C6.4267 2.99369 6.06501 2.84388 5.68787 2.84388C5.31074 2.84388 4.94905 2.99369 4.68237 3.26037C4.41569 3.52705 4.26587 3.88874 4.26587 4.26588V5.68788ZM8.53187 4.26588V5.68788H9.95387V4.26588C9.95404 4.04876 9.90448 3.83449 9.80901 3.6395C9.71354 3.4445 9.57469 3.27396 9.40309 3.14094C9.2315 3.00792 9.03173 2.91596 8.81909 2.87211C8.60645 2.82826 8.38659 2.83368 8.17637 2.88796C8.40389 3.29607 8.53187 3.76675 8.53187 4.26588ZM12.7979 4.38675V4.26588H17.4194C18.7944 4.26588 19.9079 5.38072 19.9079 6.75437V8.53188H21.1621C21.5584 8.53189 21.9469 8.64233 22.284 8.8508C22.621 9.05927 22.8934 9.35754 23.0704 9.71214L25.3712 14.3123C25.5194 14.6081 25.5968 14.9342 25.5973 15.265V20.6189C25.5973 21.1846 25.3726 21.7271 24.9726 22.1271C24.5725 22.5271 24.03 22.7519 23.4643 22.7519H21.2602C21.097 23.5555 20.661 24.278 20.0261 24.797C19.3912 25.3159 18.5963 25.5994 17.7763 25.5994C16.9563 25.5994 16.1614 25.3159 15.5265 24.797C14.8916 24.278 14.4556 23.5555 14.2924 22.7519H12.7282C12.565 23.5555 12.129 24.278 11.4941 24.797C10.8592 25.3159 10.0643 25.5994 9.2443 25.5994C8.42426 25.5994 7.62944 25.3159 6.99451 24.797C6.35958 24.278 5.92358 23.5555 5.7604 22.7519H5.3921C4.73211 22.7519 4.09915 22.4897 3.63246 22.023C3.16578 21.5563 2.9036 20.9234 2.9036 20.2634V16.842C3.33162 16.9857 3.7895 17.0639 4.26587 17.0639H9.95387C11.0853 17.0639 12.1704 16.6144 12.9704 15.8144C13.7704 15.0144 14.2199 13.9293 14.2199 12.7979V6.39888C14.2201 5.95759 14.0835 5.5271 13.8288 5.16673C13.5741 4.80635 13.2139 4.53384 12.7979 4.38675ZM19.9079 9.95388V14.2199H23.7359L21.7991 10.3463C21.74 10.2284 21.6493 10.1292 21.537 10.0599C21.4248 9.99059 21.2954 9.95388 21.1635 9.95388H19.9079ZM9.24287 19.9079C8.67717 19.9079 8.13463 20.1326 7.73462 20.5326C7.3346 20.9326 7.10987 21.4752 7.10987 22.0409C7.10987 22.6066 7.3346 23.1491 7.73462 23.5491C8.13463 23.9491 8.67717 24.1739 9.24287 24.1739C9.80858 24.1739 10.3511 23.9491 10.7511 23.5491C11.1511 23.1491 11.3759 22.6066 11.3759 22.0409C11.3759 21.4752 11.1511 20.9326 10.7511 20.5326C10.3511 20.1326 9.80858 19.9079 9.24287 19.9079ZM15.6419 22.0409C15.6419 22.321 15.697 22.5984 15.8042 22.8571C15.9114 23.1159 16.0685 23.3511 16.2666 23.5491C16.4647 23.7472 16.6998 23.9043 16.9586 24.0115C17.2174 24.1187 17.4948 24.1739 17.7749 24.1739C18.055 24.1739 18.3323 24.1187 18.5911 24.0115C18.8499 23.9043 19.0851 23.7472 19.2831 23.5491C19.4812 23.3511 19.6383 23.1159 19.7455 22.8571C19.8527 22.5984 19.9079 22.321 19.9079 22.0409C19.9079 21.4752 19.6831 20.9326 19.2831 20.5326C18.8831 20.1326 18.3406 19.9079 17.7749 19.9079C17.2092 19.9079 16.6666 20.1326 16.2666 20.5326C15.8666 20.9326 15.6419 21.4752 15.6419 22.0409Z" />
</svg>
