<svg width="21" height="21" viewBox="0 0 21 21" fill="none" xmlns="http://www.w3.org/2000/svg">
<g clip-path="url(#clip0_1413_12559)">
<path d="M19.2046 8.68286H18.1268V5.90508C18.1268 5.75774 18.0683 5.61643 17.9641 5.51224C17.8599 5.40805 17.7186 5.34952 17.5713 5.34952H4.23796C4.09061 5.34952 3.94931 5.29099 3.84512 5.1868C3.74093 5.08262 3.6824 4.94131 3.6824 4.79397C3.6824 4.64662 3.74093 4.50532 3.84512 4.40113C3.94931 4.29694 4.09061 4.23841 4.23796 4.23841H17.3491C17.4964 4.23841 17.6377 4.17988 17.7419 4.07569C17.8461 3.97151 17.9046 3.8302 17.9046 3.68286C17.9046 3.53551 17.8461 3.39421 17.7419 3.29002C17.6377 3.18583 17.4964 3.1273 17.3491 3.1273H4.23796C4.02345 3.12288 3.81018 3.16076 3.61032 3.23878C3.41046 3.3168 3.22793 3.43344 3.07315 3.58202C2.91838 3.7306 2.7944 3.90822 2.70829 4.10473C2.62217 4.30124 2.57562 4.51279 2.57129 4.7273V16.394C2.57202 16.6957 2.63227 16.9944 2.7486 17.2729C2.86492 17.5513 3.03504 17.8041 3.24921 18.0167C3.46337 18.2293 3.71737 18.3976 3.99667 18.5119C4.27597 18.6262 4.57507 18.6843 4.87684 18.6829H17.5713C17.7186 18.6829 17.8599 18.6243 17.9641 18.5201C18.0683 18.4159 18.1268 18.2746 18.1268 18.1273V15.3495H19.2046C19.2747 15.3548 19.3452 15.3458 19.4117 15.3229C19.4782 15.3 19.5393 15.2638 19.5913 15.2165C19.6434 15.1691 19.6852 15.1117 19.7142 15.0476C19.7432 14.9836 19.7589 14.9143 19.7602 14.844V9.28841C19.762 9.13573 19.7056 8.9881 19.6023 8.87559C19.4991 8.76308 19.3569 8.69415 19.2046 8.68286ZM18.6824 14.2384H13.9157C13.3464 14.2181 12.8084 13.9727 12.4198 13.5561C12.0313 13.1394 11.824 12.5856 11.8435 12.0162C11.824 11.4468 12.0313 10.893 12.4198 10.4763C12.8084 10.0597 13.3464 9.81424 13.9157 9.79397H18.6824V14.2384Z" />
<path d="M14.2611 12.8053C14.7213 12.8053 15.0944 12.4322 15.0944 11.972C15.0944 11.5118 14.7213 11.1387 14.2611 11.1387C13.8008 11.1387 13.4277 11.5118 13.4277 11.972C13.4277 12.4322 13.8008 12.8053 14.2611 12.8053Z" />
</g>
<defs>
<clipPath id="clip0_1413_12559">
<rect width="20" height="20" fill="white" transform="translate(0.904297 0.904297)"/>
</clipPath>
</defs>
</svg>
