<svg width="24" height="24" viewBox="0 0 24 24" fill="none" xmlns="http://www.w3.org/2000/svg">
<path d="M6.00762 23.1878C5.88118 23.1243 5.78206 23.0171 5.72862 22.8861C5.67518 22.7551 5.67105 22.6091 5.717 22.4753L6.47075 20.2684L7.94637 21.2641L6.75387 22.9966C6.67339 23.113 6.55358 23.1965 6.41647 23.2316C6.27937 23.2667 6.13418 23.2512 6.00762 23.1878ZM17.8801 23.1878C18.1407 23.0566 18.2664 22.7528 18.1707 22.4753L17.4076 20.2422L15.8532 21.1366L17.1339 22.9966C17.2143 23.113 17.3342 23.1965 17.4713 23.2316C17.6084 23.2667 17.7536 23.2512 17.8801 23.1878Z" fill="#82AEC0"/>
<path d="M6.47056 20.2684L6.08618 21.3934C6.32431 21.2565 6.63556 21.2696 6.88306 21.3915C7.13056 21.5134 7.31993 21.7271 7.46431 21.9634L7.90118 21.3296C7.90118 21.3034 6.47056 20.2684 6.47056 20.2684ZM17.4131 20.2402L17.8293 21.4777C17.5912 21.3409 17.3062 21.3446 17.0568 21.4665C16.8093 21.5884 16.6199 21.8021 16.4756 22.0384L15.9037 21.2077L17.4131 20.2402Z" fill="#2F7889"/>
<path d="M11.9438 21.7391C16.294 21.7391 19.8206 18.2125 19.8206 13.8622C19.8206 9.51195 16.294 5.98535 11.9438 5.98535C7.59349 5.98535 4.06689 9.51195 4.06689 13.8622C4.06689 18.2125 7.59349 21.7391 11.9438 21.7391Z" fill="#FFEFA1"/>
<path d="M11.9437 22.4211C17.0551 22.4211 21.1987 18.2775 21.1987 13.1661C21.1987 8.05474 17.0551 3.91113 11.9437 3.91113C6.83233 3.91113 2.68872 8.05474 2.68872 13.1661C2.68872 18.2775 6.83233 22.4211 11.9437 22.4211Z" fill="#CC2929"/>
<path d="M11.9437 22.3316C16.7485 22.3316 20.6437 18.4365 20.6437 13.6316C20.6437 8.82676 16.7485 4.93164 11.9437 4.93164C7.13878 4.93164 3.24365 8.82676 3.24365 13.6316C3.24365 18.4365 7.13878 22.3316 11.9437 22.3316Z" fill="#FF4638"/>
<path d="M11.9439 21.1372C16.0891 21.1372 19.4495 17.7768 19.4495 13.6316C19.4495 9.48636 16.0891 6.12598 11.9439 6.12598C7.79861 6.12598 4.43823 9.48636 4.43823 13.6316C4.43823 17.7768 7.79861 21.1372 11.9439 21.1372Z" fill="#FAFAFA"/>
<path d="M11.9999 14.4656C12.4607 14.4656 12.8343 14.0921 12.8343 13.6312C12.8343 13.1704 12.4607 12.7969 11.9999 12.7969C11.5391 12.7969 11.1655 13.1704 11.1655 13.6312C11.1655 14.0921 11.5391 14.4656 11.9999 14.4656Z" fill="#563428"/>
<path d="M11.9437 7.98172C11.7918 7.98172 11.668 7.85797 11.668 7.70609V6.88109C11.668 6.72922 11.7918 6.60547 11.9437 6.60547C12.0955 6.60547 12.2193 6.72922 12.2193 6.88109V7.70609C12.2193 7.85797 12.0955 7.98172 11.9437 7.98172ZM11.9437 20.6548C11.7918 20.6548 11.668 20.5311 11.668 20.3792V19.5542C11.668 19.4023 11.7918 19.2786 11.9437 19.2786C12.0955 19.2786 12.2193 19.4023 12.2193 19.5542V20.3792C12.2193 20.5311 12.0955 20.6548 11.9437 20.6548ZM18.6918 13.9048H17.8668C17.7149 13.9048 17.5912 13.7811 17.5912 13.6292C17.5912 13.4773 17.7149 13.3536 17.8668 13.3536H18.6918C18.8437 13.3536 18.9674 13.4773 18.9674 13.6292C18.9674 13.783 18.8437 13.9048 18.6918 13.9048ZM6.02055 13.9048H5.19555C5.04367 13.9048 4.91992 13.7811 4.91992 13.6292C4.91992 13.4773 5.04367 13.3536 5.19555 13.3536H6.02055C6.17242 13.3536 6.29617 13.4773 6.29617 13.6292C6.29617 13.783 6.17242 13.9048 6.02055 13.9048Z" fill="#B2947C"/>
<path d="M11.9438 7.98172C11.792 7.98172 11.6682 7.85797 11.6682 7.70609V6.88109C11.6682 6.72922 11.792 6.60547 11.9438 6.60547C12.0957 6.60547 12.2195 6.72922 12.2195 6.88109V7.70609C12.2195 7.85797 12.0957 7.98172 11.9438 7.98172ZM11.9438 20.6548C11.792 20.6548 11.6682 20.5311 11.6682 20.3792V19.5542C11.6682 19.4023 11.792 19.2786 11.9438 19.2786C12.0957 19.2786 12.2195 19.4023 12.2195 19.5542V20.3792C12.2195 20.5311 12.0957 20.6548 11.9438 20.6548ZM8.74322 8.63797L8.33072 7.92359C8.25384 7.79234 8.29884 7.62359 8.43197 7.54672C8.56322 7.46984 8.73197 7.51484 8.80884 7.64797L9.22134 8.36234C9.29822 8.49359 9.25322 8.66234 9.12009 8.73922C8.98884 8.81422 8.82009 8.76922 8.74322 8.63797ZM15.0807 19.6123L14.6682 18.898C14.5913 18.7667 14.6382 18.598 14.7695 18.5211C14.9007 18.4442 15.0695 18.4911 15.1463 18.6223L15.5588 19.3367C15.6357 19.468 15.5888 19.6367 15.4576 19.7136C15.3245 19.7886 15.1557 19.7436 15.0807 19.6123Z" fill="#B2947C"/>
<path d="M8.74319 8.63852L8.33069 7.92414C8.25381 7.79289 8.29881 7.62414 8.43194 7.54727C8.56319 7.47039 8.73194 7.51539 8.80881 7.64852L9.22131 8.36289C9.29819 8.49414 9.25319 8.66289 9.12006 8.73977C8.98881 8.81477 8.82006 8.76977 8.74319 8.63852ZM15.0807 19.6129L14.6682 18.8985C14.5913 18.7673 14.6382 18.5985 14.7694 18.5216C14.9007 18.4448 15.0694 18.4916 15.1463 18.6229L15.5588 19.3373C15.6357 19.4685 15.5888 19.6373 15.4576 19.7141C15.3244 19.7891 15.1557 19.7441 15.0807 19.6129ZM6.67694 10.9073L5.96256 10.4948C5.83131 10.4179 5.78631 10.251 5.86131 10.1179C5.93819 9.98664 6.10506 9.94164 6.23819 10.0166L6.95256 10.4291C7.08381 10.506 7.12881 10.6729 7.05381 10.806C6.97694 10.9391 6.80819 10.9841 6.67694 10.9073ZM17.6513 17.2429L16.9369 16.8304C16.8057 16.7535 16.7607 16.5866 16.8357 16.4535C16.9126 16.3223 17.0794 16.2773 17.2126 16.3523L17.9269 16.7648C18.0582 16.8416 18.1032 17.0085 18.0282 17.1416C17.9513 17.2748 17.7826 17.3198 17.6513 17.2429ZM14.7676 8.73977C14.6363 8.66289 14.5913 8.49602 14.6663 8.36289L15.0788 7.64852C15.1557 7.51727 15.3226 7.47227 15.4557 7.54727C15.5869 7.62414 15.6319 7.79102 15.5569 7.92414L15.1444 8.63852C15.0676 8.76977 14.9007 8.81477 14.7676 8.73977ZM8.43194 19.7141C8.30069 19.6373 8.25569 19.4704 8.33069 19.3373L8.74319 18.6229C8.82006 18.4916 8.98694 18.4466 9.12006 18.5216C9.25131 18.5985 9.29631 18.7654 9.22131 18.8985L8.80881 19.6129C8.73194 19.7441 8.56319 19.7891 8.43194 19.7141ZM16.8357 10.806C16.7588 10.6748 16.8038 10.506 16.9369 10.4291L17.6513 10.0166C17.7826 9.93977 17.9513 9.98664 18.0282 10.1179C18.1051 10.2491 18.0582 10.4179 17.9269 10.4948L17.2126 10.9073C17.0794 10.9841 16.9107 10.9391 16.8357 10.806ZM5.86131 17.1435C5.78444 17.0123 5.83131 16.8435 5.96256 16.7666L6.67694 16.3541C6.80819 16.2773 6.97694 16.3241 7.05381 16.4554C7.13069 16.5866 7.08381 16.7554 6.95256 16.8323L6.23819 17.2448C6.10506 17.3198 5.93631 17.2748 5.86131 17.1435Z" fill="#B2947C"/>
<path d="M8.9043 11.9043L11.9437 13.6312" stroke="#563428" stroke-miterlimit="10" stroke-linecap="round"/>
<path d="M16.2881 11.1396L12.0825 13.6315" stroke="#563428" stroke-miterlimit="10" stroke-linecap="round"/>
<path d="M17.2482 6.09145L16.4719 5.58332L19.1138 0.90332L19.92 1.35895L17.2482 6.09145Z" fill="#82AEC0"/>
<path d="M20.8443 6.60211C21.0749 6.66961 21.3224 6.54211 21.3937 6.31336C22.0012 4.37274 21.2137 2.26149 19.3087 1.28086C17.3905 0.292737 15.3074 0.941487 14.0943 2.59711C13.9574 2.78274 13.9893 3.04336 14.1618 3.19524C14.5537 3.54211 15.4237 4.19461 17.158 5.07211C18.9899 5.99836 20.2462 6.42586 20.8443 6.60211Z" fill="#CC2929"/>
<path d="M19.8468 1.9315C19.8468 1.9315 20.3361 1.30713 19.6255 0.911504C19.0724 0.604004 18.7218 1.27713 18.7218 1.27713C18.5999 1.50025 19.7624 2.08525 19.8468 1.9315ZM6.68051 6.09775L4.00488 1.35963L4.81301 0.904004L7.41176 5.509L6.68051 6.09775Z" fill="#82AEC0"/>
<path d="M3.15554 6.60211C2.92491 6.66961 2.67741 6.54211 2.60616 6.31336C1.99866 4.37274 2.78616 2.26149 4.69116 1.28086C6.60929 0.292737 8.69241 0.941487 9.90554 2.59711C10.0424 2.78274 10.0105 3.04336 9.83804 3.19524C9.44616 3.54211 8.57617 4.19461 6.84179 5.07211C5.00991 5.99836 3.75366 6.42586 3.15554 6.60211Z" fill="#CC2929"/>
<path d="M4.15303 1.9315C4.15303 1.9315 3.66366 1.30713 4.37428 0.911504C4.92741 0.604004 5.27803 1.27713 5.27803 1.27713C5.3999 1.50025 4.23741 2.08525 4.15303 1.9315Z" fill="#82AEC0"/>
<path d="M11.9438 4.35375V1.78125" stroke="#82AEC0" stroke-width="3.706" stroke-miterlimit="10"/>
<path d="M11.955 2.69648C11.22 2.69648 10.4832 2.41523 10.4832 2.41523V1.85836C10.4832 1.85836 11.1675 1.55273 11.9907 1.55273C12.8138 1.55273 13.425 1.85836 13.425 1.85836V2.41523C13.4269 2.41711 12.6919 2.69648 11.955 2.69648Z" fill="#82AEC0"/>
<path d="M10.6687 1.83535C10.5881 1.86535 10.5806 1.97598 10.6556 2.0191C10.7643 2.08098 10.8937 2.14473 10.9387 2.13723C11.5574 2.0416 12.4556 2.08848 13.0762 2.18223C13.1193 2.18973 13.2431 2.08473 13.3312 2.00598C13.3799 1.96098 13.3687 1.8841 13.3087 1.85598C13.1137 1.76785 12.6731 1.61035 11.9906 1.61035C11.3606 1.61035 10.9049 1.74348 10.6687 1.83535Z" fill="#94D1E0"/>
<path d="M17.8237 1.48129C17.8819 1.68004 17.6681 1.84316 17.4956 1.95754C17.0607 2.24968 16.7113 2.65217 16.4831 3.12379C16.3744 3.34879 16.2525 3.62441 16.0031 3.66004C15.9037 3.67316 15.8062 3.64316 15.7125 3.60941C15.5681 3.55691 15.4275 3.49691 15.2906 3.42754C15.1275 3.34504 14.9606 3.24004 14.8856 3.07316C14.7881 2.85379 14.88 2.59504 15.0112 2.39254C15.3244 1.91441 15.8344 1.61816 16.3594 1.42316C16.6762 1.30504 17.6662 0.943163 17.8237 1.48129ZM4.89936 3.06191C5.02124 3.31504 5.15811 3.56066 5.30999 3.79691C5.49561 4.08566 5.71124 4.40816 5.63249 4.74191C5.54062 5.12441 5.11686 5.30816 4.74374 5.43566C4.55249 5.50129 4.36311 5.56691 4.17186 5.63254C4.07061 5.66816 3.96374 5.70379 3.85686 5.69816C3.68811 5.69066 3.53624 5.58379 3.44061 5.44691C3.34311 5.31004 3.29437 5.14504 3.25687 4.98191C3.11624 4.35379 3.14436 3.68816 3.33749 3.07316C3.44999 2.72066 3.62624 2.34941 4.02561 2.32129C4.51124 2.28754 4.71749 2.68316 4.89936 3.06191Z" fill="#FF4638"/>
</svg>
